<svg width="34" height="34" viewBox="0 0 34 34" fill="none" xmlns="http://www.w3.org/2000/svg">
<rect x="0.5" y="0.5" width="33" height="33" rx="16.5" stroke="#057CA2"/>
<path fill-rule="evenodd" clip-rule="evenodd" d="M17 6.5C17.9259 6.5 18.6765 7.2835 18.6765 8.25V15.25H24.8235C25.7494 15.25 26.5 16.0335 26.5 17C26.5 17.9665 25.7494 18.75 24.8235 18.75H18.6765V25.75C18.6765 26.7165 17.9259 27.5 17 27.5C16.0741 27.5 15.3235 26.7165 15.3235 25.75V18.75H9.17647C8.25058 18.75 7.5 17.9665 7.5 17C7.5 16.0335 8.25058 15.25 9.17647 15.25H15.3235V8.25C15.3235 7.2835 16.0741 6.5 17 6.5Z" fill="#FE9F06"/>
</svg>
