<svg width="446" height="156" viewBox="0 0 446 156" fill="none" xmlns="http://www.w3.org/2000/svg">
<rect y="16" width="446" height="20" fill="#D9D9D9"/>
<rect y="16" width="446" height="20" fill="#0055BF"/>
<path d="M18.4551 21.8906V29H17.5273V21.8906H18.4551ZM20.7402 21.8906V22.6621H15.2471V21.8906H20.7402ZM20.9307 26.417V26.3047C20.9307 25.9238 20.986 25.5706 21.0967 25.2451C21.2074 24.9163 21.3669 24.6315 21.5752 24.3906C21.7835 24.1465 22.0358 23.9577 22.332 23.8242C22.6283 23.6875 22.9603 23.6191 23.3281 23.6191C23.6992 23.6191 24.0329 23.6875 24.3291 23.8242C24.6286 23.9577 24.8825 24.1465 25.0908 24.3906C25.3024 24.6315 25.4635 24.9163 25.5742 25.2451C25.6849 25.5706 25.7402 25.9238 25.7402 26.3047V26.417C25.7402 26.7979 25.6849 27.151 25.5742 27.4766C25.4635 27.8021 25.3024 28.0869 25.0908 28.3311C24.8825 28.5719 24.6302 28.7607 24.334 28.8975C24.041 29.0309 23.709 29.0977 23.3379 29.0977C22.9668 29.0977 22.6331 29.0309 22.3369 28.8975C22.0407 28.7607 21.7868 28.5719 21.5752 28.3311C21.3669 28.0869 21.2074 27.8021 21.0967 27.4766C20.986 27.151 20.9307 26.7979 20.9307 26.417ZM21.834 26.3047V26.417C21.834 26.6807 21.8649 26.9297 21.9268 27.1641C21.9886 27.3952 22.0814 27.6003 22.2051 27.7793C22.332 27.9583 22.4899 28.0999 22.6787 28.2041C22.8675 28.305 23.0872 28.3555 23.3379 28.3555C23.5853 28.3555 23.8018 28.305 23.9873 28.2041C24.1761 28.0999 24.3324 27.9583 24.4561 27.7793C24.5798 27.6003 24.6725 27.3952 24.7344 27.1641C24.7995 26.9297 24.832 26.6807 24.832 26.417V26.3047C24.832 26.0443 24.7995 25.7985 24.7344 25.5674C24.6725 25.333 24.5781 25.1263 24.4512 24.9473C24.3275 24.765 24.1712 24.6217 23.9824 24.5176C23.7969 24.4134 23.5788 24.3613 23.3281 24.3613C23.0807 24.3613 22.8626 24.4134 22.6738 24.5176C22.4883 24.6217 22.332 24.765 22.2051 24.9473C22.0814 25.1263 21.9886 25.333 21.9268 25.5674C21.8649 25.7985 21.834 26.0443 21.834 26.3047ZM29.085 23.7168V24.4102H26.2285V23.7168H29.085ZM27.1953 22.4326H28.0986V27.6914C28.0986 27.8704 28.1263 28.0055 28.1816 28.0967C28.237 28.1878 28.3086 28.248 28.3965 28.2773C28.4844 28.3066 28.5788 28.3213 28.6797 28.3213C28.7546 28.3213 28.8327 28.3148 28.9141 28.3018C28.9987 28.2855 29.0622 28.2725 29.1045 28.2627L29.1094 29C29.0378 29.0228 28.9434 29.0439 28.8262 29.0635C28.7122 29.0863 28.5739 29.0977 28.4111 29.0977C28.1898 29.0977 27.9863 29.0537 27.8008 28.9658C27.6152 28.8779 27.4671 28.7314 27.3564 28.5264C27.249 28.318 27.1953 28.0381 27.1953 27.6865V22.4326ZM33.2598 28.0967V25.377C33.2598 25.1686 33.2174 24.988 33.1328 24.835C33.0514 24.6787 32.9277 24.5583 32.7617 24.4736C32.5957 24.389 32.3906 24.3467 32.1465 24.3467C31.9186 24.3467 31.7184 24.3857 31.5459 24.4639C31.3766 24.542 31.2432 24.6445 31.1455 24.7715C31.0511 24.8984 31.0039 25.0352 31.0039 25.1816H30.1006C30.1006 24.9928 30.1494 24.8057 30.2471 24.6201C30.3447 24.4346 30.4847 24.2669 30.667 24.1172C30.8525 23.9642 31.0739 23.8438 31.3311 23.7559C31.5915 23.6647 31.8812 23.6191 32.2002 23.6191C32.5843 23.6191 32.9229 23.6842 33.2158 23.8145C33.512 23.9447 33.7432 24.1416 33.9092 24.4053C34.0785 24.6657 34.1631 24.9928 34.1631 25.3867V27.8477C34.1631 28.0234 34.1777 28.2106 34.207 28.4092C34.2396 28.6077 34.2868 28.7786 34.3486 28.9219V29H33.4062C33.3607 28.8958 33.3249 28.7575 33.2988 28.585C33.2728 28.4092 33.2598 28.2464 33.2598 28.0967ZM33.416 25.7969L33.4258 26.4316H32.5127C32.2555 26.4316 32.026 26.4528 31.8242 26.4951C31.6224 26.5342 31.4531 26.5944 31.3164 26.6758C31.1797 26.7572 31.0755 26.8597 31.0039 26.9834C30.9323 27.1038 30.8965 27.2454 30.8965 27.4082C30.8965 27.5742 30.9339 27.7256 31.0088 27.8623C31.0837 27.999 31.196 28.1081 31.3457 28.1895C31.4987 28.2676 31.6859 28.3066 31.9072 28.3066C32.1839 28.3066 32.4281 28.248 32.6396 28.1309C32.8512 28.0137 33.0189 27.8704 33.1426 27.7012C33.2695 27.5319 33.3379 27.3675 33.3477 27.208L33.7334 27.6426C33.7106 27.7793 33.6488 27.9307 33.5479 28.0967C33.4469 28.2627 33.3118 28.4222 33.1426 28.5752C32.9766 28.7249 32.778 28.8503 32.5469 28.9512C32.319 29.0488 32.0618 29.0977 31.7754 29.0977C31.4173 29.0977 31.1032 29.0277 30.833 28.8877C30.5661 28.7477 30.3577 28.5605 30.208 28.3262C30.0615 28.0885 29.9883 27.8232 29.9883 27.5303C29.9883 27.2471 30.0436 26.998 30.1543 26.7832C30.265 26.5651 30.4245 26.3844 30.6328 26.2412C30.8411 26.0947 31.0918 25.984 31.3848 25.9092C31.6777 25.8343 32.0049 25.7969 32.3662 25.7969H33.416ZM36.5654 21.5V29H35.6572V21.5H36.5654ZM42.5566 29H41.0723L41.082 28.2334H42.5566C43.0645 28.2334 43.4876 28.1276 43.8262 27.916C44.1647 27.7012 44.4186 27.4017 44.5879 27.0176C44.7604 26.6302 44.8467 26.1777 44.8467 25.6602V25.2256C44.8467 24.8187 44.7979 24.4574 44.7002 24.1416C44.6025 23.8226 44.4593 23.554 44.2705 23.3359C44.0817 23.1146 43.8506 22.9469 43.5771 22.833C43.307 22.7191 42.9961 22.6621 42.6445 22.6621H41.043V21.8906H42.6445C43.11 21.8906 43.5348 21.9688 43.9189 22.125C44.3031 22.278 44.6335 22.501 44.9102 22.7939C45.1901 23.0837 45.4049 23.4352 45.5547 23.8486C45.7044 24.2588 45.7793 24.721 45.7793 25.2354V25.6602C45.7793 26.1745 45.7044 26.6383 45.5547 27.0518C45.4049 27.4619 45.1885 27.8118 44.9053 28.1016C44.6253 28.3913 44.2868 28.6143 43.8896 28.7705C43.4958 28.9235 43.0514 29 42.5566 29ZM41.5752 21.8906V29H40.6328V21.8906H41.5752ZM49.251 29.0977C48.8831 29.0977 48.5495 29.0358 48.25 28.9121C47.9538 28.7852 47.6982 28.6077 47.4834 28.3799C47.2718 28.152 47.109 27.8818 46.9951 27.5693C46.8812 27.2568 46.8242 26.915 46.8242 26.5439V26.3389C46.8242 25.9092 46.8877 25.5267 47.0146 25.1914C47.1416 24.8529 47.3141 24.5664 47.5322 24.332C47.7503 24.0977 47.9977 23.9202 48.2744 23.7998C48.5511 23.6794 48.8376 23.6191 49.1338 23.6191C49.5114 23.6191 49.8369 23.6842 50.1104 23.8145C50.387 23.9447 50.6133 24.127 50.7891 24.3613C50.9648 24.5924 51.0951 24.8659 51.1797 25.1816C51.2643 25.4941 51.3066 25.8359 51.3066 26.207V26.6123H47.3613V25.875H50.4033V25.8066C50.3903 25.5723 50.3415 25.3444 50.2568 25.123C50.1755 24.9017 50.0452 24.7194 49.8662 24.5762C49.6872 24.4329 49.443 24.3613 49.1338 24.3613C48.9287 24.3613 48.7399 24.4053 48.5674 24.4932C48.3949 24.5778 48.2467 24.7048 48.123 24.874C47.9993 25.0433 47.9033 25.25 47.835 25.4941C47.7666 25.7383 47.7324 26.0199 47.7324 26.3389V26.5439C47.7324 26.7946 47.7666 27.0306 47.835 27.252C47.9066 27.4701 48.0091 27.6621 48.1426 27.8281C48.2793 27.9941 48.4437 28.1243 48.6357 28.2188C48.8311 28.3132 49.0524 28.3604 49.2998 28.3604C49.6188 28.3604 49.889 28.2952 50.1104 28.165C50.3317 28.0348 50.5254 27.8607 50.6914 27.6426L51.2383 28.0771C51.1243 28.2497 50.9795 28.4141 50.8037 28.5703C50.6279 28.7266 50.4115 28.8535 50.1543 28.9512C49.9004 29.0488 49.5993 29.0977 49.251 29.0977ZM55.4375 27.5986C55.4375 27.4684 55.4082 27.348 55.3496 27.2373C55.2943 27.1234 55.1787 27.0208 55.0029 26.9297C54.8304 26.8353 54.57 26.7539 54.2217 26.6855C53.9287 26.6237 53.6634 26.5505 53.4258 26.4658C53.1914 26.3812 52.9912 26.2786 52.8252 26.1582C52.6624 26.0378 52.5371 25.8962 52.4492 25.7334C52.3613 25.5706 52.3174 25.3802 52.3174 25.1621C52.3174 24.9538 52.363 24.7568 52.4541 24.5713C52.5485 24.3857 52.6803 24.2214 52.8496 24.0781C53.0221 23.9349 53.2288 23.8226 53.4697 23.7412C53.7106 23.6598 53.9792 23.6191 54.2754 23.6191C54.6986 23.6191 55.0599 23.694 55.3594 23.8438C55.6589 23.9935 55.8883 24.1937 56.0479 24.4443C56.2074 24.6917 56.2871 24.9668 56.2871 25.2695H55.3838C55.3838 25.123 55.3398 24.9814 55.252 24.8447C55.1673 24.7048 55.042 24.5892 54.876 24.498C54.7132 24.4069 54.513 24.3613 54.2754 24.3613C54.0247 24.3613 53.8213 24.4004 53.665 24.4785C53.512 24.5534 53.3997 24.6494 53.3281 24.7666C53.2598 24.8838 53.2256 25.0075 53.2256 25.1377C53.2256 25.2354 53.2419 25.3232 53.2744 25.4014C53.3102 25.4762 53.3721 25.5462 53.46 25.6113C53.5479 25.6732 53.6715 25.7318 53.8311 25.7871C53.9906 25.8424 54.194 25.8978 54.4414 25.9531C54.8743 26.0508 55.2308 26.168 55.5107 26.3047C55.7907 26.4414 55.999 26.609 56.1357 26.8076C56.2725 27.0062 56.3408 27.2471 56.3408 27.5303C56.3408 27.7614 56.292 27.973 56.1943 28.165C56.0999 28.3571 55.9616 28.5231 55.7793 28.6631C55.6003 28.7998 55.3854 28.9072 55.1348 28.9854C54.8874 29.0602 54.609 29.0977 54.2998 29.0977C53.8343 29.0977 53.4404 29.0146 53.1182 28.8486C52.7959 28.6826 52.5518 28.4678 52.3857 28.2041C52.2197 27.9404 52.1367 27.6621 52.1367 27.3691H53.0449C53.0579 27.6165 53.1296 27.8135 53.2598 27.96C53.39 28.1032 53.5495 28.2057 53.7383 28.2676C53.9271 28.3262 54.1143 28.3555 54.2998 28.3555C54.5472 28.3555 54.7539 28.3229 54.9199 28.2578C55.0892 28.1927 55.2178 28.1032 55.3057 27.9893C55.3936 27.8753 55.4375 27.7451 55.4375 27.5986ZM59.7393 23.7168V24.4102H56.8828V23.7168H59.7393ZM57.8496 22.4326H58.7529V27.6914C58.7529 27.8704 58.7806 28.0055 58.8359 28.0967C58.8913 28.1878 58.9629 28.248 59.0508 28.2773C59.1387 28.3066 59.2331 28.3213 59.334 28.3213C59.4089 28.3213 59.487 28.3148 59.5684 28.3018C59.653 28.2855 59.7165 28.2725 59.7588 28.2627L59.7637 29C59.6921 29.0228 59.5977 29.0439 59.4805 29.0635C59.3665 29.0863 59.2282 29.0977 59.0654 29.0977C58.8441 29.0977 58.6406 29.0537 58.4551 28.9658C58.2695 28.8779 58.1214 28.7314 58.0107 28.5264C57.9033 28.318 57.8496 28.0381 57.8496 27.6865V22.4326ZM61.7021 24.5469V29H60.7988V23.7168H61.6777L61.7021 24.5469ZM63.3525 23.6875L63.3477 24.5273C63.2728 24.5111 63.2012 24.5013 63.1328 24.498C63.0677 24.4915 62.9928 24.4883 62.9082 24.4883C62.6999 24.4883 62.516 24.5208 62.3564 24.5859C62.1969 24.651 62.0618 24.7422 61.9512 24.8594C61.8405 24.9766 61.7526 25.1165 61.6875 25.2793C61.6257 25.4388 61.585 25.6146 61.5654 25.8066L61.3115 25.9531C61.3115 25.6341 61.3424 25.3346 61.4043 25.0547C61.4694 24.7747 61.5687 24.5273 61.7021 24.3125C61.8356 24.0944 62.0049 23.9251 62.21 23.8047C62.4183 23.681 62.6657 23.6191 62.9521 23.6191C63.0173 23.6191 63.0921 23.6273 63.1768 23.6436C63.2614 23.6566 63.32 23.6712 63.3525 23.6875ZM67.4199 27.7793V23.7168H68.3281V29H67.4639L67.4199 27.7793ZM67.5908 26.666L67.9668 26.6562C67.9668 27.0078 67.9294 27.3333 67.8545 27.6328C67.7829 27.929 67.6657 28.1862 67.5029 28.4043C67.3402 28.6224 67.127 28.7933 66.8633 28.917C66.5996 29.0374 66.279 29.0977 65.9014 29.0977C65.6442 29.0977 65.4082 29.0602 65.1934 28.9854C64.9818 28.9105 64.7995 28.7949 64.6465 28.6387C64.4935 28.4824 64.3747 28.279 64.29 28.0283C64.2087 27.7777 64.168 27.4766 64.168 27.125V23.7168H65.0713V27.1348C65.0713 27.3724 65.0973 27.5693 65.1494 27.7256C65.2048 27.8786 65.278 28.0007 65.3691 28.0918C65.4635 28.1797 65.5677 28.2415 65.6816 28.2773C65.7988 28.3132 65.9193 28.3311 66.043 28.3311C66.4271 28.3311 66.7314 28.2578 66.9561 28.1113C67.1807 27.9616 67.3418 27.7614 67.4395 27.5107C67.5404 27.2568 67.5908 26.9753 67.5908 26.666ZM71.8193 28.3555C72.0342 28.3555 72.2327 28.3115 72.415 28.2236C72.5973 28.1357 72.7471 28.0153 72.8643 27.8623C72.9814 27.7061 73.0482 27.5286 73.0645 27.3301H73.9238C73.9076 27.6426 73.8018 27.9339 73.6064 28.2041C73.4144 28.471 73.1621 28.6875 72.8496 28.8535C72.5371 29.0163 72.1937 29.0977 71.8193 29.0977C71.4222 29.0977 71.0755 29.0277 70.7793 28.8877C70.4863 28.7477 70.2422 28.5557 70.0469 28.3115C69.8548 28.0674 69.71 27.7874 69.6123 27.4717C69.5179 27.1527 69.4707 26.8158 69.4707 26.4609V26.2559C69.4707 25.901 69.5179 25.5658 69.6123 25.25C69.71 24.931 69.8548 24.6494 70.0469 24.4053C70.2422 24.1611 70.4863 23.9691 70.7793 23.8291C71.0755 23.6891 71.4222 23.6191 71.8193 23.6191C72.2327 23.6191 72.5941 23.7038 72.9033 23.873C73.2126 24.0391 73.4551 24.2669 73.6309 24.5566C73.8099 24.8431 73.9076 25.1686 73.9238 25.5332H73.0645C73.0482 25.3151 72.9863 25.1182 72.8789 24.9424C72.7747 24.7666 72.6315 24.6266 72.4492 24.5225C72.2702 24.415 72.0602 24.3613 71.8193 24.3613C71.5426 24.3613 71.3099 24.4167 71.1211 24.5273C70.9355 24.6348 70.7874 24.7812 70.6768 24.9668C70.5693 25.1491 70.4912 25.3525 70.4424 25.5771C70.3968 25.7985 70.374 26.0247 70.374 26.2559V26.4609C70.374 26.6921 70.3968 26.9199 70.4424 27.1445C70.488 27.3691 70.5645 27.5726 70.6719 27.7549C70.7826 27.9372 70.9307 28.0837 71.1162 28.1943C71.305 28.3018 71.5394 28.3555 71.8193 28.3555ZM77.1514 23.7168V24.4102H74.2949V23.7168H77.1514ZM75.2617 22.4326H76.165V27.6914C76.165 27.8704 76.1927 28.0055 76.248 28.0967C76.3034 28.1878 76.375 28.248 76.4629 28.2773C76.5508 28.3066 76.6452 28.3213 76.7461 28.3213C76.821 28.3213 76.8991 28.3148 76.9805 28.3018C77.0651 28.2855 77.1286 28.2725 77.1709 28.2627L77.1758 29C77.1042 29.0228 77.0098 29.0439 76.8926 29.0635C76.7786 29.0863 76.6403 29.0977 76.4775 29.0977C76.2562 29.0977 76.0527 29.0537 75.8672 28.9658C75.6816 28.8779 75.5335 28.7314 75.4229 28.5264C75.3154 28.318 75.2617 28.0381 75.2617 27.6865V22.4326ZM79.1924 23.7168V29H78.2842V23.7168H79.1924ZM78.2158 22.3154C78.2158 22.1689 78.2598 22.0452 78.3477 21.9443C78.4388 21.8434 78.5723 21.793 78.748 21.793C78.9206 21.793 79.0524 21.8434 79.1436 21.9443C79.238 22.0452 79.2852 22.1689 79.2852 22.3154C79.2852 22.4554 79.238 22.5758 79.1436 22.6768C79.0524 22.7744 78.9206 22.8232 78.748 22.8232C78.5723 22.8232 78.4388 22.7744 78.3477 22.6768C78.2598 22.5758 78.2158 22.4554 78.2158 22.3154ZM80.4033 26.417V26.3047C80.4033 25.9238 80.4587 25.5706 80.5693 25.2451C80.68 24.9163 80.8395 24.6315 81.0479 24.3906C81.2562 24.1465 81.5085 23.9577 81.8047 23.8242C82.1009 23.6875 82.4329 23.6191 82.8008 23.6191C83.1719 23.6191 83.5055 23.6875 83.8018 23.8242C84.1012 23.9577 84.3551 24.1465 84.5635 24.3906C84.7751 24.6315 84.9362 24.9163 85.0469 25.2451C85.1576 25.5706 85.2129 25.9238 85.2129 26.3047V26.417C85.2129 26.7979 85.1576 27.151 85.0469 27.4766C84.9362 27.8021 84.7751 28.0869 84.5635 28.3311C84.3551 28.5719 84.1029 28.7607 83.8066 28.8975C83.5137 29.0309 83.1816 29.0977 82.8105 29.0977C82.4395 29.0977 82.1058 29.0309 81.8096 28.8975C81.5133 28.7607 81.2594 28.5719 81.0479 28.3311C80.8395 28.0869 80.68 27.8021 80.5693 27.4766C80.4587 27.151 80.4033 26.7979 80.4033 26.417ZM81.3066 26.3047V26.417C81.3066 26.6807 81.3376 26.9297 81.3994 27.1641C81.4613 27.3952 81.554 27.6003 81.6777 27.7793C81.8047 27.9583 81.9626 28.0999 82.1514 28.2041C82.3402 28.305 82.5599 28.3555 82.8105 28.3555C83.0579 28.3555 83.2744 28.305 83.46 28.2041C83.6488 28.0999 83.805 27.9583 83.9287 27.7793C84.0524 27.6003 84.1452 27.3952 84.207 27.1641C84.2721 26.9297 84.3047 26.6807 84.3047 26.417V26.3047C84.3047 26.0443 84.2721 25.7985 84.207 25.5674C84.1452 25.333 84.0508 25.1263 83.9238 24.9473C83.8001 24.765 83.6439 24.6217 83.4551 24.5176C83.2695 24.4134 83.0514 24.3613 82.8008 24.3613C82.5534 24.3613 82.3353 24.4134 82.1465 24.5176C81.9609 24.6217 81.8047 24.765 81.6777 24.9473C81.554 25.1263 81.4613 25.333 81.3994 25.5674C81.3376 25.7985 81.3066 26.0443 81.3066 26.3047ZM87.249 24.8447V29H86.3457V23.7168H87.2002L87.249 24.8447ZM87.0342 26.1582L86.6582 26.1436C86.6615 25.7822 86.7152 25.4486 86.8193 25.1426C86.9235 24.8333 87.07 24.5648 87.2588 24.3369C87.4476 24.109 87.6722 23.9333 87.9326 23.8096C88.1963 23.6826 88.4876 23.6191 88.8066 23.6191C89.0671 23.6191 89.3014 23.6549 89.5098 23.7266C89.7181 23.7949 89.8955 23.9056 90.042 24.0586C90.1917 24.2116 90.3057 24.4102 90.3838 24.6543C90.4619 24.8952 90.501 25.1898 90.501 25.5381V29H89.5928V25.5283C89.5928 25.2516 89.5521 25.0303 89.4707 24.8643C89.3893 24.695 89.2705 24.5729 89.1143 24.498C88.958 24.4199 88.766 24.3809 88.5381 24.3809C88.3135 24.3809 88.1084 24.4281 87.9229 24.5225C87.7406 24.6169 87.5827 24.7471 87.4492 24.9131C87.319 25.0791 87.2165 25.2695 87.1416 25.4844C87.07 25.696 87.0342 25.9206 87.0342 26.1582Z" fill="white"/>
<path d="M430.126 1.85156V9H429.222V2.97949L427.401 3.64355V2.82812L429.984 1.85156H430.126ZM437.245 4.87891V5.96289C437.245 6.54557 437.193 7.03711 437.089 7.4375C436.984 7.83789 436.835 8.16016 436.639 8.4043C436.444 8.64844 436.208 8.82585 435.931 8.93652C435.658 9.04395 435.349 9.09766 435.004 9.09766C434.73 9.09766 434.478 9.06348 434.247 8.99512C434.016 8.92676 433.807 8.81771 433.622 8.66797C433.44 8.51497 433.283 8.31641 433.153 8.07227C433.023 7.82812 432.924 7.5319 432.855 7.18359C432.787 6.83529 432.753 6.42839 432.753 5.96289V4.87891C432.753 4.29622 432.805 3.80794 432.909 3.41406C433.016 3.02018 433.168 2.70443 433.363 2.4668C433.558 2.22591 433.793 2.05339 434.066 1.94922C434.343 1.84505 434.652 1.79297 434.994 1.79297C435.271 1.79297 435.525 1.82715 435.756 1.89551C435.99 1.96061 436.198 2.06641 436.381 2.21289C436.563 2.35612 436.718 2.54818 436.845 2.78906C436.975 3.02669 437.074 3.31803 437.142 3.66309C437.211 4.00814 437.245 4.41341 437.245 4.87891ZM436.337 6.10938V4.72754C436.337 4.40853 436.317 4.12858 436.278 3.8877C436.242 3.64355 436.189 3.43522 436.117 3.2627C436.045 3.09017 435.954 2.9502 435.844 2.84277C435.736 2.73535 435.611 2.65723 435.468 2.6084C435.328 2.55632 435.17 2.53027 434.994 2.53027C434.779 2.53027 434.589 2.57096 434.423 2.65234C434.257 2.73047 434.117 2.85579 434.003 3.02832C433.892 3.20085 433.807 3.42708 433.749 3.70703C433.69 3.98698 433.661 4.32715 433.661 4.72754V6.10938C433.661 6.42839 433.679 6.70996 433.715 6.9541C433.754 7.19824 433.811 7.40983 433.886 7.58887C433.96 7.76465 434.052 7.90951 434.159 8.02344C434.266 8.13737 434.39 8.22201 434.53 8.27734C434.673 8.32943 434.831 8.35547 435.004 8.35547C435.225 8.35547 435.419 8.31315 435.585 8.22852C435.751 8.14388 435.889 8.01204 436 7.83301C436.114 7.65072 436.198 7.41797 436.254 7.13477C436.309 6.84831 436.337 6.50651 436.337 6.10938Z" fill="black"/>
<rect y="56" width="446" height="20" fill="#D9D9D9"/>
<rect y="56" width="235.957" height="20" fill="#209BC3"/>
<path d="M17.752 69H16.2676L16.2773 68.2334H17.752C18.2598 68.2334 18.6829 68.1276 19.0215 67.916C19.36 67.7012 19.6139 67.4017 19.7832 67.0176C19.9557 66.6302 20.042 66.1777 20.042 65.6602V65.2256C20.042 64.8187 19.9932 64.4574 19.8955 64.1416C19.7979 63.8226 19.6546 63.554 19.4658 63.3359C19.277 63.1146 19.0459 62.9469 18.7725 62.833C18.5023 62.7191 18.1914 62.6621 17.8398 62.6621H16.2383V61.8906H17.8398C18.3053 61.8906 18.7301 61.9688 19.1143 62.125C19.4984 62.278 19.8288 62.501 20.1055 62.7939C20.3854 63.0837 20.6003 63.4352 20.75 63.8486C20.8997 64.2588 20.9746 64.721 20.9746 65.2354V65.6602C20.9746 66.1745 20.8997 66.6383 20.75 67.0518C20.6003 67.4619 20.3838 67.8118 20.1006 68.1016C19.8206 68.3913 19.4821 68.6143 19.085 68.7705C18.6911 68.9235 18.2467 69 17.752 69ZM16.7705 61.8906V69H15.8281V61.8906H16.7705ZM24.4463 69.0977C24.0785 69.0977 23.7448 69.0358 23.4453 68.9121C23.1491 68.7852 22.8936 68.6077 22.6787 68.3799C22.4671 68.152 22.3044 67.8818 22.1904 67.5693C22.0765 67.2568 22.0195 66.915 22.0195 66.5439V66.3389C22.0195 65.9092 22.083 65.5267 22.21 65.1914C22.3369 64.8529 22.5094 64.5664 22.7275 64.332C22.9456 64.0977 23.193 63.9202 23.4697 63.7998C23.7464 63.6794 24.0329 63.6191 24.3291 63.6191C24.7067 63.6191 25.0322 63.6842 25.3057 63.8145C25.5824 63.9447 25.8086 64.127 25.9844 64.3613C26.1602 64.5924 26.2904 64.8659 26.375 65.1816C26.4596 65.4941 26.502 65.8359 26.502 66.207V66.6123H22.5566V65.875H25.5986V65.8066C25.5856 65.5723 25.5368 65.3444 25.4521 65.123C25.3708 64.9017 25.2406 64.7194 25.0615 64.5762C24.8825 64.4329 24.6383 64.3613 24.3291 64.3613C24.124 64.3613 23.9352 64.4053 23.7627 64.4932C23.5902 64.5778 23.4421 64.7048 23.3184 64.874C23.1947 65.0433 23.0986 65.25 23.0303 65.4941C22.9619 65.7383 22.9277 66.0199 22.9277 66.3389V66.5439C22.9277 66.7946 22.9619 67.0306 23.0303 67.252C23.1019 67.4701 23.2044 67.6621 23.3379 67.8281C23.4746 67.9941 23.639 68.1243 23.8311 68.2188C24.0264 68.3132 24.2477 68.3604 24.4951 68.3604C24.8141 68.3604 25.0843 68.2952 25.3057 68.165C25.527 68.0348 25.7207 67.8607 25.8867 67.6426L26.4336 68.0771C26.3197 68.2497 26.1748 68.4141 25.999 68.5703C25.8232 68.7266 25.6068 68.8535 25.3496 68.9512C25.0957 69.0488 24.7946 69.0977 24.4463 69.0977ZM30.6328 67.5986C30.6328 67.4684 30.6035 67.348 30.5449 67.2373C30.4896 67.1234 30.374 67.0208 30.1982 66.9297C30.0257 66.8353 29.7653 66.7539 29.417 66.6855C29.124 66.6237 28.8587 66.5505 28.6211 66.4658C28.3867 66.3812 28.1865 66.2786 28.0205 66.1582C27.8577 66.0378 27.7324 65.8962 27.6445 65.7334C27.5566 65.5706 27.5127 65.3802 27.5127 65.1621C27.5127 64.9538 27.5583 64.7568 27.6494 64.5713C27.7438 64.3857 27.8757 64.2214 28.0449 64.0781C28.2174 63.9349 28.4242 63.8226 28.665 63.7412C28.9059 63.6598 29.1745 63.6191 29.4707 63.6191C29.8939 63.6191 30.2552 63.694 30.5547 63.8438C30.8542 63.9935 31.0837 64.1937 31.2432 64.4443C31.4027 64.6917 31.4824 64.9668 31.4824 65.2695H30.5791C30.5791 65.123 30.5352 64.9814 30.4473 64.8447C30.3626 64.7048 30.2373 64.5892 30.0713 64.498C29.9085 64.4069 29.7083 64.3613 29.4707 64.3613C29.2201 64.3613 29.0166 64.4004 28.8604 64.4785C28.7074 64.5534 28.5951 64.6494 28.5234 64.7666C28.4551 64.8838 28.4209 65.0075 28.4209 65.1377C28.4209 65.2354 28.4372 65.3232 28.4697 65.4014C28.5055 65.4762 28.5674 65.5462 28.6553 65.6113C28.7432 65.6732 28.8669 65.7318 29.0264 65.7871C29.1859 65.8424 29.3893 65.8978 29.6367 65.9531C30.0697 66.0508 30.4261 66.168 30.7061 66.3047C30.986 66.4414 31.1943 66.609 31.3311 66.8076C31.4678 67.0062 31.5361 67.2471 31.5361 67.5303C31.5361 67.7614 31.4873 67.973 31.3896 68.165C31.2952 68.3571 31.1569 68.5231 30.9746 68.6631C30.7956 68.7998 30.5807 68.9072 30.3301 68.9854C30.0827 69.0602 29.8044 69.0977 29.4951 69.0977C29.0296 69.0977 28.6357 69.0146 28.3135 68.8486C27.9912 68.6826 27.7471 68.4678 27.5811 68.2041C27.415 67.9404 27.332 67.6621 27.332 67.3691H28.2402C28.2533 67.6165 28.3249 67.8135 28.4551 67.96C28.5853 68.1032 28.7448 68.2057 28.9336 68.2676C29.1224 68.3262 29.3096 68.3555 29.4951 68.3555C29.7425 68.3555 29.9492 68.3229 30.1152 68.2578C30.2845 68.1927 30.4131 68.1032 30.501 67.9893C30.5889 67.8753 30.6328 67.7451 30.6328 67.5986ZM34.9346 63.7168V64.4102H32.0781V63.7168H34.9346ZM33.0449 62.4326H33.9482V67.6914C33.9482 67.8704 33.9759 68.0055 34.0312 68.0967C34.0866 68.1878 34.1582 68.248 34.2461 68.2773C34.334 68.3066 34.4284 68.3213 34.5293 68.3213C34.6042 68.3213 34.6823 68.3148 34.7637 68.3018C34.8483 68.2855 34.9118 68.2725 34.9541 68.2627L34.959 69C34.8874 69.0228 34.793 69.0439 34.6758 69.0635C34.5618 69.0863 34.4235 69.0977 34.2607 69.0977C34.0394 69.0977 33.8359 69.0537 33.6504 68.9658C33.4648 68.8779 33.3167 68.7314 33.2061 68.5264C33.0986 68.318 33.0449 68.0381 33.0449 67.6865V62.4326ZM36.8975 64.5469V69H35.9941V63.7168H36.873L36.8975 64.5469ZM38.5479 63.6875L38.543 64.5273C38.4681 64.5111 38.3965 64.5013 38.3281 64.498C38.263 64.4915 38.1882 64.4883 38.1035 64.4883C37.8952 64.4883 37.7113 64.5208 37.5518 64.5859C37.3923 64.651 37.2572 64.7422 37.1465 64.8594C37.0358 64.9766 36.9479 65.1165 36.8828 65.2793C36.821 65.4388 36.7803 65.6146 36.7607 65.8066L36.5068 65.9531C36.5068 65.6341 36.5378 65.3346 36.5996 65.0547C36.6647 64.7747 36.764 64.5273 36.8975 64.3125C37.0309 64.0944 37.2002 63.9251 37.4053 63.8047C37.6136 63.681 37.861 63.6191 38.1475 63.6191C38.2126 63.6191 38.2874 63.6273 38.3721 63.6436C38.4567 63.6566 38.5153 63.6712 38.5479 63.6875ZM42.6152 67.7793V63.7168H43.5234V69H42.6592L42.6152 67.7793ZM42.7861 66.666L43.1621 66.6562C43.1621 67.0078 43.1247 67.3333 43.0498 67.6328C42.9782 67.929 42.861 68.1862 42.6982 68.4043C42.5355 68.6224 42.3223 68.7933 42.0586 68.917C41.7949 69.0374 41.4743 69.0977 41.0967 69.0977C40.8395 69.0977 40.6035 69.0602 40.3887 68.9854C40.1771 68.9105 39.9948 68.7949 39.8418 68.6387C39.6888 68.4824 39.57 68.279 39.4854 68.0283C39.404 67.7777 39.3633 67.4766 39.3633 67.125V63.7168H40.2666V67.1348C40.2666 67.3724 40.2926 67.5693 40.3447 67.7256C40.4001 67.8786 40.4733 68.0007 40.5645 68.0918C40.6589 68.1797 40.763 68.2415 40.877 68.2773C40.9941 68.3132 41.1146 68.3311 41.2383 68.3311C41.6224 68.3311 41.9268 68.2578 42.1514 68.1113C42.376 67.9616 42.5371 67.7614 42.6348 67.5107C42.7357 67.2568 42.7861 66.9753 42.7861 66.666ZM47.0146 68.3555C47.2295 68.3555 47.4281 68.3115 47.6104 68.2236C47.7926 68.1357 47.9424 68.0153 48.0596 67.8623C48.1768 67.7061 48.2435 67.5286 48.2598 67.3301H49.1191C49.1029 67.6426 48.9971 67.9339 48.8018 68.2041C48.6097 68.471 48.3574 68.6875 48.0449 68.8535C47.7324 69.0163 47.389 69.0977 47.0146 69.0977C46.6175 69.0977 46.2708 69.0277 45.9746 68.8877C45.6816 68.7477 45.4375 68.5557 45.2422 68.3115C45.0501 68.0674 44.9053 67.7874 44.8076 67.4717C44.7132 67.1527 44.666 66.8158 44.666 66.4609V66.2559C44.666 65.901 44.7132 65.5658 44.8076 65.25C44.9053 64.931 45.0501 64.6494 45.2422 64.4053C45.4375 64.1611 45.6816 63.9691 45.9746 63.8291C46.2708 63.6891 46.6175 63.6191 47.0146 63.6191C47.4281 63.6191 47.7894 63.7038 48.0986 63.873C48.4079 64.0391 48.6504 64.2669 48.8262 64.5566C49.0052 64.8431 49.1029 65.1686 49.1191 65.5332H48.2598C48.2435 65.3151 48.1816 65.1182 48.0742 64.9424C47.9701 64.7666 47.8268 64.6266 47.6445 64.5225C47.4655 64.415 47.2555 64.3613 47.0146 64.3613C46.738 64.3613 46.5052 64.4167 46.3164 64.5273C46.1309 64.6348 45.9827 64.7812 45.8721 64.9668C45.7646 65.1491 45.6865 65.3525 45.6377 65.5771C45.5921 65.7985 45.5693 66.0247 45.5693 66.2559V66.4609C45.5693 66.6921 45.5921 66.9199 45.6377 67.1445C45.6833 67.3691 45.7598 67.5726 45.8672 67.7549C45.9779 67.9372 46.126 68.0837 46.3115 68.1943C46.5003 68.3018 46.7347 68.3555 47.0146 68.3555ZM52.3467 63.7168V64.4102H49.4902V63.7168H52.3467ZM50.457 62.4326H51.3604V67.6914C51.3604 67.8704 51.388 68.0055 51.4434 68.0967C51.4987 68.1878 51.5703 68.248 51.6582 68.2773C51.7461 68.3066 51.8405 68.3213 51.9414 68.3213C52.0163 68.3213 52.0944 68.3148 52.1758 68.3018C52.2604 68.2855 52.3239 68.2725 52.3662 68.2627L52.3711 69C52.2995 69.0228 52.2051 69.0439 52.0879 69.0635C51.974 69.0863 51.8356 69.0977 51.6729 69.0977C51.4515 69.0977 51.248 69.0537 51.0625 68.9658C50.877 68.8779 50.7288 68.7314 50.6182 68.5264C50.5107 68.318 50.457 68.0381 50.457 67.6865V62.4326ZM54.3877 63.7168V69H53.4795V63.7168H54.3877ZM53.4111 62.3154C53.4111 62.1689 53.4551 62.0452 53.543 61.9443C53.6341 61.8434 53.7676 61.793 53.9434 61.793C54.1159 61.793 54.2477 61.8434 54.3389 61.9443C54.4333 62.0452 54.4805 62.1689 54.4805 62.3154C54.4805 62.4554 54.4333 62.5758 54.3389 62.6768C54.2477 62.7744 54.1159 62.8232 53.9434 62.8232C53.7676 62.8232 53.6341 62.7744 53.543 62.6768C53.4551 62.5758 53.4111 62.4554 53.4111 62.3154ZM55.5986 66.417V66.3047C55.5986 65.9238 55.654 65.5706 55.7646 65.2451C55.8753 64.9163 56.0348 64.6315 56.2432 64.3906C56.4515 64.1465 56.7038 63.9577 57 63.8242C57.2962 63.6875 57.6283 63.6191 57.9961 63.6191C58.3672 63.6191 58.7008 63.6875 58.9971 63.8242C59.2965 63.9577 59.5505 64.1465 59.7588 64.3906C59.9704 64.6315 60.1315 64.9163 60.2422 65.2451C60.3529 65.5706 60.4082 65.9238 60.4082 66.3047V66.417C60.4082 66.7979 60.3529 67.151 60.2422 67.4766C60.1315 67.8021 59.9704 68.0869 59.7588 68.3311C59.5505 68.5719 59.2982 68.7607 59.002 68.8975C58.709 69.0309 58.377 69.0977 58.0059 69.0977C57.6348 69.0977 57.3011 69.0309 57.0049 68.8975C56.7087 68.7607 56.4548 68.5719 56.2432 68.3311C56.0348 68.0869 55.8753 67.8021 55.7646 67.4766C55.654 67.151 55.5986 66.7979 55.5986 66.417ZM56.502 66.3047V66.417C56.502 66.6807 56.5329 66.9297 56.5947 67.1641C56.6566 67.3952 56.7493 67.6003 56.873 67.7793C57 67.9583 57.1579 68.0999 57.3467 68.2041C57.5355 68.305 57.7552 68.3555 58.0059 68.3555C58.2533 68.3555 58.4697 68.305 58.6553 68.2041C58.8441 68.0999 59.0003 67.9583 59.124 67.7793C59.2477 67.6003 59.3405 67.3952 59.4023 67.1641C59.4674 66.9297 59.5 66.6807 59.5 66.417V66.3047C59.5 66.0443 59.4674 65.7985 59.4023 65.5674C59.3405 65.333 59.2461 65.1263 59.1191 64.9473C58.9954 64.765 58.8392 64.6217 58.6504 64.5176C58.4648 64.4134 58.2467 64.3613 57.9961 64.3613C57.7487 64.3613 57.5306 64.4134 57.3418 64.5176C57.1562 64.6217 57 64.765 56.873 64.9473C56.7493 65.1263 56.6566 65.333 56.5947 65.5674C56.5329 65.7985 56.502 66.0443 56.502 66.3047ZM62.4443 64.8447V69H61.541V63.7168H62.3955L62.4443 64.8447ZM62.2295 66.1582L61.8535 66.1436C61.8568 65.7822 61.9105 65.4486 62.0146 65.1426C62.1188 64.8333 62.2653 64.5648 62.4541 64.3369C62.6429 64.109 62.8675 63.9333 63.1279 63.8096C63.3916 63.6826 63.6829 63.6191 64.002 63.6191C64.2624 63.6191 64.4967 63.6549 64.7051 63.7266C64.9134 63.7949 65.0908 63.9056 65.2373 64.0586C65.387 64.2116 65.501 64.4102 65.5791 64.6543C65.6572 64.8952 65.6963 65.1898 65.6963 65.5381V69H64.7881V65.5283C64.7881 65.2516 64.7474 65.0303 64.666 64.8643C64.5846 64.695 64.4658 64.5729 64.3096 64.498C64.1533 64.4199 63.9613 64.3809 63.7334 64.3809C63.5088 64.3809 63.3037 64.4281 63.1182 64.5225C62.9359 64.6169 62.778 64.7471 62.6445 64.9131C62.5143 65.0791 62.4118 65.2695 62.3369 65.4844C62.2653 65.696 62.2295 65.9206 62.2295 66.1582ZM72.3076 66.2119H70.4082V65.4453H72.3076C72.6755 65.4453 72.9733 65.3867 73.2012 65.2695C73.429 65.1523 73.5951 64.9896 73.6992 64.7812C73.8066 64.5729 73.8604 64.3353 73.8604 64.0684C73.8604 63.8242 73.8066 63.5947 73.6992 63.3799C73.5951 63.165 73.429 62.9925 73.2012 62.8623C72.9733 62.7288 72.6755 62.6621 72.3076 62.6621H70.6279V69H69.6855V61.8906H72.3076C72.8447 61.8906 73.2988 61.9834 73.6699 62.1689C74.041 62.3545 74.3226 62.6117 74.5146 62.9404C74.7067 63.266 74.8027 63.6387 74.8027 64.0586C74.8027 64.5143 74.7067 64.9033 74.5146 65.2256C74.3226 65.5479 74.041 65.7936 73.6699 65.9629C73.2988 66.1289 72.8447 66.2119 72.3076 66.2119ZM77.9814 69.0977C77.6136 69.0977 77.2799 69.0358 76.9805 68.9121C76.6842 68.7852 76.4287 68.6077 76.2139 68.3799C76.0023 68.152 75.8395 67.8818 75.7256 67.5693C75.6117 67.2568 75.5547 66.915 75.5547 66.5439V66.3389C75.5547 65.9092 75.6182 65.5267 75.7451 65.1914C75.8721 64.8529 76.0446 64.5664 76.2627 64.332C76.4808 64.0977 76.7282 63.9202 77.0049 63.7998C77.2816 63.6794 77.568 63.6191 77.8643 63.6191C78.2419 63.6191 78.5674 63.6842 78.8408 63.8145C79.1175 63.9447 79.3438 64.127 79.5195 64.3613C79.6953 64.5924 79.8255 64.8659 79.9102 65.1816C79.9948 65.4941 80.0371 65.8359 80.0371 66.207V66.6123H76.0918V65.875H79.1338V65.8066C79.1208 65.5723 79.0719 65.3444 78.9873 65.123C78.9059 64.9017 78.7757 64.7194 78.5967 64.5762C78.4176 64.4329 78.1735 64.3613 77.8643 64.3613C77.6592 64.3613 77.4704 64.4053 77.2979 64.4932C77.1253 64.5778 76.9772 64.7048 76.8535 64.874C76.7298 65.0433 76.6338 65.25 76.5654 65.4941C76.4971 65.7383 76.4629 66.0199 76.4629 66.3389V66.5439C76.4629 66.7946 76.4971 67.0306 76.5654 67.252C76.637 67.4701 76.7396 67.6621 76.873 67.8281C77.0098 67.9941 77.1742 68.1243 77.3662 68.2188C77.5615 68.3132 77.7829 68.3604 78.0303 68.3604C78.3493 68.3604 78.6195 68.2952 78.8408 68.165C79.0622 68.0348 79.2559 67.8607 79.4219 67.6426L79.9688 68.0771C79.8548 68.2497 79.71 68.4141 79.5342 68.5703C79.3584 68.7266 79.1419 68.8535 78.8848 68.9512C78.6309 69.0488 78.3298 69.0977 77.9814 69.0977ZM81.9951 64.8447V69H81.0918V63.7168H81.9463L81.9951 64.8447ZM81.7803 66.1582L81.4043 66.1436C81.4076 65.7822 81.4613 65.4486 81.5654 65.1426C81.6696 64.8333 81.8161 64.5648 82.0049 64.3369C82.1937 64.109 82.4183 63.9333 82.6787 63.8096C82.9424 63.6826 83.2337 63.6191 83.5527 63.6191C83.8132 63.6191 84.0475 63.6549 84.2559 63.7266C84.4642 63.7949 84.6416 63.9056 84.7881 64.0586C84.9378 64.2116 85.0518 64.4102 85.1299 64.6543C85.208 64.8952 85.2471 65.1898 85.2471 65.5381V69H84.3389V65.5283C84.3389 65.2516 84.2982 65.0303 84.2168 64.8643C84.1354 64.695 84.0166 64.5729 83.8604 64.498C83.7041 64.4199 83.512 64.3809 83.2842 64.3809C83.0596 64.3809 82.8545 64.4281 82.6689 64.5225C82.4867 64.6169 82.3288 64.7471 82.1953 64.9131C82.0651 65.0791 81.9626 65.2695 81.8877 65.4844C81.8161 65.696 81.7803 65.9206 81.7803 66.1582ZM89.9492 67.9746V61.5H90.8574V69H90.0273L89.9492 67.9746ZM86.3945 66.417V66.3145C86.3945 65.9108 86.4434 65.5446 86.541 65.2158C86.6419 64.8838 86.7835 64.599 86.9658 64.3613C87.1514 64.1237 87.3711 63.9414 87.625 63.8145C87.8822 63.6842 88.1686 63.6191 88.4844 63.6191C88.8164 63.6191 89.1061 63.6777 89.3535 63.7949C89.6042 63.9089 89.8158 64.0765 89.9883 64.2979C90.1641 64.516 90.3024 64.7796 90.4033 65.0889C90.5042 65.3981 90.5742 65.748 90.6133 66.1387V66.5879C90.5775 66.9753 90.5075 67.3236 90.4033 67.6328C90.3024 67.9421 90.1641 68.2057 89.9883 68.4238C89.8158 68.6419 89.6042 68.8096 89.3535 68.9268C89.1029 69.0407 88.8099 69.0977 88.4746 69.0977C88.1654 69.0977 87.8822 69.0309 87.625 68.8975C87.3711 68.764 87.1514 68.5768 86.9658 68.3359C86.7835 68.0951 86.6419 67.8118 86.541 67.4863C86.4434 67.1576 86.3945 66.8011 86.3945 66.417ZM87.3027 66.3145V66.417C87.3027 66.6807 87.3288 66.9281 87.3809 67.1592C87.4362 67.3903 87.5208 67.5938 87.6348 67.7695C87.7487 67.9453 87.8936 68.0837 88.0693 68.1846C88.2451 68.2822 88.4551 68.3311 88.6992 68.3311C88.9987 68.3311 89.2445 68.2676 89.4365 68.1406C89.6318 68.0137 89.7881 67.846 89.9053 67.6377C90.0225 67.4294 90.1136 67.2031 90.1787 66.959V65.7822C90.1396 65.6032 90.0827 65.4307 90.0078 65.2646C89.9362 65.0954 89.8418 64.9456 89.7246 64.8154C89.6107 64.682 89.4691 64.5762 89.2998 64.498C89.1338 64.4199 88.9368 64.3809 88.709 64.3809C88.4616 64.3809 88.2484 64.4329 88.0693 64.5371C87.8936 64.638 87.7487 64.778 87.6348 64.957C87.5208 65.1328 87.4362 65.3379 87.3809 65.5723C87.3288 65.8034 87.3027 66.0508 87.3027 66.3145ZM93.2451 63.7168V69H92.3369V63.7168H93.2451ZM92.2686 62.3154C92.2686 62.1689 92.3125 62.0452 92.4004 61.9443C92.4915 61.8434 92.625 61.793 92.8008 61.793C92.9733 61.793 93.1051 61.8434 93.1963 61.9443C93.2907 62.0452 93.3379 62.1689 93.3379 62.3154C93.3379 62.4554 93.2907 62.5758 93.1963 62.6768C93.1051 62.7744 92.9733 62.8232 92.8008 62.8232C92.625 62.8232 92.4915 62.7744 92.4004 62.6768C92.3125 62.5758 92.2686 62.4554 92.2686 62.3154ZM95.5986 64.8447V69H94.6953V63.7168H95.5498L95.5986 64.8447ZM95.3838 66.1582L95.0078 66.1436C95.0111 65.7822 95.0648 65.4486 95.1689 65.1426C95.2731 64.8333 95.4196 64.5648 95.6084 64.3369C95.7972 64.109 96.0218 63.9333 96.2822 63.8096C96.5459 63.6826 96.8372 63.6191 97.1562 63.6191C97.4167 63.6191 97.651 63.6549 97.8594 63.7266C98.0677 63.7949 98.2451 63.9056 98.3916 64.0586C98.5413 64.2116 98.6553 64.4102 98.7334 64.6543C98.8115 64.8952 98.8506 65.1898 98.8506 65.5381V69H97.9424V65.5283C97.9424 65.2516 97.9017 65.0303 97.8203 64.8643C97.7389 64.695 97.6201 64.5729 97.4639 64.498C97.3076 64.4199 97.1156 64.3809 96.8877 64.3809C96.6631 64.3809 96.458 64.4281 96.2725 64.5225C96.0902 64.6169 95.9323 64.7471 95.7988 64.9131C95.6686 65.0791 95.5661 65.2695 95.4912 65.4844C95.4196 65.696 95.3838 65.9206 95.3838 66.1582ZM103.646 63.7168H104.466V68.8877C104.466 69.3532 104.371 69.7503 104.183 70.0791C103.994 70.4079 103.73 70.6569 103.392 70.8262C103.056 70.9987 102.669 71.085 102.229 71.085C102.047 71.085 101.832 71.0557 101.585 70.9971C101.341 70.9417 101.1 70.8457 100.862 70.709C100.628 70.5755 100.431 70.3949 100.271 70.167L100.745 69.6299C100.966 69.8968 101.198 70.0824 101.438 70.1865C101.683 70.2907 101.924 70.3428 102.161 70.3428C102.448 70.3428 102.695 70.2891 102.903 70.1816C103.112 70.0742 103.273 69.9147 103.387 69.7031C103.504 69.4948 103.562 69.2376 103.562 68.9316V64.8789L103.646 63.7168ZM100.008 66.417V66.3145C100.008 65.9108 100.055 65.5446 100.149 65.2158C100.247 64.8838 100.385 64.599 100.564 64.3613C100.747 64.1237 100.966 63.9414 101.224 63.8145C101.481 63.6842 101.771 63.6191 102.093 63.6191C102.425 63.6191 102.715 63.6777 102.962 63.7949C103.213 63.9089 103.424 64.0765 103.597 64.2979C103.772 64.516 103.911 64.7796 104.012 65.0889C104.113 65.3981 104.183 65.748 104.222 66.1387V66.5879C104.186 66.9753 104.116 67.3236 104.012 67.6328C103.911 67.9421 103.772 68.2057 103.597 68.4238C103.424 68.6419 103.213 68.8096 102.962 68.9268C102.711 69.0407 102.418 69.0977 102.083 69.0977C101.767 69.0977 101.481 69.0309 101.224 68.8975C100.97 68.764 100.752 68.5768 100.569 68.3359C100.387 68.0951 100.247 67.8118 100.149 67.4863C100.055 67.1576 100.008 66.8011 100.008 66.417ZM100.911 66.3145V66.417C100.911 66.6807 100.937 66.9281 100.989 67.1592C101.045 67.3903 101.128 67.5938 101.238 67.7695C101.352 67.9453 101.497 68.0837 101.673 68.1846C101.849 68.2822 102.059 68.3311 102.303 68.3311C102.602 68.3311 102.85 68.2676 103.045 68.1406C103.24 68.0137 103.395 67.846 103.509 67.6377C103.626 67.4294 103.717 67.2031 103.782 66.959V65.7822C103.746 65.6032 103.691 65.4307 103.616 65.2646C103.545 65.0954 103.45 64.9456 103.333 64.8154C103.219 64.682 103.077 64.5762 102.908 64.498C102.739 64.4199 102.54 64.3809 102.312 64.3809C102.065 64.3809 101.852 64.4329 101.673 64.5371C101.497 64.638 101.352 64.778 101.238 64.957C101.128 65.1328 101.045 65.3379 100.989 65.5723C100.937 65.8034 100.911 66.0508 100.911 66.3145Z" fill="white"/>
<path d="M431.62 44.8789V45.9629C431.62 46.5456 431.568 47.0371 431.464 47.4375C431.359 47.8379 431.21 48.1602 431.014 48.4043C430.819 48.6484 430.583 48.8258 430.306 48.9365C430.033 49.0439 429.724 49.0977 429.379 49.0977C429.105 49.0977 428.853 49.0635 428.622 48.9951C428.391 48.9268 428.182 48.8177 427.997 48.668C427.815 48.515 427.658 48.3164 427.528 48.0723C427.398 47.8281 427.299 47.5319 427.23 47.1836C427.162 46.8353 427.128 46.4284 427.128 45.9629V44.8789C427.128 44.2962 427.18 43.8079 427.284 43.4141C427.391 43.0202 427.543 42.7044 427.738 42.4668C427.933 42.2259 428.168 42.0534 428.441 41.9492C428.718 41.8451 429.027 41.793 429.369 41.793C429.646 41.793 429.9 41.8271 430.131 41.8955C430.365 41.9606 430.573 42.0664 430.756 42.2129C430.938 42.3561 431.093 42.5482 431.22 42.7891C431.35 43.0267 431.449 43.318 431.517 43.6631C431.586 44.0081 431.62 44.4134 431.62 44.8789ZM430.712 46.1094V44.7275C430.712 44.4085 430.692 44.1286 430.653 43.8877C430.617 43.6436 430.564 43.4352 430.492 43.2627C430.42 43.0902 430.329 42.9502 430.219 42.8428C430.111 42.7354 429.986 42.6572 429.843 42.6084C429.703 42.5563 429.545 42.5303 429.369 42.5303C429.154 42.5303 428.964 42.571 428.798 42.6523C428.632 42.7305 428.492 42.8558 428.378 43.0283C428.267 43.2008 428.182 43.4271 428.124 43.707C428.065 43.987 428.036 44.3271 428.036 44.7275V46.1094C428.036 46.4284 428.054 46.71 428.09 46.9541C428.129 47.1982 428.186 47.4098 428.261 47.5889C428.335 47.7646 428.427 47.9095 428.534 48.0234C428.641 48.1374 428.765 48.222 428.905 48.2773C429.048 48.3294 429.206 48.3555 429.379 48.3555C429.6 48.3555 429.794 48.3132 429.96 48.2285C430.126 48.1439 430.264 48.012 430.375 47.833C430.489 47.6507 430.573 47.418 430.629 47.1348C430.684 46.8483 430.712 46.5065 430.712 46.1094ZM433.925 45.6162L433.202 45.4307L433.558 41.8906H437.206V42.7256H434.325L434.11 44.6592C434.24 44.5843 434.405 44.5143 434.603 44.4492C434.805 44.3841 435.036 44.3516 435.297 44.3516C435.625 44.3516 435.92 44.4085 436.18 44.5225C436.441 44.6331 436.662 44.7926 436.845 45.001C437.03 45.2093 437.172 45.46 437.269 45.7529C437.367 46.0459 437.416 46.373 437.416 46.7344C437.416 47.0762 437.369 47.3903 437.274 47.6768C437.183 47.9632 437.045 48.2139 436.859 48.4287C436.674 48.6403 436.439 48.8047 436.156 48.9219C435.876 49.0391 435.546 49.0977 435.165 49.0977C434.878 49.0977 434.607 49.0586 434.349 48.9805C434.095 48.8991 433.868 48.777 433.666 48.6143C433.467 48.4482 433.304 48.2432 433.178 47.999C433.054 47.7516 432.976 47.4619 432.943 47.1299H433.803C433.842 47.3968 433.92 47.6214 434.037 47.8037C434.154 47.986 434.307 48.1243 434.496 48.2188C434.688 48.3099 434.911 48.3555 435.165 48.3555C435.38 48.3555 435.57 48.318 435.736 48.2432C435.902 48.1683 436.042 48.0609 436.156 47.9209C436.27 47.7809 436.356 47.6117 436.415 47.4131C436.477 47.2145 436.508 46.9915 436.508 46.7441C436.508 46.5195 436.477 46.3112 436.415 46.1191C436.353 45.9271 436.26 45.7594 436.137 45.6162C436.016 45.473 435.868 45.3623 435.692 45.2842C435.516 45.2028 435.315 45.1621 435.087 45.1621C434.784 45.1621 434.554 45.2028 434.398 45.2842C434.245 45.3656 434.087 45.4762 433.925 45.6162Z" fill="black"/>
<rect y="96" width="446" height="20" fill="#D9D9D9"/>
<rect y="96" width="162.306" height="20" fill="#EEA62E"/>
<path d="M17.752 109H16.2676L16.2773 108.233H17.752C18.2598 108.233 18.6829 108.128 19.0215 107.916C19.36 107.701 19.6139 107.402 19.7832 107.018C19.9557 106.63 20.042 106.178 20.042 105.66V105.226C20.042 104.819 19.9932 104.457 19.8955 104.142C19.7979 103.823 19.6546 103.554 19.4658 103.336C19.277 103.115 19.0459 102.947 18.7725 102.833C18.5023 102.719 18.1914 102.662 17.8398 102.662H16.2383V101.891H17.8398C18.3053 101.891 18.7301 101.969 19.1143 102.125C19.4984 102.278 19.8288 102.501 20.1055 102.794C20.3854 103.084 20.6003 103.435 20.75 103.849C20.8997 104.259 20.9746 104.721 20.9746 105.235V105.66C20.9746 106.174 20.8997 106.638 20.75 107.052C20.6003 107.462 20.3838 107.812 20.1006 108.102C19.8206 108.391 19.4821 108.614 19.085 108.771C18.6911 108.924 18.2467 109 17.752 109ZM16.7705 101.891V109H15.8281V101.891H16.7705ZM24.4463 109.098C24.0785 109.098 23.7448 109.036 23.4453 108.912C23.1491 108.785 22.8936 108.608 22.6787 108.38C22.4671 108.152 22.3044 107.882 22.1904 107.569C22.0765 107.257 22.0195 106.915 22.0195 106.544V106.339C22.0195 105.909 22.083 105.527 22.21 105.191C22.3369 104.853 22.5094 104.566 22.7275 104.332C22.9456 104.098 23.193 103.92 23.4697 103.8C23.7464 103.679 24.0329 103.619 24.3291 103.619C24.7067 103.619 25.0322 103.684 25.3057 103.814C25.5824 103.945 25.8086 104.127 25.9844 104.361C26.1602 104.592 26.2904 104.866 26.375 105.182C26.4596 105.494 26.502 105.836 26.502 106.207V106.612H22.5566V105.875H25.5986V105.807C25.5856 105.572 25.5368 105.344 25.4521 105.123C25.3708 104.902 25.2406 104.719 25.0615 104.576C24.8825 104.433 24.6383 104.361 24.3291 104.361C24.124 104.361 23.9352 104.405 23.7627 104.493C23.5902 104.578 23.4421 104.705 23.3184 104.874C23.1947 105.043 23.0986 105.25 23.0303 105.494C22.9619 105.738 22.9277 106.02 22.9277 106.339V106.544C22.9277 106.795 22.9619 107.031 23.0303 107.252C23.1019 107.47 23.2044 107.662 23.3379 107.828C23.4746 107.994 23.639 108.124 23.8311 108.219C24.0264 108.313 24.2477 108.36 24.4951 108.36C24.8141 108.36 25.0843 108.295 25.3057 108.165C25.527 108.035 25.7207 107.861 25.8867 107.643L26.4336 108.077C26.3197 108.25 26.1748 108.414 25.999 108.57C25.8232 108.727 25.6068 108.854 25.3496 108.951C25.0957 109.049 24.7946 109.098 24.4463 109.098ZM30.6328 107.599C30.6328 107.468 30.6035 107.348 30.5449 107.237C30.4896 107.123 30.374 107.021 30.1982 106.93C30.0257 106.835 29.7653 106.754 29.417 106.686C29.124 106.624 28.8587 106.55 28.6211 106.466C28.3867 106.381 28.1865 106.279 28.0205 106.158C27.8577 106.038 27.7324 105.896 27.6445 105.733C27.5566 105.571 27.5127 105.38 27.5127 105.162C27.5127 104.954 27.5583 104.757 27.6494 104.571C27.7438 104.386 27.8757 104.221 28.0449 104.078C28.2174 103.935 28.4242 103.823 28.665 103.741C28.9059 103.66 29.1745 103.619 29.4707 103.619C29.8939 103.619 30.2552 103.694 30.5547 103.844C30.8542 103.993 31.0837 104.194 31.2432 104.444C31.4027 104.692 31.4824 104.967 31.4824 105.27H30.5791C30.5791 105.123 30.5352 104.981 30.4473 104.845C30.3626 104.705 30.2373 104.589 30.0713 104.498C29.9085 104.407 29.7083 104.361 29.4707 104.361C29.2201 104.361 29.0166 104.4 28.8604 104.479C28.7074 104.553 28.5951 104.649 28.5234 104.767C28.4551 104.884 28.4209 105.007 28.4209 105.138C28.4209 105.235 28.4372 105.323 28.4697 105.401C28.5055 105.476 28.5674 105.546 28.6553 105.611C28.7432 105.673 28.8669 105.732 29.0264 105.787C29.1859 105.842 29.3893 105.898 29.6367 105.953C30.0697 106.051 30.4261 106.168 30.7061 106.305C30.986 106.441 31.1943 106.609 31.3311 106.808C31.4678 107.006 31.5361 107.247 31.5361 107.53C31.5361 107.761 31.4873 107.973 31.3896 108.165C31.2952 108.357 31.1569 108.523 30.9746 108.663C30.7956 108.8 30.5807 108.907 30.3301 108.985C30.0827 109.06 29.8044 109.098 29.4951 109.098C29.0296 109.098 28.6357 109.015 28.3135 108.849C27.9912 108.683 27.7471 108.468 27.5811 108.204C27.415 107.94 27.332 107.662 27.332 107.369H28.2402C28.2533 107.617 28.3249 107.813 28.4551 107.96C28.5853 108.103 28.7448 108.206 28.9336 108.268C29.1224 108.326 29.3096 108.355 29.4951 108.355C29.7425 108.355 29.9492 108.323 30.1152 108.258C30.2845 108.193 30.4131 108.103 30.501 107.989C30.5889 107.875 30.6328 107.745 30.6328 107.599ZM34.9346 103.717V104.41H32.0781V103.717H34.9346ZM33.0449 102.433H33.9482V107.691C33.9482 107.87 33.9759 108.006 34.0312 108.097C34.0866 108.188 34.1582 108.248 34.2461 108.277C34.334 108.307 34.4284 108.321 34.5293 108.321C34.6042 108.321 34.6823 108.315 34.7637 108.302C34.8483 108.285 34.9118 108.272 34.9541 108.263L34.959 109C34.8874 109.023 34.793 109.044 34.6758 109.063C34.5618 109.086 34.4235 109.098 34.2607 109.098C34.0394 109.098 33.8359 109.054 33.6504 108.966C33.4648 108.878 33.3167 108.731 33.2061 108.526C33.0986 108.318 33.0449 108.038 33.0449 107.687V102.433ZM36.8975 104.547V109H35.9941V103.717H36.873L36.8975 104.547ZM38.5479 103.688L38.543 104.527C38.4681 104.511 38.3965 104.501 38.3281 104.498C38.263 104.492 38.1882 104.488 38.1035 104.488C37.8952 104.488 37.7113 104.521 37.5518 104.586C37.3923 104.651 37.2572 104.742 37.1465 104.859C37.0358 104.977 36.9479 105.117 36.8828 105.279C36.821 105.439 36.7803 105.615 36.7607 105.807L36.5068 105.953C36.5068 105.634 36.5378 105.335 36.5996 105.055C36.6647 104.775 36.764 104.527 36.8975 104.312C37.0309 104.094 37.2002 103.925 37.4053 103.805C37.6136 103.681 37.861 103.619 38.1475 103.619C38.2126 103.619 38.2874 103.627 38.3721 103.644C38.4567 103.657 38.5153 103.671 38.5479 103.688ZM42.6152 107.779V103.717H43.5234V109H42.6592L42.6152 107.779ZM42.7861 106.666L43.1621 106.656C43.1621 107.008 43.1247 107.333 43.0498 107.633C42.9782 107.929 42.861 108.186 42.6982 108.404C42.5355 108.622 42.3223 108.793 42.0586 108.917C41.7949 109.037 41.4743 109.098 41.0967 109.098C40.8395 109.098 40.6035 109.06 40.3887 108.985C40.1771 108.91 39.9948 108.795 39.8418 108.639C39.6888 108.482 39.57 108.279 39.4854 108.028C39.404 107.778 39.3633 107.477 39.3633 107.125V103.717H40.2666V107.135C40.2666 107.372 40.2926 107.569 40.3447 107.726C40.4001 107.879 40.4733 108.001 40.5645 108.092C40.6589 108.18 40.763 108.242 40.877 108.277C40.9941 108.313 41.1146 108.331 41.2383 108.331C41.6224 108.331 41.9268 108.258 42.1514 108.111C42.376 107.962 42.5371 107.761 42.6348 107.511C42.7357 107.257 42.7861 106.975 42.7861 106.666ZM47.0146 108.355C47.2295 108.355 47.4281 108.312 47.6104 108.224C47.7926 108.136 47.9424 108.015 48.0596 107.862C48.1768 107.706 48.2435 107.529 48.2598 107.33H49.1191C49.1029 107.643 48.9971 107.934 48.8018 108.204C48.6097 108.471 48.3574 108.688 48.0449 108.854C47.7324 109.016 47.389 109.098 47.0146 109.098C46.6175 109.098 46.2708 109.028 45.9746 108.888C45.6816 108.748 45.4375 108.556 45.2422 108.312C45.0501 108.067 44.9053 107.787 44.8076 107.472C44.7132 107.153 44.666 106.816 44.666 106.461V106.256C44.666 105.901 44.7132 105.566 44.8076 105.25C44.9053 104.931 45.0501 104.649 45.2422 104.405C45.4375 104.161 45.6816 103.969 45.9746 103.829C46.2708 103.689 46.6175 103.619 47.0146 103.619C47.4281 103.619 47.7894 103.704 48.0986 103.873C48.4079 104.039 48.6504 104.267 48.8262 104.557C49.0052 104.843 49.1029 105.169 49.1191 105.533H48.2598C48.2435 105.315 48.1816 105.118 48.0742 104.942C47.9701 104.767 47.8268 104.627 47.6445 104.522C47.4655 104.415 47.2555 104.361 47.0146 104.361C46.738 104.361 46.5052 104.417 46.3164 104.527C46.1309 104.635 45.9827 104.781 45.8721 104.967C45.7646 105.149 45.6865 105.353 45.6377 105.577C45.5921 105.799 45.5693 106.025 45.5693 106.256V106.461C45.5693 106.692 45.5921 106.92 45.6377 107.145C45.6833 107.369 45.7598 107.573 45.8672 107.755C45.9779 107.937 46.126 108.084 46.3115 108.194C46.5003 108.302 46.7347 108.355 47.0146 108.355ZM52.3467 103.717V104.41H49.4902V103.717H52.3467ZM50.457 102.433H51.3604V107.691C51.3604 107.87 51.388 108.006 51.4434 108.097C51.4987 108.188 51.5703 108.248 51.6582 108.277C51.7461 108.307 51.8405 108.321 51.9414 108.321C52.0163 108.321 52.0944 108.315 52.1758 108.302C52.2604 108.285 52.3239 108.272 52.3662 108.263L52.3711 109C52.2995 109.023 52.2051 109.044 52.0879 109.063C51.974 109.086 51.8356 109.098 51.6729 109.098C51.4515 109.098 51.248 109.054 51.0625 108.966C50.877 108.878 50.7288 108.731 50.6182 108.526C50.5107 108.318 50.457 108.038 50.457 107.687V102.433ZM54.3877 103.717V109H53.4795V103.717H54.3877ZM53.4111 102.315C53.4111 102.169 53.4551 102.045 53.543 101.944C53.6341 101.843 53.7676 101.793 53.9434 101.793C54.1159 101.793 54.2477 101.843 54.3389 101.944C54.4333 102.045 54.4805 102.169 54.4805 102.315C54.4805 102.455 54.4333 102.576 54.3389 102.677C54.2477 102.774 54.1159 102.823 53.9434 102.823C53.7676 102.823 53.6341 102.774 53.543 102.677C53.4551 102.576 53.4111 102.455 53.4111 102.315ZM55.5986 106.417V106.305C55.5986 105.924 55.654 105.571 55.7646 105.245C55.8753 104.916 56.0348 104.632 56.2432 104.391C56.4515 104.146 56.7038 103.958 57 103.824C57.2962 103.688 57.6283 103.619 57.9961 103.619C58.3672 103.619 58.7008 103.688 58.9971 103.824C59.2965 103.958 59.5505 104.146 59.7588 104.391C59.9704 104.632 60.1315 104.916 60.2422 105.245C60.3529 105.571 60.4082 105.924 60.4082 106.305V106.417C60.4082 106.798 60.3529 107.151 60.2422 107.477C60.1315 107.802 59.9704 108.087 59.7588 108.331C59.5505 108.572 59.2982 108.761 59.002 108.897C58.709 109.031 58.377 109.098 58.0059 109.098C57.6348 109.098 57.3011 109.031 57.0049 108.897C56.7087 108.761 56.4548 108.572 56.2432 108.331C56.0348 108.087 55.8753 107.802 55.7646 107.477C55.654 107.151 55.5986 106.798 55.5986 106.417ZM56.502 106.305V106.417C56.502 106.681 56.5329 106.93 56.5947 107.164C56.6566 107.395 56.7493 107.6 56.873 107.779C57 107.958 57.1579 108.1 57.3467 108.204C57.5355 108.305 57.7552 108.355 58.0059 108.355C58.2533 108.355 58.4697 108.305 58.6553 108.204C58.8441 108.1 59.0003 107.958 59.124 107.779C59.2477 107.6 59.3405 107.395 59.4023 107.164C59.4674 106.93 59.5 106.681 59.5 106.417V106.305C59.5 106.044 59.4674 105.799 59.4023 105.567C59.3405 105.333 59.2461 105.126 59.1191 104.947C58.9954 104.765 58.8392 104.622 58.6504 104.518C58.4648 104.413 58.2467 104.361 57.9961 104.361C57.7487 104.361 57.5306 104.413 57.3418 104.518C57.1562 104.622 57 104.765 56.873 104.947C56.7493 105.126 56.6566 105.333 56.5947 105.567C56.5329 105.799 56.502 106.044 56.502 106.305ZM62.4443 104.845V109H61.541V103.717H62.3955L62.4443 104.845ZM62.2295 106.158L61.8535 106.144C61.8568 105.782 61.9105 105.449 62.0146 105.143C62.1188 104.833 62.2653 104.565 62.4541 104.337C62.6429 104.109 62.8675 103.933 63.1279 103.81C63.3916 103.683 63.6829 103.619 64.002 103.619C64.2624 103.619 64.4967 103.655 64.7051 103.727C64.9134 103.795 65.0908 103.906 65.2373 104.059C65.387 104.212 65.501 104.41 65.5791 104.654C65.6572 104.895 65.6963 105.19 65.6963 105.538V109H64.7881V105.528C64.7881 105.252 64.7474 105.03 64.666 104.864C64.5846 104.695 64.4658 104.573 64.3096 104.498C64.1533 104.42 63.9613 104.381 63.7334 104.381C63.5088 104.381 63.3037 104.428 63.1182 104.522C62.9359 104.617 62.778 104.747 62.6445 104.913C62.5143 105.079 62.4118 105.27 62.3369 105.484C62.2653 105.696 62.2295 105.921 62.2295 106.158ZM73.4746 107.203C73.4746 107.037 73.4486 106.891 73.3965 106.764C73.3477 106.633 73.2598 106.516 73.1328 106.412C73.0091 106.308 72.8366 106.209 72.6152 106.114C72.3971 106.02 72.1204 105.924 71.7852 105.826C71.4336 105.722 71.1162 105.606 70.833 105.479C70.5498 105.349 70.3073 105.201 70.1055 105.035C69.9036 104.869 69.749 104.679 69.6416 104.464C69.5342 104.249 69.4805 104.003 69.4805 103.727C69.4805 103.45 69.5374 103.194 69.6514 102.96C69.7653 102.726 69.9281 102.522 70.1396 102.35C70.3545 102.174 70.61 102.037 70.9062 101.939C71.2025 101.842 71.5329 101.793 71.8975 101.793C72.4313 101.793 72.8838 101.896 73.2549 102.101C73.6292 102.302 73.9141 102.568 74.1094 102.896C74.3047 103.222 74.4023 103.57 74.4023 103.941H73.4648C73.4648 103.674 73.4079 103.438 73.2939 103.233C73.18 103.025 73.0075 102.862 72.7764 102.745C72.5452 102.625 72.2523 102.564 71.8975 102.564C71.5622 102.564 71.2855 102.615 71.0674 102.716C70.8493 102.817 70.6865 102.953 70.5791 103.126C70.4749 103.299 70.4229 103.495 70.4229 103.717C70.4229 103.867 70.4538 104.003 70.5156 104.127C70.5807 104.247 70.68 104.36 70.8135 104.464C70.9502 104.568 71.1227 104.664 71.3311 104.752C71.5426 104.84 71.7949 104.924 72.0879 105.006C72.4915 105.12 72.8398 105.247 73.1328 105.387C73.4258 105.527 73.6667 105.685 73.8555 105.86C74.0475 106.033 74.1891 106.23 74.2803 106.451C74.3747 106.669 74.4219 106.917 74.4219 107.193C74.4219 107.483 74.3633 107.745 74.2461 107.979C74.1289 108.214 73.9613 108.414 73.7432 108.58C73.5251 108.746 73.263 108.875 72.957 108.966C72.6543 109.054 72.3158 109.098 71.9414 109.098C71.6126 109.098 71.2887 109.052 70.9697 108.961C70.654 108.87 70.3659 108.733 70.1055 108.551C69.8483 108.368 69.6416 108.144 69.4854 107.877C69.3324 107.607 69.2559 107.294 69.2559 106.939H70.1934C70.1934 107.184 70.2406 107.394 70.335 107.569C70.4294 107.742 70.5579 107.885 70.7207 107.999C70.8867 108.113 71.0739 108.198 71.2822 108.253C71.4938 108.305 71.7135 108.331 71.9414 108.331C72.2702 108.331 72.5485 108.285 72.7764 108.194C73.0042 108.103 73.1768 107.973 73.2939 107.804C73.4144 107.634 73.4746 107.434 73.4746 107.203ZM77.6006 108.355C77.8154 108.355 78.014 108.312 78.1963 108.224C78.3786 108.136 78.5283 108.015 78.6455 107.862C78.7627 107.706 78.8294 107.529 78.8457 107.33H79.7051C79.6888 107.643 79.583 107.934 79.3877 108.204C79.1956 108.471 78.9434 108.688 78.6309 108.854C78.3184 109.016 77.9749 109.098 77.6006 109.098C77.2035 109.098 76.8568 109.028 76.5605 108.888C76.2676 108.748 76.0234 108.556 75.8281 108.312C75.6361 108.067 75.4912 107.787 75.3936 107.472C75.2992 107.153 75.252 106.816 75.252 106.461V106.256C75.252 105.901 75.2992 105.566 75.3936 105.25C75.4912 104.931 75.6361 104.649 75.8281 104.405C76.0234 104.161 76.2676 103.969 76.5605 103.829C76.8568 103.689 77.2035 103.619 77.6006 103.619C78.014 103.619 78.3753 103.704 78.6846 103.873C78.9938 104.039 79.2363 104.267 79.4121 104.557C79.5911 104.843 79.6888 105.169 79.7051 105.533H78.8457C78.8294 105.315 78.7676 105.118 78.6602 104.942C78.556 104.767 78.4128 104.627 78.2305 104.522C78.0514 104.415 77.8415 104.361 77.6006 104.361C77.3239 104.361 77.0911 104.417 76.9023 104.527C76.7168 104.635 76.5687 104.781 76.458 104.967C76.3506 105.149 76.2725 105.353 76.2236 105.577C76.1781 105.799 76.1553 106.025 76.1553 106.256V106.461C76.1553 106.692 76.1781 106.92 76.2236 107.145C76.2692 107.369 76.3457 107.573 76.4531 107.755C76.5638 107.937 76.7119 108.084 76.8975 108.194C77.0863 108.302 77.3206 108.355 77.6006 108.355ZM81.624 101.5V109H80.7207V101.5H81.624ZM81.4092 106.158L81.0332 106.144C81.0365 105.782 81.0902 105.449 81.1943 105.143C81.2985 104.833 81.445 104.565 81.6338 104.337C81.8226 104.109 82.0472 103.933 82.3076 103.81C82.5713 103.683 82.8626 103.619 83.1816 103.619C83.4421 103.619 83.6764 103.655 83.8848 103.727C84.0931 103.795 84.2705 103.906 84.417 104.059C84.5667 104.212 84.6807 104.41 84.7588 104.654C84.8369 104.895 84.876 105.19 84.876 105.538V109H83.9678V105.528C83.9678 105.252 83.9271 105.03 83.8457 104.864C83.7643 104.695 83.6455 104.573 83.4893 104.498C83.333 104.42 83.141 104.381 82.9131 104.381C82.6885 104.381 82.4834 104.428 82.2979 104.522C82.1156 104.617 81.9577 104.747 81.8242 104.913C81.694 105.079 81.5915 105.27 81.5166 105.484C81.445 105.696 81.4092 105.921 81.4092 106.158ZM88.4209 109.098C88.0531 109.098 87.7194 109.036 87.4199 108.912C87.1237 108.785 86.8682 108.608 86.6533 108.38C86.4417 108.152 86.279 107.882 86.165 107.569C86.0511 107.257 85.9941 106.915 85.9941 106.544V106.339C85.9941 105.909 86.0576 105.527 86.1846 105.191C86.3115 104.853 86.484 104.566 86.7021 104.332C86.9202 104.098 87.1676 103.92 87.4443 103.8C87.721 103.679 88.0075 103.619 88.3037 103.619C88.6813 103.619 89.0068 103.684 89.2803 103.814C89.557 103.945 89.7832 104.127 89.959 104.361C90.1348 104.592 90.265 104.866 90.3496 105.182C90.4342 105.494 90.4766 105.836 90.4766 106.207V106.612H86.5312V105.875H89.5732V105.807C89.5602 105.572 89.5114 105.344 89.4268 105.123C89.3454 104.902 89.2152 104.719 89.0361 104.576C88.8571 104.433 88.613 104.361 88.3037 104.361C88.0986 104.361 87.9098 104.405 87.7373 104.493C87.5648 104.578 87.4167 104.705 87.293 104.874C87.1693 105.043 87.0732 105.25 87.0049 105.494C86.9365 105.738 86.9023 106.02 86.9023 106.339V106.544C86.9023 106.795 86.9365 107.031 87.0049 107.252C87.0765 107.47 87.179 107.662 87.3125 107.828C87.4492 107.994 87.6136 108.124 87.8057 108.219C88.001 108.313 88.2223 108.36 88.4697 108.36C88.7887 108.36 89.0589 108.295 89.2803 108.165C89.5016 108.035 89.6953 107.861 89.8613 107.643L90.4082 108.077C90.2943 108.25 90.1494 108.414 89.9736 108.57C89.7979 108.727 89.5814 108.854 89.3242 108.951C89.0703 109.049 88.7692 109.098 88.4209 109.098ZM94.8613 107.975V101.5H95.7695V109H94.9395L94.8613 107.975ZM91.3066 106.417V106.314C91.3066 105.911 91.3555 105.545 91.4531 105.216C91.554 104.884 91.6956 104.599 91.8779 104.361C92.0635 104.124 92.2832 103.941 92.5371 103.814C92.7943 103.684 93.0807 103.619 93.3965 103.619C93.7285 103.619 94.0182 103.678 94.2656 103.795C94.5163 103.909 94.7279 104.076 94.9004 104.298C95.0762 104.516 95.2145 104.78 95.3154 105.089C95.4163 105.398 95.4863 105.748 95.5254 106.139V106.588C95.4896 106.975 95.4196 107.324 95.3154 107.633C95.2145 107.942 95.0762 108.206 94.9004 108.424C94.7279 108.642 94.5163 108.81 94.2656 108.927C94.015 109.041 93.722 109.098 93.3867 109.098C93.0775 109.098 92.7943 109.031 92.5371 108.897C92.2832 108.764 92.0635 108.577 91.8779 108.336C91.6956 108.095 91.554 107.812 91.4531 107.486C91.3555 107.158 91.3066 106.801 91.3066 106.417ZM92.2148 106.314V106.417C92.2148 106.681 92.2409 106.928 92.293 107.159C92.3483 107.39 92.4329 107.594 92.5469 107.77C92.6608 107.945 92.8057 108.084 92.9814 108.185C93.1572 108.282 93.3672 108.331 93.6113 108.331C93.9108 108.331 94.1566 108.268 94.3486 108.141C94.5439 108.014 94.7002 107.846 94.8174 107.638C94.9346 107.429 95.0257 107.203 95.0908 106.959V105.782C95.0518 105.603 94.9948 105.431 94.9199 105.265C94.8483 105.095 94.7539 104.946 94.6367 104.815C94.5228 104.682 94.3812 104.576 94.2119 104.498C94.0459 104.42 93.849 104.381 93.6211 104.381C93.3737 104.381 93.1605 104.433 92.9814 104.537C92.8057 104.638 92.6608 104.778 92.5469 104.957C92.4329 105.133 92.3483 105.338 92.293 105.572C92.2409 105.803 92.2148 106.051 92.2148 106.314ZM100.408 107.779V103.717H101.316V109H100.452L100.408 107.779ZM100.579 106.666L100.955 106.656C100.955 107.008 100.918 107.333 100.843 107.633C100.771 107.929 100.654 108.186 100.491 108.404C100.328 108.622 100.115 108.793 99.8516 108.917C99.5879 109.037 99.2673 109.098 98.8896 109.098C98.6325 109.098 98.3965 109.06 98.1816 108.985C97.9701 108.91 97.7878 108.795 97.6348 108.639C97.4818 108.482 97.363 108.279 97.2783 108.028C97.1969 107.778 97.1562 107.477 97.1562 107.125V103.717H98.0596V107.135C98.0596 107.372 98.0856 107.569 98.1377 107.726C98.193 107.879 98.2663 108.001 98.3574 108.092C98.4518 108.18 98.556 108.242 98.6699 108.277C98.7871 108.313 98.9076 108.331 99.0312 108.331C99.4154 108.331 99.7197 108.258 99.9443 108.111C100.169 107.962 100.33 107.761 100.428 107.511C100.529 107.257 100.579 106.975 100.579 106.666ZM103.675 101.5V109H102.767V101.5H103.675ZM107.317 109.098C106.95 109.098 106.616 109.036 106.316 108.912C106.02 108.785 105.765 108.608 105.55 108.38C105.338 108.152 105.175 107.882 105.062 107.569C104.948 107.257 104.891 106.915 104.891 106.544V106.339C104.891 105.909 104.954 105.527 105.081 105.191C105.208 104.853 105.381 104.566 105.599 104.332C105.817 104.098 106.064 103.92 106.341 103.8C106.618 103.679 106.904 103.619 107.2 103.619C107.578 103.619 107.903 103.684 108.177 103.814C108.453 103.945 108.68 104.127 108.855 104.361C109.031 104.592 109.161 104.866 109.246 105.182C109.331 105.494 109.373 105.836 109.373 106.207V106.612H105.428V105.875H108.47V105.807C108.457 105.572 108.408 105.344 108.323 105.123C108.242 104.902 108.112 104.719 107.933 104.576C107.754 104.433 107.509 104.361 107.2 104.361C106.995 104.361 106.806 104.405 106.634 104.493C106.461 104.578 106.313 104.705 106.189 104.874C106.066 105.043 105.97 105.25 105.901 105.494C105.833 105.738 105.799 106.02 105.799 106.339V106.544C105.799 106.795 105.833 107.031 105.901 107.252C105.973 107.47 106.076 107.662 106.209 107.828C106.346 107.994 106.51 108.124 106.702 108.219C106.897 108.313 107.119 108.36 107.366 108.36C107.685 108.36 107.955 108.295 108.177 108.165C108.398 108.035 108.592 107.861 108.758 107.643L109.305 108.077C109.191 108.25 109.046 108.414 108.87 108.57C108.694 108.727 108.478 108.854 108.221 108.951C107.967 109.049 107.666 109.098 107.317 109.098Z" fill="black"/>
<path d="M431.62 84.8789V85.9629C431.62 86.5456 431.568 87.0371 431.464 87.4375C431.359 87.8379 431.21 88.1602 431.014 88.4043C430.819 88.6484 430.583 88.8258 430.306 88.9365C430.033 89.0439 429.724 89.0977 429.379 89.0977C429.105 89.0977 428.853 89.0635 428.622 88.9951C428.391 88.9268 428.182 88.8177 427.997 88.668C427.815 88.515 427.658 88.3164 427.528 88.0723C427.398 87.8281 427.299 87.5319 427.23 87.1836C427.162 86.8353 427.128 86.4284 427.128 85.9629V84.8789C427.128 84.2962 427.18 83.8079 427.284 83.4141C427.391 83.0202 427.543 82.7044 427.738 82.4668C427.933 82.2259 428.168 82.0534 428.441 81.9492C428.718 81.8451 429.027 81.793 429.369 81.793C429.646 81.793 429.9 81.8271 430.131 81.8955C430.365 81.9606 430.573 82.0664 430.756 82.2129C430.938 82.3561 431.093 82.5482 431.22 82.7891C431.35 83.0267 431.449 83.318 431.517 83.6631C431.586 84.0081 431.62 84.4134 431.62 84.8789ZM430.712 86.1094V84.7275C430.712 84.4085 430.692 84.1286 430.653 83.8877C430.617 83.6436 430.564 83.4352 430.492 83.2627C430.42 83.0902 430.329 82.9502 430.219 82.8428C430.111 82.7354 429.986 82.6572 429.843 82.6084C429.703 82.5563 429.545 82.5303 429.369 82.5303C429.154 82.5303 428.964 82.571 428.798 82.6523C428.632 82.7305 428.492 82.8558 428.378 83.0283C428.267 83.2008 428.182 83.4271 428.124 83.707C428.065 83.987 428.036 84.3271 428.036 84.7275V86.1094C428.036 86.4284 428.054 86.71 428.09 86.9541C428.129 87.1982 428.186 87.4098 428.261 87.5889C428.335 87.7646 428.427 87.9095 428.534 88.0234C428.641 88.1374 428.765 88.222 428.905 88.2773C429.048 88.3294 429.206 88.3555 429.379 88.3555C429.6 88.3555 429.794 88.3132 429.96 88.2285C430.126 88.1439 430.264 88.012 430.375 87.833C430.489 87.6507 430.573 87.418 430.629 87.1348C430.684 86.8483 430.712 86.5065 430.712 86.1094ZM434.1 85.001H434.745C435.061 85.001 435.321 84.9489 435.526 84.8447C435.734 84.7373 435.889 84.5924 435.99 84.4102C436.094 84.2246 436.146 84.0163 436.146 83.7852C436.146 83.5117 436.101 83.2822 436.01 83.0967C435.918 82.9111 435.782 82.7712 435.599 82.6768C435.417 82.5824 435.186 82.5352 434.906 82.5352C434.652 82.5352 434.428 82.5856 434.232 82.6865C434.04 82.7842 433.889 82.9242 433.778 83.1064C433.671 83.2887 433.617 83.5036 433.617 83.751H432.714C432.714 83.3896 432.805 83.0609 432.987 82.7646C433.169 82.4684 433.425 82.2324 433.754 82.0566C434.086 81.8809 434.47 81.793 434.906 81.793C435.336 81.793 435.712 81.8695 436.034 82.0225C436.356 82.1722 436.607 82.3968 436.786 82.6963C436.965 82.9925 437.054 83.362 437.054 83.8047C437.054 83.9837 437.012 84.1758 436.928 84.3809C436.846 84.5827 436.718 84.7715 436.542 84.9473C436.369 85.123 436.145 85.2679 435.868 85.3818C435.591 85.4925 435.259 85.5479 434.872 85.5479H434.1V85.001ZM434.1 85.7432V85.2012H434.872C435.324 85.2012 435.699 85.2549 435.995 85.3623C436.291 85.4697 436.524 85.613 436.693 85.792C436.866 85.971 436.986 86.168 437.054 86.3828C437.126 86.5944 437.162 86.806 437.162 87.0176C437.162 87.3496 437.105 87.6442 436.991 87.9014C436.88 88.1585 436.722 88.3766 436.517 88.5557C436.316 88.7347 436.078 88.8698 435.804 88.9609C435.531 89.0521 435.233 89.0977 434.911 89.0977C434.602 89.0977 434.31 89.0537 434.037 88.9658C433.767 88.8779 433.527 88.751 433.319 88.585C433.111 88.4157 432.948 88.209 432.831 87.9648C432.714 87.7174 432.655 87.4359 432.655 87.1201H433.558C433.558 87.3675 433.612 87.584 433.72 87.7695C433.83 87.9551 433.986 88.0999 434.188 88.2041C434.393 88.305 434.634 88.3555 434.911 88.3555C435.188 88.3555 435.425 88.3083 435.624 88.2139C435.826 88.1162 435.98 87.9697 436.088 87.7744C436.198 87.5791 436.254 87.3333 436.254 87.0371C436.254 86.7409 436.192 86.4984 436.068 86.3096C435.944 86.1175 435.769 85.9759 435.541 85.8848C435.316 85.7904 435.051 85.7432 434.745 85.7432H434.1Z" fill="black"/>
<rect y="136" width="446" height="20" fill="#D9D9D9"/>
<rect y="136" width="105.021" height="20" fill="#3CD856"/>
<path d="M17.752 149H16.2676L16.2773 148.233H17.752C18.2598 148.233 18.6829 148.128 19.0215 147.916C19.36 147.701 19.6139 147.402 19.7832 147.018C19.9557 146.63 20.042 146.178 20.042 145.66V145.226C20.042 144.819 19.9932 144.457 19.8955 144.142C19.7979 143.823 19.6546 143.554 19.4658 143.336C19.277 143.115 19.0459 142.947 18.7725 142.833C18.5023 142.719 18.1914 142.662 17.8398 142.662H16.2383V141.891H17.8398C18.3053 141.891 18.7301 141.969 19.1143 142.125C19.4984 142.278 19.8288 142.501 20.1055 142.794C20.3854 143.084 20.6003 143.435 20.75 143.849C20.8997 144.259 20.9746 144.721 20.9746 145.235V145.66C20.9746 146.174 20.8997 146.638 20.75 147.052C20.6003 147.462 20.3838 147.812 20.1006 148.102C19.8206 148.391 19.4821 148.614 19.085 148.771C18.6911 148.924 18.2467 149 17.752 149ZM16.7705 141.891V149H15.8281V141.891H16.7705ZM24.4463 149.098C24.0785 149.098 23.7448 149.036 23.4453 148.912C23.1491 148.785 22.8936 148.608 22.6787 148.38C22.4671 148.152 22.3044 147.882 22.1904 147.569C22.0765 147.257 22.0195 146.915 22.0195 146.544V146.339C22.0195 145.909 22.083 145.527 22.21 145.191C22.3369 144.853 22.5094 144.566 22.7275 144.332C22.9456 144.098 23.193 143.92 23.4697 143.8C23.7464 143.679 24.0329 143.619 24.3291 143.619C24.7067 143.619 25.0322 143.684 25.3057 143.814C25.5824 143.945 25.8086 144.127 25.9844 144.361C26.1602 144.592 26.2904 144.866 26.375 145.182C26.4596 145.494 26.502 145.836 26.502 146.207V146.612H22.5566V145.875H25.5986V145.807C25.5856 145.572 25.5368 145.344 25.4521 145.123C25.3708 144.902 25.2406 144.719 25.0615 144.576C24.8825 144.433 24.6383 144.361 24.3291 144.361C24.124 144.361 23.9352 144.405 23.7627 144.493C23.5902 144.578 23.4421 144.705 23.3184 144.874C23.1947 145.043 23.0986 145.25 23.0303 145.494C22.9619 145.738 22.9277 146.02 22.9277 146.339V146.544C22.9277 146.795 22.9619 147.031 23.0303 147.252C23.1019 147.47 23.2044 147.662 23.3379 147.828C23.4746 147.994 23.639 148.124 23.8311 148.219C24.0264 148.313 24.2477 148.36 24.4951 148.36C24.8141 148.36 25.0843 148.295 25.3057 148.165C25.527 148.035 25.7207 147.861 25.8867 147.643L26.4336 148.077C26.3197 148.25 26.1748 148.414 25.999 148.57C25.8232 148.727 25.6068 148.854 25.3496 148.951C25.0957 149.049 24.7946 149.098 24.4463 149.098ZM30.6328 147.599C30.6328 147.468 30.6035 147.348 30.5449 147.237C30.4896 147.123 30.374 147.021 30.1982 146.93C30.0257 146.835 29.7653 146.754 29.417 146.686C29.124 146.624 28.8587 146.55 28.6211 146.466C28.3867 146.381 28.1865 146.279 28.0205 146.158C27.8577 146.038 27.7324 145.896 27.6445 145.733C27.5566 145.571 27.5127 145.38 27.5127 145.162C27.5127 144.954 27.5583 144.757 27.6494 144.571C27.7438 144.386 27.8757 144.221 28.0449 144.078C28.2174 143.935 28.4242 143.823 28.665 143.741C28.9059 143.66 29.1745 143.619 29.4707 143.619C29.8939 143.619 30.2552 143.694 30.5547 143.844C30.8542 143.993 31.0837 144.194 31.2432 144.444C31.4027 144.692 31.4824 144.967 31.4824 145.27H30.5791C30.5791 145.123 30.5352 144.981 30.4473 144.845C30.3626 144.705 30.2373 144.589 30.0713 144.498C29.9085 144.407 29.7083 144.361 29.4707 144.361C29.2201 144.361 29.0166 144.4 28.8604 144.479C28.7074 144.553 28.5951 144.649 28.5234 144.767C28.4551 144.884 28.4209 145.007 28.4209 145.138C28.4209 145.235 28.4372 145.323 28.4697 145.401C28.5055 145.476 28.5674 145.546 28.6553 145.611C28.7432 145.673 28.8669 145.732 29.0264 145.787C29.1859 145.842 29.3893 145.898 29.6367 145.953C30.0697 146.051 30.4261 146.168 30.7061 146.305C30.986 146.441 31.1943 146.609 31.3311 146.808C31.4678 147.006 31.5361 147.247 31.5361 147.53C31.5361 147.761 31.4873 147.973 31.3896 148.165C31.2952 148.357 31.1569 148.523 30.9746 148.663C30.7956 148.8 30.5807 148.907 30.3301 148.985C30.0827 149.06 29.8044 149.098 29.4951 149.098C29.0296 149.098 28.6357 149.015 28.3135 148.849C27.9912 148.683 27.7471 148.468 27.5811 148.204C27.415 147.94 27.332 147.662 27.332 147.369H28.2402C28.2533 147.617 28.3249 147.813 28.4551 147.96C28.5853 148.103 28.7448 148.206 28.9336 148.268C29.1224 148.326 29.3096 148.355 29.4951 148.355C29.7425 148.355 29.9492 148.323 30.1152 148.258C30.2845 148.193 30.4131 148.103 30.501 147.989C30.5889 147.875 30.6328 147.745 30.6328 147.599ZM34.9346 143.717V144.41H32.0781V143.717H34.9346ZM33.0449 142.433H33.9482V147.691C33.9482 147.87 33.9759 148.006 34.0312 148.097C34.0866 148.188 34.1582 148.248 34.2461 148.277C34.334 148.307 34.4284 148.321 34.5293 148.321C34.6042 148.321 34.6823 148.315 34.7637 148.302C34.8483 148.285 34.9118 148.272 34.9541 148.263L34.959 149C34.8874 149.023 34.793 149.044 34.6758 149.063C34.5618 149.086 34.4235 149.098 34.2607 149.098C34.0394 149.098 33.8359 149.054 33.6504 148.966C33.4648 148.878 33.3167 148.731 33.2061 148.526C33.0986 148.318 33.0449 148.038 33.0449 147.687V142.433ZM36.8975 144.547V149H35.9941V143.717H36.873L36.8975 144.547ZM38.5479 143.688L38.543 144.527C38.4681 144.511 38.3965 144.501 38.3281 144.498C38.263 144.492 38.1882 144.488 38.1035 144.488C37.8952 144.488 37.7113 144.521 37.5518 144.586C37.3923 144.651 37.2572 144.742 37.1465 144.859C37.0358 144.977 36.9479 145.117 36.8828 145.279C36.821 145.439 36.7803 145.615 36.7607 145.807L36.5068 145.953C36.5068 145.634 36.5378 145.335 36.5996 145.055C36.6647 144.775 36.764 144.527 36.8975 144.312C37.0309 144.094 37.2002 143.925 37.4053 143.805C37.6136 143.681 37.861 143.619 38.1475 143.619C38.2126 143.619 38.2874 143.627 38.3721 143.644C38.4567 143.657 38.5153 143.671 38.5479 143.688ZM42.6152 147.779V143.717H43.5234V149H42.6592L42.6152 147.779ZM42.7861 146.666L43.1621 146.656C43.1621 147.008 43.1247 147.333 43.0498 147.633C42.9782 147.929 42.861 148.186 42.6982 148.404C42.5355 148.622 42.3223 148.793 42.0586 148.917C41.7949 149.037 41.4743 149.098 41.0967 149.098C40.8395 149.098 40.6035 149.06 40.3887 148.985C40.1771 148.91 39.9948 148.795 39.8418 148.639C39.6888 148.482 39.57 148.279 39.4854 148.028C39.404 147.778 39.3633 147.477 39.3633 147.125V143.717H40.2666V147.135C40.2666 147.372 40.2926 147.569 40.3447 147.726C40.4001 147.879 40.4733 148.001 40.5645 148.092C40.6589 148.18 40.763 148.242 40.877 148.277C40.9941 148.313 41.1146 148.331 41.2383 148.331C41.6224 148.331 41.9268 148.258 42.1514 148.111C42.376 147.962 42.5371 147.761 42.6348 147.511C42.7357 147.257 42.7861 146.975 42.7861 146.666ZM47.0146 148.355C47.2295 148.355 47.4281 148.312 47.6104 148.224C47.7926 148.136 47.9424 148.015 48.0596 147.862C48.1768 147.706 48.2435 147.529 48.2598 147.33H49.1191C49.1029 147.643 48.9971 147.934 48.8018 148.204C48.6097 148.471 48.3574 148.688 48.0449 148.854C47.7324 149.016 47.389 149.098 47.0146 149.098C46.6175 149.098 46.2708 149.028 45.9746 148.888C45.6816 148.748 45.4375 148.556 45.2422 148.312C45.0501 148.067 44.9053 147.787 44.8076 147.472C44.7132 147.153 44.666 146.816 44.666 146.461V146.256C44.666 145.901 44.7132 145.566 44.8076 145.25C44.9053 144.931 45.0501 144.649 45.2422 144.405C45.4375 144.161 45.6816 143.969 45.9746 143.829C46.2708 143.689 46.6175 143.619 47.0146 143.619C47.4281 143.619 47.7894 143.704 48.0986 143.873C48.4079 144.039 48.6504 144.267 48.8262 144.557C49.0052 144.843 49.1029 145.169 49.1191 145.533H48.2598C48.2435 145.315 48.1816 145.118 48.0742 144.942C47.9701 144.767 47.8268 144.627 47.6445 144.522C47.4655 144.415 47.2555 144.361 47.0146 144.361C46.738 144.361 46.5052 144.417 46.3164 144.527C46.1309 144.635 45.9827 144.781 45.8721 144.967C45.7646 145.149 45.6865 145.353 45.6377 145.577C45.5921 145.799 45.5693 146.025 45.5693 146.256V146.461C45.5693 146.692 45.5921 146.92 45.6377 147.145C45.6833 147.369 45.7598 147.573 45.8672 147.755C45.9779 147.937 46.126 148.084 46.3115 148.194C46.5003 148.302 46.7347 148.355 47.0146 148.355ZM52.3467 143.717V144.41H49.4902V143.717H52.3467ZM50.457 142.433H51.3604V147.691C51.3604 147.87 51.388 148.006 51.4434 148.097C51.4987 148.188 51.5703 148.248 51.6582 148.277C51.7461 148.307 51.8405 148.321 51.9414 148.321C52.0163 148.321 52.0944 148.315 52.1758 148.302C52.2604 148.285 52.3239 148.272 52.3662 148.263L52.3711 149C52.2995 149.023 52.2051 149.044 52.0879 149.063C51.974 149.086 51.8356 149.098 51.6729 149.098C51.4515 149.098 51.248 149.054 51.0625 148.966C50.877 148.878 50.7288 148.731 50.6182 148.526C50.5107 148.318 50.457 148.038 50.457 147.687V142.433ZM54.3877 143.717V149H53.4795V143.717H54.3877ZM53.4111 142.315C53.4111 142.169 53.4551 142.045 53.543 141.944C53.6341 141.843 53.7676 141.793 53.9434 141.793C54.1159 141.793 54.2477 141.843 54.3389 141.944C54.4333 142.045 54.4805 142.169 54.4805 142.315C54.4805 142.455 54.4333 142.576 54.3389 142.677C54.2477 142.774 54.1159 142.823 53.9434 142.823C53.7676 142.823 53.6341 142.774 53.543 142.677C53.4551 142.576 53.4111 142.455 53.4111 142.315ZM55.5986 146.417V146.305C55.5986 145.924 55.654 145.571 55.7646 145.245C55.8753 144.916 56.0348 144.632 56.2432 144.391C56.4515 144.146 56.7038 143.958 57 143.824C57.2962 143.688 57.6283 143.619 57.9961 143.619C58.3672 143.619 58.7008 143.688 58.9971 143.824C59.2965 143.958 59.5505 144.146 59.7588 144.391C59.9704 144.632 60.1315 144.916 60.2422 145.245C60.3529 145.571 60.4082 145.924 60.4082 146.305V146.417C60.4082 146.798 60.3529 147.151 60.2422 147.477C60.1315 147.802 59.9704 148.087 59.7588 148.331C59.5505 148.572 59.2982 148.761 59.002 148.897C58.709 149.031 58.377 149.098 58.0059 149.098C57.6348 149.098 57.3011 149.031 57.0049 148.897C56.7087 148.761 56.4548 148.572 56.2432 148.331C56.0348 148.087 55.8753 147.802 55.7646 147.477C55.654 147.151 55.5986 146.798 55.5986 146.417ZM56.502 146.305V146.417C56.502 146.681 56.5329 146.93 56.5947 147.164C56.6566 147.395 56.7493 147.6 56.873 147.779C57 147.958 57.1579 148.1 57.3467 148.204C57.5355 148.305 57.7552 148.355 58.0059 148.355C58.2533 148.355 58.4697 148.305 58.6553 148.204C58.8441 148.1 59.0003 147.958 59.124 147.779C59.2477 147.6 59.3405 147.395 59.4023 147.164C59.4674 146.93 59.5 146.681 59.5 146.417V146.305C59.5 146.044 59.4674 145.799 59.4023 145.567C59.3405 145.333 59.2461 145.126 59.1191 144.947C58.9954 144.765 58.8392 144.622 58.6504 144.518C58.4648 144.413 58.2467 144.361 57.9961 144.361C57.7487 144.361 57.5306 144.413 57.3418 144.518C57.1562 144.622 57 144.765 56.873 144.947C56.7493 145.126 56.6566 145.333 56.5947 145.567C56.5329 145.799 56.502 146.044 56.502 146.305ZM62.4443 144.845V149H61.541V143.717H62.3955L62.4443 144.845ZM62.2295 146.158L61.8535 146.144C61.8568 145.782 61.9105 145.449 62.0146 145.143C62.1188 144.833 62.2653 144.565 62.4541 144.337C62.6429 144.109 62.8675 143.933 63.1279 143.81C63.3916 143.683 63.6829 143.619 64.002 143.619C64.2624 143.619 64.4967 143.655 64.7051 143.727C64.9134 143.795 65.0908 143.906 65.2373 144.059C65.387 144.212 65.501 144.41 65.5791 144.654C65.6572 144.895 65.6963 145.19 65.6963 145.538V149H64.7881V145.528C64.7881 145.252 64.7474 145.03 64.666 144.864C64.5846 144.695 64.4658 144.573 64.3096 144.498C64.1533 144.42 63.9613 144.381 63.7334 144.381C63.5088 144.381 63.3037 144.428 63.1182 144.522C62.9359 144.617 62.778 144.747 62.6445 144.913C62.5143 145.079 62.4118 145.27 62.3369 145.484C62.2653 145.696 62.2295 145.921 62.2295 146.158ZM73.9775 146.739H74.915C74.8662 147.188 74.7376 147.59 74.5293 147.945C74.321 148.3 74.0264 148.582 73.6455 148.79C73.2646 148.995 72.7894 149.098 72.2197 149.098C71.8031 149.098 71.4238 149.02 71.082 148.863C70.7435 148.707 70.4521 148.486 70.208 148.199C69.9639 147.91 69.7751 147.563 69.6416 147.159C69.5114 146.752 69.4463 146.3 69.4463 145.802V145.094C69.4463 144.596 69.5114 144.145 69.6416 143.741C69.7751 143.334 69.9655 142.986 70.2129 142.696C70.4635 142.407 70.7646 142.184 71.1162 142.027C71.4678 141.871 71.8633 141.793 72.3027 141.793C72.8398 141.793 73.2939 141.894 73.665 142.096C74.0361 142.298 74.3242 142.577 74.5293 142.936C74.7376 143.29 74.8662 143.702 74.915 144.171H73.9775C73.932 143.839 73.8473 143.554 73.7236 143.316C73.5999 143.076 73.4242 142.89 73.1963 142.76C72.9684 142.63 72.6706 142.564 72.3027 142.564C71.987 142.564 71.7087 142.625 71.4678 142.745C71.2301 142.866 71.0299 143.036 70.8672 143.258C70.7077 143.479 70.5872 143.744 70.5059 144.054C70.4245 144.363 70.3838 144.706 70.3838 145.084V145.802C70.3838 146.15 70.4196 146.477 70.4912 146.783C70.5661 147.089 70.6784 147.358 70.8281 147.589C70.9779 147.82 71.1683 148.002 71.3994 148.136C71.6305 148.266 71.904 148.331 72.2197 148.331C72.6201 148.331 72.9391 148.268 73.1768 148.141C73.4144 148.014 73.5934 147.831 73.7139 147.594C73.8376 147.356 73.9255 147.071 73.9775 146.739ZM75.8232 146.417V146.305C75.8232 145.924 75.8786 145.571 75.9893 145.245C76.0999 144.916 76.2594 144.632 76.4678 144.391C76.6761 144.146 76.9284 143.958 77.2246 143.824C77.5208 143.688 77.8529 143.619 78.2207 143.619C78.5918 143.619 78.9255 143.688 79.2217 143.824C79.5212 143.958 79.7751 144.146 79.9834 144.391C80.195 144.632 80.3561 144.916 80.4668 145.245C80.5775 145.571 80.6328 145.924 80.6328 146.305V146.417C80.6328 146.798 80.5775 147.151 80.4668 147.477C80.3561 147.802 80.195 148.087 79.9834 148.331C79.7751 148.572 79.5228 148.761 79.2266 148.897C78.9336 149.031 78.6016 149.098 78.2305 149.098C77.8594 149.098 77.5257 149.031 77.2295 148.897C76.9333 148.761 76.6794 148.572 76.4678 148.331C76.2594 148.087 76.0999 147.802 75.9893 147.477C75.8786 147.151 75.8232 146.798 75.8232 146.417ZM76.7266 146.305V146.417C76.7266 146.681 76.7575 146.93 76.8193 147.164C76.8812 147.395 76.974 147.6 77.0977 147.779C77.2246 147.958 77.3825 148.1 77.5713 148.204C77.7601 148.305 77.9798 148.355 78.2305 148.355C78.4779 148.355 78.6943 148.305 78.8799 148.204C79.0687 148.1 79.2249 147.958 79.3486 147.779C79.4723 147.6 79.5651 147.395 79.627 147.164C79.6921 146.93 79.7246 146.681 79.7246 146.417V146.305C79.7246 146.044 79.6921 145.799 79.627 145.567C79.5651 145.333 79.4707 145.126 79.3438 144.947C79.2201 144.765 79.0638 144.622 78.875 144.518C78.6895 144.413 78.4714 144.361 78.2207 144.361C77.9733 144.361 77.7552 144.413 77.5664 144.518C77.3809 144.622 77.2246 144.765 77.0977 144.947C76.974 145.126 76.8812 145.333 76.8193 145.567C76.7575 145.799 76.7266 146.044 76.7266 146.305ZM82.6641 144.767V149H81.7559V143.717H82.6152L82.6641 144.767ZM82.4785 146.158L82.0586 146.144C82.0618 145.782 82.109 145.449 82.2002 145.143C82.2913 144.833 82.4264 144.565 82.6055 144.337C82.7845 144.109 83.0075 143.933 83.2744 143.81C83.5413 143.683 83.8506 143.619 84.2021 143.619C84.4495 143.619 84.6774 143.655 84.8857 143.727C85.0941 143.795 85.2747 143.904 85.4277 144.054C85.5807 144.203 85.6995 144.396 85.7842 144.63C85.8688 144.864 85.9111 145.147 85.9111 145.479V149H85.0078V145.523C85.0078 145.247 84.9606 145.025 84.8662 144.859C84.7751 144.693 84.6449 144.573 84.4756 144.498C84.3063 144.42 84.1077 144.381 83.8799 144.381C83.613 144.381 83.39 144.428 83.2109 144.522C83.0319 144.617 82.8887 144.747 82.7812 144.913C82.6738 145.079 82.5957 145.27 82.5469 145.484C82.5013 145.696 82.4785 145.921 82.4785 146.158ZM85.9014 145.66L85.2959 145.846C85.2992 145.556 85.3464 145.278 85.4375 145.011C85.5319 144.744 85.667 144.506 85.8428 144.298C86.0218 144.09 86.2415 143.925 86.502 143.805C86.7624 143.681 87.0602 143.619 87.3955 143.619C87.6787 143.619 87.9294 143.657 88.1475 143.731C88.3688 143.806 88.5544 143.922 88.7041 144.078C88.8571 144.231 88.9727 144.428 89.0508 144.669C89.1289 144.91 89.168 145.196 89.168 145.528V149H88.2598V145.519C88.2598 145.222 88.2126 144.993 88.1182 144.83C88.027 144.664 87.8968 144.549 87.7275 144.483C87.5615 144.415 87.363 144.381 87.1318 144.381C86.9333 144.381 86.7575 144.415 86.6045 144.483C86.4515 144.552 86.3229 144.646 86.2188 144.767C86.1146 144.884 86.0348 145.019 85.9795 145.172C85.9274 145.325 85.9014 145.488 85.9014 145.66ZM91.4385 144.732V151.031H90.5303V143.717H91.3604L91.4385 144.732ZM94.998 146.314V146.417C94.998 146.801 94.9525 147.158 94.8613 147.486C94.7702 147.812 94.6367 148.095 94.4609 148.336C94.2884 148.577 94.0752 148.764 93.8213 148.897C93.5674 149.031 93.276 149.098 92.9473 149.098C92.612 149.098 92.3158 149.042 92.0586 148.932C91.8014 148.821 91.5833 148.66 91.4043 148.448C91.2253 148.237 91.082 147.983 90.9746 147.687C90.8704 147.39 90.7988 147.057 90.7598 146.686V146.139C90.7988 145.748 90.8721 145.398 90.9795 145.089C91.0869 144.78 91.2285 144.516 91.4043 144.298C91.5833 144.076 91.7998 143.909 92.0537 143.795C92.3076 143.678 92.6006 143.619 92.9326 143.619C93.2646 143.619 93.5592 143.684 93.8164 143.814C94.0736 143.941 94.29 144.124 94.4658 144.361C94.6416 144.599 94.7734 144.884 94.8613 145.216C94.9525 145.545 94.998 145.911 94.998 146.314ZM94.0898 146.417V146.314C94.0898 146.051 94.0622 145.803 94.0068 145.572C93.9515 145.338 93.8652 145.133 93.748 144.957C93.6341 144.778 93.4876 144.638 93.3086 144.537C93.1296 144.433 92.9163 144.381 92.6689 144.381C92.4411 144.381 92.2425 144.42 92.0732 144.498C91.9072 144.576 91.7656 144.682 91.6484 144.815C91.5312 144.946 91.4352 145.095 91.3604 145.265C91.2887 145.431 91.235 145.603 91.1992 145.782V147.047C91.2643 147.275 91.3555 147.49 91.4727 147.691C91.5898 147.89 91.7461 148.051 91.9414 148.175C92.1367 148.295 92.3825 148.355 92.6787 148.355C92.9229 148.355 93.1328 148.305 93.3086 148.204C93.4876 148.1 93.6341 147.958 93.748 147.779C93.8652 147.6 93.9515 147.395 94.0068 147.164C94.0622 146.93 94.0898 146.681 94.0898 146.417ZM97.1318 141.5V149H96.2236V141.5H97.1318ZM100.774 149.098C100.407 149.098 100.073 149.036 99.7734 148.912C99.4772 148.785 99.2217 148.608 99.0068 148.38C98.7952 148.152 98.6325 147.882 98.5186 147.569C98.4046 147.257 98.3477 146.915 98.3477 146.544V146.339C98.3477 145.909 98.4111 145.527 98.5381 145.191C98.665 144.853 98.8376 144.566 99.0557 144.332C99.2738 144.098 99.5212 143.92 99.7979 143.8C100.075 143.679 100.361 143.619 100.657 143.619C101.035 143.619 101.36 143.684 101.634 143.814C101.91 143.945 102.137 144.127 102.312 144.361C102.488 144.592 102.618 144.866 102.703 145.182C102.788 145.494 102.83 145.836 102.83 146.207V146.612H98.8848V145.875H101.927V145.807C101.914 145.572 101.865 145.344 101.78 145.123C101.699 144.902 101.569 144.719 101.39 144.576C101.211 144.433 100.966 144.361 100.657 144.361C100.452 144.361 100.263 144.405 100.091 144.493C99.9183 144.578 99.7702 144.705 99.6465 144.874C99.5228 145.043 99.4268 145.25 99.3584 145.494C99.29 145.738 99.2559 146.02 99.2559 146.339V146.544C99.2559 146.795 99.29 147.031 99.3584 147.252C99.43 147.47 99.5326 147.662 99.666 147.828C99.8027 147.994 99.9671 148.124 100.159 148.219C100.354 148.313 100.576 148.36 100.823 148.36C101.142 148.36 101.412 148.295 101.634 148.165C101.855 148.035 102.049 147.861 102.215 147.643L102.762 148.077C102.648 148.25 102.503 148.414 102.327 148.57C102.151 148.727 101.935 148.854 101.678 148.951C101.424 149.049 101.123 149.098 100.774 149.098ZM106.097 143.717V144.41H103.24V143.717H106.097ZM104.207 142.433H105.11V147.691C105.11 147.87 105.138 148.006 105.193 148.097C105.249 148.188 105.32 148.248 105.408 148.277C105.496 148.307 105.59 148.321 105.691 148.321C105.766 148.321 105.844 148.315 105.926 148.302C106.01 148.285 106.074 148.272 106.116 148.263L106.121 149C106.049 149.023 105.955 149.044 105.838 149.063C105.724 149.086 105.586 149.098 105.423 149.098C105.201 149.098 104.998 149.054 104.812 148.966C104.627 148.878 104.479 148.731 104.368 148.526C104.261 148.318 104.207 148.038 104.207 147.687V142.433ZM109.349 149.098C108.981 149.098 108.647 149.036 108.348 148.912C108.051 148.785 107.796 148.608 107.581 148.38C107.369 148.152 107.207 147.882 107.093 147.569C106.979 147.257 106.922 146.915 106.922 146.544V146.339C106.922 145.909 106.985 145.527 107.112 145.191C107.239 144.853 107.412 144.566 107.63 144.332C107.848 144.098 108.095 143.92 108.372 143.8C108.649 143.679 108.935 143.619 109.231 143.619C109.609 143.619 109.935 143.684 110.208 143.814C110.485 143.945 110.711 144.127 110.887 144.361C111.062 144.592 111.193 144.866 111.277 145.182C111.362 145.494 111.404 145.836 111.404 146.207V146.612H107.459V145.875H110.501V145.807C110.488 145.572 110.439 145.344 110.354 145.123C110.273 144.902 110.143 144.719 109.964 144.576C109.785 144.433 109.541 144.361 109.231 144.361C109.026 144.361 108.838 144.405 108.665 144.493C108.493 144.578 108.344 144.705 108.221 144.874C108.097 145.043 108.001 145.25 107.933 145.494C107.864 145.738 107.83 146.02 107.83 146.339V146.544C107.83 146.795 107.864 147.031 107.933 147.252C108.004 147.47 108.107 147.662 108.24 147.828C108.377 147.994 108.541 148.124 108.733 148.219C108.929 148.313 109.15 148.36 109.397 148.36C109.716 148.36 109.987 148.295 110.208 148.165C110.429 148.035 110.623 147.861 110.789 147.643L111.336 148.077C111.222 148.25 111.077 148.414 110.901 148.57C110.726 148.727 110.509 148.854 110.252 148.951C109.998 149.049 109.697 149.098 109.349 149.098ZM115.789 147.975V141.5H116.697V149H115.867L115.789 147.975ZM112.234 146.417V146.314C112.234 145.911 112.283 145.545 112.381 145.216C112.482 144.884 112.623 144.599 112.806 144.361C112.991 144.124 113.211 143.941 113.465 143.814C113.722 143.684 114.008 143.619 114.324 143.619C114.656 143.619 114.946 143.678 115.193 143.795C115.444 143.909 115.656 144.076 115.828 144.298C116.004 144.516 116.142 144.78 116.243 145.089C116.344 145.398 116.414 145.748 116.453 146.139V146.588C116.417 146.975 116.347 147.324 116.243 147.633C116.142 147.942 116.004 148.206 115.828 148.424C115.656 148.642 115.444 148.81 115.193 148.927C114.943 149.041 114.65 149.098 114.314 149.098C114.005 149.098 113.722 149.031 113.465 148.897C113.211 148.764 112.991 148.577 112.806 148.336C112.623 148.095 112.482 147.812 112.381 147.486C112.283 147.158 112.234 146.801 112.234 146.417ZM113.143 146.314V146.417C113.143 146.681 113.169 146.928 113.221 147.159C113.276 147.39 113.361 147.594 113.475 147.77C113.589 147.945 113.733 148.084 113.909 148.185C114.085 148.282 114.295 148.331 114.539 148.331C114.839 148.331 115.084 148.268 115.276 148.141C115.472 148.014 115.628 147.846 115.745 147.638C115.862 147.429 115.953 147.203 116.019 146.959V145.782C115.979 145.603 115.923 145.431 115.848 145.265C115.776 145.095 115.682 144.946 115.564 144.815C115.451 144.682 115.309 144.576 115.14 144.498C114.974 144.42 114.777 144.381 114.549 144.381C114.301 144.381 114.088 144.433 113.909 144.537C113.733 144.638 113.589 144.778 113.475 144.957C113.361 145.133 113.276 145.338 113.221 145.572C113.169 145.803 113.143 146.051 113.143 146.314Z" fill="black"/>
<path d="M431.62 124.879V125.963C431.62 126.546 431.568 127.037 431.464 127.438C431.359 127.838 431.21 128.16 431.014 128.404C430.819 128.648 430.583 128.826 430.306 128.937C430.033 129.044 429.724 129.098 429.379 129.098C429.105 129.098 428.853 129.063 428.622 128.995C428.391 128.927 428.182 128.818 427.997 128.668C427.815 128.515 427.658 128.316 427.528 128.072C427.398 127.828 427.299 127.532 427.23 127.184C427.162 126.835 427.128 126.428 427.128 125.963V124.879C427.128 124.296 427.18 123.808 427.284 123.414C427.391 123.02 427.543 122.704 427.738 122.467C427.933 122.226 428.168 122.053 428.441 121.949C428.718 121.845 429.027 121.793 429.369 121.793C429.646 121.793 429.9 121.827 430.131 121.896C430.365 121.961 430.573 122.066 430.756 122.213C430.938 122.356 431.093 122.548 431.22 122.789C431.35 123.027 431.449 123.318 431.517 123.663C431.586 124.008 431.62 124.413 431.62 124.879ZM430.712 126.109V124.728C430.712 124.409 430.692 124.129 430.653 123.888C430.617 123.644 430.564 123.435 430.492 123.263C430.42 123.09 430.329 122.95 430.219 122.843C430.111 122.735 429.986 122.657 429.843 122.608C429.703 122.556 429.545 122.53 429.369 122.53C429.154 122.53 428.964 122.571 428.798 122.652C428.632 122.73 428.492 122.856 428.378 123.028C428.267 123.201 428.182 123.427 428.124 123.707C428.065 123.987 428.036 124.327 428.036 124.728V126.109C428.036 126.428 428.054 126.71 428.09 126.954C428.129 127.198 428.186 127.41 428.261 127.589C428.335 127.765 428.427 127.91 428.534 128.023C428.641 128.137 428.765 128.222 428.905 128.277C429.048 128.329 429.206 128.355 429.379 128.355C429.6 128.355 429.794 128.313 429.96 128.229C430.126 128.144 430.264 128.012 430.375 127.833C430.489 127.651 430.573 127.418 430.629 127.135C430.684 126.848 430.712 126.507 430.712 126.109ZM437.44 128.258V129H432.787V128.351L435.116 125.758C435.402 125.439 435.624 125.169 435.78 124.947C435.94 124.723 436.05 124.522 436.112 124.347C436.177 124.168 436.21 123.985 436.21 123.8C436.21 123.565 436.161 123.354 436.063 123.165C435.969 122.973 435.829 122.82 435.643 122.706C435.458 122.592 435.233 122.535 434.97 122.535C434.654 122.535 434.39 122.597 434.178 122.721C433.97 122.841 433.814 123.01 433.71 123.229C433.606 123.447 433.553 123.697 433.553 123.98H432.65C432.65 123.58 432.738 123.214 432.914 122.882C433.09 122.55 433.35 122.286 433.695 122.091C434.04 121.892 434.465 121.793 434.97 121.793C435.419 121.793 435.803 121.873 436.122 122.032C436.441 122.188 436.685 122.41 436.854 122.696C437.027 122.979 437.113 123.312 437.113 123.692C437.113 123.901 437.077 124.112 437.006 124.327C436.937 124.539 436.841 124.75 436.718 124.962C436.597 125.174 436.456 125.382 436.293 125.587C436.133 125.792 435.962 125.994 435.78 126.192L433.876 128.258H437.44Z" fill="black"/>
</svg>
