<svg width="571" height="131" viewBox="0 0 571 131" fill="none" xmlns="http://www.w3.org/2000/svg">
<path d="M98.1323 48.8049C98.1323 21.8507 76.2816 3.05176e-05 49.3274 3.05176e-05C22.3732 3.05176e-05 0.522461 21.8507 0.522461 48.8049C0.522461 75.7592 22.3732 97.6099 49.3274 97.6099C76.2816 97.6099 98.1323 75.7592 98.1323 48.8049ZM10.103 48.8049C10.103 27.1419 27.6644 9.5806 49.3274 9.5806C70.9904 9.5806 88.5517 27.1419 88.5517 48.8049C88.5517 70.468 70.9904 88.0293 49.3274 88.0293C27.6644 88.0293 10.103 70.468 10.103 48.8049Z" fill="#D1D1D1"/>
<path d="M6.29726 39.5477C3.71084 38.9913 2.04247 36.4333 2.84967 33.9138C5.29109 26.2936 9.57752 19.3655 15.3581 13.762C22.2889 7.04355 31.0563 2.53116 40.5517 0.795494C50.0471 -0.94017 59.8439 0.178848 68.7033 4.01105C76.0923 7.20722 82.5525 12.171 87.5318 18.4347C89.178 20.5057 88.5225 23.4885 86.3001 24.9239C84.0778 26.3594 81.1336 25.6984 79.4382 23.6675C75.5221 18.9766 70.5487 15.2477 64.8997 12.8042C57.7795 9.72432 49.9058 8.82497 42.2744 10.2199C34.643 11.6149 27.5966 15.2414 22.0263 20.6411C17.6071 24.9249 14.2744 30.1721 12.271 35.945C11.4036 38.4444 8.88369 40.1041 6.29726 39.5477Z" fill="#0055BF"/>
<path d="M4.51758 119.295V127.826H3.05859V119.295H4.51758ZM7.19531 119.295V120.467H0.404297V119.295H7.19531ZM7.08984 124.727V124.592C7.08984 124.135 7.15625 123.711 7.28906 123.321C7.42188 122.926 7.61328 122.584 7.86328 122.295C8.11719 122.002 8.42578 121.776 8.78906 121.615C9.15625 121.451 9.57031 121.369 10.0312 121.369C10.4961 121.369 10.9102 121.451 11.2734 121.615C11.6406 121.776 11.9512 122.002 12.2051 122.295C12.459 122.584 12.6523 122.926 12.7852 123.321C12.918 123.711 12.9844 124.135 12.9844 124.592V124.727C12.9844 125.184 12.918 125.608 12.7852 125.998C12.6523 126.389 12.459 126.731 12.2051 127.024C11.9512 127.313 11.6426 127.539 11.2793 127.703C10.916 127.864 10.5039 127.944 10.043 127.944C9.57812 127.944 9.16211 127.864 8.79492 127.703C8.43164 127.539 8.12305 127.313 7.86914 127.024C7.61523 126.731 7.42188 126.389 7.28906 125.998C7.15625 125.608 7.08984 125.184 7.08984 124.727ZM8.50195 124.592V124.727C8.50195 125.012 8.53125 125.281 8.58984 125.535C8.64844 125.789 8.74023 126.012 8.86523 126.203C8.99023 126.395 9.15039 126.545 9.3457 126.655C9.54102 126.764 9.77344 126.819 10.043 126.819C10.3047 126.819 10.5312 126.764 10.7227 126.655C10.918 126.545 11.0781 126.395 11.2031 126.203C11.3281 126.012 11.4199 125.789 11.4785 125.535C11.541 125.281 11.5723 125.012 11.5723 124.727V124.592C11.5723 124.311 11.541 124.045 11.4785 123.795C11.4199 123.541 11.3262 123.317 11.1973 123.121C11.0723 122.926 10.9121 122.774 10.7168 122.664C10.5254 122.551 10.2969 122.494 10.0312 122.494C9.76562 122.494 9.53516 122.551 9.33984 122.664C9.14844 122.774 8.99023 122.926 8.86523 123.121C8.74023 123.317 8.64844 123.541 8.58984 123.795C8.53125 124.045 8.50195 124.311 8.50195 124.592ZM17.0742 121.487V122.518H13.5V121.487H17.0742ZM14.5312 119.934H15.9434V126.074C15.9434 126.27 15.9707 126.42 16.0254 126.526C16.084 126.627 16.1641 126.696 16.2656 126.731C16.3672 126.766 16.4863 126.783 16.623 126.783C16.7207 126.783 16.8145 126.778 16.9043 126.766C16.9941 126.754 17.0664 126.742 17.1211 126.731L17.127 127.809C17.0098 127.844 16.873 127.875 16.7168 127.903C16.5645 127.93 16.3887 127.944 16.1895 127.944C15.8652 127.944 15.5781 127.887 15.3281 127.774C15.0781 127.656 14.8828 127.467 14.7422 127.205C14.6016 126.944 14.5312 126.596 14.5312 126.162V119.934ZM21.7383 126.555V123.531C21.7383 123.305 21.6973 123.11 21.6152 122.946C21.5332 122.781 21.4082 122.655 21.2402 122.565C21.0762 122.475 20.8691 122.43 20.6191 122.43C20.3887 122.43 20.1895 122.469 20.0215 122.547C19.8535 122.625 19.7227 122.731 19.6289 122.864C19.5352 122.996 19.4883 123.147 19.4883 123.315H18.082C18.082 123.065 18.1426 122.823 18.2637 122.588C18.3848 122.354 18.5605 122.145 18.791 121.961C19.0215 121.778 19.2969 121.633 19.6172 121.528C19.9375 121.422 20.2969 121.369 20.6953 121.369C21.1719 121.369 21.5938 121.449 21.9609 121.61C22.332 121.77 22.623 122.012 22.834 122.336C23.0488 122.656 23.1562 123.059 23.1562 123.543V126.362C23.1562 126.651 23.1758 126.91 23.2148 127.141C23.2578 127.367 23.3184 127.565 23.3965 127.733V127.826H21.9492C21.8828 127.674 21.8301 127.481 21.791 127.246C21.7559 127.008 21.7383 126.778 21.7383 126.555ZM21.9434 123.971L21.9551 124.844H20.9414C20.6797 124.844 20.4492 124.869 20.25 124.92C20.0508 124.967 19.8848 125.037 19.752 125.131C19.6191 125.225 19.5195 125.338 19.4531 125.471C19.3867 125.604 19.3535 125.754 19.3535 125.922C19.3535 126.09 19.3926 126.244 19.4707 126.385C19.5488 126.522 19.6621 126.629 19.8105 126.707C19.9629 126.785 20.1465 126.824 20.3613 126.824C20.6504 126.824 20.9023 126.766 21.1172 126.649C21.3359 126.528 21.5078 126.381 21.6328 126.209C21.7578 126.033 21.8242 125.867 21.832 125.711L22.2891 126.338C22.2422 126.498 22.1621 126.67 22.0488 126.854C21.9355 127.037 21.7871 127.213 21.6035 127.381C21.4238 127.545 21.207 127.68 20.9531 127.785C20.7031 127.891 20.4141 127.944 20.0859 127.944C19.6719 127.944 19.3027 127.862 18.9785 127.698C18.6543 127.53 18.4004 127.305 18.2168 127.024C18.0332 126.739 17.9414 126.416 17.9414 126.057C17.9414 125.721 18.0039 125.424 18.1289 125.166C18.2578 124.905 18.4453 124.686 18.6914 124.51C18.9414 124.334 19.2461 124.201 19.6055 124.112C19.9648 124.018 20.375 123.971 20.8359 123.971H21.9434ZM26.1445 118.826V127.826H24.7266V118.826H26.1445ZM36.4043 126.66V127.826H31.875V126.66H36.4043ZM32.291 119.295V127.826H30.8203V119.295H32.291ZM35.8125 122.858V124.006H31.875V122.858H35.8125ZM36.375 119.295V120.467H31.875V119.295H36.375ZM38.8652 122.84V127.826H37.4531V121.487H38.7832L38.8652 122.84ZM38.6133 124.422L38.1562 124.416C38.1602 123.967 38.2227 123.555 38.3438 123.18C38.4688 122.805 38.6406 122.483 38.8594 122.213C39.082 121.944 39.3477 121.737 39.6562 121.592C39.9648 121.444 40.3086 121.369 40.6875 121.369C40.9922 121.369 41.2676 121.412 41.5137 121.498C41.7637 121.58 41.9766 121.715 42.1523 121.903C42.332 122.09 42.4688 122.334 42.5625 122.635C42.6562 122.932 42.7031 123.297 42.7031 123.731V127.826H41.2852V123.725C41.2852 123.42 41.2402 123.18 41.1504 123.004C41.0645 122.824 40.9375 122.698 40.7695 122.623C40.6055 122.545 40.4004 122.506 40.1543 122.506C39.9121 122.506 39.6953 122.557 39.5039 122.658C39.3125 122.76 39.1504 122.899 39.0176 123.074C38.8887 123.25 38.7891 123.453 38.7188 123.684C38.6484 123.914 38.6133 124.16 38.6133 124.422ZM46.0547 127.826H44.6426V120.877C44.6426 120.405 44.7305 120.008 44.9062 119.688C45.0859 119.364 45.3418 119.119 45.6738 118.955C46.0059 118.787 46.3984 118.703 46.8516 118.703C46.9922 118.703 47.1309 118.713 47.2676 118.733C47.4043 118.748 47.5371 118.774 47.666 118.809L47.6309 119.899C47.5527 119.879 47.4668 119.865 47.373 119.858C47.2832 119.85 47.1855 119.846 47.0801 119.846C46.8652 119.846 46.6797 119.887 46.5234 119.969C46.3711 120.047 46.2539 120.162 46.1719 120.315C46.0938 120.467 46.0547 120.655 46.0547 120.877V127.826ZM47.3613 121.487V122.518H43.6699V121.487H47.3613ZM48.1172 124.727V124.592C48.1172 124.135 48.1836 123.711 48.3164 123.321C48.4492 122.926 48.6406 122.584 48.8906 122.295C49.1445 122.002 49.4531 121.776 49.8164 121.615C50.1836 121.451 50.5977 121.369 51.0586 121.369C51.5234 121.369 51.9375 121.451 52.3008 121.615C52.668 121.776 52.9785 122.002 53.2324 122.295C53.4863 122.584 53.6797 122.926 53.8125 123.321C53.9453 123.711 54.0117 124.135 54.0117 124.592V124.727C54.0117 125.184 53.9453 125.608 53.8125 125.998C53.6797 126.389 53.4863 126.731 53.2324 127.024C52.9785 127.313 52.6699 127.539 52.3066 127.703C51.9434 127.864 51.5312 127.944 51.0703 127.944C50.6055 127.944 50.1895 127.864 49.8223 127.703C49.459 127.539 49.1504 127.313 48.8965 127.024C48.6426 126.731 48.4492 126.389 48.3164 125.998C48.1836 125.608 48.1172 125.184 48.1172 124.727ZM49.5293 124.592V124.727C49.5293 125.012 49.5586 125.281 49.6172 125.535C49.6758 125.789 49.7676 126.012 49.8926 126.203C50.0176 126.395 50.1777 126.545 50.373 126.655C50.5684 126.764 50.8008 126.819 51.0703 126.819C51.332 126.819 51.5586 126.764 51.75 126.655C51.9453 126.545 52.1055 126.395 52.2305 126.203C52.3555 126.012 52.4473 125.789 52.5059 125.535C52.5684 125.281 52.5996 125.012 52.5996 124.727V124.592C52.5996 124.311 52.5684 124.045 52.5059 123.795C52.4473 123.541 52.3535 123.317 52.2246 123.121C52.0996 122.926 51.9395 122.774 51.7441 122.664C51.5527 122.551 51.3242 122.494 51.0586 122.494C50.793 122.494 50.5625 122.551 50.3672 122.664C50.1758 122.774 50.0176 122.926 49.8926 123.121C49.7676 123.317 49.6758 123.541 49.6172 123.795C49.5586 124.045 49.5293 124.311 49.5293 124.592ZM56.6133 122.694V127.826H55.2012V121.487H56.5488L56.6133 122.694ZM58.5527 121.446L58.541 122.758C58.4551 122.742 58.3613 122.731 58.2598 122.723C58.1621 122.715 58.0645 122.711 57.9668 122.711C57.7246 122.711 57.5117 122.746 57.3281 122.817C57.1445 122.883 56.9902 122.981 56.8652 123.11C56.7441 123.235 56.6504 123.387 56.584 123.567C56.5176 123.746 56.4785 123.948 56.4668 124.17L56.1445 124.194C56.1445 123.795 56.1836 123.426 56.2617 123.086C56.3398 122.746 56.457 122.448 56.6133 122.19C56.7734 121.932 56.9727 121.731 57.2109 121.586C57.4531 121.442 57.7324 121.369 58.0488 121.369C58.1348 121.369 58.2266 121.377 58.3242 121.393C58.4258 121.408 58.502 121.426 58.5527 121.446ZM61.9102 126.819C62.1406 126.819 62.3477 126.774 62.5312 126.684C62.7188 126.59 62.8691 126.461 62.9824 126.297C63.0996 126.133 63.1641 125.944 63.1758 125.729H64.5059C64.498 126.139 64.377 126.512 64.1426 126.848C63.9082 127.184 63.5977 127.451 63.2109 127.651C62.8242 127.846 62.3965 127.944 61.9277 127.944C61.4434 127.944 61.0215 127.862 60.6621 127.698C60.3027 127.53 60.0039 127.299 59.7656 127.006C59.5273 126.713 59.3477 126.375 59.2266 125.992C59.1094 125.61 59.0508 125.199 59.0508 124.762V124.557C59.0508 124.119 59.1094 123.709 59.2266 123.326C59.3477 122.94 59.5273 122.6 59.7656 122.307C60.0039 122.014 60.3027 121.785 60.6621 121.621C61.0215 121.453 61.4414 121.369 61.9219 121.369C62.4297 121.369 62.875 121.471 63.2578 121.674C63.6406 121.873 63.9414 122.153 64.1602 122.512C64.3828 122.867 64.498 123.281 64.5059 123.754H63.1758C63.1641 123.52 63.1055 123.309 63 123.121C62.8984 122.93 62.7539 122.778 62.5664 122.664C62.3828 122.551 62.1621 122.494 61.9043 122.494C61.6191 122.494 61.3828 122.553 61.1953 122.67C61.0078 122.783 60.8613 122.94 60.7559 123.139C60.6504 123.334 60.5742 123.555 60.5273 123.801C60.4844 124.043 60.4629 124.295 60.4629 124.557V124.762C60.4629 125.024 60.4844 125.278 60.5273 125.524C60.5703 125.77 60.6445 125.99 60.75 126.186C60.8594 126.377 61.0078 126.531 61.1953 126.649C61.3828 126.762 61.6211 126.819 61.9102 126.819ZM68.3848 127.944C67.916 127.944 67.4922 127.867 67.1133 127.715C66.7383 127.559 66.418 127.342 66.1523 127.065C65.8906 126.787 65.6895 126.461 65.5488 126.086C65.4082 125.711 65.3379 125.307 65.3379 124.873V124.639C65.3379 124.143 65.4102 123.694 65.5547 123.291C65.6992 122.889 65.9004 122.545 66.1582 122.26C66.416 121.971 66.7207 121.75 67.0723 121.598C67.4238 121.446 67.8047 121.369 68.2148 121.369C68.668 121.369 69.0645 121.446 69.4043 121.598C69.7441 121.75 70.0254 121.965 70.248 122.242C70.4746 122.516 70.6426 122.842 70.752 123.221C70.8652 123.6 70.9219 124.018 70.9219 124.475V125.078H66.0234V124.065H69.5273V123.953C69.5195 123.699 69.4688 123.461 69.375 123.239C69.2852 123.016 69.1465 122.836 68.959 122.699C68.7715 122.563 68.5215 122.494 68.209 122.494C67.9746 122.494 67.7656 122.545 67.582 122.647C67.4023 122.744 67.252 122.887 67.1309 123.074C67.0098 123.262 66.916 123.489 66.8496 123.754C66.7871 124.016 66.7559 124.311 66.7559 124.639V124.873C66.7559 125.151 66.793 125.408 66.8672 125.647C66.9453 125.881 67.0586 126.086 67.207 126.262C67.3555 126.438 67.5352 126.576 67.7461 126.678C67.957 126.776 68.1973 126.824 68.4668 126.824C68.8066 126.824 69.1094 126.756 69.375 126.619C69.6406 126.483 69.8711 126.289 70.0664 126.039L70.8105 126.76C70.6738 126.959 70.4961 127.151 70.2773 127.334C70.0586 127.514 69.791 127.66 69.4746 127.774C69.1621 127.887 68.7988 127.944 68.3848 127.944ZM73.4355 122.776V127.826H72.0234V121.487H73.3535L73.4355 122.776ZM73.207 124.422L72.7266 124.416C72.7266 123.979 72.7812 123.574 72.8906 123.203C73 122.832 73.1602 122.51 73.3711 122.237C73.582 121.959 73.8438 121.746 74.1562 121.598C74.4727 121.446 74.8379 121.369 75.252 121.369C75.541 121.369 75.8047 121.412 76.043 121.498C76.2852 121.58 76.4941 121.711 76.6699 121.891C76.8496 122.071 76.9863 122.301 77.0801 122.582C77.1777 122.864 77.2266 123.203 77.2266 123.602V127.826H75.8145V123.725C75.8145 123.416 75.7676 123.174 75.6738 122.998C75.584 122.823 75.4531 122.698 75.2812 122.623C75.1133 122.545 74.9121 122.506 74.6777 122.506C74.4121 122.506 74.1855 122.557 73.998 122.658C73.8145 122.76 73.6641 122.899 73.5469 123.074C73.4297 123.25 73.3438 123.453 73.2891 123.684C73.2344 123.914 73.207 124.16 73.207 124.422ZM77.1387 124.047L76.4766 124.194C76.4766 123.811 76.5293 123.449 76.6348 123.11C76.7441 122.766 76.9023 122.465 77.1094 122.207C77.3203 121.946 77.5801 121.74 77.8887 121.592C78.1973 121.444 78.5508 121.369 78.9492 121.369C79.2734 121.369 79.5625 121.414 79.8164 121.504C80.0742 121.59 80.293 121.727 80.4727 121.914C80.6523 122.102 80.7891 122.346 80.8828 122.647C80.9766 122.944 81.0234 123.303 81.0234 123.725V127.826H79.6055V123.719C79.6055 123.399 79.5586 123.151 79.4648 122.975C79.375 122.799 79.2461 122.678 79.0781 122.612C78.9102 122.541 78.709 122.506 78.4746 122.506C78.2559 122.506 78.0625 122.547 77.8945 122.629C77.7305 122.707 77.5918 122.819 77.4785 122.963C77.3652 123.104 77.2793 123.266 77.2207 123.449C77.166 123.633 77.1387 123.832 77.1387 124.047ZM85.2715 127.944C84.8027 127.944 84.3789 127.867 84 127.715C83.625 127.559 83.3047 127.342 83.0391 127.065C82.7773 126.787 82.5762 126.461 82.4355 126.086C82.2949 125.711 82.2246 125.307 82.2246 124.873V124.639C82.2246 124.143 82.2969 123.694 82.4414 123.291C82.5859 122.889 82.7871 122.545 83.0449 122.26C83.3027 121.971 83.6074 121.75 83.959 121.598C84.3105 121.446 84.6914 121.369 85.1016 121.369C85.5547 121.369 85.9512 121.446 86.291 121.598C86.6309 121.75 86.9121 121.965 87.1348 122.242C87.3613 122.516 87.5293 122.842 87.6387 123.221C87.752 123.6 87.8086 124.018 87.8086 124.475V125.078H82.9102V124.065H86.4141V123.953C86.4062 123.699 86.3555 123.461 86.2617 123.239C86.1719 123.016 86.0332 122.836 85.8457 122.699C85.6582 122.563 85.4082 122.494 85.0957 122.494C84.8613 122.494 84.6523 122.545 84.4688 122.647C84.2891 122.744 84.1387 122.887 84.0176 123.074C83.8965 123.262 83.8027 123.489 83.7363 123.754C83.6738 124.016 83.6426 124.311 83.6426 124.639V124.873C83.6426 125.151 83.6797 125.408 83.7539 125.647C83.832 125.881 83.9453 126.086 84.0938 126.262C84.2422 126.438 84.4219 126.576 84.6328 126.678C84.8438 126.776 85.084 126.824 85.3535 126.824C85.6934 126.824 85.9961 126.756 86.2617 126.619C86.5273 126.483 86.7578 126.289 86.9531 126.039L87.6973 126.76C87.5605 126.959 87.3828 127.151 87.1641 127.334C86.9453 127.514 86.6777 127.66 86.3613 127.774C86.0488 127.887 85.6855 127.944 85.2715 127.944ZM90.3105 122.84V127.826H88.8984V121.487H90.2285L90.3105 122.84ZM90.0586 124.422L89.6016 124.416C89.6055 123.967 89.668 123.555 89.7891 123.18C89.9141 122.805 90.0859 122.483 90.3047 122.213C90.5273 121.944 90.793 121.737 91.1016 121.592C91.4102 121.444 91.7539 121.369 92.1328 121.369C92.4375 121.369 92.7129 121.412 92.959 121.498C93.209 121.58 93.4219 121.715 93.5977 121.903C93.7773 122.09 93.9141 122.334 94.0078 122.635C94.1016 122.932 94.1484 123.297 94.1484 123.731V127.826H92.7305V123.725C92.7305 123.42 92.6855 123.18 92.5957 123.004C92.5098 122.824 92.3828 122.698 92.2148 122.623C92.0508 122.545 91.8457 122.506 91.5996 122.506C91.3574 122.506 91.1406 122.557 90.9492 122.658C90.7578 122.76 90.5957 122.899 90.4629 123.074C90.334 123.25 90.2344 123.453 90.1641 123.684C90.0938 123.914 90.0586 124.16 90.0586 124.422ZM98.4961 121.487V122.518H94.9219V121.487H98.4961ZM95.9531 119.934H97.3652V126.074C97.3652 126.27 97.3926 126.42 97.4473 126.526C97.5059 126.627 97.5859 126.696 97.6875 126.731C97.7891 126.766 97.9082 126.783 98.0449 126.783C98.1426 126.783 98.2363 126.778 98.3262 126.766C98.416 126.754 98.4883 126.742 98.543 126.731L98.5488 127.809C98.4316 127.844 98.2949 127.875 98.1387 127.903C97.9863 127.93 97.8105 127.944 97.6113 127.944C97.2871 127.944 97 127.887 96.75 127.774C96.5 127.656 96.3047 127.467 96.1641 127.205C96.0234 126.944 95.9531 126.596 95.9531 126.162V119.934Z" fill="black"/>
<path d="M48.5625 46.6406V49.1016C48.5625 50.1693 48.4486 51.0905 48.2207 51.8652C47.9928 52.6335 47.6641 53.265 47.2344 53.7598C46.8112 54.248 46.3066 54.6094 45.7207 54.8438C45.1348 55.0781 44.4837 55.1953 43.7676 55.1953C43.1947 55.1953 42.6608 55.1237 42.166 54.9805C41.6712 54.8307 41.2253 54.5996 40.8281 54.2871C40.4375 53.9746 40.099 53.5807 39.8125 53.1055C39.5326 52.6237 39.3177 52.0508 39.168 51.3867C39.0182 50.7227 38.9434 49.9609 38.9434 49.1016V46.6406C38.9434 45.5729 39.0573 44.6582 39.2852 43.8965C39.5195 43.1283 39.8483 42.5 40.2715 42.0117C40.7012 41.5234 41.209 41.1654 41.7949 40.9375C42.3809 40.7031 43.0319 40.5859 43.748 40.5859C44.321 40.5859 44.8516 40.6608 45.3398 40.8105C45.8346 40.9538 46.2806 41.1784 46.6777 41.4844C47.0749 41.7904 47.4134 42.1842 47.6934 42.666C47.9733 43.1413 48.1882 43.7109 48.3379 44.375C48.4876 45.0326 48.5625 45.7878 48.5625 46.6406ZM45.7402 49.4727V46.2598C45.7402 45.7454 45.7109 45.2962 45.6523 44.9121C45.6003 44.528 45.5189 44.2025 45.4082 43.9355C45.2975 43.6621 45.1608 43.4408 44.998 43.2715C44.8353 43.1022 44.6497 42.9785 44.4414 42.9004C44.2331 42.8223 44.002 42.7832 43.748 42.7832C43.429 42.7832 43.1458 42.8451 42.8984 42.9688C42.6576 43.0924 42.4525 43.291 42.2832 43.5645C42.1139 43.8314 41.9837 44.1895 41.8926 44.6387C41.8079 45.0814 41.7656 45.6217 41.7656 46.2598V49.4727C41.7656 49.987 41.7917 50.4395 41.8438 50.8301C41.9023 51.2207 41.987 51.556 42.0977 51.8359C42.2148 52.1094 42.3516 52.334 42.5078 52.5098C42.6706 52.679 42.8561 52.8027 43.0645 52.8809C43.2793 52.959 43.5137 52.998 43.7676 52.998C44.0801 52.998 44.3568 52.9362 44.5977 52.8125C44.8451 52.6823 45.0534 52.4805 45.2227 52.207C45.3984 51.9271 45.5286 51.5625 45.6133 51.1133C45.6979 50.6641 45.7402 50.1172 45.7402 49.4727ZM53.123 48.5254L50.877 47.9883L51.6875 40.7812H59.6758V43.0566H54.002L53.6504 46.2109C53.8392 46.1003 54.1257 45.9831 54.5098 45.8594C54.8939 45.7292 55.3236 45.6641 55.7988 45.6641C56.4889 45.6641 57.1009 45.7715 57.6348 45.9863C58.1686 46.2012 58.6211 46.5137 58.9922 46.9238C59.3698 47.334 59.6562 47.8353 59.8516 48.4277C60.0469 49.0202 60.1445 49.6908 60.1445 50.4395C60.1445 51.071 60.0469 51.6732 59.8516 52.2461C59.6562 52.8125 59.36 53.3203 58.9629 53.7695C58.5658 54.2122 58.0677 54.5605 57.4688 54.8145C56.8698 55.0684 56.1602 55.1953 55.3398 55.1953C54.7279 55.1953 54.1354 55.1042 53.5625 54.9219C52.9961 54.7396 52.485 54.4694 52.0293 54.1113C51.5801 53.7533 51.2188 53.3203 50.9453 52.8125C50.6784 52.2982 50.5384 51.7122 50.5254 51.0547H53.3184C53.3574 51.4583 53.4616 51.8066 53.6309 52.0996C53.8066 52.3861 54.0378 52.6074 54.3242 52.7637C54.6107 52.9199 54.946 52.998 55.3301 52.998C55.6882 52.998 55.9941 52.9297 56.248 52.793C56.502 52.6562 56.707 52.4674 56.8633 52.2266C57.0195 51.9792 57.1335 51.6927 57.2051 51.3672C57.2832 51.0352 57.3223 50.6771 57.3223 50.293C57.3223 49.9089 57.2767 49.5605 57.1855 49.248C57.0944 48.9355 56.9544 48.6654 56.7656 48.4375C56.5768 48.2096 56.3359 48.0339 56.043 47.9102C55.7565 47.7865 55.4212 47.7246 55.0371 47.7246C54.5163 47.7246 54.1126 47.806 53.8262 47.9688C53.5462 48.1315 53.3118 48.3171 53.123 48.5254Z" fill="#151D48"/>
<path d="M216.215 48.8049C216.215 21.8507 194.365 3.05176e-05 167.41 3.05176e-05C140.456 3.05176e-05 118.605 21.8507 118.605 48.8049C118.605 75.7592 140.456 97.6099 167.41 97.6099C194.365 97.6099 216.215 75.7592 216.215 48.8049ZM128.186 48.8049C128.186 27.1419 145.747 9.5806 167.41 9.5806C189.073 9.5806 206.635 27.1419 206.635 48.8049C206.635 70.468 189.073 88.0293 167.41 88.0293C145.747 88.0293 128.186 70.468 128.186 48.8049Z" fill="#D1D1D1"/>
<path d="M124.38 39.5477C121.794 38.9913 120.125 36.4333 120.933 33.9138C123.45 26.0563 127.928 18.9384 133.977 13.2505C141.193 6.46495 150.303 2.03571 160.096 0.551239C169.889 -0.933243 179.903 0.597305 188.805 4.93954C197.708 9.28177 205.079 16.2301 209.938 24.8614C214.798 33.4927 216.916 43.3983 216.011 53.2621C215.107 63.1259 211.222 72.481 204.874 80.0844C198.526 87.6879 190.014 93.1796 180.47 95.8301C172.47 98.0519 164.061 98.1891 156.038 96.2663C153.465 95.6498 152.143 92.8967 153.009 90.3968C153.874 87.8968 156.6 86.603 159.187 87.1577C165.357 88.4806 171.781 88.3001 177.906 86.5989C185.577 84.4687 192.418 80.055 197.52 73.9442C202.622 67.8333 205.744 60.3147 206.471 52.3871C207.198 44.4596 205.495 36.4985 201.59 29.5616C197.684 22.6247 191.761 17.0403 184.605 13.5505C177.45 10.0606 169.403 8.83053 161.532 10.0236C153.661 11.2167 146.339 14.7764 140.54 20.2299C135.909 24.5851 132.423 29.9833 130.354 35.945C129.487 38.4444 126.967 40.1041 124.38 39.5477Z" fill="#209BC3"/>
<path d="M149.896 119.295H151.209L153.676 125.875L156.137 119.295H157.449L154.191 127.826H153.148L149.896 119.295ZM149.299 119.295H150.547L150.764 124.99V127.826H149.299V119.295ZM156.799 119.295H158.053V127.826H156.582V124.99L156.799 119.295ZM163.232 126.555V123.531C163.232 123.305 163.191 123.11 163.109 122.946C163.027 122.781 162.902 122.655 162.734 122.565C162.57 122.475 162.363 122.43 162.113 122.43C161.883 122.43 161.684 122.469 161.516 122.547C161.348 122.625 161.217 122.731 161.123 122.864C161.029 122.996 160.982 123.147 160.982 123.315H159.576C159.576 123.065 159.637 122.823 159.758 122.588C159.879 122.354 160.055 122.145 160.285 121.961C160.516 121.778 160.791 121.633 161.111 121.528C161.432 121.422 161.791 121.369 162.189 121.369C162.666 121.369 163.088 121.449 163.455 121.61C163.826 121.77 164.117 122.012 164.328 122.336C164.543 122.656 164.65 123.059 164.65 123.543V126.362C164.65 126.651 164.67 126.91 164.709 127.141C164.752 127.367 164.812 127.565 164.891 127.733V127.826H163.443C163.377 127.674 163.324 127.481 163.285 127.246C163.25 127.008 163.232 126.778 163.232 126.555ZM163.438 123.971L163.449 124.844H162.436C162.174 124.844 161.943 124.869 161.744 124.92C161.545 124.967 161.379 125.037 161.246 125.131C161.113 125.225 161.014 125.338 160.947 125.471C160.881 125.604 160.848 125.754 160.848 125.922C160.848 126.09 160.887 126.244 160.965 126.385C161.043 126.522 161.156 126.629 161.305 126.707C161.457 126.785 161.641 126.824 161.855 126.824C162.145 126.824 162.396 126.766 162.611 126.649C162.83 126.528 163.002 126.381 163.127 126.209C163.252 126.033 163.318 125.867 163.326 125.711L163.783 126.338C163.736 126.498 163.656 126.67 163.543 126.854C163.43 127.037 163.281 127.213 163.098 127.381C162.918 127.545 162.701 127.68 162.447 127.785C162.197 127.891 161.908 127.944 161.58 127.944C161.166 127.944 160.797 127.862 160.473 127.698C160.148 127.53 159.895 127.305 159.711 127.024C159.527 126.739 159.436 126.416 159.436 126.057C159.436 125.721 159.498 125.424 159.623 125.166C159.752 124.905 159.939 124.686 160.186 124.51C160.436 124.334 160.74 124.201 161.1 124.112C161.459 124.018 161.869 123.971 162.33 123.971H163.438ZM167.545 122.694V127.826H166.133V121.487H167.48L167.545 122.694ZM169.484 121.446L169.473 122.758C169.387 122.742 169.293 122.731 169.191 122.723C169.094 122.715 168.996 122.711 168.898 122.711C168.656 122.711 168.443 122.746 168.26 122.817C168.076 122.883 167.922 122.981 167.797 123.11C167.676 123.235 167.582 123.387 167.516 123.567C167.449 123.746 167.41 123.948 167.398 124.17L167.076 124.194C167.076 123.795 167.115 123.426 167.193 123.086C167.271 122.746 167.389 122.448 167.545 122.19C167.705 121.932 167.904 121.731 168.143 121.586C168.385 121.442 168.664 121.369 168.98 121.369C169.066 121.369 169.158 121.377 169.256 121.393C169.357 121.408 169.434 121.426 169.484 121.446ZM171.793 118.826V127.826H170.375V118.826H171.793ZM175.73 121.487L172.971 124.545L171.459 126.092L171.09 124.897L172.232 123.485L174.025 121.487H175.73ZM174.33 127.826L172.273 124.85L173.164 123.86L175.965 127.826H174.33ZM179.305 127.944C178.836 127.944 178.412 127.867 178.033 127.715C177.658 127.559 177.338 127.342 177.072 127.065C176.811 126.787 176.609 126.461 176.469 126.086C176.328 125.711 176.258 125.307 176.258 124.873V124.639C176.258 124.143 176.33 123.694 176.475 123.291C176.619 122.889 176.82 122.545 177.078 122.26C177.336 121.971 177.641 121.75 177.992 121.598C178.344 121.446 178.725 121.369 179.135 121.369C179.588 121.369 179.984 121.446 180.324 121.598C180.664 121.75 180.945 121.965 181.168 122.242C181.395 122.516 181.562 122.842 181.672 123.221C181.785 123.6 181.842 124.018 181.842 124.475V125.078H176.943V124.065H180.447V123.953C180.439 123.699 180.389 123.461 180.295 123.239C180.205 123.016 180.066 122.836 179.879 122.699C179.691 122.563 179.441 122.494 179.129 122.494C178.895 122.494 178.686 122.545 178.502 122.647C178.322 122.744 178.172 122.887 178.051 123.074C177.93 123.262 177.836 123.489 177.77 123.754C177.707 124.016 177.676 124.311 177.676 124.639V124.873C177.676 125.151 177.713 125.408 177.787 125.647C177.865 125.881 177.979 126.086 178.127 126.262C178.275 126.438 178.455 126.576 178.666 126.678C178.877 126.776 179.117 126.824 179.387 126.824C179.727 126.824 180.029 126.756 180.295 126.619C180.561 126.483 180.791 126.289 180.986 126.039L181.73 126.76C181.594 126.959 181.416 127.151 181.197 127.334C180.979 127.514 180.711 127.66 180.395 127.774C180.082 127.887 179.719 127.944 179.305 127.944ZM185.85 121.487V122.518H182.275V121.487H185.85ZM183.307 119.934H184.719V126.074C184.719 126.27 184.746 126.42 184.801 126.526C184.859 126.627 184.939 126.696 185.041 126.731C185.143 126.766 185.262 126.783 185.398 126.783C185.496 126.783 185.59 126.778 185.68 126.766C185.77 126.754 185.842 126.742 185.896 126.731L185.902 127.809C185.785 127.844 185.648 127.875 185.492 127.903C185.34 127.93 185.164 127.944 184.965 127.944C184.641 127.944 184.354 127.887 184.104 127.774C183.854 127.656 183.658 127.467 183.518 127.205C183.377 126.944 183.307 126.596 183.307 126.162V119.934Z" fill="black"/>
<path d="M166.41 46.6406V49.1016C166.41 50.1693 166.296 51.0905 166.068 51.8652C165.84 52.6335 165.512 53.265 165.082 53.7598C164.659 54.248 164.154 54.6094 163.568 54.8438C162.982 55.0781 162.331 55.1953 161.615 55.1953C161.042 55.1953 160.508 55.1237 160.014 54.9805C159.519 54.8307 159.073 54.5996 158.676 54.2871C158.285 53.9746 157.947 53.5807 157.66 53.1055C157.38 52.6237 157.165 52.0508 157.016 51.3867C156.866 50.7227 156.791 49.9609 156.791 49.1016V46.6406C156.791 45.5729 156.905 44.6582 157.133 43.8965C157.367 43.1283 157.696 42.5 158.119 42.0117C158.549 41.5234 159.057 41.1654 159.643 40.9375C160.229 40.7031 160.88 40.5859 161.596 40.5859C162.169 40.5859 162.699 40.6608 163.188 40.8105C163.682 40.9538 164.128 41.1784 164.525 41.4844C164.923 41.7904 165.261 42.1842 165.541 42.666C165.821 43.1413 166.036 43.7109 166.186 44.375C166.335 45.0326 166.41 45.7878 166.41 46.6406ZM163.588 49.4727V46.2598C163.588 45.7454 163.559 45.2962 163.5 44.9121C163.448 44.528 163.367 44.2025 163.256 43.9355C163.145 43.6621 163.008 43.4408 162.846 43.2715C162.683 43.1022 162.497 42.9785 162.289 42.9004C162.081 42.8223 161.85 42.7832 161.596 42.7832C161.277 42.7832 160.993 42.8451 160.746 42.9688C160.505 43.0924 160.3 43.291 160.131 43.5645C159.962 43.8314 159.831 44.1895 159.74 44.6387C159.656 45.0814 159.613 45.6217 159.613 46.2598V49.4727C159.613 49.987 159.639 50.4395 159.691 50.8301C159.75 51.2207 159.835 51.556 159.945 51.8359C160.062 52.1094 160.199 52.334 160.355 52.5098C160.518 52.679 160.704 52.8027 160.912 52.8809C161.127 52.959 161.361 52.998 161.615 52.998C161.928 52.998 162.204 52.9362 162.445 52.8125C162.693 52.6823 162.901 52.4805 163.07 52.207C163.246 51.9271 163.376 51.5625 163.461 51.1133C163.546 50.6641 163.588 50.1172 163.588 49.4727ZM178.051 52.8027V55H168.324V53.125L172.924 48.1934C173.386 47.679 173.751 47.2266 174.018 46.8359C174.285 46.4388 174.477 46.084 174.594 45.7715C174.717 45.4525 174.779 45.1497 174.779 44.8633C174.779 44.4336 174.708 44.0658 174.564 43.7598C174.421 43.4473 174.21 43.2064 173.93 43.0371C173.656 42.8678 173.318 42.7832 172.914 42.7832C172.484 42.7832 172.113 42.8874 171.801 43.0957C171.495 43.304 171.26 43.5938 171.098 43.9648C170.941 44.3359 170.863 44.7559 170.863 45.2246H168.041C168.041 44.3783 168.243 43.6035 168.646 42.9004C169.05 42.1908 169.62 41.6276 170.355 41.2109C171.091 40.7878 171.964 40.5762 172.973 40.5762C173.969 40.5762 174.809 40.7389 175.492 41.0645C176.182 41.3835 176.703 41.8457 177.055 42.4512C177.413 43.0501 177.592 43.7663 177.592 44.5996C177.592 45.0684 177.517 45.5273 177.367 45.9766C177.217 46.4193 177.003 46.862 176.723 47.3047C176.449 47.7409 176.117 48.1836 175.727 48.6328C175.336 49.082 174.903 49.5475 174.428 50.0293L171.957 52.8027H178.051Z" fill="#151D48"/>
<path d="M334.299 48.8049C334.299 21.8507 312.449 3.05176e-05 285.494 3.05176e-05C258.54 3.05176e-05 236.689 21.8507 236.689 48.8049C236.689 75.7592 258.54 97.6099 285.494 97.6099C312.449 97.6099 334.299 75.7592 334.299 48.8049ZM246.27 48.8049C246.27 27.1419 263.831 9.5806 285.494 9.5806C307.157 9.5806 324.719 27.1419 324.719 48.8049C324.719 70.468 307.157 88.0293 285.494 88.0293C263.831 88.0293 246.27 70.468 246.27 48.8049Z" fill="#D1D1D1"/>
<path d="M242.464 39.5477C239.878 38.9913 238.209 36.4334 239.017 33.9139C240.633 28.8703 243.062 24.113 246.219 19.8338C250.325 14.2668 255.568 9.63631 261.6 6.24945C267.632 2.86259 274.315 0.79673 281.206 0.188835C288.097 -0.41906 295.038 0.444908 301.57 2.72345C308.101 5.00199 314.074 8.64304 319.092 13.4052C324.109 18.1673 328.057 23.9417 330.674 30.3455C333.29 36.7493 334.515 43.6362 334.268 50.5494C334.078 55.8634 333.021 61.0997 331.149 66.054C330.214 68.5288 327.317 69.494 324.946 68.321C322.574 67.1479 321.634 64.2809 322.509 61.7844C323.813 58.0658 324.552 54.1632 324.694 50.207C324.892 44.6508 323.908 39.1159 321.805 33.9692C319.702 28.8225 316.529 24.1816 312.496 20.3543C308.464 16.527 303.664 13.6007 298.414 11.7694C293.165 9.93815 287.586 9.24377 282.048 9.73234C276.509 10.2209 271.138 11.8812 266.29 14.6032C261.443 17.3252 257.229 21.0467 253.929 25.5209C251.579 28.7067 249.73 32.2224 248.438 35.9451C247.571 38.4445 245.051 40.1041 242.464 39.5477Z" fill="#3CD856"/>
<path d="M269.673 125.049H271.138C271.091 125.608 270.935 126.106 270.669 126.543C270.403 126.977 270.03 127.319 269.55 127.569C269.069 127.819 268.485 127.944 267.798 127.944C267.271 127.944 266.796 127.85 266.374 127.662C265.952 127.471 265.591 127.201 265.29 126.854C264.989 126.502 264.759 126.078 264.599 125.582C264.442 125.086 264.364 124.531 264.364 123.918V123.209C264.364 122.596 264.444 122.041 264.604 121.545C264.769 121.049 265.003 120.625 265.308 120.274C265.612 119.918 265.978 119.647 266.403 119.459C266.833 119.272 267.315 119.178 267.851 119.178C268.53 119.178 269.104 119.303 269.573 119.553C270.042 119.803 270.405 120.149 270.663 120.59C270.925 121.031 271.085 121.537 271.144 122.108H269.679C269.64 121.74 269.554 121.426 269.421 121.164C269.292 120.903 269.101 120.703 268.847 120.567C268.593 120.426 268.261 120.356 267.851 120.356C267.515 120.356 267.222 120.418 266.972 120.543C266.722 120.668 266.513 120.852 266.345 121.094C266.177 121.336 266.05 121.635 265.964 121.99C265.882 122.342 265.841 122.744 265.841 123.198V123.918C265.841 124.348 265.878 124.739 265.952 125.09C266.03 125.438 266.147 125.737 266.304 125.987C266.464 126.237 266.667 126.43 266.913 126.567C267.159 126.703 267.454 126.772 267.798 126.772C268.216 126.772 268.554 126.705 268.812 126.573C269.073 126.44 269.271 126.246 269.403 125.992C269.54 125.735 269.63 125.42 269.673 125.049ZM276.147 126.332V121.487H277.565V127.826H276.229L276.147 126.332ZM276.347 125.014L276.821 125.002C276.821 125.428 276.774 125.821 276.681 126.18C276.587 126.535 276.442 126.846 276.247 127.112C276.052 127.373 275.802 127.578 275.497 127.727C275.192 127.871 274.827 127.944 274.401 127.944C274.093 127.944 273.81 127.899 273.552 127.809C273.294 127.719 273.071 127.58 272.884 127.393C272.7 127.205 272.558 126.961 272.456 126.66C272.354 126.36 272.304 126 272.304 125.582V121.487H273.716V125.594C273.716 125.824 273.743 126.018 273.798 126.174C273.853 126.326 273.927 126.449 274.021 126.543C274.114 126.637 274.224 126.703 274.349 126.742C274.474 126.781 274.606 126.801 274.747 126.801C275.149 126.801 275.466 126.723 275.696 126.567C275.931 126.406 276.097 126.192 276.194 125.922C276.296 125.653 276.347 125.35 276.347 125.014ZM282.569 126.11C282.569 125.969 282.534 125.842 282.464 125.729C282.394 125.612 282.259 125.506 282.06 125.412C281.864 125.319 281.575 125.233 281.192 125.155C280.856 125.08 280.548 124.992 280.267 124.891C279.989 124.785 279.751 124.658 279.552 124.51C279.353 124.362 279.198 124.186 279.089 123.983C278.979 123.78 278.925 123.545 278.925 123.28C278.925 123.022 278.981 122.778 279.095 122.547C279.208 122.317 279.37 122.114 279.581 121.938C279.792 121.762 280.048 121.623 280.349 121.522C280.653 121.42 280.993 121.369 281.368 121.369C281.899 121.369 282.354 121.459 282.733 121.639C283.116 121.815 283.409 122.055 283.612 122.36C283.815 122.66 283.917 123 283.917 123.379H282.505C282.505 123.211 282.462 123.055 282.376 122.91C282.294 122.762 282.169 122.643 282.001 122.553C281.833 122.459 281.622 122.412 281.368 122.412C281.126 122.412 280.925 122.451 280.765 122.53C280.608 122.604 280.491 122.701 280.413 122.823C280.339 122.944 280.302 123.076 280.302 123.221C280.302 123.326 280.321 123.422 280.36 123.508C280.403 123.59 280.474 123.666 280.571 123.737C280.669 123.803 280.802 123.865 280.97 123.924C281.142 123.983 281.356 124.039 281.614 124.094C282.099 124.196 282.515 124.326 282.862 124.487C283.214 124.643 283.483 124.846 283.671 125.096C283.858 125.342 283.952 125.655 283.952 126.033C283.952 126.315 283.892 126.573 283.771 126.807C283.653 127.037 283.481 127.239 283.255 127.41C283.028 127.578 282.757 127.709 282.44 127.803C282.128 127.897 281.776 127.944 281.386 127.944C280.812 127.944 280.325 127.842 279.927 127.639C279.528 127.432 279.226 127.168 279.019 126.848C278.815 126.524 278.714 126.188 278.714 125.84H280.079C280.095 126.102 280.167 126.311 280.296 126.467C280.429 126.619 280.593 126.731 280.788 126.801C280.987 126.867 281.192 126.901 281.403 126.901C281.657 126.901 281.87 126.867 282.042 126.801C282.214 126.731 282.345 126.637 282.435 126.52C282.524 126.399 282.569 126.262 282.569 126.11ZM288.095 121.487V122.518H284.521V121.487H288.095ZM285.552 119.934H286.964V126.074C286.964 126.27 286.991 126.42 287.046 126.526C287.104 126.627 287.185 126.696 287.286 126.731C287.388 126.766 287.507 126.783 287.644 126.783C287.741 126.783 287.835 126.778 287.925 126.766C288.015 126.754 288.087 126.742 288.142 126.731L288.147 127.809C288.03 127.844 287.894 127.875 287.737 127.903C287.585 127.93 287.409 127.944 287.21 127.944C286.886 127.944 286.599 127.887 286.349 127.774C286.099 127.656 285.903 127.467 285.763 127.205C285.622 126.944 285.552 126.596 285.552 126.162V119.934ZM288.774 124.727V124.592C288.774 124.135 288.841 123.711 288.974 123.321C289.106 122.926 289.298 122.584 289.548 122.295C289.802 122.002 290.11 121.776 290.474 121.615C290.841 121.451 291.255 121.369 291.716 121.369C292.181 121.369 292.595 121.451 292.958 121.615C293.325 121.776 293.636 122.002 293.89 122.295C294.144 122.584 294.337 122.926 294.47 123.321C294.603 123.711 294.669 124.135 294.669 124.592V124.727C294.669 125.184 294.603 125.608 294.47 125.998C294.337 126.389 294.144 126.731 293.89 127.024C293.636 127.313 293.327 127.539 292.964 127.703C292.601 127.864 292.188 127.944 291.728 127.944C291.263 127.944 290.847 127.864 290.479 127.703C290.116 127.539 289.808 127.313 289.554 127.024C289.3 126.731 289.106 126.389 288.974 125.998C288.841 125.608 288.774 125.184 288.774 124.727ZM290.187 124.592V124.727C290.187 125.012 290.216 125.281 290.274 125.535C290.333 125.789 290.425 126.012 290.55 126.203C290.675 126.395 290.835 126.545 291.03 126.655C291.226 126.764 291.458 126.819 291.728 126.819C291.989 126.819 292.216 126.764 292.407 126.655C292.603 126.545 292.763 126.395 292.888 126.203C293.013 126.012 293.104 125.789 293.163 125.535C293.226 125.281 293.257 125.012 293.257 124.727V124.592C293.257 124.311 293.226 124.045 293.163 123.795C293.104 123.541 293.011 123.317 292.882 123.121C292.757 122.926 292.597 122.774 292.401 122.664C292.21 122.551 291.981 122.494 291.716 122.494C291.45 122.494 291.22 122.551 291.024 122.664C290.833 122.774 290.675 122.926 290.55 123.121C290.425 123.317 290.333 123.541 290.274 123.795C290.216 124.045 290.187 124.311 290.187 124.592ZM297.265 122.776V127.826H295.853V121.487H297.183L297.265 122.776ZM297.036 124.422L296.556 124.416C296.556 123.979 296.61 123.574 296.72 123.203C296.829 122.832 296.989 122.51 297.2 122.237C297.411 121.959 297.673 121.746 297.985 121.598C298.302 121.446 298.667 121.369 299.081 121.369C299.37 121.369 299.634 121.412 299.872 121.498C300.114 121.58 300.323 121.711 300.499 121.891C300.679 122.071 300.815 122.301 300.909 122.582C301.007 122.864 301.056 123.203 301.056 123.602V127.826H299.644V123.725C299.644 123.416 299.597 123.174 299.503 122.998C299.413 122.823 299.282 122.698 299.11 122.623C298.942 122.545 298.741 122.506 298.507 122.506C298.241 122.506 298.015 122.557 297.827 122.658C297.644 122.76 297.493 122.899 297.376 123.074C297.259 123.25 297.173 123.453 297.118 123.684C297.063 123.914 297.036 124.16 297.036 124.422ZM300.968 124.047L300.306 124.194C300.306 123.811 300.358 123.449 300.464 123.11C300.573 122.766 300.731 122.465 300.938 122.207C301.149 121.946 301.409 121.74 301.718 121.592C302.026 121.444 302.38 121.369 302.778 121.369C303.103 121.369 303.392 121.414 303.646 121.504C303.903 121.59 304.122 121.727 304.302 121.914C304.481 122.102 304.618 122.346 304.712 122.647C304.806 122.944 304.853 123.303 304.853 123.725V127.826H303.435V123.719C303.435 123.399 303.388 123.151 303.294 122.975C303.204 122.799 303.075 122.678 302.907 122.612C302.739 122.541 302.538 122.506 302.304 122.506C302.085 122.506 301.892 122.547 301.724 122.629C301.56 122.707 301.421 122.819 301.308 122.963C301.194 123.104 301.108 123.266 301.05 123.449C300.995 123.633 300.968 123.832 300.968 124.047Z" fill="black"/>
<path d="M284.258 46.6406V49.1016C284.258 50.1693 284.144 51.0905 283.916 51.8652C283.688 52.6335 283.359 53.265 282.93 53.7598C282.507 54.248 282.002 54.6094 281.416 54.8438C280.83 55.0781 280.179 55.1953 279.463 55.1953C278.89 55.1953 278.356 55.1237 277.861 54.9805C277.367 54.8307 276.921 54.5996 276.523 54.2871C276.133 53.9746 275.794 53.5807 275.508 53.1055C275.228 52.6237 275.013 52.0508 274.863 51.3867C274.714 50.7227 274.639 49.9609 274.639 49.1016V46.6406C274.639 45.5729 274.753 44.6582 274.98 43.8965C275.215 43.1283 275.544 42.5 275.967 42.0117C276.396 41.5234 276.904 41.1654 277.49 40.9375C278.076 40.7031 278.727 40.5859 279.443 40.5859C280.016 40.5859 280.547 40.6608 281.035 40.8105C281.53 40.9538 281.976 41.1784 282.373 41.4844C282.77 41.7904 283.109 42.1842 283.389 42.666C283.669 43.1413 283.883 43.7109 284.033 44.375C284.183 45.0326 284.258 45.7878 284.258 46.6406ZM281.436 49.4727V46.2598C281.436 45.7454 281.406 45.2962 281.348 44.9121C281.296 44.528 281.214 44.2025 281.104 43.9355C280.993 43.6621 280.856 43.4408 280.693 43.2715C280.531 43.1022 280.345 42.9785 280.137 42.9004C279.928 42.8223 279.697 42.7832 279.443 42.7832C279.124 42.7832 278.841 42.8451 278.594 42.9688C278.353 43.0924 278.148 43.291 277.979 43.5645C277.809 43.8314 277.679 44.1895 277.588 44.6387C277.503 45.0814 277.461 45.6217 277.461 46.2598V49.4727C277.461 49.987 277.487 50.4395 277.539 50.8301C277.598 51.2207 277.682 51.556 277.793 51.8359C277.91 52.1094 278.047 52.334 278.203 52.5098C278.366 52.679 278.551 52.8027 278.76 52.8809C278.975 52.959 279.209 52.998 279.463 52.998C279.775 52.998 280.052 52.9362 280.293 52.8125C280.54 52.6823 280.749 52.4805 280.918 52.207C281.094 51.9271 281.224 51.5625 281.309 51.1133C281.393 50.6641 281.436 50.1172 281.436 49.4727ZM293.027 40.752V55H290.215V43.9941L286.836 45.0684V42.8516L292.725 40.752H293.027Z" fill="#151D48"/>
<path d="M452.61 48.8049C452.61 21.8507 430.759 3.05176e-05 403.805 3.05176e-05C376.851 3.05176e-05 355 21.8507 355 48.8049C355 75.7592 376.851 97.6099 403.805 97.6099C430.759 97.6099 452.61 75.7592 452.61 48.8049ZM364.581 48.8049C364.581 27.1419 382.142 9.5806 403.805 9.5806C425.468 9.5806 443.029 27.1419 443.029 48.8049C443.029 70.468 425.468 88.0293 403.805 88.0293C382.142 88.0293 364.581 70.468 364.581 48.8049Z" fill="#D1D1D1"/>
<path d="M360.775 39.5477C358.188 38.9913 356.52 36.4333 357.327 33.9138C359.881 25.9432 364.451 18.7356 370.629 13.0098C376.807 7.284 384.341 3.2734 392.482 1.33164C395.055 0.717873 397.479 2.57546 397.838 5.19664C398.197 7.81782 396.351 10.2046 393.793 10.8799C387.599 12.515 381.875 15.6493 377.142 20.0365C372.408 24.4238 368.849 29.8934 366.749 35.945C365.881 38.4444 363.361 40.1041 360.775 39.5477Z" fill="#EEA62E"/>
<path d="M345.742 125.629C345.742 125.453 345.715 125.297 345.66 125.16C345.609 125.024 345.518 124.899 345.385 124.785C345.252 124.672 345.064 124.563 344.822 124.457C344.584 124.348 344.279 124.237 343.908 124.123C343.502 123.998 343.127 123.86 342.783 123.707C342.443 123.551 342.146 123.371 341.893 123.168C341.639 122.961 341.441 122.725 341.301 122.459C341.16 122.19 341.09 121.879 341.09 121.528C341.09 121.18 341.162 120.864 341.307 120.578C341.455 120.293 341.664 120.047 341.934 119.84C342.207 119.629 342.529 119.467 342.9 119.354C343.271 119.237 343.682 119.178 344.131 119.178C344.764 119.178 345.309 119.295 345.766 119.53C346.227 119.764 346.58 120.078 346.826 120.473C347.076 120.867 347.201 121.303 347.201 121.78H345.742C345.742 121.498 345.682 121.25 345.561 121.035C345.443 120.817 345.264 120.645 345.021 120.52C344.783 120.395 344.48 120.332 344.113 120.332C343.766 120.332 343.477 120.385 343.246 120.49C343.016 120.596 342.844 120.739 342.73 120.918C342.617 121.098 342.561 121.301 342.561 121.528C342.561 121.688 342.598 121.834 342.672 121.967C342.746 122.096 342.859 122.217 343.012 122.33C343.164 122.44 343.355 122.543 343.586 122.641C343.816 122.739 344.088 122.832 344.4 122.922C344.873 123.063 345.285 123.219 345.637 123.391C345.988 123.559 346.281 123.75 346.516 123.965C346.75 124.18 346.926 124.424 347.043 124.698C347.16 124.967 347.219 125.274 347.219 125.617C347.219 125.977 347.146 126.301 347.002 126.59C346.857 126.875 346.65 127.119 346.381 127.323C346.115 127.522 345.795 127.676 345.42 127.785C345.049 127.891 344.635 127.944 344.178 127.944C343.768 127.944 343.363 127.889 342.965 127.78C342.57 127.67 342.211 127.504 341.887 127.281C341.562 127.055 341.305 126.774 341.113 126.438C340.922 126.098 340.826 125.701 340.826 125.248H342.297C342.297 125.526 342.344 125.762 342.438 125.957C342.535 126.153 342.67 126.313 342.842 126.438C343.014 126.559 343.213 126.649 343.439 126.707C343.67 126.766 343.916 126.795 344.178 126.795C344.521 126.795 344.809 126.746 345.039 126.649C345.273 126.551 345.449 126.414 345.566 126.239C345.684 126.063 345.742 125.86 345.742 125.629ZM350.969 126.819C351.199 126.819 351.406 126.774 351.59 126.684C351.777 126.59 351.928 126.461 352.041 126.297C352.158 126.133 352.223 125.944 352.234 125.729H353.564C353.557 126.139 353.436 126.512 353.201 126.848C352.967 127.184 352.656 127.451 352.27 127.651C351.883 127.846 351.455 127.944 350.986 127.944C350.502 127.944 350.08 127.862 349.721 127.698C349.361 127.53 349.062 127.299 348.824 127.006C348.586 126.713 348.406 126.375 348.285 125.992C348.168 125.61 348.109 125.199 348.109 124.762V124.557C348.109 124.119 348.168 123.709 348.285 123.326C348.406 122.94 348.586 122.6 348.824 122.307C349.062 122.014 349.361 121.785 349.721 121.621C350.08 121.453 350.5 121.369 350.98 121.369C351.488 121.369 351.934 121.471 352.316 121.674C352.699 121.873 353 122.153 353.219 122.512C353.441 122.867 353.557 123.281 353.564 123.754H352.234C352.223 123.52 352.164 123.309 352.059 123.121C351.957 122.93 351.812 122.778 351.625 122.664C351.441 122.551 351.221 122.494 350.963 122.494C350.678 122.494 350.441 122.553 350.254 122.67C350.066 122.783 349.92 122.94 349.814 123.139C349.709 123.334 349.633 123.555 349.586 123.801C349.543 124.043 349.521 124.295 349.521 124.557V124.762C349.521 125.024 349.543 125.278 349.586 125.524C349.629 125.77 349.703 125.99 349.809 126.186C349.918 126.377 350.066 126.531 350.254 126.649C350.441 126.762 350.68 126.819 350.969 126.819ZM356.043 118.826V127.826H354.637V118.826H356.043ZM355.797 124.422L355.34 124.416C355.344 123.979 355.404 123.574 355.521 123.203C355.643 122.832 355.811 122.51 356.025 122.237C356.244 121.959 356.506 121.746 356.811 121.598C357.115 121.446 357.453 121.369 357.824 121.369C358.137 121.369 358.418 121.412 358.668 121.498C358.922 121.584 359.141 121.723 359.324 121.914C359.508 122.102 359.646 122.348 359.74 122.653C359.838 122.953 359.887 123.321 359.887 123.754V127.826H358.469V123.742C358.469 123.438 358.424 123.196 358.334 123.016C358.248 122.836 358.121 122.707 357.953 122.629C357.785 122.547 357.58 122.506 357.338 122.506C357.084 122.506 356.859 122.557 356.664 122.658C356.473 122.76 356.312 122.899 356.184 123.074C356.055 123.25 355.957 123.453 355.891 123.684C355.828 123.914 355.797 124.16 355.797 124.422ZM364.111 127.944C363.643 127.944 363.219 127.867 362.84 127.715C362.465 127.559 362.145 127.342 361.879 127.065C361.617 126.787 361.416 126.461 361.275 126.086C361.135 125.711 361.064 125.307 361.064 124.873V124.639C361.064 124.143 361.137 123.694 361.281 123.291C361.426 122.889 361.627 122.545 361.885 122.26C362.143 121.971 362.447 121.75 362.799 121.598C363.15 121.446 363.531 121.369 363.941 121.369C364.395 121.369 364.791 121.446 365.131 121.598C365.471 121.75 365.752 121.965 365.975 122.242C366.201 122.516 366.369 122.842 366.479 123.221C366.592 123.6 366.648 124.018 366.648 124.475V125.078H361.75V124.065H365.254V123.953C365.246 123.699 365.195 123.461 365.102 123.239C365.012 123.016 364.873 122.836 364.686 122.699C364.498 122.563 364.248 122.494 363.936 122.494C363.701 122.494 363.492 122.545 363.309 122.647C363.129 122.744 362.979 122.887 362.857 123.074C362.736 123.262 362.643 123.489 362.576 123.754C362.514 124.016 362.482 124.311 362.482 124.639V124.873C362.482 125.151 362.52 125.408 362.594 125.647C362.672 125.881 362.785 126.086 362.934 126.262C363.082 126.438 363.262 126.576 363.473 126.678C363.684 126.776 363.924 126.824 364.193 126.824C364.533 126.824 364.836 126.756 365.102 126.619C365.367 126.483 365.598 126.289 365.793 126.039L366.537 126.76C366.4 126.959 366.223 127.151 366.004 127.334C365.785 127.514 365.518 127.66 365.201 127.774C364.889 127.887 364.525 127.944 364.111 127.944ZM371.617 126.514V118.826H373.035V127.826H371.752L371.617 126.514ZM367.492 124.727V124.604C367.492 124.123 367.549 123.686 367.662 123.291C367.775 122.893 367.939 122.551 368.154 122.266C368.369 121.977 368.631 121.756 368.939 121.604C369.248 121.448 369.596 121.369 369.982 121.369C370.365 121.369 370.701 121.444 370.99 121.592C371.279 121.74 371.525 121.953 371.729 122.231C371.932 122.504 372.094 122.832 372.215 123.215C372.336 123.594 372.422 124.016 372.473 124.481V124.873C372.422 125.326 372.336 125.74 372.215 126.115C372.094 126.49 371.932 126.815 371.729 127.088C371.525 127.362 371.277 127.573 370.984 127.721C370.695 127.869 370.357 127.944 369.971 127.944C369.588 127.944 369.242 127.864 368.934 127.703C368.629 127.543 368.369 127.319 368.154 127.03C367.939 126.74 367.775 126.401 367.662 126.01C367.549 125.615 367.492 125.188 367.492 124.727ZM368.904 124.604V124.727C368.904 125.016 368.93 125.285 368.98 125.535C369.035 125.785 369.119 126.006 369.232 126.198C369.346 126.385 369.492 126.533 369.672 126.643C369.855 126.748 370.074 126.801 370.328 126.801C370.648 126.801 370.912 126.731 371.119 126.59C371.326 126.449 371.488 126.26 371.605 126.022C371.727 125.78 371.809 125.51 371.852 125.213V124.153C371.828 123.922 371.779 123.707 371.705 123.508C371.635 123.309 371.539 123.135 371.418 122.987C371.297 122.834 371.146 122.717 370.967 122.635C370.791 122.549 370.582 122.506 370.34 122.506C370.082 122.506 369.863 122.561 369.684 122.67C369.504 122.78 369.355 122.93 369.238 123.121C369.125 123.313 369.041 123.535 368.986 123.789C368.932 124.043 368.904 124.315 368.904 124.604ZM378.326 126.332V121.487H379.744V127.826H378.408L378.326 126.332ZM378.525 125.014L379 125.002C379 125.428 378.953 125.821 378.859 126.18C378.766 126.535 378.621 126.846 378.426 127.112C378.23 127.373 377.98 127.578 377.676 127.727C377.371 127.871 377.006 127.944 376.58 127.944C376.271 127.944 375.988 127.899 375.73 127.809C375.473 127.719 375.25 127.58 375.062 127.393C374.879 127.205 374.736 126.961 374.635 126.66C374.533 126.36 374.482 126 374.482 125.582V121.487H375.895V125.594C375.895 125.824 375.922 126.018 375.977 126.174C376.031 126.326 376.105 126.449 376.199 126.543C376.293 126.637 376.402 126.703 376.527 126.742C376.652 126.781 376.785 126.801 376.926 126.801C377.328 126.801 377.645 126.723 377.875 126.567C378.109 126.406 378.275 126.192 378.373 125.922C378.475 125.653 378.525 125.35 378.525 125.014ZM382.703 118.826V127.826H381.285V118.826H382.703ZM387.045 127.944C386.576 127.944 386.152 127.867 385.773 127.715C385.398 127.559 385.078 127.342 384.812 127.065C384.551 126.787 384.35 126.461 384.209 126.086C384.068 125.711 383.998 125.307 383.998 124.873V124.639C383.998 124.143 384.07 123.694 384.215 123.291C384.359 122.889 384.561 122.545 384.818 122.26C385.076 121.971 385.381 121.75 385.732 121.598C386.084 121.446 386.465 121.369 386.875 121.369C387.328 121.369 387.725 121.446 388.064 121.598C388.404 121.75 388.686 121.965 388.908 122.242C389.135 122.516 389.303 122.842 389.412 123.221C389.525 123.6 389.582 124.018 389.582 124.475V125.078H384.684V124.065H388.188V123.953C388.18 123.699 388.129 123.461 388.035 123.239C387.945 123.016 387.807 122.836 387.619 122.699C387.432 122.563 387.182 122.494 386.869 122.494C386.635 122.494 386.426 122.545 386.242 122.647C386.062 122.744 385.912 122.887 385.791 123.074C385.67 123.262 385.576 123.489 385.51 123.754C385.447 124.016 385.416 124.311 385.416 124.639V124.873C385.416 125.151 385.453 125.408 385.527 125.647C385.605 125.881 385.719 126.086 385.867 126.262C386.016 126.438 386.195 126.576 386.406 126.678C386.617 126.776 386.857 126.824 387.127 126.824C387.467 126.824 387.77 126.756 388.035 126.619C388.301 126.483 388.531 126.289 388.727 126.039L389.471 126.76C389.334 126.959 389.156 127.151 388.938 127.334C388.719 127.514 388.451 127.66 388.135 127.774C387.822 127.887 387.459 127.944 387.045 127.944ZM394.551 126.514V118.826H395.969V127.826H394.686L394.551 126.514ZM390.426 124.727V124.604C390.426 124.123 390.482 123.686 390.596 123.291C390.709 122.893 390.873 122.551 391.088 122.266C391.303 121.977 391.564 121.756 391.873 121.604C392.182 121.448 392.529 121.369 392.916 121.369C393.299 121.369 393.635 121.444 393.924 121.592C394.213 121.74 394.459 121.953 394.662 122.231C394.865 122.504 395.027 122.832 395.148 123.215C395.27 123.594 395.355 124.016 395.406 124.481V124.873C395.355 125.326 395.27 125.74 395.148 126.115C395.027 126.49 394.865 126.815 394.662 127.088C394.459 127.362 394.211 127.573 393.918 127.721C393.629 127.869 393.291 127.944 392.904 127.944C392.521 127.944 392.176 127.864 391.867 127.703C391.562 127.543 391.303 127.319 391.088 127.03C390.873 126.74 390.709 126.401 390.596 126.01C390.482 125.615 390.426 125.188 390.426 124.727ZM391.838 124.604V124.727C391.838 125.016 391.863 125.285 391.914 125.535C391.969 125.785 392.053 126.006 392.166 126.198C392.279 126.385 392.426 126.533 392.605 126.643C392.789 126.748 393.008 126.801 393.262 126.801C393.582 126.801 393.846 126.731 394.053 126.59C394.26 126.449 394.422 126.26 394.539 126.022C394.66 125.78 394.742 125.51 394.785 125.213V124.153C394.762 123.922 394.713 123.707 394.639 123.508C394.568 123.309 394.473 123.135 394.352 122.987C394.23 122.834 394.08 122.717 393.9 122.635C393.725 122.549 393.516 122.506 393.273 122.506C393.016 122.506 392.797 122.561 392.617 122.67C392.438 122.78 392.289 122.93 392.172 123.121C392.059 123.313 391.975 123.535 391.92 123.789C391.865 124.043 391.838 124.315 391.838 124.604ZM406.158 126.66V127.826H401.629V126.66H406.158ZM402.045 119.295V127.826H400.574V119.295H402.045ZM405.566 122.858V124.006H401.629V122.858H405.566ZM406.129 119.295V120.467H401.629V119.295H406.129ZM408.619 122.84V127.826H407.207V121.487H408.537L408.619 122.84ZM408.367 124.422L407.91 124.416C407.914 123.967 407.977 123.555 408.098 123.18C408.223 122.805 408.395 122.483 408.613 122.213C408.836 121.944 409.102 121.737 409.41 121.592C409.719 121.444 410.062 121.369 410.441 121.369C410.746 121.369 411.021 121.412 411.268 121.498C411.518 121.58 411.73 121.715 411.906 121.903C412.086 122.09 412.223 122.334 412.316 122.635C412.41 122.932 412.457 123.297 412.457 123.731V127.826H411.039V123.725C411.039 123.42 410.994 123.18 410.904 123.004C410.818 122.824 410.691 122.698 410.523 122.623C410.359 122.545 410.154 122.506 409.908 122.506C409.666 122.506 409.449 122.557 409.258 122.658C409.066 122.76 408.904 122.899 408.771 123.074C408.643 123.25 408.543 123.453 408.473 123.684C408.402 123.914 408.367 124.16 408.367 124.422ZM415.809 127.826H414.396V120.877C414.396 120.405 414.484 120.008 414.66 119.688C414.84 119.364 415.096 119.119 415.428 118.955C415.76 118.787 416.152 118.703 416.605 118.703C416.746 118.703 416.885 118.713 417.021 118.733C417.158 118.748 417.291 118.774 417.42 118.809L417.385 119.899C417.307 119.879 417.221 119.865 417.127 119.858C417.037 119.85 416.939 119.846 416.834 119.846C416.619 119.846 416.434 119.887 416.277 119.969C416.125 120.047 416.008 120.162 415.926 120.315C415.848 120.467 415.809 120.655 415.809 120.877V127.826ZM417.115 121.487V122.518H413.424V121.487H417.115ZM417.871 124.727V124.592C417.871 124.135 417.938 123.711 418.07 123.321C418.203 122.926 418.395 122.584 418.645 122.295C418.898 122.002 419.207 121.776 419.57 121.615C419.938 121.451 420.352 121.369 420.812 121.369C421.277 121.369 421.691 121.451 422.055 121.615C422.422 121.776 422.732 122.002 422.986 122.295C423.24 122.584 423.434 122.926 423.566 123.321C423.699 123.711 423.766 124.135 423.766 124.592V124.727C423.766 125.184 423.699 125.608 423.566 125.998C423.434 126.389 423.24 126.731 422.986 127.024C422.732 127.313 422.424 127.539 422.061 127.703C421.697 127.864 421.285 127.944 420.824 127.944C420.359 127.944 419.943 127.864 419.576 127.703C419.213 127.539 418.904 127.313 418.65 127.024C418.396 126.731 418.203 126.389 418.07 125.998C417.938 125.608 417.871 125.184 417.871 124.727ZM419.283 124.592V124.727C419.283 125.012 419.312 125.281 419.371 125.535C419.43 125.789 419.521 126.012 419.646 126.203C419.771 126.395 419.932 126.545 420.127 126.655C420.322 126.764 420.555 126.819 420.824 126.819C421.086 126.819 421.312 126.764 421.504 126.655C421.699 126.545 421.859 126.395 421.984 126.203C422.109 126.012 422.201 125.789 422.26 125.535C422.322 125.281 422.354 125.012 422.354 124.727V124.592C422.354 124.311 422.322 124.045 422.26 123.795C422.201 123.541 422.107 123.317 421.979 123.121C421.854 122.926 421.693 122.774 421.498 122.664C421.307 122.551 421.078 122.494 420.812 122.494C420.547 122.494 420.316 122.551 420.121 122.664C419.93 122.774 419.771 122.926 419.646 123.121C419.521 123.317 419.43 123.541 419.371 123.795C419.312 124.045 419.283 124.311 419.283 124.592ZM426.367 122.694V127.826H424.955V121.487H426.303L426.367 122.694ZM428.307 121.446L428.295 122.758C428.209 122.742 428.115 122.731 428.014 122.723C427.916 122.715 427.818 122.711 427.721 122.711C427.479 122.711 427.266 122.746 427.082 122.817C426.898 122.883 426.744 122.981 426.619 123.11C426.498 123.235 426.404 123.387 426.338 123.567C426.271 123.746 426.232 123.948 426.221 124.17L425.898 124.194C425.898 123.795 425.938 123.426 426.016 123.086C426.094 122.746 426.211 122.448 426.367 122.19C426.527 121.932 426.727 121.731 426.965 121.586C427.207 121.442 427.486 121.369 427.803 121.369C427.889 121.369 427.98 121.377 428.078 121.393C428.18 121.408 428.256 121.426 428.307 121.446ZM431.664 126.819C431.895 126.819 432.102 126.774 432.285 126.684C432.473 126.59 432.623 126.461 432.736 126.297C432.854 126.133 432.918 125.944 432.93 125.729H434.26C434.252 126.139 434.131 126.512 433.896 126.848C433.662 127.184 433.352 127.451 432.965 127.651C432.578 127.846 432.15 127.944 431.682 127.944C431.197 127.944 430.775 127.862 430.416 127.698C430.057 127.53 429.758 127.299 429.52 127.006C429.281 126.713 429.102 126.375 428.98 125.992C428.863 125.61 428.805 125.199 428.805 124.762V124.557C428.805 124.119 428.863 123.709 428.98 123.326C429.102 122.94 429.281 122.6 429.52 122.307C429.758 122.014 430.057 121.785 430.416 121.621C430.775 121.453 431.195 121.369 431.676 121.369C432.184 121.369 432.629 121.471 433.012 121.674C433.395 121.873 433.695 122.153 433.914 122.512C434.137 122.867 434.252 123.281 434.26 123.754H432.93C432.918 123.52 432.859 123.309 432.754 123.121C432.652 122.93 432.508 122.778 432.32 122.664C432.137 122.551 431.916 122.494 431.658 122.494C431.373 122.494 431.137 122.553 430.949 122.67C430.762 122.783 430.615 122.94 430.51 123.139C430.404 123.334 430.328 123.555 430.281 123.801C430.238 124.043 430.217 124.295 430.217 124.557V124.762C430.217 125.024 430.238 125.278 430.281 125.524C430.324 125.77 430.398 125.99 430.504 126.186C430.613 126.377 430.762 126.531 430.949 126.649C431.137 126.762 431.375 126.819 431.664 126.819ZM438.139 127.944C437.67 127.944 437.246 127.867 436.867 127.715C436.492 127.559 436.172 127.342 435.906 127.065C435.645 126.787 435.443 126.461 435.303 126.086C435.162 125.711 435.092 125.307 435.092 124.873V124.639C435.092 124.143 435.164 123.694 435.309 123.291C435.453 122.889 435.654 122.545 435.912 122.26C436.17 121.971 436.475 121.75 436.826 121.598C437.178 121.446 437.559 121.369 437.969 121.369C438.422 121.369 438.818 121.446 439.158 121.598C439.498 121.75 439.779 121.965 440.002 122.242C440.229 122.516 440.396 122.842 440.506 123.221C440.619 123.6 440.676 124.018 440.676 124.475V125.078H435.777V124.065H439.281V123.953C439.273 123.699 439.223 123.461 439.129 123.239C439.039 123.016 438.9 122.836 438.713 122.699C438.525 122.563 438.275 122.494 437.963 122.494C437.729 122.494 437.52 122.545 437.336 122.647C437.156 122.744 437.006 122.887 436.885 123.074C436.764 123.262 436.67 123.489 436.604 123.754C436.541 124.016 436.51 124.311 436.51 124.639V124.873C436.51 125.151 436.547 125.408 436.621 125.647C436.699 125.881 436.812 126.086 436.961 126.262C437.109 126.438 437.289 126.576 437.5 126.678C437.711 126.776 437.951 126.824 438.221 126.824C438.561 126.824 438.863 126.756 439.129 126.619C439.395 126.483 439.625 126.289 439.82 126.039L440.564 126.76C440.428 126.959 440.25 127.151 440.031 127.334C439.812 127.514 439.545 127.66 439.229 127.774C438.916 127.887 438.553 127.944 438.139 127.944ZM443.189 122.776V127.826H441.777V121.487H443.107L443.189 122.776ZM442.961 124.422L442.48 124.416C442.48 123.979 442.535 123.574 442.645 123.203C442.754 122.832 442.914 122.51 443.125 122.237C443.336 121.959 443.598 121.746 443.91 121.598C444.227 121.446 444.592 121.369 445.006 121.369C445.295 121.369 445.559 121.412 445.797 121.498C446.039 121.58 446.248 121.711 446.424 121.891C446.604 122.071 446.74 122.301 446.834 122.582C446.932 122.864 446.98 123.203 446.98 123.602V127.826H445.568V123.725C445.568 123.416 445.521 123.174 445.428 122.998C445.338 122.823 445.207 122.698 445.035 122.623C444.867 122.545 444.666 122.506 444.432 122.506C444.166 122.506 443.939 122.557 443.752 122.658C443.568 122.76 443.418 122.899 443.301 123.074C443.184 123.25 443.098 123.453 443.043 123.684C442.988 123.914 442.961 124.16 442.961 124.422ZM446.893 124.047L446.23 124.194C446.23 123.811 446.283 123.449 446.389 123.11C446.498 122.766 446.656 122.465 446.863 122.207C447.074 121.946 447.334 121.74 447.643 121.592C447.951 121.444 448.305 121.369 448.703 121.369C449.027 121.369 449.316 121.414 449.57 121.504C449.828 121.59 450.047 121.727 450.227 121.914C450.406 122.102 450.543 122.346 450.637 122.647C450.73 122.944 450.777 123.303 450.777 123.725V127.826H449.359V123.719C449.359 123.399 449.312 123.151 449.219 122.975C449.129 122.799 449 122.678 448.832 122.612C448.664 122.541 448.463 122.506 448.229 122.506C448.01 122.506 447.816 122.547 447.648 122.629C447.484 122.707 447.346 122.819 447.232 122.963C447.119 123.104 447.033 123.266 446.975 123.449C446.92 123.633 446.893 123.832 446.893 124.047ZM455.025 127.944C454.557 127.944 454.133 127.867 453.754 127.715C453.379 127.559 453.059 127.342 452.793 127.065C452.531 126.787 452.33 126.461 452.189 126.086C452.049 125.711 451.979 125.307 451.979 124.873V124.639C451.979 124.143 452.051 123.694 452.195 123.291C452.34 122.889 452.541 122.545 452.799 122.26C453.057 121.971 453.361 121.75 453.713 121.598C454.064 121.446 454.445 121.369 454.855 121.369C455.309 121.369 455.705 121.446 456.045 121.598C456.385 121.75 456.666 121.965 456.889 122.242C457.115 122.516 457.283 122.842 457.393 123.221C457.506 123.6 457.562 124.018 457.562 124.475V125.078H452.664V124.065H456.168V123.953C456.16 123.699 456.109 123.461 456.016 123.239C455.926 123.016 455.787 122.836 455.6 122.699C455.412 122.563 455.162 122.494 454.85 122.494C454.615 122.494 454.406 122.545 454.223 122.647C454.043 122.744 453.893 122.887 453.771 123.074C453.65 123.262 453.557 123.489 453.49 123.754C453.428 124.016 453.396 124.311 453.396 124.639V124.873C453.396 125.151 453.434 125.408 453.508 125.647C453.586 125.881 453.699 126.086 453.848 126.262C453.996 126.438 454.176 126.576 454.387 126.678C454.598 126.776 454.838 126.824 455.107 126.824C455.447 126.824 455.75 126.756 456.016 126.619C456.281 126.483 456.512 126.289 456.707 126.039L457.451 126.76C457.314 126.959 457.137 127.151 456.918 127.334C456.699 127.514 456.432 127.66 456.115 127.774C455.803 127.887 455.439 127.944 455.025 127.944ZM460.064 122.84V127.826H458.652V121.487H459.982L460.064 122.84ZM459.812 124.422L459.355 124.416C459.359 123.967 459.422 123.555 459.543 123.18C459.668 122.805 459.84 122.483 460.059 122.213C460.281 121.944 460.547 121.737 460.855 121.592C461.164 121.444 461.508 121.369 461.887 121.369C462.191 121.369 462.467 121.412 462.713 121.498C462.963 121.58 463.176 121.715 463.352 121.903C463.531 122.09 463.668 122.334 463.762 122.635C463.855 122.932 463.902 123.297 463.902 123.731V127.826H462.484V123.725C462.484 123.42 462.439 123.18 462.35 123.004C462.264 122.824 462.137 122.698 461.969 122.623C461.805 122.545 461.6 122.506 461.354 122.506C461.111 122.506 460.895 122.557 460.703 122.658C460.512 122.76 460.35 122.899 460.217 123.074C460.088 123.25 459.988 123.453 459.918 123.684C459.848 123.914 459.812 124.16 459.812 124.422ZM468.25 121.487V122.518H464.676V121.487H468.25ZM465.707 119.934H467.119V126.074C467.119 126.27 467.146 126.42 467.201 126.526C467.26 126.627 467.34 126.696 467.441 126.731C467.543 126.766 467.662 126.783 467.799 126.783C467.896 126.783 467.99 126.778 468.08 126.766C468.17 126.754 468.242 126.742 468.297 126.731L468.303 127.809C468.186 127.844 468.049 127.875 467.893 127.903C467.74 127.93 467.564 127.944 467.365 127.944C467.041 127.944 466.754 127.887 466.504 127.774C466.254 127.656 466.059 127.467 465.918 127.205C465.777 126.944 465.707 126.596 465.707 126.162V119.934Z" fill="black"/>
<path d="M402.106 46.6406V49.1016C402.106 50.1693 401.993 51.0905 401.765 51.8652C401.537 52.6335 401.208 53.265 400.778 53.7598C400.355 54.248 399.851 54.6094 399.265 54.8438C398.679 55.0781 398.028 55.1953 397.312 55.1953C396.739 55.1953 396.205 55.1237 395.71 54.9805C395.215 54.8307 394.769 54.5996 394.372 54.2871C393.981 53.9746 393.643 53.5807 393.356 53.1055C393.076 52.6237 392.862 52.0508 392.712 51.3867C392.562 50.7227 392.487 49.9609 392.487 49.1016V46.6406C392.487 45.5729 392.601 44.6582 392.829 43.8965C393.063 43.1283 393.392 42.5 393.815 42.0117C394.245 41.5234 394.753 41.1654 395.339 40.9375C395.925 40.7031 396.576 40.5859 397.292 40.5859C397.865 40.5859 398.396 40.6608 398.884 40.8105C399.379 40.9538 399.825 41.1784 400.222 41.4844C400.619 41.7904 400.957 42.1842 401.237 42.666C401.517 43.1413 401.732 43.7109 401.882 44.375C402.032 45.0326 402.106 45.7878 402.106 46.6406ZM399.284 49.4727V46.2598C399.284 45.7454 399.255 45.2962 399.196 44.9121C399.144 44.528 399.063 44.2025 398.952 43.9355C398.841 43.6621 398.705 43.4408 398.542 43.2715C398.379 43.1022 398.194 42.9785 397.985 42.9004C397.777 42.8223 397.546 42.7832 397.292 42.7832C396.973 42.7832 396.69 42.8451 396.442 42.9688C396.201 43.0924 395.996 43.291 395.827 43.5645C395.658 43.8314 395.528 44.1895 395.437 44.6387C395.352 45.0814 395.31 45.6217 395.31 46.2598V49.4727C395.31 49.987 395.336 50.4395 395.388 50.8301C395.446 51.2207 395.531 51.556 395.642 51.8359C395.759 52.1094 395.896 52.334 396.052 52.5098C396.215 52.679 396.4 52.8027 396.608 52.8809C396.823 52.959 397.058 52.998 397.312 52.998C397.624 52.998 397.901 52.9362 398.142 52.8125C398.389 52.6823 398.597 52.4805 398.767 52.207C398.942 51.9271 399.073 51.5625 399.157 51.1133C399.242 50.6641 399.284 50.1172 399.284 49.4727ZM410.876 40.752V55H408.063V43.9941L404.685 45.0684V42.8516L410.573 40.752H410.876Z" fill="#151D48"/>
<path d="M570.61 48.8049C570.61 21.8507 548.759 3.05176e-05 521.805 3.05176e-05C494.851 3.05176e-05 473 21.8507 473 48.8049C473 75.7592 494.851 97.6099 521.805 97.6099C548.759 97.6099 570.61 75.7592 570.61 48.8049ZM482.581 48.8049C482.581 27.1419 500.142 9.5806 521.805 9.5806C543.468 9.5806 561.029 27.1419 561.029 48.8049C561.029 70.468 543.468 88.0293 521.805 88.0293C500.142 88.0293 482.581 70.468 482.581 48.8049Z" fill="#D1D1D1"/>
<path d="M478.775 39.5477C476.188 38.9913 474.52 36.4333 475.327 33.9138C477.881 25.9432 482.451 18.7356 488.629 13.0098C494.807 7.284 502.341 3.2734 510.482 1.33164C513.055 0.717873 515.479 2.57546 515.838 5.19664C516.197 7.81782 514.351 10.2046 511.793 10.8799C505.599 12.515 499.875 15.6493 495.142 20.0365C490.408 24.4238 486.849 29.8934 484.749 35.945C483.881 38.4444 481.361 40.1041 478.775 39.5477Z" fill="#747375"/>
<path d="M498.139 125.223H499.604C499.557 125.781 499.4 126.279 499.135 126.717C498.869 127.15 498.496 127.492 498.016 127.742C497.535 127.992 496.951 128.117 496.264 128.117C495.736 128.117 495.262 128.023 494.84 127.836C494.418 127.645 494.057 127.375 493.756 127.027C493.455 126.676 493.225 126.252 493.064 125.756C492.908 125.26 492.83 124.705 492.83 124.092V123.383C492.83 122.77 492.91 122.215 493.07 121.719C493.234 121.223 493.469 120.799 493.773 120.447C494.078 120.092 494.443 119.82 494.869 119.633C495.299 119.445 495.781 119.352 496.316 119.352C496.996 119.352 497.57 119.477 498.039 119.727C498.508 119.977 498.871 120.322 499.129 120.764C499.391 121.205 499.551 121.711 499.609 122.281H498.145C498.105 121.914 498.02 121.6 497.887 121.338C497.758 121.076 497.566 120.877 497.312 120.74C497.059 120.6 496.727 120.529 496.316 120.529C495.98 120.529 495.688 120.592 495.438 120.717C495.188 120.842 494.979 121.025 494.811 121.268C494.643 121.51 494.516 121.809 494.43 122.164C494.348 122.516 494.307 122.918 494.307 123.371V124.092C494.307 124.521 494.344 124.912 494.418 125.264C494.496 125.611 494.613 125.91 494.77 126.16C494.93 126.41 495.133 126.604 495.379 126.74C495.625 126.877 495.92 126.945 496.264 126.945C496.682 126.945 497.02 126.879 497.277 126.746C497.539 126.613 497.736 126.42 497.869 126.166C498.006 125.908 498.096 125.594 498.139 125.223ZM500.529 124.9V124.766C500.529 124.309 500.596 123.885 500.729 123.494C500.861 123.1 501.053 122.758 501.303 122.469C501.557 122.176 501.865 121.949 502.229 121.789C502.596 121.625 503.01 121.543 503.471 121.543C503.936 121.543 504.35 121.625 504.713 121.789C505.08 121.949 505.391 122.176 505.645 122.469C505.898 122.758 506.092 123.1 506.225 123.494C506.357 123.885 506.424 124.309 506.424 124.766V124.9C506.424 125.357 506.357 125.781 506.225 126.172C506.092 126.562 505.898 126.904 505.645 127.197C505.391 127.486 505.082 127.713 504.719 127.877C504.355 128.037 503.943 128.117 503.482 128.117C503.018 128.117 502.602 128.037 502.234 127.877C501.871 127.713 501.562 127.486 501.309 127.197C501.055 126.904 500.861 126.562 500.729 126.172C500.596 125.781 500.529 125.357 500.529 124.9ZM501.941 124.766V124.9C501.941 125.186 501.971 125.455 502.029 125.709C502.088 125.963 502.18 126.186 502.305 126.377C502.43 126.568 502.59 126.719 502.785 126.828C502.98 126.938 503.213 126.992 503.482 126.992C503.744 126.992 503.971 126.938 504.162 126.828C504.357 126.719 504.518 126.568 504.643 126.377C504.768 126.186 504.859 125.963 504.918 125.709C504.98 125.455 505.012 125.186 505.012 124.9V124.766C505.012 124.484 504.98 124.219 504.918 123.969C504.859 123.715 504.766 123.49 504.637 123.295C504.512 123.1 504.352 122.947 504.156 122.838C503.965 122.725 503.736 122.668 503.471 122.668C503.205 122.668 502.975 122.725 502.779 122.838C502.588 122.947 502.43 123.1 502.305 123.295C502.18 123.49 502.088 123.715 502.029 123.969C501.971 124.219 501.941 124.484 501.941 124.766ZM509.02 122.949V128H507.607V121.66H508.938L509.02 122.949ZM508.791 124.596L508.311 124.59C508.311 124.152 508.365 123.748 508.475 123.377C508.584 123.006 508.744 122.684 508.955 122.41C509.166 122.133 509.428 121.92 509.74 121.771C510.057 121.619 510.422 121.543 510.836 121.543C511.125 121.543 511.389 121.586 511.627 121.672C511.869 121.754 512.078 121.885 512.254 122.064C512.434 122.244 512.57 122.475 512.664 122.756C512.762 123.037 512.811 123.377 512.811 123.775V128H511.398V123.898C511.398 123.59 511.352 123.348 511.258 123.172C511.168 122.996 511.037 122.871 510.865 122.797C510.697 122.719 510.496 122.68 510.262 122.68C509.996 122.68 509.77 122.73 509.582 122.832C509.398 122.934 509.248 123.072 509.131 123.248C509.014 123.424 508.928 123.627 508.873 123.857C508.818 124.088 508.791 124.334 508.791 124.596ZM512.723 124.221L512.061 124.367C512.061 123.984 512.113 123.623 512.219 123.283C512.328 122.939 512.486 122.639 512.693 122.381C512.904 122.119 513.164 121.914 513.473 121.766C513.781 121.617 514.135 121.543 514.533 121.543C514.857 121.543 515.146 121.588 515.4 121.678C515.658 121.764 515.877 121.9 516.057 122.088C516.236 122.275 516.373 122.52 516.467 122.82C516.561 123.117 516.607 123.477 516.607 123.898V128H515.189V123.893C515.189 123.572 515.143 123.324 515.049 123.148C514.959 122.973 514.83 122.852 514.662 122.785C514.494 122.715 514.293 122.68 514.059 122.68C513.84 122.68 513.646 122.721 513.479 122.803C513.314 122.881 513.176 122.992 513.062 123.137C512.949 123.277 512.863 123.439 512.805 123.623C512.75 123.807 512.723 124.006 512.723 124.221ZM519.479 122.879V130.438H518.066V121.66H519.367L519.479 122.879ZM523.609 124.771V124.895C523.609 125.355 523.555 125.783 523.445 126.178C523.34 126.568 523.182 126.91 522.971 127.203C522.764 127.492 522.508 127.717 522.203 127.877C521.898 128.037 521.547 128.117 521.148 128.117C520.754 128.117 520.408 128.045 520.111 127.9C519.818 127.752 519.57 127.543 519.367 127.273C519.164 127.004 519 126.688 518.875 126.324C518.754 125.957 518.668 125.555 518.617 125.117V124.643C518.668 124.178 518.754 123.756 518.875 123.377C519 122.998 519.164 122.672 519.367 122.398C519.57 122.125 519.818 121.914 520.111 121.766C520.404 121.617 520.746 121.543 521.137 121.543C521.535 121.543 521.889 121.621 522.197 121.777C522.506 121.93 522.766 122.148 522.977 122.434C523.188 122.715 523.346 123.055 523.451 123.453C523.557 123.848 523.609 124.287 523.609 124.771ZM522.197 124.895V124.771C522.197 124.479 522.17 124.207 522.115 123.957C522.061 123.703 521.975 123.48 521.857 123.289C521.74 123.098 521.59 122.949 521.406 122.844C521.227 122.734 521.01 122.68 520.756 122.68C520.506 122.68 520.291 122.723 520.111 122.809C519.932 122.891 519.781 123.006 519.66 123.154C519.539 123.303 519.445 123.477 519.379 123.676C519.312 123.871 519.266 124.084 519.238 124.314V125.451C519.285 125.732 519.365 125.99 519.479 126.225C519.592 126.459 519.752 126.646 519.959 126.787C520.17 126.924 520.439 126.992 520.768 126.992C521.021 126.992 521.238 126.938 521.418 126.828C521.598 126.719 521.744 126.568 521.857 126.377C521.975 126.182 522.061 125.957 522.115 125.703C522.17 125.449 522.197 125.18 522.197 124.895ZM526.322 119V128H524.904V119H526.322ZM530.664 128.117C530.195 128.117 529.771 128.041 529.393 127.889C529.018 127.732 528.697 127.516 528.432 127.238C528.17 126.961 527.969 126.635 527.828 126.26C527.688 125.885 527.617 125.48 527.617 125.047V124.812C527.617 124.316 527.689 123.867 527.834 123.465C527.979 123.062 528.18 122.719 528.438 122.434C528.695 122.145 529 121.924 529.352 121.771C529.703 121.619 530.084 121.543 530.494 121.543C530.947 121.543 531.344 121.619 531.684 121.771C532.023 121.924 532.305 122.139 532.527 122.416C532.754 122.689 532.922 123.016 533.031 123.395C533.145 123.773 533.201 124.191 533.201 124.648V125.252H528.303V124.238H531.807V124.127C531.799 123.873 531.748 123.635 531.654 123.412C531.564 123.189 531.426 123.01 531.238 122.873C531.051 122.736 530.801 122.668 530.488 122.668C530.254 122.668 530.045 122.719 529.861 122.82C529.682 122.918 529.531 123.061 529.41 123.248C529.289 123.436 529.195 123.662 529.129 123.928C529.066 124.189 529.035 124.484 529.035 124.812V125.047C529.035 125.324 529.072 125.582 529.146 125.82C529.225 126.055 529.338 126.26 529.486 126.436C529.635 126.611 529.814 126.75 530.025 126.852C530.236 126.949 530.477 126.998 530.746 126.998C531.086 126.998 531.389 126.93 531.654 126.793C531.92 126.656 532.15 126.463 532.346 126.213L533.09 126.934C532.953 127.133 532.775 127.324 532.557 127.508C532.338 127.688 532.07 127.834 531.754 127.947C531.441 128.061 531.078 128.117 530.664 128.117ZM537.209 121.66V122.691H533.635V121.66H537.209ZM534.666 120.107H536.078V126.248C536.078 126.443 536.105 126.594 536.16 126.699C536.219 126.801 536.299 126.869 536.4 126.904C536.502 126.939 536.621 126.957 536.758 126.957C536.855 126.957 536.949 126.951 537.039 126.939C537.129 126.928 537.201 126.916 537.256 126.904L537.262 127.982C537.145 128.018 537.008 128.049 536.852 128.076C536.699 128.104 536.523 128.117 536.324 128.117C536 128.117 535.713 128.061 535.463 127.947C535.213 127.83 535.018 127.641 534.877 127.379C534.736 127.117 534.666 126.77 534.666 126.336V120.107ZM541.094 128.117C540.625 128.117 540.201 128.041 539.822 127.889C539.447 127.732 539.127 127.516 538.861 127.238C538.6 126.961 538.398 126.635 538.258 126.26C538.117 125.885 538.047 125.48 538.047 125.047V124.812C538.047 124.316 538.119 123.867 538.264 123.465C538.408 123.062 538.609 122.719 538.867 122.434C539.125 122.145 539.43 121.924 539.781 121.771C540.133 121.619 540.514 121.543 540.924 121.543C541.377 121.543 541.773 121.619 542.113 121.771C542.453 121.924 542.734 122.139 542.957 122.416C543.184 122.689 543.352 123.016 543.461 123.395C543.574 123.773 543.631 124.191 543.631 124.648V125.252H538.732V124.238H542.236V124.127C542.229 123.873 542.178 123.635 542.084 123.412C541.994 123.189 541.855 123.01 541.668 122.873C541.48 122.736 541.23 122.668 540.918 122.668C540.684 122.668 540.475 122.719 540.291 122.82C540.111 122.918 539.961 123.061 539.84 123.248C539.719 123.436 539.625 123.662 539.559 123.928C539.496 124.189 539.465 124.484 539.465 124.812V125.047C539.465 125.324 539.502 125.582 539.576 125.82C539.654 126.055 539.768 126.26 539.916 126.436C540.064 126.611 540.244 126.75 540.455 126.852C540.666 126.949 540.906 126.998 541.176 126.998C541.516 126.998 541.818 126.93 542.084 126.793C542.35 126.656 542.58 126.463 542.775 126.213L543.52 126.934C543.383 127.133 543.205 127.324 542.986 127.508C542.768 127.688 542.5 127.834 542.184 127.947C541.871 128.061 541.508 128.117 541.094 128.117ZM548.6 126.688V119H550.018V128H548.734L548.6 126.688ZM544.475 124.9V124.777C544.475 124.297 544.531 123.859 544.645 123.465C544.758 123.066 544.922 122.725 545.137 122.439C545.352 122.15 545.613 121.93 545.922 121.777C546.23 121.621 546.578 121.543 546.965 121.543C547.348 121.543 547.684 121.617 547.973 121.766C548.262 121.914 548.508 122.127 548.711 122.404C548.914 122.678 549.076 123.006 549.197 123.389C549.318 123.768 549.404 124.189 549.455 124.654V125.047C549.404 125.5 549.318 125.914 549.197 126.289C549.076 126.664 548.914 126.988 548.711 127.262C548.508 127.535 548.26 127.746 547.967 127.895C547.678 128.043 547.34 128.117 546.953 128.117C546.57 128.117 546.225 128.037 545.916 127.877C545.611 127.717 545.352 127.492 545.137 127.203C544.922 126.914 544.758 126.574 544.645 126.184C544.531 125.789 544.475 125.361 544.475 124.9ZM545.887 124.777V124.9C545.887 125.189 545.912 125.459 545.963 125.709C546.018 125.959 546.102 126.18 546.215 126.371C546.328 126.559 546.475 126.707 546.654 126.816C546.838 126.922 547.057 126.975 547.311 126.975C547.631 126.975 547.895 126.904 548.102 126.764C548.309 126.623 548.471 126.434 548.588 126.195C548.709 125.953 548.791 125.684 548.834 125.387V124.326C548.811 124.096 548.762 123.881 548.688 123.682C548.617 123.482 548.521 123.309 548.4 123.16C548.279 123.008 548.129 122.891 547.949 122.809C547.773 122.723 547.564 122.68 547.322 122.68C547.064 122.68 546.846 122.734 546.666 122.844C546.486 122.953 546.338 123.104 546.221 123.295C546.107 123.486 546.023 123.709 545.969 123.963C545.914 124.217 545.887 124.488 545.887 124.777Z" fill="black"/>
<path d="M519.954 46.6406V49.1016C519.954 50.1693 519.84 51.0905 519.612 51.8652C519.384 52.6335 519.056 53.265 518.626 53.7598C518.203 54.248 517.698 54.6094 517.112 54.8438C516.526 55.0781 515.875 55.1953 515.159 55.1953C514.586 55.1953 514.052 55.1237 513.558 54.9805C513.063 54.8307 512.617 54.5996 512.22 54.2871C511.829 53.9746 511.491 53.5807 511.204 53.1055C510.924 52.6237 510.709 52.0508 510.56 51.3867C510.41 50.7227 510.335 49.9609 510.335 49.1016V46.6406C510.335 45.5729 510.449 44.6582 510.677 43.8965C510.911 43.1283 511.24 42.5 511.663 42.0117C512.093 41.5234 512.601 41.1654 513.187 40.9375C513.772 40.7031 514.424 40.5859 515.14 40.5859C515.713 40.5859 516.243 40.6608 516.731 40.8105C517.226 40.9538 517.672 41.1784 518.069 41.4844C518.466 41.7904 518.805 42.1842 519.085 42.666C519.365 43.1413 519.58 43.7109 519.729 44.375C519.879 45.0326 519.954 45.7878 519.954 46.6406ZM517.132 49.4727V46.2598C517.132 45.7454 517.103 45.2962 517.044 44.9121C516.992 44.528 516.91 44.2025 516.8 43.9355C516.689 43.6621 516.552 43.4408 516.39 43.2715C516.227 43.1022 516.041 42.9785 515.833 42.9004C515.625 42.8223 515.394 42.7832 515.14 42.7832C514.821 42.7832 514.537 42.8451 514.29 42.9688C514.049 43.0924 513.844 43.291 513.675 43.5645C513.506 43.8314 513.375 44.1895 513.284 44.6387C513.2 45.0814 513.157 45.6217 513.157 46.2598V49.4727C513.157 49.987 513.183 50.4395 513.235 50.8301C513.294 51.2207 513.379 51.556 513.489 51.8359C513.606 52.1094 513.743 52.334 513.899 52.5098C514.062 52.679 514.248 52.8027 514.456 52.8809C514.671 52.959 514.905 52.998 515.159 52.998C515.472 52.998 515.748 52.9362 515.989 52.8125C516.237 52.6823 516.445 52.4805 516.614 52.207C516.79 51.9271 516.92 51.5625 517.005 51.1133C517.09 50.6641 517.132 50.1172 517.132 49.4727ZM528.724 40.752V55H525.911V43.9941L522.532 45.0684V42.8516L528.421 40.752H528.724Z" fill="#151D48"/>
</svg>
