<svg width="675" height="263" viewBox="0 0 675 263" fill="none" xmlns="http://www.w3.org/2000/svg">
<g filter="url(#filter0_d_1265_25331)">
<rect x="20" y="16" width="635" height="223" rx="20" fill="white"/>
<rect x="20.5" y="16.5" width="634" height="222" rx="19.5" stroke="#F8F9FA"/>
<path d="M47.18 47.3V50.8H51.88V53.02H47.18V56.72H52.48V59H44.38V45.02H52.48V47.3H47.18ZM61.1645 47.76C62.4845 47.76 63.5512 48.18 64.3645 49.02C65.1779 49.8467 65.5845 51.0067 65.5845 52.5V59H62.7845V52.88C62.7845 52 62.5645 51.3267 62.1245 50.86C61.6845 50.38 61.0845 50.14 60.3245 50.14C59.5512 50.14 58.9379 50.38 58.4845 50.86C58.0445 51.3267 57.8245 52 57.8245 52.88V59H55.0245V47.92H57.8245V49.3C58.1979 48.82 58.6712 48.4467 59.2445 48.18C59.8312 47.9 60.4712 47.76 61.1645 47.76ZM73.3272 50.22H71.3872V59H68.5472V50.22H67.2872V47.92H68.5472V47.36C68.5472 46 68.9339 45 69.7072 44.36C70.4805 43.72 71.6472 43.42 73.2072 43.46V45.82C72.5272 45.8067 72.0539 45.92 71.7872 46.16C71.5205 46.4 71.3872 46.8333 71.3872 47.46V47.92H73.3272V50.22ZM80.0617 59.18C78.9951 59.18 78.0351 58.9467 77.1817 58.48C76.3284 58 75.6551 57.3267 75.1617 56.46C74.6817 55.5933 74.4417 54.5933 74.4417 53.46C74.4417 52.3267 74.6884 51.3267 75.1817 50.46C75.6884 49.5933 76.3751 48.9267 77.2417 48.46C78.1084 47.98 79.0751 47.74 80.1417 47.74C81.2084 47.74 82.1751 47.98 83.0417 48.46C83.9084 48.9267 84.5884 49.5933 85.0817 50.46C85.5884 51.3267 85.8417 52.3267 85.8417 53.46C85.8417 54.5933 85.5817 55.5933 85.0617 56.46C84.5551 57.3267 83.8617 58 82.9817 58.48C82.1151 58.9467 81.1417 59.18 80.0617 59.18ZM80.0617 56.74C80.5684 56.74 81.0417 56.62 81.4817 56.38C81.9351 56.1267 82.2951 55.7533 82.5617 55.26C82.8284 54.7667 82.9617 54.1667 82.9617 53.46C82.9617 52.4067 82.6817 51.6 82.1217 51.04C81.5751 50.4667 80.9017 50.18 80.1017 50.18C79.3017 50.18 78.6284 50.4667 78.0817 51.04C77.5484 51.6 77.2817 52.4067 77.2817 53.46C77.2817 54.5133 77.5417 55.3267 78.0617 55.9C78.5951 56.46 79.2617 56.74 80.0617 56.74ZM90.6956 49.64C91.0556 49.0533 91.5223 48.5933 92.0956 48.26C92.6823 47.9267 93.349 47.76 94.0956 47.76V50.7H93.3556C92.4756 50.7 91.809 50.9067 91.3556 51.32C90.9156 51.7333 90.6956 52.4533 90.6956 53.48V59H87.8956V47.92H90.6956V49.64ZM95.2616 53.46C95.2616 52.3133 95.4949 51.3133 95.9616 50.46C96.4282 49.5933 97.0749 48.9267 97.9016 48.46C98.7282 47.98 99.6749 47.74 100.742 47.74C102.115 47.74 103.248 48.0867 104.142 48.78C105.048 49.46 105.655 50.42 105.962 51.66H102.942C102.782 51.18 102.508 50.8067 102.122 50.54C101.748 50.26 101.282 50.12 100.722 50.12C99.9216 50.12 99.2882 50.4133 98.8216 51C98.3549 51.5733 98.1216 52.3933 98.1216 53.46C98.1216 54.5133 98.3549 55.3333 98.8216 55.92C99.2882 56.4933 99.9216 56.78 100.722 56.78C101.855 56.78 102.595 56.2733 102.942 55.26H105.962C105.655 56.46 105.048 57.4133 104.142 58.12C103.235 58.8267 102.102 59.18 100.742 59.18C99.6749 59.18 98.7282 58.9467 97.9016 58.48C97.0749 58 96.4282 57.3333 95.9616 56.48C95.4949 55.6133 95.2616 54.6067 95.2616 53.46ZM118.313 53.22C118.313 53.62 118.286 53.98 118.233 54.3H110.133C110.199 55.1 110.479 55.7267 110.973 56.18C111.466 56.6333 112.073 56.86 112.793 56.86C113.833 56.86 114.573 56.4133 115.013 55.52H118.033C117.713 56.5867 117.099 57.4667 116.193 58.16C115.286 58.84 114.173 59.18 112.853 59.18C111.786 59.18 110.826 58.9467 109.973 58.48C109.133 58 108.473 57.3267 107.993 56.46C107.526 55.5933 107.293 54.5933 107.293 53.46C107.293 52.3133 107.526 51.3067 107.993 50.44C108.459 49.5733 109.113 48.9067 109.953 48.44C110.793 47.9733 111.759 47.74 112.853 47.74C113.906 47.74 114.846 47.9667 115.673 48.42C116.513 48.8733 117.159 49.52 117.613 50.36C118.079 51.1867 118.313 52.14 118.313 53.22ZM115.413 52.42C115.399 51.7 115.139 51.1267 114.633 50.7C114.126 50.26 113.506 50.04 112.773 50.04C112.079 50.04 111.493 50.2533 111.013 50.68C110.546 51.0933 110.259 51.6733 110.153 52.42H115.413ZM134.117 47.76C135.477 47.76 136.57 48.18 137.397 49.02C138.237 49.8467 138.657 51.0067 138.657 52.5V59H135.857V52.88C135.857 52.0133 135.637 51.3533 135.197 50.9C134.757 50.4333 134.157 50.2 133.397 50.2C132.637 50.2 132.03 50.4333 131.577 50.9C131.137 51.3533 130.917 52.0133 130.917 52.88V59H128.117V52.88C128.117 52.0133 127.897 51.3533 127.457 50.9C127.017 50.4333 126.417 50.2 125.657 50.2C124.883 50.2 124.27 50.4333 123.817 50.9C123.377 51.3533 123.157 52.0133 123.157 52.88V59H120.357V47.92H123.157V49.26C123.517 48.7933 123.977 48.4267 124.537 48.16C125.11 47.8933 125.737 47.76 126.417 47.76C127.283 47.76 128.057 47.9467 128.737 48.32C129.417 48.68 129.943 49.2 130.317 49.88C130.677 49.24 131.197 48.7267 131.877 48.34C132.57 47.9533 133.317 47.76 134.117 47.76ZM151.614 53.22C151.614 53.62 151.587 53.98 151.534 54.3H143.434C143.5 55.1 143.78 55.7267 144.274 56.18C144.767 56.6333 145.374 56.86 146.094 56.86C147.134 56.86 147.874 56.4133 148.314 55.52H151.334C151.014 56.5867 150.4 57.4667 149.494 58.16C148.587 58.84 147.474 59.18 146.154 59.18C145.087 59.18 144.127 58.9467 143.274 58.48C142.434 58 141.774 57.3267 141.294 56.46C140.827 55.5933 140.594 54.5933 140.594 53.46C140.594 52.3133 140.827 51.3067 141.294 50.44C141.76 49.5733 142.414 48.9067 143.254 48.44C144.094 47.9733 145.06 47.74 146.154 47.74C147.207 47.74 148.147 47.9667 148.974 48.42C149.814 48.8733 150.46 49.52 150.914 50.36C151.38 51.1867 151.614 52.14 151.614 53.22ZM148.714 52.42C148.7 51.7 148.44 51.1267 147.934 50.7C147.427 50.26 146.807 50.04 146.074 50.04C145.38 50.04 144.794 50.2533 144.314 50.68C143.847 51.0933 143.56 51.6733 143.454 52.42H148.714ZM159.797 47.76C161.117 47.76 162.184 48.18 162.997 49.02C163.811 49.8467 164.217 51.0067 164.217 52.5V59H161.417V52.88C161.417 52 161.197 51.3267 160.757 50.86C160.317 50.38 159.717 50.14 158.957 50.14C158.184 50.14 157.571 50.38 157.117 50.86C156.677 51.3267 156.457 52 156.457 52.88V59H153.657V47.92H156.457V49.3C156.831 48.82 157.304 48.4467 157.877 48.18C158.464 47.9 159.104 47.76 159.797 47.76ZM170.14 50.22V55.58C170.14 55.9533 170.227 56.2267 170.4 56.4C170.587 56.56 170.893 56.64 171.32 56.64H172.62V59H170.86C168.5 59 167.32 57.8533 167.32 55.56V50.22H166V47.92H167.32V45.18H170.14V47.92H172.62V50.22H170.14Z" fill="#05004E"/>
<path d="M141.132 136.805C141.132 109.851 119.282 88 92.3274 88C65.3732 88 43.5225 109.851 43.5225 136.805C43.5225 163.759 65.3732 185.61 92.3274 185.61C119.282 185.61 141.132 163.759 141.132 136.805ZM53.103 136.805C53.103 115.142 70.6644 97.5806 92.3274 97.5806C113.99 97.5806 131.552 115.142 131.552 136.805C131.552 158.468 113.99 176.029 92.3274 176.029C70.6644 176.029 53.103 158.468 53.103 136.805Z" fill="#D1D1D1"/>
<path d="M49.2973 127.548C46.7108 126.991 45.0425 124.433 45.8497 121.914C48.2911 114.294 52.5775 107.365 58.3581 101.762C65.2889 95.0435 74.0563 90.5312 83.5517 88.7955C93.0471 87.0598 102.844 88.1788 111.703 92.011C119.092 95.2072 125.552 100.171 130.532 106.435C132.178 108.506 131.522 111.489 129.3 112.924C127.078 114.359 124.134 113.698 122.438 111.667C118.522 106.977 113.549 103.248 107.9 100.804C100.779 97.7243 92.9058 96.825 85.2744 98.2199C77.643 99.6149 70.5966 103.241 65.0263 108.641C60.6071 112.925 57.2744 118.172 55.271 123.945C54.4036 126.444 51.8837 128.104 49.2973 127.548Z" fill="#0055BF"/>
<path d="M47.5176 207.295V215.827H46.0586V207.295H47.5176ZM50.1953 207.295V208.467H43.4043V207.295H50.1953ZM50.0898 212.727V212.592C50.0898 212.135 50.1562 211.711 50.2891 211.321C50.4219 210.926 50.6133 210.584 50.8633 210.295C51.1172 210.002 51.4258 209.776 51.7891 209.616C52.1562 209.452 52.5703 209.37 53.0312 209.37C53.4961 209.37 53.9102 209.452 54.2734 209.616C54.6406 209.776 54.9512 210.002 55.2051 210.295C55.459 210.584 55.6523 210.926 55.7852 211.321C55.918 211.711 55.9844 212.135 55.9844 212.592V212.727C55.9844 213.184 55.918 213.608 55.7852 213.999C55.6523 214.389 55.459 214.731 55.2051 215.024C54.9512 215.313 54.6426 215.54 54.2793 215.704C53.916 215.864 53.5039 215.944 53.043 215.944C52.5781 215.944 52.1621 215.864 51.7949 215.704C51.4316 215.54 51.123 215.313 50.8691 215.024C50.6152 214.731 50.4219 214.389 50.2891 213.999C50.1562 213.608 50.0898 213.184 50.0898 212.727ZM51.502 212.592V212.727C51.502 213.012 51.5312 213.282 51.5898 213.536C51.6484 213.79 51.7402 214.012 51.8652 214.204C51.9902 214.395 52.1504 214.545 52.3457 214.655C52.541 214.764 52.7734 214.819 53.043 214.819C53.3047 214.819 53.5312 214.764 53.7227 214.655C53.918 214.545 54.0781 214.395 54.2031 214.204C54.3281 214.012 54.4199 213.79 54.4785 213.536C54.541 213.282 54.5723 213.012 54.5723 212.727V212.592C54.5723 212.311 54.541 212.045 54.4785 211.795C54.4199 211.542 54.3262 211.317 54.1973 211.122C54.0723 210.926 53.9121 210.774 53.7168 210.665C53.5254 210.551 53.2969 210.495 53.0312 210.495C52.7656 210.495 52.5352 210.551 52.3398 210.665C52.1484 210.774 51.9902 210.926 51.8652 211.122C51.7402 211.317 51.6484 211.542 51.5898 211.795C51.5312 212.045 51.502 212.311 51.502 212.592ZM60.0742 209.487V210.518H56.5V209.487H60.0742ZM57.5312 207.934H58.9434V214.075C58.9434 214.27 58.9707 214.42 59.0254 214.526C59.084 214.627 59.1641 214.696 59.2656 214.731C59.3672 214.766 59.4863 214.784 59.623 214.784C59.7207 214.784 59.8145 214.778 59.9043 214.766C59.9941 214.754 60.0664 214.743 60.1211 214.731L60.127 215.809C60.0098 215.844 59.873 215.875 59.7168 215.903C59.5645 215.93 59.3887 215.944 59.1895 215.944C58.8652 215.944 58.5781 215.887 58.3281 215.774C58.0781 215.657 57.8828 215.467 57.7422 215.206C57.6016 214.944 57.5312 214.596 57.5312 214.163V207.934ZM64.7383 214.555V211.532C64.7383 211.305 64.6973 211.11 64.6152 210.946C64.5332 210.782 64.4082 210.655 64.2402 210.565C64.0762 210.475 63.8691 210.43 63.6191 210.43C63.3887 210.43 63.1895 210.469 63.0215 210.547C62.8535 210.625 62.7227 210.731 62.6289 210.864C62.5352 210.997 62.4883 211.147 62.4883 211.315H61.082C61.082 211.065 61.1426 210.823 61.2637 210.588C61.3848 210.354 61.5605 210.145 61.791 209.961C62.0215 209.778 62.2969 209.633 62.6172 209.528C62.9375 209.422 63.2969 209.37 63.6953 209.37C64.1719 209.37 64.5938 209.45 64.9609 209.61C65.332 209.77 65.623 210.012 65.834 210.336C66.0488 210.657 66.1562 211.059 66.1562 211.543V214.362C66.1562 214.651 66.1758 214.911 66.2148 215.141C66.2578 215.368 66.3184 215.565 66.3965 215.733V215.827H64.9492C64.8828 215.674 64.8301 215.481 64.791 215.247C64.7559 215.008 64.7383 214.778 64.7383 214.555ZM64.9434 211.971L64.9551 212.844H63.9414C63.6797 212.844 63.4492 212.87 63.25 212.92C63.0508 212.967 62.8848 213.038 62.752 213.131C62.6191 213.225 62.5195 213.338 62.4531 213.471C62.3867 213.604 62.3535 213.754 62.3535 213.922C62.3535 214.09 62.3926 214.245 62.4707 214.385C62.5488 214.522 62.6621 214.629 62.8105 214.708C62.9629 214.786 63.1465 214.825 63.3613 214.825C63.6504 214.825 63.9023 214.766 64.1172 214.649C64.3359 214.528 64.5078 214.381 64.6328 214.209C64.7578 214.034 64.8242 213.868 64.832 213.711L65.2891 214.338C65.2422 214.499 65.1621 214.67 65.0488 214.854C64.9355 215.038 64.7871 215.213 64.6035 215.381C64.4238 215.545 64.207 215.68 63.9531 215.786C63.7031 215.891 63.4141 215.944 63.0859 215.944C62.6719 215.944 62.3027 215.862 61.9785 215.698C61.6543 215.53 61.4004 215.305 61.2168 215.024C61.0332 214.739 60.9414 214.417 60.9414 214.057C60.9414 213.721 61.0039 213.424 61.1289 213.167C61.2578 212.905 61.4453 212.686 61.6914 212.51C61.9414 212.334 62.2461 212.202 62.6055 212.112C62.9648 212.018 63.375 211.971 63.8359 211.971H64.9434ZM69.1445 206.827V215.827H67.7266V206.827H69.1445ZM79.4043 214.661V215.827H74.875V214.661H79.4043ZM75.291 207.295V215.827H73.8203V207.295H75.291ZM78.8125 210.858V212.006H74.875V210.858H78.8125ZM79.375 207.295V208.467H74.875V207.295H79.375ZM81.8652 210.84V215.827H80.4531V209.487H81.7832L81.8652 210.84ZM81.6133 212.422L81.1562 212.417C81.1602 211.967 81.2227 211.555 81.3438 211.18C81.4688 210.805 81.6406 210.483 81.8594 210.213C82.082 209.944 82.3477 209.737 82.6562 209.592C82.9648 209.444 83.3086 209.37 83.6875 209.37C83.9922 209.37 84.2676 209.413 84.5137 209.499C84.7637 209.581 84.9766 209.715 85.1523 209.903C85.332 210.09 85.4688 210.334 85.5625 210.635C85.6562 210.932 85.7031 211.297 85.7031 211.731V215.827H84.2852V211.725C84.2852 211.42 84.2402 211.18 84.1504 211.004C84.0645 210.825 83.9375 210.698 83.7695 210.624C83.6055 210.545 83.4004 210.506 83.1543 210.506C82.9121 210.506 82.6953 210.557 82.5039 210.659C82.3125 210.76 82.1504 210.899 82.0176 211.075C81.8887 211.25 81.7891 211.454 81.7188 211.684C81.6484 211.915 81.6133 212.161 81.6133 212.422ZM89.0547 215.827H87.6426V208.877C87.6426 208.405 87.7305 208.008 87.9062 207.688C88.0859 207.364 88.3418 207.12 88.6738 206.956C89.0059 206.788 89.3984 206.704 89.8516 206.704C89.9922 206.704 90.1309 206.713 90.2676 206.733C90.4043 206.749 90.5371 206.774 90.666 206.809L90.6309 207.899C90.5527 207.879 90.4668 207.866 90.373 207.858C90.2832 207.85 90.1855 207.846 90.0801 207.846C89.8652 207.846 89.6797 207.887 89.5234 207.969C89.3711 208.047 89.2539 208.163 89.1719 208.315C89.0938 208.467 89.0547 208.655 89.0547 208.877V215.827ZM90.3613 209.487V210.518H86.6699V209.487H90.3613ZM91.1172 212.727V212.592C91.1172 212.135 91.1836 211.711 91.3164 211.321C91.4492 210.926 91.6406 210.584 91.8906 210.295C92.1445 210.002 92.4531 209.776 92.8164 209.616C93.1836 209.452 93.5977 209.37 94.0586 209.37C94.5234 209.37 94.9375 209.452 95.3008 209.616C95.668 209.776 95.9785 210.002 96.2324 210.295C96.4863 210.584 96.6797 210.926 96.8125 211.321C96.9453 211.711 97.0117 212.135 97.0117 212.592V212.727C97.0117 213.184 96.9453 213.608 96.8125 213.999C96.6797 214.389 96.4863 214.731 96.2324 215.024C95.9785 215.313 95.6699 215.54 95.3066 215.704C94.9434 215.864 94.5312 215.944 94.0703 215.944C93.6055 215.944 93.1895 215.864 92.8223 215.704C92.459 215.54 92.1504 215.313 91.8965 215.024C91.6426 214.731 91.4492 214.389 91.3164 213.999C91.1836 213.608 91.1172 213.184 91.1172 212.727ZM92.5293 212.592V212.727C92.5293 213.012 92.5586 213.282 92.6172 213.536C92.6758 213.79 92.7676 214.012 92.8926 214.204C93.0176 214.395 93.1777 214.545 93.373 214.655C93.5684 214.764 93.8008 214.819 94.0703 214.819C94.332 214.819 94.5586 214.764 94.75 214.655C94.9453 214.545 95.1055 214.395 95.2305 214.204C95.3555 214.012 95.4473 213.79 95.5059 213.536C95.5684 213.282 95.5996 213.012 95.5996 212.727V212.592C95.5996 212.311 95.5684 212.045 95.5059 211.795C95.4473 211.542 95.3535 211.317 95.2246 211.122C95.0996 210.926 94.9395 210.774 94.7441 210.665C94.5527 210.551 94.3242 210.495 94.0586 210.495C93.793 210.495 93.5625 210.551 93.3672 210.665C93.1758 210.774 93.0176 210.926 92.8926 211.122C92.7676 211.317 92.6758 211.542 92.6172 211.795C92.5586 212.045 92.5293 212.311 92.5293 212.592ZM99.6133 210.694V215.827H98.2012V209.487H99.5488L99.6133 210.694ZM101.553 209.446L101.541 210.758C101.455 210.743 101.361 210.731 101.26 210.723C101.162 210.715 101.064 210.711 100.967 210.711C100.725 210.711 100.512 210.747 100.328 210.817C100.145 210.883 99.9902 210.981 99.8652 211.11C99.7441 211.235 99.6504 211.387 99.584 211.567C99.5176 211.747 99.4785 211.948 99.4668 212.17L99.1445 212.194C99.1445 211.795 99.1836 211.426 99.2617 211.086C99.3398 210.747 99.457 210.448 99.6133 210.19C99.7734 209.932 99.9727 209.731 100.211 209.586C100.453 209.442 100.732 209.37 101.049 209.37C101.135 209.37 101.227 209.377 101.324 209.393C101.426 209.409 101.502 209.426 101.553 209.446ZM104.91 214.819C105.141 214.819 105.348 214.774 105.531 214.684C105.719 214.59 105.869 214.461 105.982 214.297C106.1 214.133 106.164 213.944 106.176 213.729H107.506C107.498 214.139 107.377 214.512 107.143 214.848C106.908 215.184 106.598 215.452 106.211 215.651C105.824 215.846 105.396 215.944 104.928 215.944C104.443 215.944 104.021 215.862 103.662 215.698C103.303 215.53 103.004 215.299 102.766 215.006C102.527 214.713 102.348 214.375 102.227 213.993C102.109 213.61 102.051 213.2 102.051 212.762V212.557C102.051 212.12 102.109 211.709 102.227 211.327C102.348 210.94 102.527 210.6 102.766 210.307C103.004 210.014 103.303 209.786 103.662 209.622C104.021 209.454 104.441 209.37 104.922 209.37C105.43 209.37 105.875 209.471 106.258 209.674C106.641 209.874 106.941 210.153 107.16 210.512C107.383 210.868 107.498 211.282 107.506 211.754H106.176C106.164 211.52 106.105 211.309 106 211.122C105.898 210.93 105.754 210.778 105.566 210.665C105.383 210.551 105.162 210.495 104.904 210.495C104.619 210.495 104.383 210.553 104.195 210.67C104.008 210.784 103.861 210.94 103.756 211.139C103.65 211.334 103.574 211.555 103.527 211.801C103.484 212.043 103.463 212.295 103.463 212.557V212.762C103.463 213.024 103.484 213.278 103.527 213.524C103.57 213.77 103.645 213.991 103.75 214.186C103.859 214.377 104.008 214.532 104.195 214.649C104.383 214.762 104.621 214.819 104.91 214.819ZM111.385 215.944C110.916 215.944 110.492 215.868 110.113 215.715C109.738 215.559 109.418 215.342 109.152 215.065C108.891 214.788 108.689 214.461 108.549 214.086C108.408 213.711 108.338 213.307 108.338 212.874V212.639C108.338 212.143 108.41 211.694 108.555 211.292C108.699 210.889 108.9 210.545 109.158 210.26C109.416 209.971 109.721 209.75 110.072 209.598C110.424 209.446 110.805 209.37 111.215 209.37C111.668 209.37 112.064 209.446 112.404 209.598C112.744 209.75 113.025 209.965 113.248 210.243C113.475 210.516 113.643 210.842 113.752 211.221C113.865 211.6 113.922 212.018 113.922 212.475V213.079H109.023V212.065H112.527V211.954C112.52 211.7 112.469 211.461 112.375 211.239C112.285 211.016 112.146 210.836 111.959 210.7C111.771 210.563 111.521 210.495 111.209 210.495C110.975 210.495 110.766 210.545 110.582 210.647C110.402 210.745 110.252 210.887 110.131 211.075C110.01 211.262 109.916 211.489 109.85 211.754C109.787 212.016 109.756 212.311 109.756 212.639V212.874C109.756 213.151 109.793 213.409 109.867 213.647C109.945 213.881 110.059 214.086 110.207 214.262C110.355 214.438 110.535 214.577 110.746 214.678C110.957 214.776 111.197 214.825 111.467 214.825C111.807 214.825 112.109 214.756 112.375 214.62C112.641 214.483 112.871 214.29 113.066 214.04L113.811 214.76C113.674 214.959 113.496 215.151 113.277 215.334C113.059 215.514 112.791 215.661 112.475 215.774C112.162 215.887 111.799 215.944 111.385 215.944ZM116.436 210.776V215.827H115.023V209.487H116.354L116.436 210.776ZM116.207 212.422L115.727 212.417C115.727 211.979 115.781 211.575 115.891 211.204C116 210.833 116.16 210.51 116.371 210.237C116.582 209.959 116.844 209.747 117.156 209.598C117.473 209.446 117.838 209.37 118.252 209.37C118.541 209.37 118.805 209.413 119.043 209.499C119.285 209.581 119.494 209.711 119.67 209.891C119.85 210.071 119.986 210.301 120.08 210.583C120.178 210.864 120.227 211.204 120.227 211.602V215.827H118.814V211.725C118.814 211.417 118.768 211.174 118.674 210.999C118.584 210.823 118.453 210.698 118.281 210.624C118.113 210.545 117.912 210.506 117.678 210.506C117.412 210.506 117.186 210.557 116.998 210.659C116.814 210.76 116.664 210.899 116.547 211.075C116.43 211.25 116.344 211.454 116.289 211.684C116.234 211.915 116.207 212.161 116.207 212.422ZM120.139 212.047L119.477 212.194C119.477 211.811 119.529 211.45 119.635 211.11C119.744 210.766 119.902 210.465 120.109 210.208C120.32 209.946 120.58 209.741 120.889 209.592C121.197 209.444 121.551 209.37 121.949 209.37C122.273 209.37 122.562 209.415 122.816 209.504C123.074 209.59 123.293 209.727 123.473 209.915C123.652 210.102 123.789 210.346 123.883 210.647C123.977 210.944 124.023 211.303 124.023 211.725V215.827H122.605V211.719C122.605 211.399 122.559 211.151 122.465 210.975C122.375 210.799 122.246 210.678 122.078 210.612C121.91 210.542 121.709 210.506 121.475 210.506C121.256 210.506 121.062 210.547 120.895 210.629C120.73 210.708 120.592 210.819 120.479 210.963C120.365 211.104 120.279 211.266 120.221 211.45C120.166 211.633 120.139 211.833 120.139 212.047ZM128.271 215.944C127.803 215.944 127.379 215.868 127 215.715C126.625 215.559 126.305 215.342 126.039 215.065C125.777 214.788 125.576 214.461 125.436 214.086C125.295 213.711 125.225 213.307 125.225 212.874V212.639C125.225 212.143 125.297 211.694 125.441 211.292C125.586 210.889 125.787 210.545 126.045 210.26C126.303 209.971 126.607 209.75 126.959 209.598C127.311 209.446 127.691 209.37 128.102 209.37C128.555 209.37 128.951 209.446 129.291 209.598C129.631 209.75 129.912 209.965 130.135 210.243C130.361 210.516 130.529 210.842 130.639 211.221C130.752 211.6 130.809 212.018 130.809 212.475V213.079H125.91V212.065H129.414V211.954C129.406 211.7 129.355 211.461 129.262 211.239C129.172 211.016 129.033 210.836 128.846 210.7C128.658 210.563 128.408 210.495 128.096 210.495C127.861 210.495 127.652 210.545 127.469 210.647C127.289 210.745 127.139 210.887 127.018 211.075C126.896 211.262 126.803 211.489 126.736 211.754C126.674 212.016 126.643 212.311 126.643 212.639V212.874C126.643 213.151 126.68 213.409 126.754 213.647C126.832 213.881 126.945 214.086 127.094 214.262C127.242 214.438 127.422 214.577 127.633 214.678C127.844 214.776 128.084 214.825 128.354 214.825C128.693 214.825 128.996 214.756 129.262 214.62C129.527 214.483 129.758 214.29 129.953 214.04L130.697 214.76C130.561 214.959 130.383 215.151 130.164 215.334C129.945 215.514 129.678 215.661 129.361 215.774C129.049 215.887 128.686 215.944 128.271 215.944ZM133.311 210.84V215.827H131.898V209.487H133.229L133.311 210.84ZM133.059 212.422L132.602 212.417C132.605 211.967 132.668 211.555 132.789 211.18C132.914 210.805 133.086 210.483 133.305 210.213C133.527 209.944 133.793 209.737 134.102 209.592C134.41 209.444 134.754 209.37 135.133 209.37C135.438 209.37 135.713 209.413 135.959 209.499C136.209 209.581 136.422 209.715 136.598 209.903C136.777 210.09 136.914 210.334 137.008 210.635C137.102 210.932 137.148 211.297 137.148 211.731V215.827H135.73V211.725C135.73 211.42 135.686 211.18 135.596 211.004C135.51 210.825 135.383 210.698 135.215 210.624C135.051 210.545 134.846 210.506 134.6 210.506C134.357 210.506 134.141 210.557 133.949 210.659C133.758 210.76 133.596 210.899 133.463 211.075C133.334 211.25 133.234 211.454 133.164 211.684C133.094 211.915 133.059 212.161 133.059 212.422ZM141.496 209.487V210.518H137.922V209.487H141.496ZM138.953 207.934H140.365V214.075C140.365 214.27 140.393 214.42 140.447 214.526C140.506 214.627 140.586 214.696 140.688 214.731C140.789 214.766 140.908 214.784 141.045 214.784C141.143 214.784 141.236 214.778 141.326 214.766C141.416 214.754 141.488 214.743 141.543 214.731L141.549 215.809C141.432 215.844 141.295 215.875 141.139 215.903C140.986 215.93 140.811 215.944 140.611 215.944C140.287 215.944 140 215.887 139.75 215.774C139.5 215.657 139.305 215.467 139.164 215.206C139.023 214.944 138.953 214.596 138.953 214.163V207.934Z" fill="black"/>
<path d="M91.5625 134.641V137.102C91.5625 138.169 91.4486 139.09 91.2207 139.865C90.9928 140.633 90.6641 141.265 90.2344 141.76C89.8112 142.248 89.3066 142.609 88.7207 142.844C88.1348 143.078 87.4837 143.195 86.7676 143.195C86.1947 143.195 85.6608 143.124 85.166 142.98C84.6712 142.831 84.2253 142.6 83.8281 142.287C83.4375 141.975 83.099 141.581 82.8125 141.105C82.5326 140.624 82.3177 140.051 82.168 139.387C82.0182 138.723 81.9434 137.961 81.9434 137.102V134.641C81.9434 133.573 82.0573 132.658 82.2852 131.896C82.5195 131.128 82.8483 130.5 83.2715 130.012C83.7012 129.523 84.209 129.165 84.7949 128.938C85.3809 128.703 86.0319 128.586 86.748 128.586C87.321 128.586 87.8516 128.661 88.3398 128.811C88.8346 128.954 89.2806 129.178 89.6777 129.484C90.0749 129.79 90.4134 130.184 90.6934 130.666C90.9733 131.141 91.1882 131.711 91.3379 132.375C91.4876 133.033 91.5625 133.788 91.5625 134.641ZM88.7402 137.473V134.26C88.7402 133.745 88.7109 133.296 88.6523 132.912C88.6003 132.528 88.5189 132.202 88.4082 131.936C88.2975 131.662 88.1608 131.441 87.998 131.271C87.8353 131.102 87.6497 130.979 87.4414 130.9C87.2331 130.822 87.002 130.783 86.748 130.783C86.429 130.783 86.1458 130.845 85.8984 130.969C85.6576 131.092 85.4525 131.291 85.2832 131.564C85.1139 131.831 84.9837 132.189 84.8926 132.639C84.8079 133.081 84.7656 133.622 84.7656 134.26V137.473C84.7656 137.987 84.7917 138.439 84.8438 138.83C84.9023 139.221 84.987 139.556 85.0977 139.836C85.2148 140.109 85.3516 140.334 85.5078 140.51C85.6706 140.679 85.8561 140.803 86.0645 140.881C86.2793 140.959 86.5137 140.998 86.7676 140.998C87.0801 140.998 87.3568 140.936 87.5977 140.812C87.8451 140.682 88.0534 140.48 88.2227 140.207C88.3984 139.927 88.5286 139.562 88.6133 139.113C88.6979 138.664 88.7402 138.117 88.7402 137.473ZM96.123 136.525L93.877 135.988L94.6875 128.781H102.676V131.057H97.002L96.6504 134.211C96.8392 134.1 97.1257 133.983 97.5098 133.859C97.8939 133.729 98.3236 133.664 98.7988 133.664C99.4889 133.664 100.101 133.771 100.635 133.986C101.169 134.201 101.621 134.514 101.992 134.924C102.37 135.334 102.656 135.835 102.852 136.428C103.047 137.02 103.145 137.691 103.145 138.439C103.145 139.071 103.047 139.673 102.852 140.246C102.656 140.812 102.36 141.32 101.963 141.77C101.566 142.212 101.068 142.561 100.469 142.814C99.8698 143.068 99.1602 143.195 98.3398 143.195C97.7279 143.195 97.1354 143.104 96.5625 142.922C95.9961 142.74 95.485 142.469 95.0293 142.111C94.5801 141.753 94.2188 141.32 93.9453 140.812C93.6784 140.298 93.5384 139.712 93.5254 139.055H96.3184C96.3574 139.458 96.4616 139.807 96.6309 140.1C96.8066 140.386 97.0378 140.607 97.3242 140.764C97.6107 140.92 97.946 140.998 98.3301 140.998C98.6882 140.998 98.9941 140.93 99.248 140.793C99.502 140.656 99.707 140.467 99.8633 140.227C100.02 139.979 100.133 139.693 100.205 139.367C100.283 139.035 100.322 138.677 100.322 138.293C100.322 137.909 100.277 137.561 100.186 137.248C100.094 136.936 99.9544 136.665 99.7656 136.438C99.5768 136.21 99.3359 136.034 99.043 135.91C98.7565 135.786 98.4212 135.725 98.0371 135.725C97.5163 135.725 97.1126 135.806 96.8262 135.969C96.5462 136.132 96.3118 136.317 96.123 136.525Z" fill="#151D48"/>
<path d="M259.215 136.805C259.215 109.851 237.365 88 210.41 88C183.456 88 161.605 109.851 161.605 136.805C161.605 163.759 183.456 185.61 210.41 185.61C237.365 185.61 259.215 163.759 259.215 136.805ZM171.186 136.805C171.186 115.142 188.747 97.5806 210.41 97.5806C232.073 97.5806 249.635 115.142 249.635 136.805C249.635 158.468 232.073 176.029 210.41 176.029C188.747 176.029 171.186 158.468 171.186 136.805Z" fill="#D1D1D1"/>
<path d="M167.38 127.548C164.794 126.991 163.125 124.433 163.933 121.914C166.45 114.056 170.928 106.938 176.977 101.25C184.193 94.465 193.303 90.0357 203.096 88.5512C212.889 87.0668 222.903 88.5973 231.805 92.9395C240.708 97.2818 248.079 104.23 252.938 112.861C257.798 121.493 259.916 131.398 259.011 141.262C258.107 151.126 254.222 160.481 247.874 168.084C241.526 175.688 233.014 181.18 223.47 183.83C215.47 186.052 207.061 186.189 199.038 184.266C196.465 183.65 195.143 180.897 196.009 178.397C196.874 175.897 199.6 174.603 202.187 175.158C208.357 176.481 214.781 176.3 220.906 174.599C228.577 172.469 235.418 168.055 240.52 161.944C245.622 155.833 248.744 148.315 249.471 140.387C250.198 132.46 248.495 124.499 244.59 117.562C240.684 110.625 234.761 105.04 227.605 101.55C220.45 98.0606 212.403 96.8305 204.532 98.0236C196.661 99.2167 189.339 102.776 183.54 108.23C178.909 112.585 175.423 117.983 173.354 123.945C172.487 126.444 169.967 128.104 167.38 127.548Z" fill="#209BC3"/>
<path d="M192.896 207.295H194.209L196.676 213.875L199.137 207.295H200.449L197.191 215.827H196.148L192.896 207.295ZM192.299 207.295H193.547L193.764 212.991V215.827H192.299V207.295ZM199.799 207.295H201.053V215.827H199.582V212.991L199.799 207.295ZM206.232 214.555V211.532C206.232 211.305 206.191 211.11 206.109 210.946C206.027 210.782 205.902 210.655 205.734 210.565C205.57 210.475 205.363 210.43 205.113 210.43C204.883 210.43 204.684 210.469 204.516 210.547C204.348 210.625 204.217 210.731 204.123 210.864C204.029 210.997 203.982 211.147 203.982 211.315H202.576C202.576 211.065 202.637 210.823 202.758 210.588C202.879 210.354 203.055 210.145 203.285 209.961C203.516 209.778 203.791 209.633 204.111 209.528C204.432 209.422 204.791 209.37 205.189 209.37C205.666 209.37 206.088 209.45 206.455 209.61C206.826 209.77 207.117 210.012 207.328 210.336C207.543 210.657 207.65 211.059 207.65 211.543V214.362C207.65 214.651 207.67 214.911 207.709 215.141C207.752 215.368 207.812 215.565 207.891 215.733V215.827H206.443C206.377 215.674 206.324 215.481 206.285 215.247C206.25 215.008 206.232 214.778 206.232 214.555ZM206.438 211.971L206.449 212.844H205.436C205.174 212.844 204.943 212.87 204.744 212.92C204.545 212.967 204.379 213.038 204.246 213.131C204.113 213.225 204.014 213.338 203.947 213.471C203.881 213.604 203.848 213.754 203.848 213.922C203.848 214.09 203.887 214.245 203.965 214.385C204.043 214.522 204.156 214.629 204.305 214.708C204.457 214.786 204.641 214.825 204.855 214.825C205.145 214.825 205.396 214.766 205.611 214.649C205.83 214.528 206.002 214.381 206.127 214.209C206.252 214.034 206.318 213.868 206.326 213.711L206.783 214.338C206.736 214.499 206.656 214.67 206.543 214.854C206.43 215.038 206.281 215.213 206.098 215.381C205.918 215.545 205.701 215.68 205.447 215.786C205.197 215.891 204.908 215.944 204.58 215.944C204.166 215.944 203.797 215.862 203.473 215.698C203.148 215.53 202.895 215.305 202.711 215.024C202.527 214.739 202.436 214.417 202.436 214.057C202.436 213.721 202.498 213.424 202.623 213.167C202.752 212.905 202.939 212.686 203.186 212.51C203.436 212.334 203.74 212.202 204.1 212.112C204.459 212.018 204.869 211.971 205.33 211.971H206.438ZM210.545 210.694V215.827H209.133V209.487H210.48L210.545 210.694ZM212.484 209.446L212.473 210.758C212.387 210.743 212.293 210.731 212.191 210.723C212.094 210.715 211.996 210.711 211.898 210.711C211.656 210.711 211.443 210.747 211.26 210.817C211.076 210.883 210.922 210.981 210.797 211.11C210.676 211.235 210.582 211.387 210.516 211.567C210.449 211.747 210.41 211.948 210.398 212.17L210.076 212.194C210.076 211.795 210.115 211.426 210.193 211.086C210.271 210.747 210.389 210.448 210.545 210.19C210.705 209.932 210.904 209.731 211.143 209.586C211.385 209.442 211.664 209.37 211.98 209.37C212.066 209.37 212.158 209.377 212.256 209.393C212.357 209.409 212.434 209.426 212.484 209.446ZM214.793 206.827V215.827H213.375V206.827H214.793ZM218.73 209.487L215.971 212.545L214.459 214.092L214.09 212.897L215.232 211.485L217.025 209.487H218.73ZM217.33 215.827L215.273 212.85L216.164 211.86L218.965 215.827H217.33ZM222.305 215.944C221.836 215.944 221.412 215.868 221.033 215.715C220.658 215.559 220.338 215.342 220.072 215.065C219.811 214.788 219.609 214.461 219.469 214.086C219.328 213.711 219.258 213.307 219.258 212.874V212.639C219.258 212.143 219.33 211.694 219.475 211.292C219.619 210.889 219.82 210.545 220.078 210.26C220.336 209.971 220.641 209.75 220.992 209.598C221.344 209.446 221.725 209.37 222.135 209.37C222.588 209.37 222.984 209.446 223.324 209.598C223.664 209.75 223.945 209.965 224.168 210.243C224.395 210.516 224.562 210.842 224.672 211.221C224.785 211.6 224.842 212.018 224.842 212.475V213.079H219.943V212.065H223.447V211.954C223.439 211.7 223.389 211.461 223.295 211.239C223.205 211.016 223.066 210.836 222.879 210.7C222.691 210.563 222.441 210.495 222.129 210.495C221.895 210.495 221.686 210.545 221.502 210.647C221.322 210.745 221.172 210.887 221.051 211.075C220.93 211.262 220.836 211.489 220.77 211.754C220.707 212.016 220.676 212.311 220.676 212.639V212.874C220.676 213.151 220.713 213.409 220.787 213.647C220.865 213.881 220.979 214.086 221.127 214.262C221.275 214.438 221.455 214.577 221.666 214.678C221.877 214.776 222.117 214.825 222.387 214.825C222.727 214.825 223.029 214.756 223.295 214.62C223.561 214.483 223.791 214.29 223.986 214.04L224.73 214.76C224.594 214.959 224.416 215.151 224.197 215.334C223.979 215.514 223.711 215.661 223.395 215.774C223.082 215.887 222.719 215.944 222.305 215.944ZM228.85 209.487V210.518H225.275V209.487H228.85ZM226.307 207.934H227.719V214.075C227.719 214.27 227.746 214.42 227.801 214.526C227.859 214.627 227.939 214.696 228.041 214.731C228.143 214.766 228.262 214.784 228.398 214.784C228.496 214.784 228.59 214.778 228.68 214.766C228.77 214.754 228.842 214.743 228.896 214.731L228.902 215.809C228.785 215.844 228.648 215.875 228.492 215.903C228.34 215.93 228.164 215.944 227.965 215.944C227.641 215.944 227.354 215.887 227.104 215.774C226.854 215.657 226.658 215.467 226.518 215.206C226.377 214.944 226.307 214.596 226.307 214.163V207.934Z" fill="black"/>
<path d="M209.41 134.641V137.102C209.41 138.169 209.296 139.09 209.068 139.865C208.84 140.633 208.512 141.265 208.082 141.76C207.659 142.248 207.154 142.609 206.568 142.844C205.982 143.078 205.331 143.195 204.615 143.195C204.042 143.195 203.508 143.124 203.014 142.98C202.519 142.831 202.073 142.6 201.676 142.287C201.285 141.975 200.947 141.581 200.66 141.105C200.38 140.624 200.165 140.051 200.016 139.387C199.866 138.723 199.791 137.961 199.791 137.102V134.641C199.791 133.573 199.905 132.658 200.133 131.896C200.367 131.128 200.696 130.5 201.119 130.012C201.549 129.523 202.057 129.165 202.643 128.938C203.229 128.703 203.88 128.586 204.596 128.586C205.169 128.586 205.699 128.661 206.188 128.811C206.682 128.954 207.128 129.178 207.525 129.484C207.923 129.79 208.261 130.184 208.541 130.666C208.821 131.141 209.036 131.711 209.186 132.375C209.335 133.033 209.41 133.788 209.41 134.641ZM206.588 137.473V134.26C206.588 133.745 206.559 133.296 206.5 132.912C206.448 132.528 206.367 132.202 206.256 131.936C206.145 131.662 206.008 131.441 205.846 131.271C205.683 131.102 205.497 130.979 205.289 130.9C205.081 130.822 204.85 130.783 204.596 130.783C204.277 130.783 203.993 130.845 203.746 130.969C203.505 131.092 203.3 131.291 203.131 131.564C202.962 131.831 202.831 132.189 202.74 132.639C202.656 133.081 202.613 133.622 202.613 134.26V137.473C202.613 137.987 202.639 138.439 202.691 138.83C202.75 139.221 202.835 139.556 202.945 139.836C203.062 140.109 203.199 140.334 203.355 140.51C203.518 140.679 203.704 140.803 203.912 140.881C204.127 140.959 204.361 140.998 204.615 140.998C204.928 140.998 205.204 140.936 205.445 140.812C205.693 140.682 205.901 140.48 206.07 140.207C206.246 139.927 206.376 139.562 206.461 139.113C206.546 138.664 206.588 138.117 206.588 137.473ZM221.051 140.803V143H211.324V141.125L215.924 136.193C216.386 135.679 216.751 135.227 217.018 134.836C217.285 134.439 217.477 134.084 217.594 133.771C217.717 133.452 217.779 133.15 217.779 132.863C217.779 132.434 217.708 132.066 217.564 131.76C217.421 131.447 217.21 131.206 216.93 131.037C216.656 130.868 216.318 130.783 215.914 130.783C215.484 130.783 215.113 130.887 214.801 131.096C214.495 131.304 214.26 131.594 214.098 131.965C213.941 132.336 213.863 132.756 213.863 133.225H211.041C211.041 132.378 211.243 131.604 211.646 130.9C212.05 130.191 212.62 129.628 213.355 129.211C214.091 128.788 214.964 128.576 215.973 128.576C216.969 128.576 217.809 128.739 218.492 129.064C219.182 129.383 219.703 129.846 220.055 130.451C220.413 131.05 220.592 131.766 220.592 132.6C220.592 133.068 220.517 133.527 220.367 133.977C220.217 134.419 220.003 134.862 219.723 135.305C219.449 135.741 219.117 136.184 218.727 136.633C218.336 137.082 217.903 137.548 217.428 138.029L214.957 140.803H221.051Z" fill="#151D48"/>
<path d="M377.299 136.805C377.299 109.851 355.449 88 328.494 88C301.54 88 279.689 109.851 279.689 136.805C279.689 163.759 301.54 185.61 328.494 185.61C355.449 185.61 377.299 163.759 377.299 136.805ZM289.27 136.805C289.27 115.142 306.831 97.5806 328.494 97.5806C350.157 97.5806 367.719 115.142 367.719 136.805C367.719 158.468 350.157 176.029 328.494 176.029C306.831 176.029 289.27 158.468 289.27 136.805Z" fill="#D1D1D1"/>
<path d="M285.464 127.548C282.878 126.991 281.209 124.433 282.017 121.914C283.633 116.87 286.062 112.113 289.219 107.834C293.325 102.267 298.568 97.6363 304.6 94.2495C310.632 90.8626 317.315 88.7967 324.206 88.1888C331.097 87.5809 338.038 88.4449 344.57 90.7234C351.101 93.002 357.074 96.643 362.092 101.405C367.109 106.167 371.057 111.942 373.674 118.346C376.29 124.749 377.515 131.636 377.268 138.549C377.078 143.863 376.021 149.1 374.149 154.054C373.214 156.529 370.317 157.494 367.946 156.321C365.574 155.148 364.634 152.281 365.509 149.784C366.813 146.066 367.552 142.163 367.694 138.207C367.892 132.651 366.908 127.116 364.805 121.969C362.702 116.822 359.529 112.182 355.496 108.354C351.464 104.527 346.664 101.601 341.414 99.7694C336.165 97.9381 330.586 97.2438 325.048 97.7323C319.509 98.2209 314.138 99.8812 309.29 102.603C304.443 105.325 300.229 109.047 296.929 113.521C294.579 116.707 292.73 120.222 291.438 123.945C290.571 126.444 288.051 128.104 285.464 127.548Z" fill="#3CD856"/>
<path d="M312.673 213.049H314.138C314.091 213.608 313.935 214.106 313.669 214.543C313.403 214.977 313.03 215.319 312.55 215.569C312.069 215.819 311.485 215.944 310.798 215.944C310.271 215.944 309.796 215.85 309.374 215.663C308.952 215.471 308.591 215.202 308.29 214.854C307.989 214.502 307.759 214.079 307.599 213.583C307.442 213.086 307.364 212.532 307.364 211.918V211.209C307.364 210.596 307.444 210.042 307.604 209.545C307.769 209.049 308.003 208.625 308.308 208.274C308.612 207.918 308.978 207.647 309.403 207.459C309.833 207.272 310.315 207.178 310.851 207.178C311.53 207.178 312.104 207.303 312.573 207.553C313.042 207.803 313.405 208.149 313.663 208.59C313.925 209.032 314.085 209.538 314.144 210.108H312.679C312.64 209.741 312.554 209.426 312.421 209.165C312.292 208.903 312.101 208.704 311.847 208.567C311.593 208.426 311.261 208.356 310.851 208.356C310.515 208.356 310.222 208.418 309.972 208.543C309.722 208.668 309.513 208.852 309.345 209.094C309.177 209.336 309.05 209.635 308.964 209.991C308.882 210.342 308.841 210.745 308.841 211.198V211.918C308.841 212.348 308.878 212.739 308.952 213.09C309.03 213.438 309.147 213.737 309.304 213.987C309.464 214.237 309.667 214.43 309.913 214.567C310.159 214.704 310.454 214.772 310.798 214.772C311.216 214.772 311.554 214.706 311.812 214.573C312.073 214.44 312.271 214.247 312.403 213.993C312.54 213.735 312.63 213.42 312.673 213.049ZM319.147 214.333V209.487H320.565V215.827H319.229L319.147 214.333ZM319.347 213.014L319.821 213.002C319.821 213.428 319.774 213.821 319.681 214.18C319.587 214.536 319.442 214.846 319.247 215.112C319.052 215.374 318.802 215.579 318.497 215.727C318.192 215.872 317.827 215.944 317.401 215.944C317.093 215.944 316.81 215.899 316.552 215.809C316.294 215.719 316.071 215.581 315.884 215.393C315.7 215.206 315.558 214.961 315.456 214.661C315.354 214.36 315.304 214 315.304 213.583V209.487H316.716V213.594C316.716 213.825 316.743 214.018 316.798 214.174C316.853 214.327 316.927 214.45 317.021 214.543C317.114 214.637 317.224 214.704 317.349 214.743C317.474 214.782 317.606 214.801 317.747 214.801C318.149 214.801 318.466 214.723 318.696 214.567C318.931 214.407 319.097 214.192 319.194 213.922C319.296 213.653 319.347 213.35 319.347 213.014ZM325.569 214.11C325.569 213.969 325.534 213.842 325.464 213.729C325.394 213.612 325.259 213.506 325.06 213.413C324.864 213.319 324.575 213.233 324.192 213.155C323.856 213.081 323.548 212.993 323.267 212.891C322.989 212.786 322.751 212.659 322.552 212.51C322.353 212.362 322.198 212.186 322.089 211.983C321.979 211.78 321.925 211.545 321.925 211.28C321.925 211.022 321.981 210.778 322.095 210.547C322.208 210.317 322.37 210.114 322.581 209.938C322.792 209.762 323.048 209.624 323.349 209.522C323.653 209.42 323.993 209.37 324.368 209.37C324.899 209.37 325.354 209.459 325.733 209.639C326.116 209.815 326.409 210.055 326.612 210.36C326.815 210.661 326.917 211 326.917 211.379H325.505C325.505 211.211 325.462 211.055 325.376 210.911C325.294 210.762 325.169 210.643 325.001 210.553C324.833 210.459 324.622 210.413 324.368 210.413C324.126 210.413 323.925 210.452 323.765 210.53C323.608 210.604 323.491 210.702 323.413 210.823C323.339 210.944 323.302 211.077 323.302 211.221C323.302 211.327 323.321 211.422 323.36 211.508C323.403 211.59 323.474 211.667 323.571 211.737C323.669 211.803 323.802 211.866 323.97 211.924C324.142 211.983 324.356 212.04 324.614 212.094C325.099 212.196 325.515 212.327 325.862 212.487C326.214 212.643 326.483 212.846 326.671 213.096C326.858 213.342 326.952 213.655 326.952 214.034C326.952 214.315 326.892 214.573 326.771 214.807C326.653 215.038 326.481 215.239 326.255 215.411C326.028 215.579 325.757 215.709 325.44 215.803C325.128 215.897 324.776 215.944 324.386 215.944C323.812 215.944 323.325 215.842 322.927 215.639C322.528 215.432 322.226 215.168 322.019 214.848C321.815 214.524 321.714 214.188 321.714 213.84H323.079C323.095 214.102 323.167 214.311 323.296 214.467C323.429 214.62 323.593 214.731 323.788 214.801C323.987 214.868 324.192 214.901 324.403 214.901C324.657 214.901 324.87 214.868 325.042 214.801C325.214 214.731 325.345 214.637 325.435 214.52C325.524 214.399 325.569 214.262 325.569 214.11ZM331.095 209.487V210.518H327.521V209.487H331.095ZM328.552 207.934H329.964V214.075C329.964 214.27 329.991 214.42 330.046 214.526C330.104 214.627 330.185 214.696 330.286 214.731C330.388 214.766 330.507 214.784 330.644 214.784C330.741 214.784 330.835 214.778 330.925 214.766C331.015 214.754 331.087 214.743 331.142 214.731L331.147 215.809C331.03 215.844 330.894 215.875 330.737 215.903C330.585 215.93 330.409 215.944 330.21 215.944C329.886 215.944 329.599 215.887 329.349 215.774C329.099 215.657 328.903 215.467 328.763 215.206C328.622 214.944 328.552 214.596 328.552 214.163V207.934ZM331.774 212.727V212.592C331.774 212.135 331.841 211.711 331.974 211.321C332.106 210.926 332.298 210.584 332.548 210.295C332.802 210.002 333.11 209.776 333.474 209.616C333.841 209.452 334.255 209.37 334.716 209.37C335.181 209.37 335.595 209.452 335.958 209.616C336.325 209.776 336.636 210.002 336.89 210.295C337.144 210.584 337.337 210.926 337.47 211.321C337.603 211.711 337.669 212.135 337.669 212.592V212.727C337.669 213.184 337.603 213.608 337.47 213.999C337.337 214.389 337.144 214.731 336.89 215.024C336.636 215.313 336.327 215.54 335.964 215.704C335.601 215.864 335.188 215.944 334.728 215.944C334.263 215.944 333.847 215.864 333.479 215.704C333.116 215.54 332.808 215.313 332.554 215.024C332.3 214.731 332.106 214.389 331.974 213.999C331.841 213.608 331.774 213.184 331.774 212.727ZM333.187 212.592V212.727C333.187 213.012 333.216 213.282 333.274 213.536C333.333 213.79 333.425 214.012 333.55 214.204C333.675 214.395 333.835 214.545 334.03 214.655C334.226 214.764 334.458 214.819 334.728 214.819C334.989 214.819 335.216 214.764 335.407 214.655C335.603 214.545 335.763 214.395 335.888 214.204C336.013 214.012 336.104 213.79 336.163 213.536C336.226 213.282 336.257 213.012 336.257 212.727V212.592C336.257 212.311 336.226 212.045 336.163 211.795C336.104 211.542 336.011 211.317 335.882 211.122C335.757 210.926 335.597 210.774 335.401 210.665C335.21 210.551 334.981 210.495 334.716 210.495C334.45 210.495 334.22 210.551 334.024 210.665C333.833 210.774 333.675 210.926 333.55 211.122C333.425 211.317 333.333 211.542 333.274 211.795C333.216 212.045 333.187 212.311 333.187 212.592ZM340.265 210.776V215.827H338.853V209.487H340.183L340.265 210.776ZM340.036 212.422L339.556 212.417C339.556 211.979 339.61 211.575 339.72 211.204C339.829 210.833 339.989 210.51 340.2 210.237C340.411 209.959 340.673 209.747 340.985 209.598C341.302 209.446 341.667 209.37 342.081 209.37C342.37 209.37 342.634 209.413 342.872 209.499C343.114 209.581 343.323 209.711 343.499 209.891C343.679 210.071 343.815 210.301 343.909 210.583C344.007 210.864 344.056 211.204 344.056 211.602V215.827H342.644V211.725C342.644 211.417 342.597 211.174 342.503 210.999C342.413 210.823 342.282 210.698 342.11 210.624C341.942 210.545 341.741 210.506 341.507 210.506C341.241 210.506 341.015 210.557 340.827 210.659C340.644 210.76 340.493 210.899 340.376 211.075C340.259 211.25 340.173 211.454 340.118 211.684C340.063 211.915 340.036 212.161 340.036 212.422ZM343.968 212.047L343.306 212.194C343.306 211.811 343.358 211.45 343.464 211.11C343.573 210.766 343.731 210.465 343.938 210.208C344.149 209.946 344.409 209.741 344.718 209.592C345.026 209.444 345.38 209.37 345.778 209.37C346.103 209.37 346.392 209.415 346.646 209.504C346.903 209.59 347.122 209.727 347.302 209.915C347.481 210.102 347.618 210.346 347.712 210.647C347.806 210.944 347.853 211.303 347.853 211.725V215.827H346.435V211.719C346.435 211.399 346.388 211.151 346.294 210.975C346.204 210.799 346.075 210.678 345.907 210.612C345.739 210.542 345.538 210.506 345.304 210.506C345.085 210.506 344.892 210.547 344.724 210.629C344.56 210.708 344.421 210.819 344.308 210.963C344.194 211.104 344.108 211.266 344.05 211.45C343.995 211.633 343.968 211.833 343.968 212.047Z" fill="black"/>
<path d="M327.258 134.641V137.102C327.258 138.169 327.144 139.09 326.916 139.865C326.688 140.633 326.359 141.265 325.93 141.76C325.507 142.248 325.002 142.609 324.416 142.844C323.83 143.078 323.179 143.195 322.463 143.195C321.89 143.195 321.356 143.124 320.861 142.98C320.367 142.831 319.921 142.6 319.523 142.287C319.133 141.975 318.794 141.581 318.508 141.105C318.228 140.624 318.013 140.051 317.863 139.387C317.714 138.723 317.639 137.961 317.639 137.102V134.641C317.639 133.573 317.753 132.658 317.98 131.896C318.215 131.128 318.544 130.5 318.967 130.012C319.396 129.523 319.904 129.165 320.49 128.938C321.076 128.703 321.727 128.586 322.443 128.586C323.016 128.586 323.547 128.661 324.035 128.811C324.53 128.954 324.976 129.178 325.373 129.484C325.77 129.79 326.109 130.184 326.389 130.666C326.669 131.141 326.883 131.711 327.033 132.375C327.183 133.033 327.258 133.788 327.258 134.641ZM324.436 137.473V134.26C324.436 133.745 324.406 133.296 324.348 132.912C324.296 132.528 324.214 132.202 324.104 131.936C323.993 131.662 323.856 131.441 323.693 131.271C323.531 131.102 323.345 130.979 323.137 130.9C322.928 130.822 322.697 130.783 322.443 130.783C322.124 130.783 321.841 130.845 321.594 130.969C321.353 131.092 321.148 131.291 320.979 131.564C320.809 131.831 320.679 132.189 320.588 132.639C320.503 133.081 320.461 133.622 320.461 134.26V137.473C320.461 137.987 320.487 138.439 320.539 138.83C320.598 139.221 320.682 139.556 320.793 139.836C320.91 140.109 321.047 140.334 321.203 140.51C321.366 140.679 321.551 140.803 321.76 140.881C321.975 140.959 322.209 140.998 322.463 140.998C322.775 140.998 323.052 140.936 323.293 140.812C323.54 140.682 323.749 140.48 323.918 140.207C324.094 139.927 324.224 139.562 324.309 139.113C324.393 138.664 324.436 138.117 324.436 137.473ZM336.027 128.752V143H333.215V131.994L329.836 133.068V130.852L335.725 128.752H336.027Z" fill="#151D48"/>
<path d="M495.61 136.805C495.61 109.851 473.759 88 446.805 88C419.851 88 398 109.851 398 136.805C398 163.759 419.851 185.61 446.805 185.61C473.759 185.61 495.61 163.759 495.61 136.805ZM407.581 136.805C407.581 115.142 425.142 97.5806 446.805 97.5806C468.468 97.5806 486.029 115.142 486.029 136.805C486.029 158.468 468.468 176.029 446.805 176.029C425.142 176.029 407.581 158.468 407.581 136.805Z" fill="#D1D1D1"/>
<path d="M403.775 127.548C401.188 126.991 399.52 124.433 400.327 121.914C402.881 113.943 407.451 106.736 413.629 101.01C419.807 95.284 427.341 91.2734 435.482 89.3316C438.055 88.7179 440.479 90.5755 440.838 93.1966C441.197 95.8178 439.351 98.2046 436.793 98.8799C430.599 100.515 424.875 103.649 420.142 108.037C415.408 112.424 411.849 117.893 409.749 123.945C408.881 126.444 406.361 128.104 403.775 127.548Z" fill="#EEA62E"/>
<path d="M388.742 213.629C388.742 213.454 388.715 213.297 388.66 213.161C388.609 213.024 388.518 212.899 388.385 212.786C388.252 212.672 388.064 212.563 387.822 212.458C387.584 212.348 387.279 212.237 386.908 212.124C386.502 211.999 386.127 211.86 385.783 211.708C385.443 211.551 385.146 211.372 384.893 211.168C384.639 210.961 384.441 210.725 384.301 210.459C384.16 210.19 384.09 209.879 384.09 209.528C384.09 209.18 384.162 208.864 384.307 208.579C384.455 208.293 384.664 208.047 384.934 207.84C385.207 207.629 385.529 207.467 385.9 207.354C386.271 207.237 386.682 207.178 387.131 207.178C387.764 207.178 388.309 207.295 388.766 207.53C389.227 207.764 389.58 208.079 389.826 208.473C390.076 208.868 390.201 209.303 390.201 209.78H388.742C388.742 209.499 388.682 209.25 388.561 209.036C388.443 208.817 388.264 208.645 388.021 208.52C387.783 208.395 387.48 208.333 387.113 208.333C386.766 208.333 386.477 208.385 386.246 208.491C386.016 208.596 385.844 208.739 385.73 208.918C385.617 209.098 385.561 209.301 385.561 209.528C385.561 209.688 385.598 209.834 385.672 209.967C385.746 210.096 385.859 210.217 386.012 210.331C386.164 210.44 386.355 210.543 386.586 210.641C386.816 210.739 387.088 210.833 387.4 210.922C387.873 211.063 388.285 211.219 388.637 211.391C388.988 211.559 389.281 211.75 389.516 211.965C389.75 212.18 389.926 212.424 390.043 212.698C390.16 212.967 390.219 213.274 390.219 213.618C390.219 213.977 390.146 214.301 390.002 214.59C389.857 214.875 389.65 215.12 389.381 215.323C389.115 215.522 388.795 215.676 388.42 215.786C388.049 215.891 387.635 215.944 387.178 215.944C386.768 215.944 386.363 215.889 385.965 215.78C385.57 215.67 385.211 215.504 384.887 215.282C384.562 215.055 384.305 214.774 384.113 214.438C383.922 214.098 383.826 213.702 383.826 213.249H385.297C385.297 213.526 385.344 213.762 385.438 213.958C385.535 214.153 385.67 214.313 385.842 214.438C386.014 214.559 386.213 214.649 386.439 214.708C386.67 214.766 386.916 214.795 387.178 214.795C387.521 214.795 387.809 214.747 388.039 214.649C388.273 214.551 388.449 214.415 388.566 214.239C388.684 214.063 388.742 213.86 388.742 213.629ZM393.969 214.819C394.199 214.819 394.406 214.774 394.59 214.684C394.777 214.59 394.928 214.461 395.041 214.297C395.158 214.133 395.223 213.944 395.234 213.729H396.564C396.557 214.139 396.436 214.512 396.201 214.848C395.967 215.184 395.656 215.452 395.27 215.651C394.883 215.846 394.455 215.944 393.986 215.944C393.502 215.944 393.08 215.862 392.721 215.698C392.361 215.53 392.062 215.299 391.824 215.006C391.586 214.713 391.406 214.375 391.285 213.993C391.168 213.61 391.109 213.2 391.109 212.762V212.557C391.109 212.12 391.168 211.709 391.285 211.327C391.406 210.94 391.586 210.6 391.824 210.307C392.062 210.014 392.361 209.786 392.721 209.622C393.08 209.454 393.5 209.37 393.98 209.37C394.488 209.37 394.934 209.471 395.316 209.674C395.699 209.874 396 210.153 396.219 210.512C396.441 210.868 396.557 211.282 396.564 211.754H395.234C395.223 211.52 395.164 211.309 395.059 211.122C394.957 210.93 394.812 210.778 394.625 210.665C394.441 210.551 394.221 210.495 393.963 210.495C393.678 210.495 393.441 210.553 393.254 210.67C393.066 210.784 392.92 210.94 392.814 211.139C392.709 211.334 392.633 211.555 392.586 211.801C392.543 212.043 392.521 212.295 392.521 212.557V212.762C392.521 213.024 392.543 213.278 392.586 213.524C392.629 213.77 392.703 213.991 392.809 214.186C392.918 214.377 393.066 214.532 393.254 214.649C393.441 214.762 393.68 214.819 393.969 214.819ZM399.043 206.827V215.827H397.637V206.827H399.043ZM398.797 212.422L398.34 212.417C398.344 211.979 398.404 211.575 398.521 211.204C398.643 210.833 398.811 210.51 399.025 210.237C399.244 209.959 399.506 209.747 399.811 209.598C400.115 209.446 400.453 209.37 400.824 209.37C401.137 209.37 401.418 209.413 401.668 209.499C401.922 209.584 402.141 209.723 402.324 209.915C402.508 210.102 402.646 210.348 402.74 210.653C402.838 210.954 402.887 211.321 402.887 211.754V215.827H401.469V211.743C401.469 211.438 401.424 211.196 401.334 211.016C401.248 210.836 401.121 210.708 400.953 210.629C400.785 210.547 400.58 210.506 400.338 210.506C400.084 210.506 399.859 210.557 399.664 210.659C399.473 210.76 399.312 210.899 399.184 211.075C399.055 211.25 398.957 211.454 398.891 211.684C398.828 211.915 398.797 212.161 398.797 212.422ZM407.111 215.944C406.643 215.944 406.219 215.868 405.84 215.715C405.465 215.559 405.145 215.342 404.879 215.065C404.617 214.788 404.416 214.461 404.275 214.086C404.135 213.711 404.064 213.307 404.064 212.874V212.639C404.064 212.143 404.137 211.694 404.281 211.292C404.426 210.889 404.627 210.545 404.885 210.26C405.143 209.971 405.447 209.75 405.799 209.598C406.15 209.446 406.531 209.37 406.941 209.37C407.395 209.37 407.791 209.446 408.131 209.598C408.471 209.75 408.752 209.965 408.975 210.243C409.201 210.516 409.369 210.842 409.479 211.221C409.592 211.6 409.648 212.018 409.648 212.475V213.079H404.75V212.065H408.254V211.954C408.246 211.7 408.195 211.461 408.102 211.239C408.012 211.016 407.873 210.836 407.686 210.7C407.498 210.563 407.248 210.495 406.936 210.495C406.701 210.495 406.492 210.545 406.309 210.647C406.129 210.745 405.979 210.887 405.857 211.075C405.736 211.262 405.643 211.489 405.576 211.754C405.514 212.016 405.482 212.311 405.482 212.639V212.874C405.482 213.151 405.52 213.409 405.594 213.647C405.672 213.881 405.785 214.086 405.934 214.262C406.082 214.438 406.262 214.577 406.473 214.678C406.684 214.776 406.924 214.825 407.193 214.825C407.533 214.825 407.836 214.756 408.102 214.62C408.367 214.483 408.598 214.29 408.793 214.04L409.537 214.76C409.4 214.959 409.223 215.151 409.004 215.334C408.785 215.514 408.518 215.661 408.201 215.774C407.889 215.887 407.525 215.944 407.111 215.944ZM414.617 214.514V206.827H416.035V215.827H414.752L414.617 214.514ZM410.492 212.727V212.604C410.492 212.124 410.549 211.686 410.662 211.292C410.775 210.893 410.939 210.551 411.154 210.266C411.369 209.977 411.631 209.756 411.939 209.604C412.248 209.448 412.596 209.37 412.982 209.37C413.365 209.37 413.701 209.444 413.99 209.592C414.279 209.741 414.525 209.954 414.729 210.231C414.932 210.504 415.094 210.833 415.215 211.215C415.336 211.594 415.422 212.016 415.473 212.481V212.874C415.422 213.327 415.336 213.741 415.215 214.116C415.094 214.491 414.932 214.815 414.729 215.088C414.525 215.362 414.277 215.573 413.984 215.721C413.695 215.87 413.357 215.944 412.971 215.944C412.588 215.944 412.242 215.864 411.934 215.704C411.629 215.543 411.369 215.319 411.154 215.03C410.939 214.741 410.775 214.401 410.662 214.01C410.549 213.616 410.492 213.188 410.492 212.727ZM411.904 212.604V212.727C411.904 213.016 411.93 213.286 411.98 213.536C412.035 213.786 412.119 214.006 412.232 214.198C412.346 214.385 412.492 214.534 412.672 214.643C412.855 214.749 413.074 214.801 413.328 214.801C413.648 214.801 413.912 214.731 414.119 214.59C414.326 214.45 414.488 214.26 414.605 214.022C414.727 213.78 414.809 213.51 414.852 213.213V212.153C414.828 211.922 414.779 211.708 414.705 211.508C414.635 211.309 414.539 211.135 414.418 210.987C414.297 210.834 414.146 210.717 413.967 210.635C413.791 210.549 413.582 210.506 413.34 210.506C413.082 210.506 412.863 210.561 412.684 210.67C412.504 210.78 412.355 210.93 412.238 211.122C412.125 211.313 412.041 211.536 411.986 211.79C411.932 212.043 411.904 212.315 411.904 212.604ZM421.326 214.333V209.487H422.744V215.827H421.408L421.326 214.333ZM421.525 213.014L422 213.002C422 213.428 421.953 213.821 421.859 214.18C421.766 214.536 421.621 214.846 421.426 215.112C421.23 215.374 420.98 215.579 420.676 215.727C420.371 215.872 420.006 215.944 419.58 215.944C419.271 215.944 418.988 215.899 418.73 215.809C418.473 215.719 418.25 215.581 418.062 215.393C417.879 215.206 417.736 214.961 417.635 214.661C417.533 214.36 417.482 214 417.482 213.583V209.487H418.895V213.594C418.895 213.825 418.922 214.018 418.977 214.174C419.031 214.327 419.105 214.45 419.199 214.543C419.293 214.637 419.402 214.704 419.527 214.743C419.652 214.782 419.785 214.801 419.926 214.801C420.328 214.801 420.645 214.723 420.875 214.567C421.109 214.407 421.275 214.192 421.373 213.922C421.475 213.653 421.525 213.35 421.525 213.014ZM425.703 206.827V215.827H424.285V206.827H425.703ZM430.045 215.944C429.576 215.944 429.152 215.868 428.773 215.715C428.398 215.559 428.078 215.342 427.812 215.065C427.551 214.788 427.35 214.461 427.209 214.086C427.068 213.711 426.998 213.307 426.998 212.874V212.639C426.998 212.143 427.07 211.694 427.215 211.292C427.359 210.889 427.561 210.545 427.818 210.26C428.076 209.971 428.381 209.75 428.732 209.598C429.084 209.446 429.465 209.37 429.875 209.37C430.328 209.37 430.725 209.446 431.064 209.598C431.404 209.75 431.686 209.965 431.908 210.243C432.135 210.516 432.303 210.842 432.412 211.221C432.525 211.6 432.582 212.018 432.582 212.475V213.079H427.684V212.065H431.188V211.954C431.18 211.7 431.129 211.461 431.035 211.239C430.945 211.016 430.807 210.836 430.619 210.7C430.432 210.563 430.182 210.495 429.869 210.495C429.635 210.495 429.426 210.545 429.242 210.647C429.062 210.745 428.912 210.887 428.791 211.075C428.67 211.262 428.576 211.489 428.51 211.754C428.447 212.016 428.416 212.311 428.416 212.639V212.874C428.416 213.151 428.453 213.409 428.527 213.647C428.605 213.881 428.719 214.086 428.867 214.262C429.016 214.438 429.195 214.577 429.406 214.678C429.617 214.776 429.857 214.825 430.127 214.825C430.467 214.825 430.77 214.756 431.035 214.62C431.301 214.483 431.531 214.29 431.727 214.04L432.471 214.76C432.334 214.959 432.156 215.151 431.938 215.334C431.719 215.514 431.451 215.661 431.135 215.774C430.822 215.887 430.459 215.944 430.045 215.944ZM437.551 214.514V206.827H438.969V215.827H437.686L437.551 214.514ZM433.426 212.727V212.604C433.426 212.124 433.482 211.686 433.596 211.292C433.709 210.893 433.873 210.551 434.088 210.266C434.303 209.977 434.564 209.756 434.873 209.604C435.182 209.448 435.529 209.37 435.916 209.37C436.299 209.37 436.635 209.444 436.924 209.592C437.213 209.741 437.459 209.954 437.662 210.231C437.865 210.504 438.027 210.833 438.148 211.215C438.27 211.594 438.355 212.016 438.406 212.481V212.874C438.355 213.327 438.27 213.741 438.148 214.116C438.027 214.491 437.865 214.815 437.662 215.088C437.459 215.362 437.211 215.573 436.918 215.721C436.629 215.87 436.291 215.944 435.904 215.944C435.521 215.944 435.176 215.864 434.867 215.704C434.562 215.543 434.303 215.319 434.088 215.03C433.873 214.741 433.709 214.401 433.596 214.01C433.482 213.616 433.426 213.188 433.426 212.727ZM434.838 212.604V212.727C434.838 213.016 434.863 213.286 434.914 213.536C434.969 213.786 435.053 214.006 435.166 214.198C435.279 214.385 435.426 214.534 435.605 214.643C435.789 214.749 436.008 214.801 436.262 214.801C436.582 214.801 436.846 214.731 437.053 214.59C437.26 214.45 437.422 214.26 437.539 214.022C437.66 213.78 437.742 213.51 437.785 213.213V212.153C437.762 211.922 437.713 211.708 437.639 211.508C437.568 211.309 437.473 211.135 437.352 210.987C437.23 210.834 437.08 210.717 436.9 210.635C436.725 210.549 436.516 210.506 436.273 210.506C436.016 210.506 435.797 210.561 435.617 210.67C435.438 210.78 435.289 210.93 435.172 211.122C435.059 211.313 434.975 211.536 434.92 211.79C434.865 212.043 434.838 212.315 434.838 212.604ZM449.158 214.661V215.827H444.629V214.661H449.158ZM445.045 207.295V215.827H443.574V207.295H445.045ZM448.566 210.858V212.006H444.629V210.858H448.566ZM449.129 207.295V208.467H444.629V207.295H449.129ZM451.619 210.84V215.827H450.207V209.487H451.537L451.619 210.84ZM451.367 212.422L450.91 212.417C450.914 211.967 450.977 211.555 451.098 211.18C451.223 210.805 451.395 210.483 451.613 210.213C451.836 209.944 452.102 209.737 452.41 209.592C452.719 209.444 453.062 209.37 453.441 209.37C453.746 209.37 454.021 209.413 454.268 209.499C454.518 209.581 454.73 209.715 454.906 209.903C455.086 210.09 455.223 210.334 455.316 210.635C455.41 210.932 455.457 211.297 455.457 211.731V215.827H454.039V211.725C454.039 211.42 453.994 211.18 453.904 211.004C453.818 210.825 453.691 210.698 453.523 210.624C453.359 210.545 453.154 210.506 452.908 210.506C452.666 210.506 452.449 210.557 452.258 210.659C452.066 210.76 451.904 210.899 451.771 211.075C451.643 211.25 451.543 211.454 451.473 211.684C451.402 211.915 451.367 212.161 451.367 212.422ZM458.809 215.827H457.396V208.877C457.396 208.405 457.484 208.008 457.66 207.688C457.84 207.364 458.096 207.12 458.428 206.956C458.76 206.788 459.152 206.704 459.605 206.704C459.746 206.704 459.885 206.713 460.021 206.733C460.158 206.749 460.291 206.774 460.42 206.809L460.385 207.899C460.307 207.879 460.221 207.866 460.127 207.858C460.037 207.85 459.939 207.846 459.834 207.846C459.619 207.846 459.434 207.887 459.277 207.969C459.125 208.047 459.008 208.163 458.926 208.315C458.848 208.467 458.809 208.655 458.809 208.877V215.827ZM460.115 209.487V210.518H456.424V209.487H460.115ZM460.871 212.727V212.592C460.871 212.135 460.938 211.711 461.07 211.321C461.203 210.926 461.395 210.584 461.645 210.295C461.898 210.002 462.207 209.776 462.57 209.616C462.938 209.452 463.352 209.37 463.812 209.37C464.277 209.37 464.691 209.452 465.055 209.616C465.422 209.776 465.732 210.002 465.986 210.295C466.24 210.584 466.434 210.926 466.566 211.321C466.699 211.711 466.766 212.135 466.766 212.592V212.727C466.766 213.184 466.699 213.608 466.566 213.999C466.434 214.389 466.24 214.731 465.986 215.024C465.732 215.313 465.424 215.54 465.061 215.704C464.697 215.864 464.285 215.944 463.824 215.944C463.359 215.944 462.943 215.864 462.576 215.704C462.213 215.54 461.904 215.313 461.65 215.024C461.396 214.731 461.203 214.389 461.07 213.999C460.938 213.608 460.871 213.184 460.871 212.727ZM462.283 212.592V212.727C462.283 213.012 462.312 213.282 462.371 213.536C462.43 213.79 462.521 214.012 462.646 214.204C462.771 214.395 462.932 214.545 463.127 214.655C463.322 214.764 463.555 214.819 463.824 214.819C464.086 214.819 464.312 214.764 464.504 214.655C464.699 214.545 464.859 214.395 464.984 214.204C465.109 214.012 465.201 213.79 465.26 213.536C465.322 213.282 465.354 213.012 465.354 212.727V212.592C465.354 212.311 465.322 212.045 465.26 211.795C465.201 211.542 465.107 211.317 464.979 211.122C464.854 210.926 464.693 210.774 464.498 210.665C464.307 210.551 464.078 210.495 463.812 210.495C463.547 210.495 463.316 210.551 463.121 210.665C462.93 210.774 462.771 210.926 462.646 211.122C462.521 211.317 462.43 211.542 462.371 211.795C462.312 212.045 462.283 212.311 462.283 212.592ZM469.367 210.694V215.827H467.955V209.487H469.303L469.367 210.694ZM471.307 209.446L471.295 210.758C471.209 210.743 471.115 210.731 471.014 210.723C470.916 210.715 470.818 210.711 470.721 210.711C470.479 210.711 470.266 210.747 470.082 210.817C469.898 210.883 469.744 210.981 469.619 211.11C469.498 211.235 469.404 211.387 469.338 211.567C469.271 211.747 469.232 211.948 469.221 212.17L468.898 212.194C468.898 211.795 468.938 211.426 469.016 211.086C469.094 210.747 469.211 210.448 469.367 210.19C469.527 209.932 469.727 209.731 469.965 209.586C470.207 209.442 470.486 209.37 470.803 209.37C470.889 209.37 470.98 209.377 471.078 209.393C471.18 209.409 471.256 209.426 471.307 209.446ZM474.664 214.819C474.895 214.819 475.102 214.774 475.285 214.684C475.473 214.59 475.623 214.461 475.736 214.297C475.854 214.133 475.918 213.944 475.93 213.729H477.26C477.252 214.139 477.131 214.512 476.896 214.848C476.662 215.184 476.352 215.452 475.965 215.651C475.578 215.846 475.15 215.944 474.682 215.944C474.197 215.944 473.775 215.862 473.416 215.698C473.057 215.53 472.758 215.299 472.52 215.006C472.281 214.713 472.102 214.375 471.98 213.993C471.863 213.61 471.805 213.2 471.805 212.762V212.557C471.805 212.12 471.863 211.709 471.98 211.327C472.102 210.94 472.281 210.6 472.52 210.307C472.758 210.014 473.057 209.786 473.416 209.622C473.775 209.454 474.195 209.37 474.676 209.37C475.184 209.37 475.629 209.471 476.012 209.674C476.395 209.874 476.695 210.153 476.914 210.512C477.137 210.868 477.252 211.282 477.26 211.754H475.93C475.918 211.52 475.859 211.309 475.754 211.122C475.652 210.93 475.508 210.778 475.32 210.665C475.137 210.551 474.916 210.495 474.658 210.495C474.373 210.495 474.137 210.553 473.949 210.67C473.762 210.784 473.615 210.94 473.51 211.139C473.404 211.334 473.328 211.555 473.281 211.801C473.238 212.043 473.217 212.295 473.217 212.557V212.762C473.217 213.024 473.238 213.278 473.281 213.524C473.324 213.77 473.398 213.991 473.504 214.186C473.613 214.377 473.762 214.532 473.949 214.649C474.137 214.762 474.375 214.819 474.664 214.819ZM481.139 215.944C480.67 215.944 480.246 215.868 479.867 215.715C479.492 215.559 479.172 215.342 478.906 215.065C478.645 214.788 478.443 214.461 478.303 214.086C478.162 213.711 478.092 213.307 478.092 212.874V212.639C478.092 212.143 478.164 211.694 478.309 211.292C478.453 210.889 478.654 210.545 478.912 210.26C479.17 209.971 479.475 209.75 479.826 209.598C480.178 209.446 480.559 209.37 480.969 209.37C481.422 209.37 481.818 209.446 482.158 209.598C482.498 209.75 482.779 209.965 483.002 210.243C483.229 210.516 483.396 210.842 483.506 211.221C483.619 211.6 483.676 212.018 483.676 212.475V213.079H478.777V212.065H482.281V211.954C482.273 211.7 482.223 211.461 482.129 211.239C482.039 211.016 481.9 210.836 481.713 210.7C481.525 210.563 481.275 210.495 480.963 210.495C480.729 210.495 480.52 210.545 480.336 210.647C480.156 210.745 480.006 210.887 479.885 211.075C479.764 211.262 479.67 211.489 479.604 211.754C479.541 212.016 479.51 212.311 479.51 212.639V212.874C479.51 213.151 479.547 213.409 479.621 213.647C479.699 213.881 479.812 214.086 479.961 214.262C480.109 214.438 480.289 214.577 480.5 214.678C480.711 214.776 480.951 214.825 481.221 214.825C481.561 214.825 481.863 214.756 482.129 214.62C482.395 214.483 482.625 214.29 482.82 214.04L483.564 214.76C483.428 214.959 483.25 215.151 483.031 215.334C482.812 215.514 482.545 215.661 482.229 215.774C481.916 215.887 481.553 215.944 481.139 215.944ZM486.189 210.776V215.827H484.777V209.487H486.107L486.189 210.776ZM485.961 212.422L485.48 212.417C485.48 211.979 485.535 211.575 485.645 211.204C485.754 210.833 485.914 210.51 486.125 210.237C486.336 209.959 486.598 209.747 486.91 209.598C487.227 209.446 487.592 209.37 488.006 209.37C488.295 209.37 488.559 209.413 488.797 209.499C489.039 209.581 489.248 209.711 489.424 209.891C489.604 210.071 489.74 210.301 489.834 210.583C489.932 210.864 489.98 211.204 489.98 211.602V215.827H488.568V211.725C488.568 211.417 488.521 211.174 488.428 210.999C488.338 210.823 488.207 210.698 488.035 210.624C487.867 210.545 487.666 210.506 487.432 210.506C487.166 210.506 486.939 210.557 486.752 210.659C486.568 210.76 486.418 210.899 486.301 211.075C486.184 211.25 486.098 211.454 486.043 211.684C485.988 211.915 485.961 212.161 485.961 212.422ZM489.893 212.047L489.23 212.194C489.23 211.811 489.283 211.45 489.389 211.11C489.498 210.766 489.656 210.465 489.863 210.208C490.074 209.946 490.334 209.741 490.643 209.592C490.951 209.444 491.305 209.37 491.703 209.37C492.027 209.37 492.316 209.415 492.57 209.504C492.828 209.59 493.047 209.727 493.227 209.915C493.406 210.102 493.543 210.346 493.637 210.647C493.73 210.944 493.777 211.303 493.777 211.725V215.827H492.359V211.719C492.359 211.399 492.312 211.151 492.219 210.975C492.129 210.799 492 210.678 491.832 210.612C491.664 210.542 491.463 210.506 491.229 210.506C491.01 210.506 490.816 210.547 490.648 210.629C490.484 210.708 490.346 210.819 490.232 210.963C490.119 211.104 490.033 211.266 489.975 211.45C489.92 211.633 489.893 211.833 489.893 212.047ZM498.025 215.944C497.557 215.944 497.133 215.868 496.754 215.715C496.379 215.559 496.059 215.342 495.793 215.065C495.531 214.788 495.33 214.461 495.189 214.086C495.049 213.711 494.979 213.307 494.979 212.874V212.639C494.979 212.143 495.051 211.694 495.195 211.292C495.34 210.889 495.541 210.545 495.799 210.26C496.057 209.971 496.361 209.75 496.713 209.598C497.064 209.446 497.445 209.37 497.855 209.37C498.309 209.37 498.705 209.446 499.045 209.598C499.385 209.75 499.666 209.965 499.889 210.243C500.115 210.516 500.283 210.842 500.393 211.221C500.506 211.6 500.562 212.018 500.562 212.475V213.079H495.664V212.065H499.168V211.954C499.16 211.7 499.109 211.461 499.016 211.239C498.926 211.016 498.787 210.836 498.6 210.7C498.412 210.563 498.162 210.495 497.85 210.495C497.615 210.495 497.406 210.545 497.223 210.647C497.043 210.745 496.893 210.887 496.771 211.075C496.65 211.262 496.557 211.489 496.49 211.754C496.428 212.016 496.396 212.311 496.396 212.639V212.874C496.396 213.151 496.434 213.409 496.508 213.647C496.586 213.881 496.699 214.086 496.848 214.262C496.996 214.438 497.176 214.577 497.387 214.678C497.598 214.776 497.838 214.825 498.107 214.825C498.447 214.825 498.75 214.756 499.016 214.62C499.281 214.483 499.512 214.29 499.707 214.04L500.451 214.76C500.314 214.959 500.137 215.151 499.918 215.334C499.699 215.514 499.432 215.661 499.115 215.774C498.803 215.887 498.439 215.944 498.025 215.944ZM503.064 210.84V215.827H501.652V209.487H502.982L503.064 210.84ZM502.812 212.422L502.355 212.417C502.359 211.967 502.422 211.555 502.543 211.18C502.668 210.805 502.84 210.483 503.059 210.213C503.281 209.944 503.547 209.737 503.855 209.592C504.164 209.444 504.508 209.37 504.887 209.37C505.191 209.37 505.467 209.413 505.713 209.499C505.963 209.581 506.176 209.715 506.352 209.903C506.531 210.09 506.668 210.334 506.762 210.635C506.855 210.932 506.902 211.297 506.902 211.731V215.827H505.484V211.725C505.484 211.42 505.439 211.18 505.35 211.004C505.264 210.825 505.137 210.698 504.969 210.624C504.805 210.545 504.6 210.506 504.354 210.506C504.111 210.506 503.895 210.557 503.703 210.659C503.512 210.76 503.35 210.899 503.217 211.075C503.088 211.25 502.988 211.454 502.918 211.684C502.848 211.915 502.812 212.161 502.812 212.422ZM511.25 209.487V210.518H507.676V209.487H511.25ZM508.707 207.934H510.119V214.075C510.119 214.27 510.146 214.42 510.201 214.526C510.26 214.627 510.34 214.696 510.441 214.731C510.543 214.766 510.662 214.784 510.799 214.784C510.896 214.784 510.99 214.778 511.08 214.766C511.17 214.754 511.242 214.743 511.297 214.731L511.303 215.809C511.186 215.844 511.049 215.875 510.893 215.903C510.74 215.93 510.564 215.944 510.365 215.944C510.041 215.944 509.754 215.887 509.504 215.774C509.254 215.657 509.059 215.467 508.918 215.206C508.777 214.944 508.707 214.596 508.707 214.163V207.934Z" fill="black"/>
<path d="M445.106 134.641V137.102C445.106 138.169 444.993 139.09 444.765 139.865C444.537 140.633 444.208 141.265 443.778 141.76C443.355 142.248 442.851 142.609 442.265 142.844C441.679 143.078 441.028 143.195 440.312 143.195C439.739 143.195 439.205 143.124 438.71 142.98C438.215 142.831 437.769 142.6 437.372 142.287C436.981 141.975 436.643 141.581 436.356 141.105C436.076 140.624 435.862 140.051 435.712 139.387C435.562 138.723 435.487 137.961 435.487 137.102V134.641C435.487 133.573 435.601 132.658 435.829 131.896C436.063 131.128 436.392 130.5 436.815 130.012C437.245 129.523 437.753 129.165 438.339 128.938C438.925 128.703 439.576 128.586 440.292 128.586C440.865 128.586 441.396 128.661 441.884 128.811C442.379 128.954 442.825 129.178 443.222 129.484C443.619 129.79 443.957 130.184 444.237 130.666C444.517 131.141 444.732 131.711 444.882 132.375C445.032 133.033 445.106 133.788 445.106 134.641ZM442.284 137.473V134.26C442.284 133.745 442.255 133.296 442.196 132.912C442.144 132.528 442.063 132.202 441.952 131.936C441.841 131.662 441.705 131.441 441.542 131.271C441.379 131.102 441.194 130.979 440.985 130.9C440.777 130.822 440.546 130.783 440.292 130.783C439.973 130.783 439.69 130.845 439.442 130.969C439.201 131.092 438.996 131.291 438.827 131.564C438.658 131.831 438.528 132.189 438.437 132.639C438.352 133.081 438.31 133.622 438.31 134.26V137.473C438.31 137.987 438.336 138.439 438.388 138.83C438.446 139.221 438.531 139.556 438.642 139.836C438.759 140.109 438.896 140.334 439.052 140.51C439.215 140.679 439.4 140.803 439.608 140.881C439.823 140.959 440.058 140.998 440.312 140.998C440.624 140.998 440.901 140.936 441.142 140.812C441.389 140.682 441.597 140.48 441.767 140.207C441.942 139.927 442.073 139.562 442.157 139.113C442.242 138.664 442.284 138.117 442.284 137.473ZM453.876 128.752V143H451.063V131.994L447.685 133.068V130.852L453.573 128.752H453.876Z" fill="#151D48"/>
<path d="M613.61 136.805C613.61 109.851 591.759 88 564.805 88C537.851 88 516 109.851 516 136.805C516 163.759 537.851 185.61 564.805 185.61C591.759 185.61 613.61 163.759 613.61 136.805ZM525.581 136.805C525.581 115.142 543.142 97.5806 564.805 97.5806C586.468 97.5806 604.029 115.142 604.029 136.805C604.029 158.468 586.468 176.029 564.805 176.029C543.142 176.029 525.581 158.468 525.581 136.805Z" fill="#D1D1D1"/>
<path d="M521.775 127.548C519.188 126.991 517.52 124.433 518.327 121.914C520.881 113.943 525.451 106.736 531.629 101.01C537.807 95.284 545.341 91.2734 553.482 89.3316C556.055 88.7179 558.479 90.5755 558.838 93.1966C559.197 95.8178 557.351 98.2046 554.793 98.8799C548.599 100.515 542.875 103.649 538.142 108.037C533.408 112.424 529.849 117.893 527.749 123.945C526.881 126.444 524.361 128.104 521.775 127.548Z" fill="#747375"/>
<path d="M541.139 213.223H542.604C542.557 213.781 542.4 214.279 542.135 214.717C541.869 215.15 541.496 215.492 541.016 215.742C540.535 215.992 539.951 216.117 539.264 216.117C538.736 216.117 538.262 216.023 537.84 215.836C537.418 215.645 537.057 215.375 536.756 215.027C536.455 214.676 536.225 214.252 536.064 213.756C535.908 213.26 535.83 212.705 535.83 212.092V211.383C535.83 210.77 535.91 210.215 536.07 209.719C536.234 209.223 536.469 208.799 536.773 208.447C537.078 208.092 537.443 207.82 537.869 207.633C538.299 207.445 538.781 207.352 539.316 207.352C539.996 207.352 540.57 207.477 541.039 207.727C541.508 207.977 541.871 208.322 542.129 208.764C542.391 209.205 542.551 209.711 542.609 210.281H541.145C541.105 209.914 541.02 209.6 540.887 209.338C540.758 209.076 540.566 208.877 540.312 208.74C540.059 208.6 539.727 208.529 539.316 208.529C538.98 208.529 538.688 208.592 538.438 208.717C538.188 208.842 537.979 209.025 537.811 209.268C537.643 209.51 537.516 209.809 537.43 210.164C537.348 210.516 537.307 210.918 537.307 211.371V212.092C537.307 212.521 537.344 212.912 537.418 213.264C537.496 213.611 537.613 213.91 537.77 214.16C537.93 214.41 538.133 214.604 538.379 214.74C538.625 214.877 538.92 214.945 539.264 214.945C539.682 214.945 540.02 214.879 540.277 214.746C540.539 214.613 540.736 214.42 540.869 214.166C541.006 213.908 541.096 213.594 541.139 213.223ZM543.529 212.9V212.766C543.529 212.309 543.596 211.885 543.729 211.494C543.861 211.1 544.053 210.758 544.303 210.469C544.557 210.176 544.865 209.949 545.229 209.789C545.596 209.625 546.01 209.543 546.471 209.543C546.936 209.543 547.35 209.625 547.713 209.789C548.08 209.949 548.391 210.176 548.645 210.469C548.898 210.758 549.092 211.1 549.225 211.494C549.357 211.885 549.424 212.309 549.424 212.766V212.9C549.424 213.357 549.357 213.781 549.225 214.172C549.092 214.562 548.898 214.904 548.645 215.197C548.391 215.486 548.082 215.713 547.719 215.877C547.355 216.037 546.943 216.117 546.482 216.117C546.018 216.117 545.602 216.037 545.234 215.877C544.871 215.713 544.562 215.486 544.309 215.197C544.055 214.904 543.861 214.562 543.729 214.172C543.596 213.781 543.529 213.357 543.529 212.9ZM544.941 212.766V212.9C544.941 213.186 544.971 213.455 545.029 213.709C545.088 213.963 545.18 214.186 545.305 214.377C545.43 214.568 545.59 214.719 545.785 214.828C545.98 214.938 546.213 214.992 546.482 214.992C546.744 214.992 546.971 214.938 547.162 214.828C547.357 214.719 547.518 214.568 547.643 214.377C547.768 214.186 547.859 213.963 547.918 213.709C547.98 213.455 548.012 213.186 548.012 212.9V212.766C548.012 212.484 547.98 212.219 547.918 211.969C547.859 211.715 547.766 211.49 547.637 211.295C547.512 211.1 547.352 210.947 547.156 210.838C546.965 210.725 546.736 210.668 546.471 210.668C546.205 210.668 545.975 210.725 545.779 210.838C545.588 210.947 545.43 211.1 545.305 211.295C545.18 211.49 545.088 211.715 545.029 211.969C544.971 212.219 544.941 212.484 544.941 212.766ZM552.02 210.949V216H550.607V209.66H551.938L552.02 210.949ZM551.791 212.596L551.311 212.59C551.311 212.152 551.365 211.748 551.475 211.377C551.584 211.006 551.744 210.684 551.955 210.41C552.166 210.133 552.428 209.92 552.74 209.771C553.057 209.619 553.422 209.543 553.836 209.543C554.125 209.543 554.389 209.586 554.627 209.672C554.869 209.754 555.078 209.885 555.254 210.064C555.434 210.244 555.57 210.475 555.664 210.756C555.762 211.037 555.811 211.377 555.811 211.775V216H554.398V211.898C554.398 211.59 554.352 211.348 554.258 211.172C554.168 210.996 554.037 210.871 553.865 210.797C553.697 210.719 553.496 210.68 553.262 210.68C552.996 210.68 552.77 210.73 552.582 210.832C552.398 210.934 552.248 211.072 552.131 211.248C552.014 211.424 551.928 211.627 551.873 211.857C551.818 212.088 551.791 212.334 551.791 212.596ZM555.723 212.221L555.061 212.367C555.061 211.984 555.113 211.623 555.219 211.283C555.328 210.939 555.486 210.639 555.693 210.381C555.904 210.119 556.164 209.914 556.473 209.766C556.781 209.617 557.135 209.543 557.533 209.543C557.857 209.543 558.146 209.588 558.4 209.678C558.658 209.764 558.877 209.9 559.057 210.088C559.236 210.275 559.373 210.52 559.467 210.82C559.561 211.117 559.607 211.477 559.607 211.898V216H558.189V211.893C558.189 211.572 558.143 211.324 558.049 211.148C557.959 210.973 557.83 210.852 557.662 210.785C557.494 210.715 557.293 210.68 557.059 210.68C556.84 210.68 556.646 210.721 556.479 210.803C556.314 210.881 556.176 210.992 556.062 211.137C555.949 211.277 555.863 211.439 555.805 211.623C555.75 211.807 555.723 212.006 555.723 212.221ZM562.479 210.879V218.438H561.066V209.66H562.367L562.479 210.879ZM566.609 212.771V212.895C566.609 213.355 566.555 213.783 566.445 214.178C566.34 214.568 566.182 214.91 565.971 215.203C565.764 215.492 565.508 215.717 565.203 215.877C564.898 216.037 564.547 216.117 564.148 216.117C563.754 216.117 563.408 216.045 563.111 215.9C562.818 215.752 562.57 215.543 562.367 215.273C562.164 215.004 562 214.688 561.875 214.324C561.754 213.957 561.668 213.555 561.617 213.117V212.643C561.668 212.178 561.754 211.756 561.875 211.377C562 210.998 562.164 210.672 562.367 210.398C562.57 210.125 562.818 209.914 563.111 209.766C563.404 209.617 563.746 209.543 564.137 209.543C564.535 209.543 564.889 209.621 565.197 209.777C565.506 209.93 565.766 210.148 565.977 210.434C566.188 210.715 566.346 211.055 566.451 211.453C566.557 211.848 566.609 212.287 566.609 212.771ZM565.197 212.895V212.771C565.197 212.479 565.17 212.207 565.115 211.957C565.061 211.703 564.975 211.48 564.857 211.289C564.74 211.098 564.59 210.949 564.406 210.844C564.227 210.734 564.01 210.68 563.756 210.68C563.506 210.68 563.291 210.723 563.111 210.809C562.932 210.891 562.781 211.006 562.66 211.154C562.539 211.303 562.445 211.477 562.379 211.676C562.312 211.871 562.266 212.084 562.238 212.314V213.451C562.285 213.732 562.365 213.99 562.479 214.225C562.592 214.459 562.752 214.646 562.959 214.787C563.17 214.924 563.439 214.992 563.768 214.992C564.021 214.992 564.238 214.938 564.418 214.828C564.598 214.719 564.744 214.568 564.857 214.377C564.975 214.182 565.061 213.957 565.115 213.703C565.17 213.449 565.197 213.18 565.197 212.895ZM569.322 207V216H567.904V207H569.322ZM573.664 216.117C573.195 216.117 572.771 216.041 572.393 215.889C572.018 215.732 571.697 215.516 571.432 215.238C571.17 214.961 570.969 214.635 570.828 214.26C570.688 213.885 570.617 213.48 570.617 213.047V212.812C570.617 212.316 570.689 211.867 570.834 211.465C570.979 211.062 571.18 210.719 571.438 210.434C571.695 210.145 572 209.924 572.352 209.771C572.703 209.619 573.084 209.543 573.494 209.543C573.947 209.543 574.344 209.619 574.684 209.771C575.023 209.924 575.305 210.139 575.527 210.416C575.754 210.689 575.922 211.016 576.031 211.395C576.145 211.773 576.201 212.191 576.201 212.648V213.252H571.303V212.238H574.807V212.127C574.799 211.873 574.748 211.635 574.654 211.412C574.564 211.189 574.426 211.01 574.238 210.873C574.051 210.736 573.801 210.668 573.488 210.668C573.254 210.668 573.045 210.719 572.861 210.82C572.682 210.918 572.531 211.061 572.41 211.248C572.289 211.436 572.195 211.662 572.129 211.928C572.066 212.189 572.035 212.484 572.035 212.812V213.047C572.035 213.324 572.072 213.582 572.146 213.82C572.225 214.055 572.338 214.26 572.486 214.436C572.635 214.611 572.814 214.75 573.025 214.852C573.236 214.949 573.477 214.998 573.746 214.998C574.086 214.998 574.389 214.93 574.654 214.793C574.92 214.656 575.15 214.463 575.346 214.213L576.09 214.934C575.953 215.133 575.775 215.324 575.557 215.508C575.338 215.688 575.07 215.834 574.754 215.947C574.441 216.061 574.078 216.117 573.664 216.117ZM580.209 209.66V210.691H576.635V209.66H580.209ZM577.666 208.107H579.078V214.248C579.078 214.443 579.105 214.594 579.16 214.699C579.219 214.801 579.299 214.869 579.4 214.904C579.502 214.939 579.621 214.957 579.758 214.957C579.855 214.957 579.949 214.951 580.039 214.939C580.129 214.928 580.201 214.916 580.256 214.904L580.262 215.982C580.145 216.018 580.008 216.049 579.852 216.076C579.699 216.104 579.523 216.117 579.324 216.117C579 216.117 578.713 216.061 578.463 215.947C578.213 215.83 578.018 215.641 577.877 215.379C577.736 215.117 577.666 214.77 577.666 214.336V208.107ZM584.094 216.117C583.625 216.117 583.201 216.041 582.822 215.889C582.447 215.732 582.127 215.516 581.861 215.238C581.6 214.961 581.398 214.635 581.258 214.26C581.117 213.885 581.047 213.48 581.047 213.047V212.812C581.047 212.316 581.119 211.867 581.264 211.465C581.408 211.062 581.609 210.719 581.867 210.434C582.125 210.145 582.43 209.924 582.781 209.771C583.133 209.619 583.514 209.543 583.924 209.543C584.377 209.543 584.773 209.619 585.113 209.771C585.453 209.924 585.734 210.139 585.957 210.416C586.184 210.689 586.352 211.016 586.461 211.395C586.574 211.773 586.631 212.191 586.631 212.648V213.252H581.732V212.238H585.236V212.127C585.229 211.873 585.178 211.635 585.084 211.412C584.994 211.189 584.855 211.01 584.668 210.873C584.48 210.736 584.23 210.668 583.918 210.668C583.684 210.668 583.475 210.719 583.291 210.82C583.111 210.918 582.961 211.061 582.84 211.248C582.719 211.436 582.625 211.662 582.559 211.928C582.496 212.189 582.465 212.484 582.465 212.812V213.047C582.465 213.324 582.502 213.582 582.576 213.82C582.654 214.055 582.768 214.26 582.916 214.436C583.064 214.611 583.244 214.75 583.455 214.852C583.666 214.949 583.906 214.998 584.176 214.998C584.516 214.998 584.818 214.93 585.084 214.793C585.35 214.656 585.58 214.463 585.775 214.213L586.52 214.934C586.383 215.133 586.205 215.324 585.986 215.508C585.768 215.688 585.5 215.834 585.184 215.947C584.871 216.061 584.508 216.117 584.094 216.117ZM591.6 214.688V207H593.018V216H591.734L591.6 214.688ZM587.475 212.9V212.777C587.475 212.297 587.531 211.859 587.645 211.465C587.758 211.066 587.922 210.725 588.137 210.439C588.352 210.15 588.613 209.93 588.922 209.777C589.23 209.621 589.578 209.543 589.965 209.543C590.348 209.543 590.684 209.617 590.973 209.766C591.262 209.914 591.508 210.127 591.711 210.404C591.914 210.678 592.076 211.006 592.197 211.389C592.318 211.768 592.404 212.189 592.455 212.654V213.047C592.404 213.5 592.318 213.914 592.197 214.289C592.076 214.664 591.914 214.988 591.711 215.262C591.508 215.535 591.26 215.746 590.967 215.895C590.678 216.043 590.34 216.117 589.953 216.117C589.57 216.117 589.225 216.037 588.916 215.877C588.611 215.717 588.352 215.492 588.137 215.203C587.922 214.914 587.758 214.574 587.645 214.184C587.531 213.789 587.475 213.361 587.475 212.9ZM588.887 212.777V212.9C588.887 213.189 588.912 213.459 588.963 213.709C589.018 213.959 589.102 214.18 589.215 214.371C589.328 214.559 589.475 214.707 589.654 214.816C589.838 214.922 590.057 214.975 590.311 214.975C590.631 214.975 590.895 214.904 591.102 214.764C591.309 214.623 591.471 214.434 591.588 214.195C591.709 213.953 591.791 213.684 591.834 213.387V212.326C591.811 212.096 591.762 211.881 591.688 211.682C591.617 211.482 591.521 211.309 591.4 211.16C591.279 211.008 591.129 210.891 590.949 210.809C590.773 210.723 590.564 210.68 590.322 210.68C590.064 210.68 589.846 210.734 589.666 210.844C589.486 210.953 589.338 211.104 589.221 211.295C589.107 211.486 589.023 211.709 588.969 211.963C588.914 212.217 588.887 212.488 588.887 212.777Z" fill="black"/>
<path d="M562.954 134.641V137.102C562.954 138.169 562.84 139.09 562.612 139.865C562.384 140.633 562.056 141.265 561.626 141.76C561.203 142.248 560.698 142.609 560.112 142.844C559.526 143.078 558.875 143.195 558.159 143.195C557.586 143.195 557.052 143.124 556.558 142.98C556.063 142.831 555.617 142.6 555.22 142.287C554.829 141.975 554.491 141.581 554.204 141.105C553.924 140.624 553.709 140.051 553.56 139.387C553.41 138.723 553.335 137.961 553.335 137.102V134.641C553.335 133.573 553.449 132.658 553.677 131.896C553.911 131.128 554.24 130.5 554.663 130.012C555.093 129.523 555.601 129.165 556.187 128.938C556.772 128.703 557.424 128.586 558.14 128.586C558.713 128.586 559.243 128.661 559.731 128.811C560.226 128.954 560.672 129.178 561.069 129.484C561.466 129.79 561.805 130.184 562.085 130.666C562.365 131.141 562.58 131.711 562.729 132.375C562.879 133.033 562.954 133.788 562.954 134.641ZM560.132 137.473V134.26C560.132 133.745 560.103 133.296 560.044 132.912C559.992 132.528 559.91 132.202 559.8 131.936C559.689 131.662 559.552 131.441 559.39 131.271C559.227 131.102 559.041 130.979 558.833 130.9C558.625 130.822 558.394 130.783 558.14 130.783C557.821 130.783 557.537 130.845 557.29 130.969C557.049 131.092 556.844 131.291 556.675 131.564C556.506 131.831 556.375 132.189 556.284 132.639C556.2 133.081 556.157 133.622 556.157 134.26V137.473C556.157 137.987 556.183 138.439 556.235 138.83C556.294 139.221 556.379 139.556 556.489 139.836C556.606 140.109 556.743 140.334 556.899 140.51C557.062 140.679 557.248 140.803 557.456 140.881C557.671 140.959 557.905 140.998 558.159 140.998C558.472 140.998 558.748 140.936 558.989 140.812C559.237 140.682 559.445 140.48 559.614 140.207C559.79 139.927 559.92 139.562 560.005 139.113C560.09 138.664 560.132 138.117 560.132 137.473ZM571.724 128.752V143H568.911V131.994L565.532 133.068V130.852L571.421 128.752H571.724Z" fill="#151D48"/>
</g>
<defs>
<filter id="filter0_d_1265_25331" x="0" y="0" width="675" height="263" filterUnits="userSpaceOnUse" color-interpolation-filters="sRGB">
<feFlood flood-opacity="0" result="BackgroundImageFix"/>
<feColorMatrix in="SourceAlpha" type="matrix" values="0 0 0 0 0 0 0 0 0 0 0 0 0 0 0 0 0 0 127 0" result="hardAlpha"/>
<feOffset dy="4"/>
<feGaussianBlur stdDeviation="10"/>
<feColorMatrix type="matrix" values="0 0 0 0 0.93198 0 0 0 0 0.93198 0 0 0 0 0.93198 0 0 0 0.501967 0"/>
<feBlend mode="normal" in2="BackgroundImageFix" result="effect1_dropShadow_1265_25331"/>
<feBlend mode="normal" in="SourceGraphic" in2="effect1_dropShadow_1265_25331" result="shape"/>
</filter>
</defs>
</svg>
