<svg width="48" height="40" viewBox="0 0 48 40" fill="none" xmlns="http://www.w3.org/2000/svg">
<path d="M32.0087 27.9975L24.0087 19.9975M24.0087 19.9975L16.0087 27.9975M24.0087 19.9975V37.9975M40.7887 32.7775C42.7394 31.7141 44.2804 30.0313 45.1685 27.9948C46.0565 25.9583 46.2411 23.684 45.6931 21.5309C45.1451 19.3778 43.8957 17.4685 42.1421 16.1044C40.3884 14.7403 38.2304 13.999 36.0087 13.9975H33.4887C32.8833 11.656 31.755 9.4822 30.1886 7.63951C28.6222 5.79683 26.6584 4.33323 24.4449 3.35874C22.2314 2.38426 19.8258 1.92424 17.4089 2.01329C14.9921 2.10234 12.6268 2.73813 10.4911 3.87286C8.35528 5.00759 6.50453 6.61173 5.07795 8.56469C3.65137 10.5176 2.68609 12.7686 2.25467 15.1483C1.82325 17.528 1.93692 19.9746 2.58714 22.304C3.23735 24.6335 4.40719 26.7853 6.00871 28.5975" stroke="#1E1E1E" stroke-width="4" stroke-linecap="round" stroke-linejoin="round"/>
</svg>
