<svg width="569" height="262" viewBox="0 0 569 262" fill="none" xmlns="http://www.w3.org/2000/svg">
<path d="M253.737 121.692C252.151 100.453 245.08 79.9891 233.214 62.3025C221.348 44.6159 205.095 30.3122 186.043 20.7909C166.992 11.2696 145.795 6.85674 124.527 7.98397C103.259 9.1112 82.6472 15.74 64.709 27.2217" stroke="#AAAAAA" stroke-width="14.4752" stroke-linecap="round" stroke-dasharray="43.43 43.43"/>
<path d="M69.0476 24.5694C49.4755 35.9854 33.4358 52.5843 22.6969 72.5359C11.958 92.4876 6.93704 115.017 8.18752 137.641C9.43799 160.264 16.9114 182.103 29.7837 200.75C42.656 219.397 60.4273 234.127 81.1384 243.316C101.849 252.506 124.696 255.797 147.159 252.829C169.622 249.86 190.829 240.747 208.441 226.493C226.054 212.239 239.389 193.398 246.976 172.048C254.563 150.697 256.106 127.667 251.437 105.495" stroke="#3CD856" stroke-width="14.4752" stroke-linecap="round"/>
<path d="M73.1377 138.087L100.93 103.45L147.251 128.782L184.307 72.9492M184.307 72.9492L188.939 100.866M184.307 72.9492L156.515 77.602" stroke="#3CD856" stroke-width="7.23759" stroke-linecap="round" stroke-linejoin="round"/>
<path d="M104.591 170.163V174.39H102.414V170.163H104.591ZM104.323 193.247V197.035H102.16V193.247H104.323ZM106.457 188.681C106.457 188.134 106.344 187.659 106.118 187.253C105.901 186.839 105.543 186.466 105.044 186.137C104.544 185.797 103.875 185.482 103.036 185.189C101.83 184.765 100.775 184.29 99.8698 183.762C98.9745 183.225 98.2772 182.565 97.7777 181.783C97.2877 180.991 97.0426 180.006 97.0426 178.828C97.0426 177.669 97.3065 176.666 97.8342 175.817C98.3714 174.969 99.1159 174.314 100.068 173.852C101.02 173.391 102.132 173.16 103.404 173.16C104.384 173.16 105.265 173.306 106.047 173.598C106.839 173.89 107.513 174.319 108.069 174.884C108.625 175.45 109.049 176.147 109.341 176.977C109.642 177.796 109.793 178.739 109.793 179.804H106.401C106.401 179.201 106.33 178.663 106.189 178.192C106.057 177.712 105.859 177.306 105.595 176.977C105.331 176.637 105.011 176.378 104.634 176.199C104.266 176.02 103.847 175.93 103.376 175.93C102.706 175.93 102.155 176.058 101.722 176.312C101.288 176.557 100.968 176.896 100.76 177.33C100.562 177.763 100.464 178.258 100.464 178.814C100.464 179.351 100.567 179.823 100.775 180.228C100.982 180.633 101.335 181.001 101.835 181.33C102.344 181.651 103.041 181.976 103.927 182.306C105.143 182.739 106.193 183.225 107.079 183.762C107.974 184.29 108.662 184.944 109.143 185.727C109.633 186.499 109.878 187.475 109.878 188.653C109.878 189.868 109.595 190.9 109.03 191.749C108.474 192.597 107.692 193.242 106.683 193.685C105.684 194.119 104.521 194.335 103.192 194.335C102.353 194.335 101.519 194.227 100.69 194.01C99.8698 193.784 99.1253 193.417 98.4562 192.908C97.7871 192.399 97.2547 191.725 96.8589 190.886C96.4631 190.038 96.2652 189.001 96.2652 187.776H99.686C99.686 188.511 99.785 189.124 99.9829 189.614C100.181 190.104 100.449 190.49 100.789 190.773C101.128 191.056 101.505 191.259 101.92 191.381C102.344 191.504 102.768 191.565 103.192 191.565C103.899 191.565 104.492 191.447 104.973 191.211C105.463 190.966 105.83 190.627 106.075 190.194C106.33 189.751 106.457 189.247 106.457 188.681ZM126.657 191.324V194.039H112.861V191.706L119.561 184.398C120.296 183.569 120.876 182.852 121.3 182.249C121.724 181.646 122.021 181.104 122.19 180.624C122.369 180.134 122.459 179.658 122.459 179.196C122.459 178.546 122.336 177.975 122.091 177.485C121.856 176.986 121.507 176.595 121.045 176.312C120.584 176.02 120.023 175.874 119.363 175.874C118.6 175.874 117.959 176.039 117.441 176.369C116.922 176.699 116.531 177.156 116.267 177.74C116.004 178.315 115.872 178.974 115.872 179.719H112.465C112.465 178.522 112.738 177.429 113.285 176.439C113.831 175.44 114.623 174.649 115.66 174.065C116.696 173.471 117.945 173.174 119.406 173.174C120.782 173.174 121.95 173.405 122.911 173.867C123.873 174.328 124.603 174.983 125.102 175.832C125.611 176.68 125.866 177.683 125.866 178.842C125.866 179.483 125.762 180.119 125.555 180.751C125.347 181.382 125.051 182.014 124.664 182.645C124.287 183.267 123.84 183.894 123.321 184.525C122.803 185.147 122.233 185.778 121.611 186.419L117.158 191.324H126.657ZM143.493 186.702V189.416H128.651L128.537 187.366L137.415 173.457H140.143L137.189 178.517L132.086 186.702H143.493ZM140.92 173.457V194.039H137.514V173.457H140.92ZM149.345 184.469L146.631 183.804L147.748 173.457H158.845V176.34H150.575L150.01 181.387C150.33 181.198 150.773 181.015 151.339 180.836C151.904 180.647 152.55 180.553 153.275 180.553C154.246 180.553 155.113 180.713 155.876 181.034C156.649 181.345 157.304 181.802 157.841 182.405C158.378 182.998 158.788 183.724 159.071 184.582C159.354 185.43 159.495 186.386 159.495 187.451C159.495 188.403 159.354 189.294 159.071 190.123C158.798 190.952 158.383 191.683 157.827 192.314C157.271 192.945 156.569 193.44 155.721 193.798C154.882 194.147 153.888 194.321 152.738 194.321C151.881 194.321 151.056 194.199 150.264 193.954C149.482 193.699 148.78 193.327 148.158 192.837C147.536 192.338 147.037 191.725 146.66 190.999C146.283 190.264 146.066 189.421 146.009 188.469H149.345C149.43 189.138 149.614 189.708 149.897 190.179C150.189 190.641 150.575 190.995 151.056 191.24C151.537 191.485 152.093 191.607 152.724 191.607C153.299 191.607 153.794 191.508 154.208 191.31C154.623 191.103 154.967 190.811 155.24 190.434C155.523 190.048 155.73 189.595 155.862 189.077C156.004 188.559 156.074 187.984 156.074 187.352C156.074 186.749 155.994 186.198 155.834 185.698C155.683 185.199 155.452 184.765 155.141 184.398C154.84 184.03 154.458 183.748 153.996 183.55C153.534 183.342 153.002 183.239 152.399 183.239C151.588 183.239 150.966 183.357 150.533 183.592C150.109 183.828 149.713 184.12 149.345 184.469Z" fill="#3CD856"/>
<path d="M482.542 245.529C498.882 239.177 513.675 229.406 525.932 216.872C538.189 204.337 547.625 189.328 553.61 172.85C559.594 156.371 561.988 138.805 560.631 121.326C559.274 103.847 554.197 86.8607 545.741 71.5036C537.285 56.1466 525.645 42.7739 511.6 32.2814C497.555 21.789 481.431 14.419 464.306 10.6652C447.182 6.91135 429.452 6.86042 412.307 10.5158C395.161 14.1711 378.994 21.4484 364.889 31.86" stroke="#AAAAAA" stroke-width="14.4752" stroke-linecap="round" stroke-dasharray="43.43 43.43"/>
<path d="M375.97 24.5694C349.108 40.2369 329.176 65.4941 320.181 95.2612C311.187 125.028 313.797 157.097 327.487 185.018C341.177 212.939 364.931 234.64 393.973 245.758C423.014 256.875 455.187 256.584 484.022 244.942" stroke="#209BC3" stroke-width="14.4752" stroke-linecap="round"/>
<path d="M380.059 138.087L407.851 103.45L454.171 128.782L491.228 72.9492M491.228 72.9492L495.86 100.866M491.228 72.9492L463.436 77.602" stroke="#209BC3" stroke-width="7.23759" stroke-linecap="round" stroke-linejoin="round"/>
<path d="M411.511 170.163V174.39H409.334V170.163H411.511ZM411.243 193.247V197.035H409.08V193.247H411.243ZM413.377 188.681C413.377 188.134 413.264 187.659 413.038 187.253C412.821 186.839 412.463 186.466 411.963 186.137C411.464 185.797 410.795 185.482 409.956 185.189C408.75 184.765 407.694 184.29 406.79 183.762C405.894 183.225 405.197 182.565 404.698 181.783C404.208 180.991 403.963 180.006 403.963 178.828C403.963 177.669 404.226 176.666 404.754 175.817C405.291 174.969 406.036 174.314 406.988 173.852C407.939 173.391 409.051 173.16 410.324 173.16C411.304 173.16 412.185 173.306 412.967 173.598C413.759 173.89 414.433 174.319 414.989 174.884C415.545 175.45 415.969 176.147 416.261 176.977C416.562 177.796 416.713 178.739 416.713 179.804H413.321C413.321 179.201 413.25 178.663 413.108 178.192C412.977 177.712 412.779 177.306 412.515 176.977C412.251 176.637 411.93 176.378 411.554 176.199C411.186 176.02 410.767 175.93 410.295 175.93C409.626 175.93 409.075 176.058 408.642 176.312C408.208 176.557 407.888 176.896 407.68 177.33C407.482 177.763 407.383 178.258 407.383 178.814C407.383 179.351 407.487 179.823 407.694 180.228C407.902 180.633 408.255 181.001 408.755 181.33C409.264 181.651 409.961 181.976 410.847 182.306C412.062 182.739 413.113 183.225 413.999 183.762C414.894 184.29 415.582 184.944 416.063 185.727C416.553 186.499 416.798 187.475 416.798 188.653C416.798 189.868 416.515 190.9 415.95 191.749C415.394 192.597 414.612 193.242 413.603 193.685C412.604 194.119 411.44 194.335 410.112 194.335C409.273 194.335 408.439 194.227 407.61 194.01C406.79 193.784 406.045 193.417 405.376 192.908C404.707 192.399 404.175 191.725 403.779 190.886C403.383 190.038 403.185 189.001 403.185 187.776H406.606C406.606 188.511 406.705 189.124 406.903 189.614C407.101 190.104 407.369 190.49 407.709 190.773C408.048 191.056 408.425 191.259 408.839 191.381C409.264 191.504 409.688 191.565 410.112 191.565C410.818 191.565 411.412 191.447 411.893 191.211C412.383 190.966 412.75 190.627 412.995 190.194C413.25 189.751 413.377 189.247 413.377 188.681ZM429.082 173.386V194.039H425.675V177.429L420.629 179.139V176.326L428.672 173.386H429.082ZM449.65 182.023V185.387C449.65 186.999 449.49 188.375 449.169 189.515C448.858 190.646 448.406 191.565 447.812 192.272C447.218 192.978 446.507 193.497 445.678 193.827C444.858 194.156 443.939 194.321 442.921 194.321C442.111 194.321 441.357 194.218 440.659 194.01C439.971 193.803 439.349 193.478 438.793 193.035C438.237 192.592 437.762 192.022 437.366 191.324C436.979 190.618 436.678 189.774 436.461 188.794C436.254 187.814 436.15 186.678 436.15 185.387V182.023C436.15 180.402 436.31 179.036 436.631 177.924C436.951 176.802 437.408 175.893 438.002 175.195C438.596 174.489 439.302 173.975 440.122 173.655C440.952 173.334 441.875 173.174 442.893 173.174C443.713 173.174 444.467 173.278 445.155 173.485C445.852 173.683 446.474 173.999 447.021 174.432C447.577 174.866 448.048 175.431 448.434 176.128C448.83 176.816 449.131 177.65 449.339 178.63C449.546 179.601 449.65 180.732 449.65 182.023ZM446.243 185.868V181.514C446.243 180.694 446.196 179.973 446.102 179.351C446.007 178.72 445.866 178.188 445.678 177.754C445.499 177.311 445.272 176.953 444.999 176.68C444.726 176.397 444.415 176.194 444.066 176.072C443.717 175.94 443.326 175.874 442.893 175.874C442.365 175.874 441.894 175.978 441.479 176.185C441.065 176.383 440.716 176.703 440.433 177.146C440.15 177.589 439.934 178.173 439.783 178.899C439.642 179.615 439.571 180.487 439.571 181.514V185.868C439.571 186.697 439.618 187.428 439.712 188.059C439.807 188.69 439.948 189.232 440.136 189.685C440.325 190.128 440.551 190.495 440.815 190.787C441.088 191.07 441.399 191.277 441.748 191.409C442.106 191.541 442.497 191.607 442.921 191.607C443.458 191.607 443.934 191.504 444.349 191.296C444.763 191.089 445.112 190.759 445.395 190.307C445.678 189.845 445.89 189.247 446.031 188.511C446.172 187.776 446.243 186.895 446.243 185.868ZM461.99 173.386V194.039H458.584V177.429L453.537 179.139V176.326L461.581 173.386H461.99Z" fill="#209BC3"/>
<path d="M442.933 82.0536L442.691 91.4201H440.608L440.355 82.0536H442.933ZM440.284 94.293C440.284 93.9586 440.406 93.6789 440.648 93.4539C440.898 93.2229 441.241 93.1074 441.679 93.1074C442.111 93.1074 442.451 93.2229 442.701 93.4539C442.95 93.6789 443.075 93.9586 443.075 94.293C443.075 94.6153 442.95 94.8919 442.701 95.123C442.451 95.3479 442.111 95.4604 441.679 95.4604C441.241 95.4604 440.898 95.3479 440.648 95.123C440.406 94.8919 440.284 94.6153 440.284 94.293Z" fill="#AAAAAA"/>
<path d="M439.34 73.9322C440.548 72.5281 443.019 72.6281 444.047 74.2331L459.289 98.0462L459.465 98.3746C460.208 100.02 458.875 101.9 456.822 101.9H426.338C424.146 101.9 422.775 99.7584 423.871 98.0462L439.113 74.2331L439.34 73.9322ZM441.802 75.4005C441.702 75.2449 441.457 75.2449 441.357 75.4005L426.115 99.2136C426.016 99.3693 426.139 99.5648 426.338 99.5648H456.822C456.97 99.5648 457.076 99.4564 457.079 99.3368L457.044 99.2136L441.802 75.4005Z" fill="#AAAAAA"/>
</svg>
