<svg width="285" height="131" viewBox="0 0 285 131" fill="none" xmlns="http://www.w3.org/2000/svg">
<path d="M126.829 60.9222C126.037 50.306 122.502 40.0773 116.571 31.2368C110.64 22.3963 102.516 15.2468 92.9935 10.4877C83.4708 5.72851 72.8758 3.52276 62.245 4.0862C51.6143 4.64963 41.3118 7.96296 32.3455 13.702" stroke="#AAAAAA" stroke-width="7.23529" stroke-linecap="round" stroke-dasharray="21.71 21.71"/>
<path d="M34.5141 12.3763C24.7312 18.0825 16.7139 26.3793 11.3461 36.352C5.97839 46.3246 3.46869 57.5859 4.09373 68.8941C4.71877 80.2023 8.45427 91.1184 14.8884 100.439C21.3225 109.759 30.2054 117.122 40.5576 121.715C50.9099 126.308 62.3294 127.954 73.5573 126.47C84.7852 124.986 95.3853 120.431 104.189 113.306C112.993 106.181 119.658 96.7638 123.45 86.0921C127.242 75.4203 128.014 63.9086 125.68 52.8262" stroke="#3CD856" stroke-width="7.23529" stroke-linecap="round"/>
<path d="M36.5586 69.1174L50.4504 51.8044L73.6033 64.4662L92.1257 36.5586M92.1257 36.5586L94.4409 50.5124M92.1257 36.5586L78.2339 38.8842" stroke="#3CD856" stroke-width="3.61765" stroke-linecap="round" stroke-linejoin="round"/>
<path d="M52.2804 84.6544V86.767H51.1923V84.6544H52.2804ZM52.1461 96.1927V98.0863H51.0651V96.1927H52.1461ZM53.2131 93.9105C53.2131 93.6373 53.1565 93.3994 53.0435 93.1968C52.9351 92.9896 52.7561 92.8035 52.5065 92.6386C52.2568 92.4691 51.9224 92.3113 51.5032 92.1652C50.9002 91.9533 50.3726 91.7154 49.9204 91.4516C49.4729 91.1831 49.1244 90.8534 48.8747 90.4624C48.6298 90.0667 48.5073 89.5745 48.5073 88.9857C48.5073 88.4063 48.6392 87.9046 48.903 87.4807C49.1715 87.0567 49.5436 86.7293 50.0194 86.4985C50.4951 86.2677 51.051 86.1523 51.6869 86.1523C52.1768 86.1523 52.6172 86.2253 53.0082 86.3714C53.4038 86.5174 53.7406 86.7317 54.0186 87.0143C54.2965 87.297 54.5084 87.6455 54.6545 88.0601C54.8052 88.4699 54.8806 88.9409 54.8806 89.4732H53.1848C53.1848 89.1717 53.1495 88.9032 53.0788 88.6677C53.0129 88.4275 52.9139 88.2249 52.7821 88.0601C52.6502 87.8905 52.49 87.7609 52.3016 87.6714C52.1179 87.5819 51.9083 87.5372 51.6727 87.5372C51.3383 87.5372 51.0627 87.6008 50.846 87.728C50.6294 87.8504 50.4692 88.02 50.3656 88.2367C50.2667 88.4534 50.2172 88.7007 50.2172 88.9786C50.2172 89.2471 50.269 89.4826 50.3726 89.6852C50.4763 89.8877 50.6529 90.0714 50.9026 90.2363C51.1569 90.3965 51.5055 90.559 51.9483 90.7238C52.556 90.9405 53.0812 91.1831 53.524 91.4516C53.9714 91.7154 54.3153 92.0428 54.5555 92.4337C54.8005 92.82 54.923 93.3075 54.923 93.8963C54.923 94.504 54.7817 95.0198 54.499 95.4437C54.2211 95.8677 53.8301 96.1903 53.3261 96.4117C52.8268 96.6284 52.2451 96.7368 51.5809 96.7368C51.1616 96.7368 50.7448 96.6826 50.3303 96.5742C49.9204 96.4612 49.5483 96.2775 49.2139 96.0231C48.8794 95.7688 48.6133 95.432 48.4154 95.0127C48.2176 94.5888 48.1187 94.0706 48.1187 93.4583H49.8286C49.8286 93.8257 49.878 94.1319 49.977 94.3768C50.0759 94.6218 50.2101 94.8149 50.3797 94.9562C50.5493 95.0975 50.7377 95.1988 50.945 95.26C51.1569 95.3213 51.3689 95.3519 51.5809 95.3519C51.9342 95.3519 52.2309 95.293 52.4712 95.1752C52.7161 95.0528 52.8998 94.8832 53.0223 94.6665C53.1495 94.4451 53.2131 94.1931 53.2131 93.9105ZM63.31 95.2318V96.5884H56.4138V95.4225L59.763 91.7696C60.1304 91.355 60.4201 90.997 60.6321 90.6956C60.844 90.3941 60.9924 90.1232 61.0772 89.883C61.1667 89.6381 61.2115 89.4002 61.2115 89.1694C61.2115 88.8444 61.1502 88.5594 61.0277 88.3144C60.91 88.0648 60.7357 87.8693 60.5049 87.728C60.2741 87.5819 59.9938 87.5089 59.6641 87.5089C59.2825 87.5089 58.9622 87.5914 58.7031 87.7562C58.444 87.9211 58.2486 88.1496 58.1167 88.4416C57.9848 88.7289 57.9188 89.0587 57.9188 89.4308H56.216C56.216 88.8326 56.3526 88.2862 56.6258 87.7916C56.899 87.2923 57.2947 86.8966 57.8128 86.6045C58.331 86.3078 58.9551 86.1594 59.6853 86.1594C60.373 86.1594 60.9571 86.2748 61.4376 86.5056C61.918 86.7364 62.2831 87.0638 62.5327 87.4877C62.7871 87.9117 62.9143 88.4133 62.9143 88.9927C62.9143 89.313 62.8625 89.631 62.7588 89.9466C62.6552 90.2622 62.5068 90.5778 62.3137 90.8934C62.1253 91.2043 61.9015 91.5175 61.6425 91.8332C61.3834 92.144 61.0984 92.4596 60.7875 92.78L58.5618 95.2318H63.31ZM71.7252 92.9213V94.2779H64.3062L64.2497 93.2534L68.687 86.3007H70.0507L68.5739 88.8302L66.0232 92.9213H71.7252ZM70.4393 86.3007V96.5884H68.7364V86.3007H70.4393ZM74.6504 91.8049L73.2938 91.4728L73.852 86.3007H79.3986V87.7421H75.2652L74.9825 90.2646C75.1427 90.1704 75.3641 90.0785 75.6467 89.989C75.9293 89.8948 76.252 89.8477 76.6147 89.8477C77.0999 89.8477 77.5333 89.9278 77.9148 90.0879C78.3011 90.2434 78.6284 90.4718 78.8969 90.7733C79.1654 91.0701 79.3703 91.4328 79.5117 91.8614C79.653 92.2854 79.7236 92.7635 79.7236 93.2958C79.7236 93.7715 79.653 94.2167 79.5117 94.6312C79.3751 95.0457 79.1678 95.4108 78.8899 95.7264C78.612 96.042 78.261 96.2893 77.8371 96.4683C77.4179 96.6425 76.9209 96.7297 76.3462 96.7297C75.9176 96.7297 75.5054 96.6685 75.1097 96.546C74.7187 96.4188 74.3678 96.2327 74.0569 95.9878C73.746 95.7381 73.4964 95.432 73.308 95.0692C73.1195 94.7018 73.0112 94.2802 72.9829 93.8045H74.6504C74.6928 94.1389 74.7847 94.4239 74.926 94.6594C75.072 94.8903 75.2652 95.0669 75.5054 95.1894C75.7456 95.3118 76.0235 95.3731 76.3392 95.3731C76.6265 95.3731 76.8738 95.3236 77.0811 95.2247C77.2883 95.1211 77.4602 94.975 77.5968 94.7866C77.7382 94.5935 77.8418 94.3674 77.9077 94.1083C77.9784 93.8492 78.0137 93.5619 78.0137 93.2463C78.0137 92.9448 77.9737 92.6693 77.8936 92.4196C77.8182 92.17 77.7028 91.9533 77.5474 91.7696C77.3967 91.5859 77.2059 91.4445 76.9751 91.3456C76.7443 91.242 76.4781 91.1902 76.1766 91.1902C75.7715 91.1902 75.4606 91.2491 75.244 91.3668C75.032 91.4846 74.8342 91.6306 74.6504 91.8049Z" fill="#3CD856"/>
<path d="M241.195 122.821C249.363 119.646 256.757 114.762 262.884 108.497C269.01 102.232 273.727 94.7294 276.718 86.4929C279.709 78.2564 280.906 69.4758 280.228 60.7393C279.549 52.0028 277.012 43.5121 272.785 35.836C268.558 28.1599 262.74 21.4757 255.72 16.2311C248.7 10.9865 240.64 7.30267 232.081 5.42637C223.521 3.55006 214.659 3.5246 206.089 5.3517C197.519 7.17879 189.438 10.8163 182.388 16.0204" stroke="#AAAAAA" stroke-width="7.23529" stroke-linecap="round" stroke-dasharray="21.71 21.71"/>
<path d="M187.926 12.3763C174.5 20.2075 164.537 32.8322 160.041 47.711C155.545 62.5898 156.85 78.6192 163.693 92.5751C170.536 106.531 182.409 117.378 196.925 122.935C211.441 128.492 227.523 128.347 241.936 122.528" stroke="#209BC3" stroke-width="7.23529" stroke-linecap="round"/>
<path d="M189.971 69.1174L203.862 51.8044L227.015 64.4662L245.538 36.5586M245.538 36.5586L247.853 50.5124M245.538 36.5586L231.646 38.8842" stroke="#209BC3" stroke-width="3.61765" stroke-linecap="round" stroke-linejoin="round"/>
<path d="M205.692 84.6544V86.767H204.603V84.6544H205.692ZM205.557 96.1927V98.0863H204.476V96.1927H205.557ZM206.624 93.9105C206.624 93.6373 206.568 93.3994 206.455 93.1968C206.346 92.9896 206.167 92.8035 205.918 92.6386C205.668 92.4691 205.334 92.3113 204.914 92.1652C204.311 91.9533 203.784 91.7154 203.332 91.4516C202.884 91.1831 202.536 90.8534 202.286 90.4624C202.041 90.0667 201.918 89.5745 201.918 88.9857C201.918 88.4063 202.05 87.9046 202.314 87.4807C202.583 87.0567 202.955 86.7293 203.43 86.4985C203.906 86.2677 204.462 86.1523 205.098 86.1523C205.588 86.1523 206.028 86.2253 206.419 86.3714C206.815 86.5174 207.152 86.7317 207.43 87.0143C207.708 87.297 207.92 87.6455 208.066 88.0601C208.216 88.4699 208.292 88.9409 208.292 89.4732H206.596C206.596 89.1717 206.561 88.9032 206.49 88.6677C206.424 88.4275 206.325 88.2249 206.193 88.0601C206.061 87.8905 205.901 87.7609 205.713 87.6714C205.529 87.5819 205.319 87.5372 205.084 87.5372C204.749 87.5372 204.474 87.6008 204.257 87.728C204.04 87.8504 203.88 88.02 203.777 88.2367C203.678 88.4534 203.628 88.7007 203.628 88.9786C203.628 89.2471 203.68 89.4826 203.784 89.6852C203.887 89.8877 204.064 90.0714 204.314 90.2363C204.568 90.3965 204.917 90.559 205.359 90.7238C205.967 90.9405 206.492 91.1831 206.935 91.4516C207.383 91.7154 207.726 92.0428 207.967 92.4337C208.212 92.82 208.334 93.3075 208.334 93.8963C208.334 94.504 208.193 95.0198 207.91 95.4437C207.632 95.8677 207.241 96.1903 206.737 96.4117C206.238 96.6284 205.656 96.7368 204.992 96.7368C204.573 96.7368 204.156 96.6826 203.741 96.5742C203.332 96.4612 202.959 96.2775 202.625 96.0231C202.291 95.7688 202.024 95.432 201.827 95.0127C201.629 94.5888 201.53 94.0706 201.53 93.4583H203.24C203.24 93.8257 203.289 94.1319 203.388 94.3768C203.487 94.6218 203.621 94.8149 203.791 94.9562C203.96 95.0975 204.149 95.1988 204.356 95.26C204.568 95.3213 204.78 95.3519 204.992 95.3519C205.345 95.3519 205.642 95.293 205.882 95.1752C206.127 95.0528 206.311 94.8832 206.433 94.6665C206.561 94.4451 206.624 94.1931 206.624 93.9105ZM214.474 86.2654V96.5884H212.771V88.2862L210.249 89.1411V87.735L214.269 86.2654H214.474ZM224.755 90.5825V92.2642C224.755 93.0697 224.675 93.7574 224.515 94.3273C224.359 94.8926 224.133 95.3519 223.836 95.7052C223.54 96.0585 223.184 96.3175 222.769 96.4824C222.36 96.6473 221.9 96.7297 221.392 96.7297C220.986 96.7297 220.61 96.6779 220.261 96.5742C219.917 96.4706 219.606 96.3081 219.328 96.0867C219.05 95.8653 218.813 95.5803 218.615 95.2318C218.422 94.8785 218.271 94.4569 218.163 93.967C218.059 93.4771 218.007 92.9095 218.007 92.2642V90.5825C218.007 89.7723 218.087 89.0893 218.247 88.5335C218.407 87.9729 218.636 87.5184 218.933 87.1698C219.229 86.8165 219.583 86.5598 219.993 86.3996C220.407 86.2395 220.869 86.1594 221.377 86.1594C221.787 86.1594 222.164 86.2112 222.508 86.3148C222.857 86.4137 223.167 86.5715 223.441 86.7882C223.719 87.0049 223.954 87.2875 224.147 87.6361C224.345 87.98 224.496 88.3969 224.599 88.8867C224.703 89.3719 224.755 89.9372 224.755 90.5825ZM223.052 92.5044V90.3282C223.052 89.9183 223.028 89.558 222.981 89.2471C222.934 88.9315 222.864 88.6654 222.769 88.4487C222.68 88.2273 222.567 88.0483 222.43 87.9117C222.294 87.7704 222.138 87.6691 221.964 87.6079C221.79 87.5419 221.594 87.5089 221.377 87.5089C221.114 87.5089 220.878 87.5607 220.671 87.6644C220.464 87.7633 220.289 87.9235 220.148 88.1448C220.007 88.3662 219.898 88.6583 219.823 89.021C219.752 89.379 219.717 89.8147 219.717 90.3282V92.5044C219.717 92.9189 219.741 93.284 219.788 93.5996C219.835 93.9152 219.905 94.186 220 94.4121C220.094 94.6335 220.207 94.8172 220.339 94.9633C220.475 95.1046 220.631 95.2082 220.805 95.2742C220.984 95.3401 221.18 95.3731 221.392 95.3731C221.66 95.3731 221.898 95.3213 222.105 95.2176C222.312 95.114 222.487 94.9491 222.628 94.723C222.769 94.4922 222.875 94.1931 222.946 93.8257C223.017 93.4583 223.052 93.0178 223.052 92.5044ZM230.923 86.2654V96.5884H229.22V88.2862L226.698 89.1411V87.735L230.718 86.2654H230.923Z" fill="#209BC3"/>
<path d="M221.398 41.1093L221.276 45.7911H220.235L220.109 41.1093H221.398ZM220.074 47.2271C220.074 47.06 220.134 46.9202 220.255 46.8077C220.38 46.6922 220.552 46.6345 220.771 46.6345C220.987 46.6345 221.157 46.6922 221.281 46.8077C221.406 46.9202 221.468 47.06 221.468 47.2271C221.468 47.3882 221.406 47.5265 221.281 47.642C221.157 47.7544 220.987 47.8106 220.771 47.8106C220.552 47.8106 220.38 47.7544 220.255 47.642C220.134 47.5265 220.074 47.3882 220.074 47.2271Z" fill="#AAAAAA"/>
<path d="M219.602 37.0499C220.206 36.3481 221.441 36.3981 221.954 37.2003L229.573 49.1031L229.661 49.2672C230.032 50.0897 229.366 51.0292 228.34 51.0292H213.103C212.007 51.0292 211.322 49.9589 211.869 49.1031L219.488 37.2003L219.602 37.0499ZM220.832 37.7839C220.782 37.7061 220.66 37.7061 220.61 37.7839L212.991 49.6866C212.942 49.7644 213.003 49.8622 213.103 49.8622H228.34C228.414 49.8622 228.467 49.808 228.468 49.7482L228.451 49.6866L220.832 37.7839Z" fill="#AAAAAA"/>
</svg>
