<svg width="300" height="300" viewBox="0 0 300 300" fill="none" xmlns="http://www.w3.org/2000/svg">
<circle cx="150" cy="150" r="150" transform="matrix(1 0 0 -1 0 300)" fill="#3C21F7"/>
<path d="M279.72 74.682C295.088 101.151 301.992 131.688 299.504 162.194C297.015 192.7 285.255 221.715 265.8 245.343C246.345 268.972 220.128 286.084 190.667 294.382C161.206 302.68 129.912 301.767 100.985 291.765L150 150L279.72 74.682Z" fill="#3CD856"/>
<path d="M82.3426 16.1249C99.9233 7.23999 119.082 1.90488 138.724 0.424164C158.367 -1.05658 178.109 1.34607 196.823 7.49493C215.537 13.6438 232.856 23.4185 247.793 36.2608C262.729 49.1031 274.99 64.7617 283.875 82.3424L150 150L82.3426 16.1249Z" fill="#EEA62E"/>
<path d="M61.0897 158.544H62.1083C62.0552 159.032 61.9155 159.469 61.6892 159.854C61.4628 160.24 61.1427 160.546 60.7289 160.772C60.3151 160.995 59.7988 161.106 59.1798 161.106C58.7271 161.106 58.3151 161.021 57.9438 160.851C57.5759 160.682 57.2594 160.441 56.9941 160.13C56.7289 159.815 56.5238 159.439 56.3788 159C56.2373 158.558 56.1665 158.066 56.1665 157.525V156.756C56.1665 156.215 56.2373 155.725 56.3788 155.286C56.5238 154.844 56.7307 154.466 56.9994 154.151C57.2718 153.836 57.5989 153.594 57.9809 153.424C58.3629 153.255 58.7926 153.17 59.27 153.17C59.8536 153.17 60.347 153.279 60.7502 153.499C61.1534 153.718 61.4664 154.022 61.6892 154.411C61.9155 154.797 62.0552 155.244 62.1083 155.753H61.0897C61.0402 155.392 60.9482 155.083 60.8138 154.825C60.6794 154.563 60.4884 154.362 60.2409 154.22C59.9933 154.079 59.6697 154.008 59.27 154.008C58.927 154.008 58.6246 154.073 58.3629 154.204C58.1047 154.335 57.8872 154.521 57.7103 154.761C57.537 155.002 57.4062 155.29 57.3178 155.626C57.2293 155.962 57.1851 156.335 57.1851 156.745V157.525C57.1851 157.904 57.224 158.259 57.3018 158.591C57.3832 158.924 57.5052 159.216 57.6679 159.467C57.8306 159.718 58.0375 159.916 58.2886 160.061C58.5397 160.202 58.8368 160.273 59.1798 160.273C59.6149 160.273 59.9615 160.204 60.2197 160.066C60.4778 159.928 60.6724 159.73 60.8032 159.472C60.9376 159.214 61.0331 158.904 61.0897 158.544ZM66.867 159.674V155.26H67.8537V161H66.9147L66.867 159.674ZM67.0526 158.464L67.4611 158.454C67.4611 158.836 67.4205 159.189 67.3391 159.515C67.2613 159.836 67.134 160.116 66.9571 160.353C66.7803 160.59 66.5486 160.775 66.2622 160.91C65.9757 161.041 65.6273 161.106 65.2171 161.106C64.9377 161.106 64.6812 161.065 64.4478 160.984C64.2179 160.903 64.0199 160.777 63.8536 160.607C63.6874 160.438 63.5583 160.217 63.4664 159.944C63.378 159.672 63.3337 159.345 63.3337 158.963V155.26H64.3152V158.973C64.3152 159.232 64.3435 159.446 64.4001 159.615C64.4602 159.782 64.5398 159.914 64.6388 160.013C64.7414 160.109 64.8545 160.176 64.9783 160.215C65.1057 160.254 65.2365 160.273 65.3709 160.273C65.7882 160.273 66.1189 160.194 66.363 160.034C66.607 159.872 66.7821 159.654 66.8882 159.382C66.9978 159.106 67.0526 158.8 67.0526 158.464ZM72.692 159.477C72.692 159.336 72.6601 159.205 72.5965 159.085C72.5363 158.961 72.4108 158.85 72.2198 158.751C72.0324 158.648 71.7494 158.56 71.371 158.485C71.0527 158.418 70.7644 158.339 70.5063 158.247C70.2516 158.155 70.0341 158.043 69.8537 157.912C69.6769 157.782 69.5407 157.628 69.4452 157.451C69.3497 157.274 69.302 157.067 69.302 156.83C69.302 156.604 69.3515 156.39 69.4505 156.188C69.5531 155.987 69.6963 155.808 69.8803 155.652C70.0677 155.497 70.2923 155.375 70.554 155.286C70.8157 155.198 71.1075 155.154 71.4293 155.154C71.8891 155.154 72.2817 155.235 72.6071 155.398C72.9325 155.56 73.1818 155.778 73.3551 156.05C73.5284 156.319 73.6151 156.618 73.6151 156.947H72.6336C72.6336 156.788 72.5859 156.634 72.4904 156.485C72.3984 156.333 72.2622 156.208 72.0819 156.109C71.905 156.01 71.6875 155.96 71.4293 155.96C71.157 155.96 70.936 156.003 70.7662 156.087C70.6 156.169 70.478 156.273 70.4002 156.4C70.3259 156.528 70.2887 156.662 70.2887 156.804C70.2887 156.91 70.3064 157.005 70.3418 157.09C70.3807 157.171 70.4479 157.248 70.5434 157.318C70.6389 157.385 70.7733 157.449 70.9466 157.509C71.1199 157.569 71.3409 157.629 71.6097 157.69C72.0801 157.796 72.4674 157.923 72.7715 158.072C73.0757 158.22 73.302 158.402 73.4506 158.618C73.5991 158.834 73.6734 159.095 73.6734 159.403C73.6734 159.654 73.6204 159.884 73.5143 160.093C73.4117 160.301 73.2614 160.482 73.0633 160.634C72.8688 160.782 72.6354 160.899 72.363 160.984C72.0943 161.065 71.7919 161.106 71.4559 161.106C70.9501 161.106 70.5222 161.016 70.172 160.836C69.8219 160.655 69.5566 160.422 69.3763 160.135C69.1959 159.849 69.1057 159.546 69.1057 159.228H70.0925C70.1066 159.497 70.1844 159.711 70.3259 159.87C70.4674 160.026 70.6407 160.137 70.8458 160.204C71.0509 160.268 71.2543 160.3 71.4559 160.3C71.7247 160.3 71.9492 160.264 72.1296 160.194C72.3135 160.123 72.4532 160.026 72.5487 159.902C72.6442 159.778 72.692 159.637 72.692 159.477ZM77.3658 155.26V156.013H74.2623V155.26H77.3658ZM75.3127 153.865H76.2941V159.578C76.2941 159.773 76.3242 159.92 76.3843 160.019C76.4444 160.118 76.5223 160.183 76.6177 160.215C76.7132 160.247 76.8158 160.263 76.9254 160.263C77.0068 160.263 77.0917 160.256 77.1801 160.241C77.272 160.224 77.341 160.21 77.387 160.199L77.3923 161C77.3145 161.025 77.2119 161.048 77.0846 161.069C76.9608 161.094 76.8105 161.106 76.6337 161.106C76.3932 161.106 76.1721 161.058 75.9705 160.963C75.7689 160.867 75.608 160.708 75.4878 160.485C75.371 160.259 75.3127 159.955 75.3127 159.573V153.865ZM78.1509 158.194V158.072C78.1509 157.658 78.211 157.274 78.3313 156.92C78.4515 156.563 78.6248 156.254 78.8512 155.992C79.0775 155.727 79.3516 155.522 79.6735 155.377C79.9953 155.228 80.3561 155.154 80.7557 155.154C81.1589 155.154 81.5214 155.228 81.8433 155.377C82.1687 155.522 82.4445 155.727 82.6709 155.992C82.9008 156.254 83.0758 156.563 83.1961 156.92C83.3163 157.274 83.3765 157.658 83.3765 158.072V158.194C83.3765 158.607 83.3163 158.991 83.1961 159.345C83.0758 159.698 82.9008 160.008 82.6709 160.273C82.4445 160.535 82.1704 160.74 81.8486 160.889C81.5303 161.034 81.1695 161.106 80.7663 161.106C80.3632 161.106 80.0006 161.034 79.6788 160.889C79.3569 160.74 79.0811 160.535 78.8512 160.273C78.6248 160.008 78.4515 159.698 78.3313 159.345C78.211 158.991 78.1509 158.607 78.1509 158.194ZM79.1324 158.072V158.194C79.1324 158.48 79.166 158.751 79.2332 159.005C79.3004 159.256 79.4012 159.479 79.5356 159.674C79.6735 159.868 79.845 160.022 80.0501 160.135C80.2553 160.245 80.494 160.3 80.7663 160.3C81.0351 160.3 81.2703 160.245 81.4719 160.135C81.677 160.022 81.8468 159.868 81.9812 159.674C82.1156 159.479 82.2164 159.256 82.2836 159.005C82.3543 158.751 82.3897 158.48 82.3897 158.194V158.072C82.3897 157.789 82.3543 157.522 82.2836 157.271C82.2164 157.016 82.1138 156.791 81.9759 156.597C81.8415 156.399 81.6717 156.243 81.4666 156.13C81.265 156.017 81.0281 155.96 80.7557 155.96C80.4869 155.96 80.25 156.017 80.0448 156.13C79.8432 156.243 79.6735 156.399 79.5356 156.597C79.4012 156.791 79.3004 157.016 79.2332 157.271C79.166 157.522 79.1324 157.789 79.1324 158.072ZM85.5834 156.4V161H84.5966V155.26H85.5303L85.5834 156.4ZM85.3818 157.912L84.9255 157.897C84.9291 157.504 84.9804 157.141 85.0794 156.809C85.1784 156.473 85.3252 156.181 85.5197 155.934C85.7142 155.686 85.9565 155.495 86.2465 155.361C86.5365 155.223 86.8725 155.154 87.2545 155.154C87.5233 155.154 87.7709 155.193 87.9972 155.27C88.2236 155.345 88.4198 155.463 88.5861 155.626C88.7523 155.789 88.8814 155.997 88.9733 156.252C89.0653 156.507 89.1113 156.814 89.1113 157.175V161H88.1298V157.223C88.1298 156.922 88.0786 156.682 87.976 156.501C87.877 156.321 87.7355 156.19 87.5516 156.109C87.3677 156.024 87.1519 155.981 86.9044 155.981C86.6143 155.981 86.3721 156.033 86.1776 156.135C85.983 156.238 85.8274 156.379 85.7107 156.56C85.594 156.74 85.5091 156.947 85.4561 157.18C85.4065 157.41 85.3818 157.654 85.3818 157.912ZM89.1007 157.371L88.4428 157.573C88.4464 157.258 88.4977 156.956 88.5967 156.666C88.6993 156.376 88.846 156.118 89.037 155.891C89.2315 155.665 89.4703 155.486 89.7532 155.355C90.0361 155.221 90.3597 155.154 90.724 155.154C91.0317 155.154 91.3041 155.194 91.541 155.276C91.7815 155.357 91.9831 155.483 92.1458 155.652C92.312 155.819 92.4376 156.033 92.5225 156.294C92.6073 156.556 92.6498 156.867 92.6498 157.228V161H91.663V157.217C91.663 156.896 91.6118 156.646 91.5092 156.469C91.4102 156.289 91.2687 156.164 91.0848 156.093C90.9044 156.019 90.6887 155.981 90.4376 155.981C90.2218 155.981 90.0308 156.019 89.8646 156.093C89.6984 156.167 89.5587 156.27 89.4455 156.4C89.3323 156.528 89.2457 156.675 89.1856 156.841C89.129 157.007 89.1007 157.184 89.1007 157.371ZM97.4774 159.477C97.4774 159.336 97.4456 159.205 97.3819 159.085C97.3218 158.961 97.1963 158.85 97.0053 158.751C96.8178 158.648 96.5349 158.56 96.1565 158.485C95.8382 158.418 95.5499 158.339 95.2917 158.247C95.0371 158.155 94.8196 158.043 94.6392 157.912C94.4624 157.782 94.3262 157.628 94.2307 157.451C94.1352 157.274 94.0875 157.067 94.0875 156.83C94.0875 156.604 94.137 156.39 94.236 156.188C94.3386 155.987 94.4818 155.808 94.6657 155.652C94.8532 155.497 95.0778 155.375 95.3395 155.286C95.6012 155.198 95.893 155.154 96.2148 155.154C96.6746 155.154 97.0672 155.235 97.3925 155.398C97.7179 155.56 97.9673 155.778 98.1406 156.05C98.3139 156.319 98.4005 156.618 98.4005 156.947H97.4191C97.4191 156.788 97.3713 156.634 97.2758 156.485C97.1839 156.333 97.0477 156.208 96.8673 156.109C96.6905 156.01 96.473 155.96 96.2148 155.96C95.9425 155.96 95.7214 156.003 95.5517 156.087C95.3854 156.169 95.2634 156.273 95.1856 156.4C95.1114 156.528 95.0742 156.662 95.0742 156.804C95.0742 156.91 95.0919 157.005 95.1273 157.09C95.1662 157.171 95.2334 157.248 95.3289 157.318C95.4244 157.385 95.5587 157.449 95.7321 157.509C95.9054 157.569 96.1264 157.629 96.3952 157.69C96.8656 157.796 97.2528 157.923 97.557 158.072C97.8612 158.22 98.0875 158.402 98.2361 158.618C98.3846 158.834 98.4589 159.095 98.4589 159.403C98.4589 159.654 98.4058 159.884 98.2997 160.093C98.1972 160.301 98.0468 160.482 97.8488 160.634C97.6543 160.782 97.4208 160.899 97.1485 160.984C96.8797 161.065 96.5773 161.106 96.2413 161.106C95.7356 161.106 95.3076 161.016 94.9575 160.836C94.6074 160.655 94.3421 160.422 94.1617 160.135C93.9814 159.849 93.8912 159.546 93.8912 159.228H94.8779C94.8921 159.497 94.9699 159.711 95.1114 159.87C95.2528 160.026 95.4261 160.137 95.6313 160.204C95.8364 160.268 96.0397 160.3 96.2413 160.3C96.5101 160.3 96.7347 160.264 96.9151 160.194C97.099 160.123 97.2387 160.026 97.3342 159.902C97.4297 159.778 97.4774 159.637 97.4774 159.477ZM42.7764 173.167V174H38.6862V173.167H42.7764ZM38.8931 166.276V174H37.8692V166.276H38.8931ZM42.2353 169.597V170.43H38.6862V169.597H42.2353ZM42.7234 166.276V167.114H38.6862V166.276H42.7234ZM44.8773 169.485V174H43.8958V168.26H44.8242L44.8773 169.485ZM44.6438 170.912L44.2354 170.897C44.2389 170.504 44.2972 170.141 44.4104 169.809C44.5236 169.473 44.6828 169.181 44.8879 168.934C45.093 168.686 45.337 168.495 45.62 168.361C45.9065 168.223 46.223 168.154 46.5696 168.154C46.8525 168.154 47.1072 168.193 47.3335 168.27C47.5599 168.345 47.7526 168.465 47.9118 168.631C48.0745 168.797 48.1983 169.013 48.2832 169.278C48.368 169.54 48.4105 169.86 48.4105 170.239V174H47.4237V170.228C47.4237 169.927 47.3795 169.687 47.2911 169.507C47.2027 169.323 47.0736 169.19 46.9038 169.109C46.7341 169.024 46.5254 168.981 46.2778 168.981C46.0338 168.981 45.811 169.033 45.6094 169.135C45.4113 169.238 45.2398 169.379 45.0948 169.56C44.9533 169.74 44.8419 169.947 44.7606 170.18C44.6828 170.41 44.6438 170.654 44.6438 170.912ZM51.3654 174H50.384V167.655C50.384 167.241 50.4582 166.893 50.6068 166.61C50.7589 166.324 50.9764 166.108 51.2593 165.963C51.5423 165.814 51.8782 165.74 52.2673 165.74C52.3805 165.74 52.4936 165.747 52.6068 165.761C52.7235 165.775 52.8367 165.797 52.9463 165.825L52.8933 166.626C52.819 166.608 52.7341 166.596 52.6386 166.589C52.5467 166.582 52.4547 166.578 52.3628 166.578C52.1541 166.578 51.9737 166.621 51.8217 166.705C51.6731 166.787 51.5599 166.907 51.4821 167.066C51.4043 167.225 51.3654 167.422 51.3654 167.655V174ZM52.5856 168.26V169.013H49.4768V168.26H52.5856ZM53.4185 171.194V171.072C53.4185 170.658 53.4786 170.274 53.5989 169.92C53.7191 169.563 53.8924 169.254 54.1188 168.992C54.3451 168.727 54.6192 168.522 54.9411 168.377C55.2629 168.228 55.6237 168.154 56.0233 168.154C56.4265 168.154 56.789 168.228 57.1109 168.377C57.4362 168.522 57.7121 168.727 57.9385 168.992C58.1683 169.254 58.3434 169.563 58.4637 169.92C58.5839 170.274 58.644 170.658 58.644 171.072V171.194C58.644 171.607 58.5839 171.991 58.4637 172.345C58.3434 172.698 58.1683 173.008 57.9385 173.273C57.7121 173.535 57.438 173.74 57.1162 173.889C56.7979 174.034 56.4371 174.106 56.0339 174.106C55.6307 174.106 55.2682 174.034 54.9464 173.889C54.6245 173.74 54.3487 173.535 54.1188 173.273C53.8924 173.008 53.7191 172.698 53.5989 172.345C53.4786 171.991 53.4185 171.607 53.4185 171.194ZM54.3999 171.072V171.194C54.3999 171.48 54.4335 171.751 54.5007 172.005C54.5679 172.256 54.6687 172.479 54.8031 172.674C54.9411 172.868 55.1126 173.022 55.3177 173.135C55.5229 173.245 55.7616 173.3 56.0339 173.3C56.3027 173.3 56.5379 173.245 56.7395 173.135C56.9446 173.022 57.1144 172.868 57.2488 172.674C57.3832 172.479 57.484 172.256 57.5512 172.005C57.6219 171.751 57.6573 171.48 57.6573 171.194V171.072C57.6573 170.789 57.6219 170.522 57.5512 170.271C57.484 170.016 57.3814 169.791 57.2435 169.597C57.1091 169.399 56.9393 169.243 56.7342 169.13C56.5326 169.017 56.2956 168.96 56.0233 168.96C55.7545 168.96 55.5176 169.017 55.3124 169.13C55.1108 169.243 54.9411 169.399 54.8031 169.597C54.6687 169.791 54.5679 170.016 54.5007 170.271C54.4335 170.522 54.3999 170.789 54.3999 171.072ZM60.8563 169.162V174H59.8748V168.26H60.8297L60.8563 169.162ZM62.6494 168.228L62.6441 169.141C62.5627 169.123 62.4849 169.112 62.4107 169.109C62.3399 169.102 62.2586 169.098 62.1666 169.098C61.9403 169.098 61.7404 169.133 61.5671 169.204C61.3938 169.275 61.2471 169.374 61.1268 169.501C61.0066 169.629 60.9111 169.781 60.8403 169.958C60.7731 170.131 60.7289 170.322 60.7077 170.53L60.4319 170.69C60.4319 170.343 60.4655 170.018 60.5327 169.713C60.6034 169.409 60.7113 169.141 60.8563 168.907C61.0013 168.67 61.1852 168.486 61.408 168.355C61.6343 168.221 61.9031 168.154 62.2144 168.154C62.2851 168.154 62.3665 168.163 62.4584 168.18C62.5504 168.194 62.614 168.21 62.6494 168.228ZM65.7476 173.3C65.981 173.3 66.1967 173.252 66.3948 173.156C66.5929 173.061 66.7555 172.93 66.8829 172.764C67.0102 172.594 67.0827 172.401 67.1004 172.186H68.0341C68.0164 172.525 67.9014 172.842 67.6892 173.135C67.4806 173.425 67.2065 173.66 66.8669 173.841C66.5274 174.018 66.1543 174.106 65.7476 174.106C65.3161 174.106 64.9394 174.03 64.6176 173.878C64.2993 173.726 64.034 173.517 63.8218 173.252C63.6131 172.987 63.4558 172.683 63.3497 172.34C63.2471 171.993 63.1958 171.627 63.1958 171.241V171.019C63.1958 170.633 63.2471 170.269 63.3497 169.926C63.4558 169.579 63.6131 169.273 63.8218 169.008C64.034 168.743 64.2993 168.534 64.6176 168.382C64.9394 168.23 65.3161 168.154 65.7476 168.154C66.1967 168.154 66.5893 168.246 66.9253 168.43C67.2613 168.61 67.5248 168.858 67.7158 169.172C67.9103 169.484 68.0164 169.837 68.0341 170.233H67.1004C67.0827 169.996 67.0155 169.782 66.8988 169.591C66.7856 169.4 66.63 169.248 66.4319 169.135C66.2374 169.019 66.0093 168.96 65.7476 168.96C65.4469 168.96 65.1941 169.02 64.9889 169.141C64.7873 169.257 64.6264 169.416 64.5062 169.618C64.3895 169.816 64.3046 170.037 64.2515 170.281C64.202 170.522 64.1773 170.767 64.1773 171.019V171.241C64.1773 171.492 64.202 171.74 64.2515 171.984C64.301 172.228 64.3842 172.449 64.5009 172.647C64.6211 172.845 64.782 173.004 64.9836 173.125C65.1888 173.241 65.4434 173.3 65.7476 173.3ZM71.5195 174.106C71.1199 174.106 70.7574 174.039 70.432 173.905C70.1101 173.767 69.8325 173.574 69.5991 173.326C69.3692 173.079 69.1924 172.785 69.0686 172.446C68.9448 172.106 68.8829 171.735 68.8829 171.332V171.109C68.8829 170.642 68.9519 170.226 69.0898 169.862C69.2277 169.494 69.4152 169.183 69.6521 168.928C69.8891 168.674 70.1579 168.481 70.4585 168.35C70.7591 168.219 71.0704 168.154 71.3922 168.154C71.8025 168.154 72.1561 168.225 72.4532 168.366C72.7539 168.507 72.9997 168.706 73.1906 168.96C73.3816 169.211 73.5231 169.508 73.6151 169.851C73.707 170.191 73.753 170.562 73.753 170.965V171.406H69.4665V170.605H72.7715V170.53C72.7574 170.276 72.7043 170.028 72.6124 169.788C72.524 169.547 72.3825 169.349 72.188 169.194C71.9935 169.038 71.7282 168.96 71.3922 168.96C71.1694 168.96 70.9643 169.008 70.7768 169.103C70.5894 169.195 70.4284 169.333 70.2941 169.517C70.1597 169.701 70.0553 169.926 69.9811 170.191C69.9068 170.456 69.8696 170.762 69.8696 171.109V171.332C69.8696 171.604 69.9068 171.86 69.9811 172.101C70.0589 172.338 70.1703 172.546 70.3153 172.727C70.4638 172.907 70.6424 173.049 70.8511 173.151C71.0633 173.254 71.3038 173.305 71.5726 173.305C71.9192 173.305 72.2127 173.234 72.4532 173.093C72.6937 172.951 72.9042 172.762 73.0845 172.525L73.6787 172.997C73.5549 173.185 73.3975 173.363 73.2066 173.533C73.0156 173.703 72.7804 173.841 72.501 173.947C72.2251 174.053 71.898 174.106 71.5195 174.106ZM75.875 169.4V174H74.8883V168.26H75.822L75.875 169.4ZM75.6734 170.912L75.2172 170.897C75.2207 170.504 75.272 170.141 75.371 169.809C75.4701 169.473 75.6168 169.181 75.8114 168.934C76.0059 168.686 76.2482 168.495 76.5382 168.361C76.8282 168.223 77.1642 168.154 77.5461 168.154C77.8149 168.154 78.0625 168.193 78.2889 168.27C78.5152 168.345 78.7115 168.463 78.8777 168.626C79.0439 168.789 79.173 168.997 79.265 169.252C79.3569 169.507 79.4029 169.814 79.4029 170.175V174H78.4215V170.223C78.4215 169.922 78.3702 169.682 78.2676 169.501C78.1686 169.321 78.0271 169.19 77.8432 169.109C77.6593 169.024 77.4436 168.981 77.196 168.981C76.906 168.981 76.6637 169.033 76.4692 169.135C76.2747 169.238 76.1191 169.379 76.0024 169.56C75.8856 169.74 75.8008 169.947 75.7477 170.18C75.6982 170.41 75.6734 170.654 75.6734 170.912ZM79.3923 170.371L78.7345 170.573C78.738 170.258 78.7893 169.956 78.8883 169.666C78.9909 169.376 79.1377 169.118 79.3287 168.891C79.5232 168.665 79.7619 168.486 80.0448 168.355C80.3278 168.221 80.6514 168.154 81.0157 168.154C81.3234 168.154 81.5957 168.194 81.8327 168.276C82.0732 168.357 82.2748 168.483 82.4374 168.652C82.6037 168.819 82.7292 169.033 82.8141 169.294C82.899 169.556 82.9414 169.867 82.9414 170.228V174H81.9547V170.217C81.9547 169.896 81.9034 169.646 81.8008 169.469C81.7018 169.289 81.5603 169.164 81.3764 169.093C81.1961 169.019 80.9803 168.981 80.7292 168.981C80.5135 168.981 80.3225 169.019 80.1563 169.093C79.99 169.167 79.8503 169.27 79.7371 169.4C79.624 169.528 79.5373 169.675 79.4772 169.841C79.4206 170.007 79.3923 170.184 79.3923 170.371ZM86.8089 174.106C86.4092 174.106 86.0467 174.039 85.7213 173.905C85.3995 173.767 85.1218 173.574 84.8884 173.326C84.6585 173.079 84.4817 172.785 84.3579 172.446C84.2341 172.106 84.1722 171.735 84.1722 171.332V171.109C84.1722 170.642 84.2412 170.226 84.3791 169.862C84.5171 169.494 84.7045 169.183 84.9415 168.928C85.1784 168.674 85.4472 168.481 85.7478 168.35C86.0485 168.219 86.3597 168.154 86.6815 168.154C87.0918 168.154 87.4455 168.225 87.7426 168.366C88.0432 168.507 88.289 168.706 88.48 168.96C88.671 169.211 88.8124 169.508 88.9044 169.851C88.9963 170.191 89.0423 170.562 89.0423 170.965V171.406H84.7558V170.605H88.0609V170.53C88.0467 170.276 87.9937 170.028 87.9017 169.788C87.8133 169.547 87.6718 169.349 87.4773 169.194C87.2828 169.038 87.0175 168.96 86.6815 168.96C86.4587 168.96 86.2536 169.008 86.0661 169.103C85.8787 169.195 85.7178 169.333 85.5834 169.517C85.449 169.701 85.3447 169.926 85.2704 170.191C85.1961 170.456 85.159 170.762 85.159 171.109V171.332C85.159 171.604 85.1961 171.86 85.2704 172.101C85.3482 172.338 85.4596 172.546 85.6046 172.727C85.7531 172.907 85.9318 173.049 86.1404 173.151C86.3526 173.254 86.5931 173.305 86.8619 173.305C87.2085 173.305 87.5021 173.234 87.7426 173.093C87.9831 172.951 88.1935 172.762 88.3739 172.525L88.968 172.997C88.8443 173.185 88.6869 173.363 88.4959 173.533C88.3049 173.703 88.0697 173.841 87.7903 173.947C87.5144 174.053 87.1873 174.106 86.8089 174.106ZM91.1697 169.485V174H90.1882V168.26H91.1166L91.1697 169.485ZM90.9362 170.912L90.5277 170.897C90.5313 170.504 90.5896 170.141 90.7028 169.809C90.816 169.473 90.9751 169.181 91.1803 168.934C91.3854 168.686 91.6294 168.495 91.9124 168.361C92.1989 168.223 92.5154 168.154 92.862 168.154C93.1449 168.154 93.3996 168.193 93.6259 168.27C93.8523 168.345 94.045 168.465 94.2042 168.631C94.3669 168.797 94.4907 169.013 94.5755 169.278C94.6604 169.54 94.7029 169.86 94.7029 170.239V174H93.7161V170.228C93.7161 169.927 93.6719 169.687 93.5835 169.507C93.4951 169.323 93.366 169.19 93.1962 169.109C93.0264 169.024 92.8178 168.981 92.5702 168.981C92.3262 168.981 92.1034 169.033 91.9018 169.135C91.7037 169.238 91.5322 169.379 91.3872 169.56C91.2457 169.74 91.1343 169.947 91.0529 170.18C90.9751 170.41 90.9362 170.654 90.9362 170.912ZM98.5968 168.26V169.013H95.4933V168.26H98.5968ZM96.5437 166.865H97.5252V172.578C97.5252 172.773 97.5552 172.92 97.6154 173.019C97.6755 173.118 97.7533 173.183 97.8488 173.215C97.9443 173.247 98.0469 173.263 98.1565 173.263C98.2378 173.263 98.3227 173.256 98.4111 173.241C98.5031 173.224 98.5721 173.21 98.618 173.199L98.6233 174C98.5455 174.025 98.443 174.048 98.3156 174.069C98.1919 174.094 98.0415 174.106 97.8647 174.106C97.6242 174.106 97.4032 174.058 97.2016 173.963C97 173.867 96.8391 173.708 96.7188 173.485C96.6021 173.259 96.5437 172.955 96.5437 172.573V166.865Z" fill="white"/>
<path d="M72.4082 132.932V134.807H62.1543L62.0762 133.391L68.209 123.781H70.0938L68.0527 127.277L64.5273 132.932H72.4082ZM70.6309 123.781V138H68.2773V123.781H70.6309ZM83.248 129.699V132.023C83.248 133.137 83.1374 134.087 82.916 134.875C82.7012 135.656 82.3887 136.291 81.9785 136.779C81.5684 137.268 81.0768 137.626 80.5039 137.854C79.9375 138.081 79.3027 138.195 78.5996 138.195C78.0397 138.195 77.5189 138.124 77.0371 137.98C76.5618 137.837 76.1322 137.613 75.748 137.307C75.3639 137.001 75.0352 136.607 74.7617 136.125C74.4948 135.637 74.2865 135.054 74.1367 134.377C73.9935 133.7 73.9219 132.915 73.9219 132.023V129.699C73.9219 128.579 74.0326 127.635 74.2539 126.867C74.4753 126.092 74.791 125.464 75.2012 124.982C75.6113 124.494 76.0996 124.139 76.666 123.918C77.2389 123.697 77.877 123.586 78.5801 123.586C79.1465 123.586 79.6673 123.658 80.1426 123.801C80.6243 123.938 81.054 124.156 81.4316 124.455C81.8158 124.755 82.1413 125.145 82.4082 125.627C82.6816 126.102 82.89 126.678 83.0332 127.355C83.1764 128.026 83.248 128.807 83.248 129.699ZM80.8945 132.355V129.348C80.8945 128.781 80.862 128.283 80.7969 127.854C80.7318 127.417 80.6341 127.049 80.5039 126.75C80.3802 126.444 80.224 126.197 80.0352 126.008C79.8464 125.812 79.6315 125.673 79.3906 125.588C79.1497 125.497 78.8796 125.451 78.5801 125.451C78.2155 125.451 77.89 125.523 77.6035 125.666C77.3171 125.803 77.0762 126.024 76.8809 126.33C76.6855 126.636 76.5358 127.04 76.4316 127.541C76.334 128.036 76.2852 128.638 76.2852 129.348V132.355C76.2852 132.928 76.3177 133.433 76.3828 133.869C76.4479 134.305 76.5456 134.68 76.6758 134.992C76.806 135.298 76.9622 135.552 77.1445 135.754C77.3333 135.949 77.5482 136.092 77.7891 136.184C78.0365 136.275 78.3066 136.32 78.5996 136.32C78.9707 136.32 79.2995 136.249 79.5859 136.105C79.8724 135.962 80.1133 135.734 80.3086 135.422C80.5039 135.103 80.6504 134.689 80.748 134.182C80.8457 133.674 80.8945 133.065 80.8945 132.355ZM85.25 127.268V126.516C85.25 125.975 85.3672 125.484 85.6016 125.041C85.8359 124.598 86.1777 124.243 86.627 123.977C87.0762 123.71 87.6165 123.576 88.248 123.576C88.8991 123.576 89.446 123.71 89.8887 123.977C90.3379 124.243 90.6797 124.598 90.9141 125.041C91.1484 125.484 91.2656 125.975 91.2656 126.516V127.268C91.2656 127.795 91.1484 128.28 90.9141 128.723C90.6862 129.165 90.3477 129.52 89.8984 129.787C89.4557 130.054 88.9121 130.188 88.2676 130.188C87.6296 130.188 87.0827 130.054 86.627 129.787C86.1777 129.52 85.8359 129.165 85.6016 128.723C85.3672 128.28 85.25 127.795 85.25 127.268ZM86.8809 126.516V127.268C86.8809 127.528 86.9297 127.775 87.0273 128.01C87.1315 128.244 87.2878 128.433 87.4961 128.576C87.7044 128.719 87.9616 128.791 88.2676 128.791C88.5801 128.791 88.834 128.719 89.0293 128.576C89.2311 128.433 89.3809 128.244 89.4785 128.01C89.5762 127.775 89.625 127.528 89.625 127.268V126.516C89.625 126.249 89.5729 125.998 89.4688 125.764C89.3711 125.523 89.2214 125.331 89.0195 125.188C88.8177 125.044 88.5605 124.973 88.248 124.973C87.9486 124.973 87.6947 125.044 87.4863 125.188C87.2845 125.331 87.1315 125.523 87.0273 125.764C86.9297 125.998 86.8809 126.249 86.8809 126.516ZM92.1055 135.275V134.514C92.1055 133.98 92.2227 133.492 92.457 133.049C92.6979 132.606 93.043 132.251 93.4922 131.984C93.9414 131.717 94.4818 131.584 95.1133 131.584C95.7643 131.584 96.3112 131.717 96.7539 131.984C97.2031 132.251 97.5417 132.606 97.7695 133.049C98.0039 133.492 98.1211 133.98 98.1211 134.514V135.275C98.1211 135.809 98.0039 136.298 97.7695 136.74C97.5417 137.183 97.2064 137.538 96.7637 137.805C96.321 138.072 95.7773 138.205 95.1328 138.205C94.4948 138.205 93.9479 138.072 93.4922 137.805C93.043 137.538 92.6979 137.183 92.457 136.74C92.2227 136.298 92.1055 135.809 92.1055 135.275ZM93.7461 134.514V135.275C93.7461 135.536 93.7982 135.783 93.9023 136.018C94.013 136.252 94.1725 136.444 94.3809 136.594C94.5892 136.737 94.8398 136.809 95.1328 136.809C95.4648 136.809 95.7318 136.737 95.9336 136.594C96.1354 136.444 96.2786 136.255 96.3633 136.027C96.4544 135.793 96.5 135.542 96.5 135.275V134.514C96.5 134.247 96.4479 133.996 96.3438 133.762C96.2461 133.527 96.0931 133.339 95.8848 133.195C95.6829 133.052 95.4258 132.98 95.1133 132.98C94.8073 132.98 94.5534 133.052 94.3516 133.195C94.1497 133.339 93.9967 133.527 93.8926 133.762C93.7949 133.996 93.7461 134.247 93.7461 134.514ZM95.6992 125.812L88.7559 136.926L87.5547 136.232L94.498 125.119L95.6992 125.812Z" fill="white"/>
<path d="M176.22 211.276H177.212L179.743 217.573L182.268 211.276H183.265L180.125 219H179.35L176.22 211.276ZM175.897 211.276H176.772L176.915 215.987V219H175.897V211.276ZM182.708 211.276H183.584V219H182.565V215.987L182.708 211.276ZM188.618 218.019V215.064C188.618 214.837 188.572 214.641 188.48 214.475C188.392 214.305 188.257 214.174 188.077 214.082C187.897 213.99 187.674 213.944 187.409 213.944C187.161 213.944 186.944 213.987 186.756 214.072C186.572 214.156 186.427 214.268 186.321 214.406C186.219 214.544 186.167 214.692 186.167 214.851H185.186C185.186 214.646 185.239 214.443 185.345 214.241C185.451 214.04 185.603 213.858 185.801 213.695C186.003 213.529 186.243 213.398 186.523 213.302C186.806 213.203 187.12 213.154 187.467 213.154C187.884 213.154 188.252 213.225 188.57 213.366C188.892 213.507 189.143 213.721 189.324 214.008C189.508 214.291 189.6 214.646 189.6 215.074V217.748C189.6 217.939 189.616 218.142 189.647 218.358C189.683 218.574 189.734 218.76 189.801 218.915V219H188.777C188.728 218.887 188.689 218.737 188.661 218.549C188.632 218.358 188.618 218.181 188.618 218.019ZM188.788 215.52L188.799 216.21H187.807C187.527 216.21 187.278 216.233 187.059 216.278C186.839 216.321 186.655 216.386 186.507 216.475C186.358 216.563 186.245 216.675 186.167 216.809C186.089 216.94 186.051 217.094 186.051 217.271C186.051 217.451 186.091 217.615 186.173 217.764C186.254 217.912 186.376 218.031 186.539 218.119C186.705 218.204 186.908 218.247 187.149 218.247C187.449 218.247 187.715 218.183 187.944 218.056C188.174 217.928 188.356 217.773 188.491 217.589C188.629 217.405 188.703 217.226 188.714 217.053L189.133 217.525C189.108 217.674 189.041 217.838 188.931 218.019C188.822 218.199 188.675 218.372 188.491 218.538C188.311 218.701 188.095 218.837 187.844 218.947C187.596 219.053 187.317 219.106 187.005 219.106C186.616 219.106 186.275 219.03 185.982 218.878C185.692 218.726 185.465 218.523 185.303 218.268C185.143 218.01 185.064 217.721 185.064 217.403C185.064 217.095 185.124 216.825 185.244 216.591C185.364 216.355 185.538 216.158 185.764 216.003C185.99 215.843 186.263 215.723 186.581 215.642C186.899 215.561 187.255 215.52 187.647 215.52H188.788ZM192.125 214.162V219H191.143V213.26H192.098L192.125 214.162ZM193.918 213.228L193.913 214.141C193.831 214.123 193.754 214.112 193.679 214.109C193.609 214.102 193.527 214.098 193.435 214.098C193.209 214.098 193.009 214.133 192.836 214.204C192.662 214.275 192.516 214.374 192.395 214.501C192.275 214.629 192.18 214.781 192.109 214.958C192.042 215.131 191.998 215.322 191.976 215.53L191.7 215.69C191.7 215.343 191.734 215.018 191.801 214.713C191.872 214.409 191.98 214.141 192.125 213.907C192.27 213.67 192.454 213.486 192.677 213.355C192.903 213.221 193.172 213.154 193.483 213.154C193.554 213.154 193.635 213.163 193.727 213.18C193.819 213.194 193.883 213.21 193.918 213.228ZM195.812 210.851V219H194.825V210.851H195.812ZM199.319 213.26L196.815 215.939L195.414 217.393L195.334 216.347L196.337 215.148L198.12 213.26H199.319ZM198.422 219L196.374 216.263L196.884 215.387L199.579 219H198.422ZM202.608 219.106C202.208 219.106 201.846 219.039 201.52 218.905C201.198 218.767 200.921 218.574 200.687 218.326C200.457 218.079 200.281 217.785 200.157 217.446C200.033 217.106 199.971 216.735 199.971 216.332V216.109C199.971 215.642 200.04 215.226 200.178 214.862C200.316 214.494 200.503 214.183 200.74 213.928C200.977 213.674 201.246 213.481 201.547 213.35C201.847 213.219 202.159 213.154 202.48 213.154C202.891 213.154 203.244 213.225 203.541 213.366C203.842 213.507 204.088 213.706 204.279 213.96C204.47 214.211 204.611 214.508 204.703 214.851C204.795 215.191 204.841 215.562 204.841 215.965V216.406H200.555V215.605H203.86V215.53C203.846 215.276 203.793 215.028 203.701 214.788C203.612 214.547 203.471 214.349 203.276 214.194C203.082 214.038 202.816 213.96 202.48 213.96C202.258 213.96 202.053 214.008 201.865 214.103C201.678 214.195 201.517 214.333 201.382 214.517C201.248 214.701 201.144 214.926 201.069 215.191C200.995 215.456 200.958 215.762 200.958 216.109V216.332C200.958 216.604 200.995 216.86 201.069 217.101C201.147 217.338 201.259 217.546 201.404 217.727C201.552 217.907 201.731 218.049 201.939 218.151C202.152 218.254 202.392 218.305 202.661 218.305C203.007 218.305 203.301 218.234 203.541 218.093C203.782 217.951 203.992 217.762 204.173 217.525L204.767 217.997C204.643 218.185 204.486 218.363 204.295 218.533C204.104 218.703 203.869 218.841 203.589 218.947C203.313 219.053 202.986 219.106 202.608 219.106ZM208.39 213.26V214.013H205.287V213.26H208.39ZM206.337 211.865H207.319V217.578C207.319 217.773 207.349 217.92 207.409 218.019C207.469 218.118 207.547 218.183 207.642 218.215C207.738 218.247 207.84 218.263 207.95 218.263C208.031 218.263 208.116 218.256 208.205 218.241C208.297 218.224 208.366 218.21 208.412 218.199L208.417 219C208.339 219.025 208.237 219.048 208.109 219.069C207.985 219.094 207.835 219.106 207.658 219.106C207.418 219.106 207.197 219.058 206.995 218.963C206.794 218.867 206.633 218.708 206.512 218.485C206.396 218.259 206.337 217.955 206.337 217.573V211.865ZM176.995 224.276V232H175.971V224.276H176.995ZM179.69 227.485V232H178.708V226.26H179.637L179.69 227.485ZM179.456 228.912L179.048 228.897C179.051 228.504 179.11 228.141 179.223 227.809C179.336 227.473 179.495 227.181 179.7 226.934C179.905 226.686 180.149 226.495 180.432 226.361C180.719 226.223 181.035 226.154 181.382 226.154C181.665 226.154 181.92 226.193 182.146 226.27C182.372 226.345 182.565 226.465 182.724 226.631C182.887 226.797 183.011 227.013 183.096 227.278C183.18 227.54 183.223 227.86 183.223 228.239V232H182.236V228.228C182.236 227.927 182.192 227.687 182.104 227.507C182.015 227.323 181.886 227.19 181.716 227.109C181.547 227.024 181.338 226.981 181.09 226.981C180.846 226.981 180.623 227.033 180.422 227.135C180.224 227.238 180.052 227.379 179.907 227.56C179.766 227.74 179.654 227.947 179.573 228.18C179.495 228.41 179.456 228.654 179.456 228.912ZM186.459 231.114L188.029 226.26H189.032L186.968 232H186.31L186.459 231.114ZM185.149 226.26L186.767 231.141L186.878 232H186.22L184.141 226.26H185.149ZM192.284 232.106C191.884 232.106 191.522 232.039 191.196 231.905C190.875 231.767 190.597 231.574 190.364 231.326C190.134 231.079 189.957 230.785 189.833 230.446C189.709 230.106 189.647 229.735 189.647 229.332V229.109C189.647 228.642 189.716 228.226 189.854 227.862C189.992 227.494 190.18 227.183 190.417 226.928C190.654 226.674 190.922 226.481 191.223 226.35C191.524 226.219 191.835 226.154 192.157 226.154C192.567 226.154 192.921 226.225 193.218 226.366C193.518 226.507 193.764 226.706 193.955 226.96C194.146 227.211 194.288 227.508 194.38 227.851C194.472 228.191 194.517 228.562 194.517 228.965V229.406H190.231V228.605H193.536V228.53C193.522 228.276 193.469 228.028 193.377 227.788C193.288 227.547 193.147 227.349 192.952 227.194C192.758 227.038 192.493 226.96 192.157 226.96C191.934 226.96 191.729 227.008 191.541 227.103C191.354 227.195 191.193 227.333 191.059 227.517C190.924 227.701 190.82 227.926 190.746 228.191C190.671 228.456 190.634 228.762 190.634 229.109V229.332C190.634 229.604 190.671 229.86 190.746 230.101C190.823 230.338 190.935 230.546 191.08 230.727C191.228 230.907 191.407 231.049 191.616 231.151C191.828 231.254 192.068 231.305 192.337 231.305C192.684 231.305 192.977 231.234 193.218 231.093C193.458 230.951 193.669 230.762 193.849 230.525L194.443 230.997C194.319 231.185 194.162 231.363 193.971 231.533C193.78 231.703 193.545 231.841 193.265 231.947C192.99 232.053 192.662 232.106 192.284 232.106ZM199.006 230.477C199.006 230.336 198.974 230.205 198.91 230.085C198.85 229.961 198.724 229.85 198.533 229.751C198.346 229.648 198.063 229.56 197.685 229.485C197.366 229.418 197.078 229.339 196.82 229.247C196.565 229.155 196.348 229.043 196.167 228.912C195.991 228.782 195.854 228.628 195.759 228.451C195.663 228.274 195.616 228.067 195.616 227.83C195.616 227.604 195.665 227.39 195.764 227.188C195.867 226.987 196.01 226.808 196.194 226.652C196.381 226.497 196.606 226.375 196.868 226.286C197.129 226.198 197.421 226.154 197.743 226.154C198.203 226.154 198.595 226.235 198.921 226.398C199.246 226.56 199.495 226.778 199.669 227.05C199.842 227.319 199.929 227.618 199.929 227.947H198.947C198.947 227.788 198.9 227.634 198.804 227.485C198.712 227.333 198.576 227.208 198.396 227.109C198.219 227.01 198.001 226.96 197.743 226.96C197.471 226.96 197.25 227.003 197.08 227.087C196.914 227.169 196.792 227.273 196.714 227.4C196.64 227.528 196.602 227.662 196.602 227.804C196.602 227.91 196.62 228.005 196.655 228.09C196.694 228.171 196.762 228.248 196.857 228.318C196.953 228.385 197.087 228.449 197.26 228.509C197.434 228.569 197.655 228.629 197.923 228.69C198.394 228.796 198.781 228.923 199.085 229.072C199.389 229.22 199.616 229.402 199.764 229.618C199.913 229.834 199.987 230.095 199.987 230.403C199.987 230.654 199.934 230.884 199.828 231.093C199.725 231.301 199.575 231.482 199.377 231.634C199.182 231.782 198.949 231.899 198.677 231.984C198.408 232.065 198.106 232.106 197.77 232.106C197.264 232.106 196.836 232.016 196.486 231.836C196.136 231.655 195.87 231.422 195.69 231.135C195.51 230.849 195.419 230.546 195.419 230.228H196.406C196.42 230.497 196.498 230.711 196.64 230.87C196.781 231.026 196.954 231.137 197.159 231.204C197.365 231.268 197.568 231.3 197.77 231.3C198.038 231.3 198.263 231.264 198.443 231.194C198.627 231.123 198.767 231.026 198.862 230.902C198.958 230.778 199.006 230.637 199.006 230.477ZM203.679 226.26V227.013H200.576V226.26H203.679ZM201.626 224.865H202.608V230.578C202.608 230.773 202.638 230.92 202.698 231.019C202.758 231.118 202.836 231.183 202.931 231.215C203.027 231.247 203.129 231.263 203.239 231.263C203.32 231.263 203.405 231.256 203.494 231.241C203.586 231.224 203.655 231.21 203.701 231.199L203.706 232C203.628 232.025 203.526 232.048 203.398 232.069C203.274 232.094 203.124 232.106 202.947 232.106C202.707 232.106 202.486 232.058 202.284 231.963C202.083 231.867 201.922 231.708 201.801 231.485C201.685 231.259 201.626 230.955 201.626 230.573V224.865ZM205.897 226.26V232H204.91V226.26H205.897ZM204.836 224.737C204.836 224.578 204.884 224.444 204.979 224.334C205.078 224.224 205.223 224.17 205.414 224.17C205.602 224.17 205.745 224.224 205.844 224.334C205.946 224.444 205.998 224.578 205.998 224.737C205.998 224.889 205.946 225.02 205.844 225.13C205.745 225.236 205.602 225.289 205.414 225.289C205.223 225.289 205.078 225.236 204.979 225.13C204.884 225.02 204.836 224.889 204.836 224.737ZM211.191 226.26H212.083V231.878C212.083 232.384 211.98 232.815 211.775 233.172C211.57 233.53 211.283 233.8 210.916 233.984C210.551 234.172 210.13 234.265 209.653 234.265C209.455 234.265 209.221 234.233 208.953 234.17C208.687 234.11 208.426 234.005 208.168 233.857C207.913 233.712 207.699 233.515 207.526 233.268L208.04 232.684C208.281 232.974 208.532 233.176 208.794 233.289C209.059 233.402 209.321 233.459 209.579 233.459C209.89 233.459 210.159 233.401 210.385 233.284C210.611 233.167 210.787 232.994 210.91 232.764C211.038 232.538 211.101 232.258 211.101 231.926V227.522L211.191 226.26ZM207.239 229.194V229.082C207.239 228.644 207.29 228.246 207.393 227.889C207.499 227.528 207.649 227.218 207.844 226.96C208.042 226.702 208.281 226.504 208.56 226.366C208.84 226.225 209.154 226.154 209.504 226.154C209.865 226.154 210.18 226.217 210.449 226.345C210.721 226.469 210.951 226.651 211.138 226.891C211.329 227.128 211.48 227.415 211.589 227.751C211.699 228.087 211.775 228.467 211.817 228.891V229.379C211.779 229.8 211.703 230.179 211.589 230.515C211.48 230.851 211.329 231.137 211.138 231.374C210.951 231.611 210.721 231.793 210.449 231.92C210.176 232.044 209.858 232.106 209.494 232.106C209.151 232.106 208.84 232.034 208.56 231.889C208.284 231.744 208.047 231.54 207.849 231.279C207.651 231.017 207.499 230.709 207.393 230.355C207.29 229.998 207.239 229.611 207.239 229.194ZM208.221 229.082V229.194C208.221 229.48 208.249 229.749 208.305 230C208.366 230.251 208.456 230.472 208.576 230.663C208.7 230.854 208.857 231.004 209.048 231.114C209.239 231.22 209.467 231.273 209.733 231.273C210.058 231.273 210.327 231.204 210.539 231.066C210.751 230.928 210.919 230.746 211.043 230.52C211.17 230.294 211.269 230.048 211.34 229.782V228.504C211.301 228.309 211.241 228.122 211.16 227.942C211.082 227.758 210.979 227.595 210.852 227.454C210.728 227.309 210.574 227.194 210.39 227.109C210.206 227.024 209.991 226.981 209.743 226.981C209.474 226.981 209.243 227.038 209.048 227.151C208.857 227.261 208.7 227.413 208.576 227.607C208.456 227.798 208.366 228.021 208.305 228.276C208.249 228.527 208.221 228.796 208.221 229.082ZM216.958 231.019V228.064C216.958 227.837 216.912 227.641 216.82 227.475C216.732 227.305 216.597 227.174 216.417 227.082C216.237 226.99 216.014 226.944 215.749 226.944C215.501 226.944 215.283 226.987 215.096 227.072C214.912 227.156 214.767 227.268 214.661 227.406C214.558 227.544 214.507 227.692 214.507 227.851H213.526C213.526 227.646 213.579 227.443 213.685 227.241C213.791 227.04 213.943 226.858 214.141 226.695C214.343 226.529 214.583 226.398 214.863 226.302C215.146 226.203 215.46 226.154 215.807 226.154C216.224 226.154 216.592 226.225 216.91 226.366C217.232 226.507 217.483 226.721 217.664 227.008C217.848 227.291 217.94 227.646 217.94 228.074V230.748C217.94 230.939 217.955 231.142 217.987 231.358C218.023 231.574 218.074 231.76 218.141 231.915V232H217.117C217.068 231.887 217.029 231.737 217.001 231.549C216.972 231.358 216.958 231.181 216.958 231.019ZM217.128 228.52L217.138 229.21H216.146C215.867 229.21 215.618 229.233 215.398 229.278C215.179 229.321 214.995 229.386 214.847 229.475C214.698 229.563 214.585 229.675 214.507 229.809C214.429 229.94 214.39 230.094 214.39 230.271C214.39 230.451 214.431 230.615 214.512 230.764C214.594 230.912 214.716 231.031 214.879 231.119C215.045 231.204 215.248 231.247 215.489 231.247C215.789 231.247 216.054 231.183 216.284 231.056C216.514 230.928 216.696 230.773 216.831 230.589C216.969 230.405 217.043 230.226 217.054 230.053L217.473 230.525C217.448 230.674 217.381 230.838 217.271 231.019C217.161 231.199 217.015 231.372 216.831 231.538C216.65 231.701 216.435 231.837 216.184 231.947C215.936 232.053 215.657 232.106 215.345 232.106C214.956 232.106 214.615 232.03 214.321 231.878C214.031 231.726 213.805 231.523 213.642 231.268C213.483 231.01 213.404 230.721 213.404 230.403C213.404 230.095 213.464 229.825 213.584 229.591C213.704 229.355 213.878 229.158 214.104 229.003C214.33 228.843 214.603 228.723 214.921 228.642C215.239 228.561 215.595 228.52 215.987 228.52H217.128ZM221.887 226.26V227.013H218.783V226.26H221.887ZM219.833 224.865H220.815V230.578C220.815 230.773 220.845 230.92 220.905 231.019C220.965 231.118 221.043 231.183 221.139 231.215C221.234 231.247 221.337 231.263 221.446 231.263C221.528 231.263 221.612 231.256 221.701 231.241C221.793 231.224 221.862 231.21 221.908 231.199L221.913 232C221.835 232.025 221.733 232.048 221.605 232.069C221.482 232.094 221.331 232.106 221.154 232.106C220.914 232.106 220.693 232.058 220.491 231.963C220.29 231.867 220.129 231.708 220.009 231.485C219.892 231.259 219.833 230.955 219.833 230.573V224.865ZM224.104 226.26V232H223.117V226.26H224.104ZM223.043 224.737C223.043 224.578 223.091 224.444 223.186 224.334C223.285 224.224 223.43 224.17 223.621 224.17C223.809 224.17 223.952 224.224 224.051 224.334C224.154 224.444 224.205 224.578 224.205 224.737C224.205 224.889 224.154 225.02 224.051 225.13C223.952 225.236 223.809 225.289 223.621 225.289C223.43 225.289 223.285 225.236 223.186 225.13C223.091 225.02 223.043 224.889 223.043 224.737ZM225.42 229.194V229.072C225.42 228.658 225.48 228.274 225.6 227.92C225.72 227.563 225.894 227.254 226.12 226.992C226.346 226.727 226.62 226.522 226.942 226.377C227.264 226.228 227.625 226.154 228.025 226.154C228.428 226.154 228.79 226.228 229.112 226.377C229.437 226.522 229.713 226.727 229.94 226.992C230.17 227.254 230.345 227.563 230.465 227.92C230.585 228.274 230.645 228.658 230.645 229.072V229.194C230.645 229.607 230.585 229.991 230.465 230.345C230.345 230.698 230.17 231.008 229.94 231.273C229.713 231.535 229.439 231.74 229.117 231.889C228.799 232.034 228.438 232.106 228.035 232.106C227.632 232.106 227.269 232.034 226.948 231.889C226.626 231.74 226.35 231.535 226.12 231.273C225.894 231.008 225.72 230.698 225.6 230.345C225.48 229.991 225.42 229.607 225.42 229.194ZM226.401 229.072V229.194C226.401 229.48 226.435 229.751 226.502 230.005C226.569 230.256 226.67 230.479 226.804 230.674C226.942 230.868 227.114 231.022 227.319 231.135C227.524 231.245 227.763 231.3 228.035 231.3C228.304 231.3 228.539 231.245 228.741 231.135C228.946 231.022 229.116 230.868 229.25 230.674C229.384 230.479 229.485 230.256 229.552 230.005C229.623 229.751 229.659 229.48 229.659 229.194V229.072C229.659 228.789 229.623 228.522 229.552 228.271C229.485 228.016 229.383 227.791 229.245 227.597C229.11 227.399 228.941 227.243 228.735 227.13C228.534 227.017 228.297 226.96 228.025 226.96C227.756 226.96 227.519 227.017 227.314 227.13C227.112 227.243 226.942 227.399 226.804 227.597C226.67 227.791 226.569 228.016 226.502 228.271C226.435 228.522 226.401 228.789 226.401 229.072ZM232.858 227.485V232H231.876V226.26H232.804L232.858 227.485ZM232.624 228.912L232.216 228.897C232.219 228.504 232.277 228.141 232.391 227.809C232.504 227.473 232.663 227.181 232.868 226.934C233.073 226.686 233.317 226.495 233.6 226.361C233.887 226.223 234.203 226.154 234.55 226.154C234.833 226.154 235.087 226.193 235.314 226.27C235.54 226.345 235.733 226.465 235.892 226.631C236.055 226.797 236.179 227.013 236.263 227.278C236.348 227.54 236.391 227.86 236.391 228.239V232H235.404V228.228C235.404 227.927 235.36 227.687 235.271 227.507C235.183 227.323 235.054 227.19 234.884 227.109C234.714 227.024 234.506 226.981 234.258 226.981C234.014 226.981 233.791 227.033 233.59 227.135C233.392 227.238 233.22 227.379 233.075 227.56C232.934 227.74 232.822 227.947 232.741 228.18C232.663 228.41 232.624 228.654 232.624 228.912ZM241.224 230.477C241.224 230.336 241.192 230.205 241.128 230.085C241.068 229.961 240.943 229.85 240.752 229.751C240.564 229.648 240.281 229.56 239.903 229.485C239.584 229.418 239.296 229.339 239.038 229.247C238.783 229.155 238.566 229.043 238.385 228.912C238.209 228.782 238.072 228.628 237.977 228.451C237.881 228.274 237.834 228.067 237.834 227.83C237.834 227.604 237.883 227.39 237.982 227.188C238.085 226.987 238.228 226.808 238.412 226.652C238.599 226.497 238.824 226.375 239.086 226.286C239.347 226.198 239.639 226.154 239.961 226.154C240.421 226.154 240.813 226.235 241.139 226.398C241.464 226.56 241.714 226.778 241.887 227.05C242.06 227.319 242.147 227.618 242.147 227.947H241.165C241.165 227.788 241.118 227.634 241.022 227.485C240.93 227.333 240.794 227.208 240.614 227.109C240.437 227.01 240.219 226.96 239.961 226.96C239.689 226.96 239.468 227.003 239.298 227.087C239.132 227.169 239.01 227.273 238.932 227.4C238.858 227.528 238.82 227.662 238.82 227.804C238.82 227.91 238.838 228.005 238.874 228.09C238.912 228.171 238.98 228.248 239.075 228.318C239.171 228.385 239.305 228.449 239.478 228.509C239.652 228.569 239.873 228.629 240.141 228.69C240.612 228.796 240.999 228.923 241.303 229.072C241.607 229.22 241.834 229.402 241.982 229.618C242.131 229.834 242.205 230.095 242.205 230.403C242.205 230.654 242.152 230.884 242.046 231.093C241.943 231.301 241.793 231.482 241.595 231.634C241.401 231.782 241.167 231.899 240.895 231.984C240.626 232.065 240.324 232.106 239.988 232.106C239.482 232.106 239.054 232.016 238.704 231.836C238.354 231.655 238.088 231.422 237.908 231.135C237.728 230.849 237.637 230.546 237.637 230.228H238.624C238.638 230.497 238.716 230.711 238.858 230.87C238.999 231.026 239.172 231.137 239.378 231.204C239.583 231.268 239.786 231.3 239.988 231.3C240.256 231.3 240.481 231.264 240.661 231.194C240.845 231.123 240.985 231.026 241.08 230.902C241.176 230.778 241.224 230.637 241.224 230.477Z" fill="white"/>
<path d="M186.408 190.932V192.807H176.154L176.076 191.391L182.209 181.781H184.094L182.053 185.277L178.527 190.932H186.408ZM184.631 181.781V196H182.277V181.781H184.631ZM197.248 187.699V190.023C197.248 191.137 197.137 192.087 196.916 192.875C196.701 193.656 196.389 194.291 195.979 194.779C195.568 195.268 195.077 195.626 194.504 195.854C193.938 196.081 193.303 196.195 192.6 196.195C192.04 196.195 191.519 196.124 191.037 195.98C190.562 195.837 190.132 195.613 189.748 195.307C189.364 195.001 189.035 194.607 188.762 194.125C188.495 193.637 188.286 193.054 188.137 192.377C187.993 191.7 187.922 190.915 187.922 190.023V187.699C187.922 186.579 188.033 185.635 188.254 184.867C188.475 184.092 188.791 183.464 189.201 182.982C189.611 182.494 190.1 182.139 190.666 181.918C191.239 181.697 191.877 181.586 192.58 181.586C193.146 181.586 193.667 181.658 194.143 181.801C194.624 181.938 195.054 182.156 195.432 182.455C195.816 182.755 196.141 183.145 196.408 183.627C196.682 184.102 196.89 184.678 197.033 185.355C197.176 186.026 197.248 186.807 197.248 187.699ZM194.895 190.355V187.348C194.895 186.781 194.862 186.283 194.797 185.854C194.732 185.417 194.634 185.049 194.504 184.75C194.38 184.444 194.224 184.197 194.035 184.008C193.846 183.812 193.632 183.673 193.391 183.588C193.15 183.497 192.88 183.451 192.58 183.451C192.215 183.451 191.89 183.523 191.604 183.666C191.317 183.803 191.076 184.024 190.881 184.33C190.686 184.636 190.536 185.04 190.432 185.541C190.334 186.036 190.285 186.638 190.285 187.348V190.355C190.285 190.928 190.318 191.433 190.383 191.869C190.448 192.305 190.546 192.68 190.676 192.992C190.806 193.298 190.962 193.552 191.145 193.754C191.333 193.949 191.548 194.092 191.789 194.184C192.036 194.275 192.307 194.32 192.6 194.32C192.971 194.32 193.299 194.249 193.586 194.105C193.872 193.962 194.113 193.734 194.309 193.422C194.504 193.103 194.65 192.689 194.748 192.182C194.846 191.674 194.895 191.065 194.895 190.355ZM199.25 185.268V184.516C199.25 183.975 199.367 183.484 199.602 183.041C199.836 182.598 200.178 182.243 200.627 181.977C201.076 181.71 201.617 181.576 202.248 181.576C202.899 181.576 203.446 181.71 203.889 181.977C204.338 182.243 204.68 182.598 204.914 183.041C205.148 183.484 205.266 183.975 205.266 184.516V185.268C205.266 185.795 205.148 186.28 204.914 186.723C204.686 187.165 204.348 187.52 203.898 187.787C203.456 188.054 202.912 188.188 202.268 188.188C201.63 188.188 201.083 188.054 200.627 187.787C200.178 187.52 199.836 187.165 199.602 186.723C199.367 186.28 199.25 185.795 199.25 185.268ZM200.881 184.516V185.268C200.881 185.528 200.93 185.775 201.027 186.01C201.132 186.244 201.288 186.433 201.496 186.576C201.704 186.719 201.962 186.791 202.268 186.791C202.58 186.791 202.834 186.719 203.029 186.576C203.231 186.433 203.381 186.244 203.479 186.01C203.576 185.775 203.625 185.528 203.625 185.268V184.516C203.625 184.249 203.573 183.998 203.469 183.764C203.371 183.523 203.221 183.331 203.02 183.188C202.818 183.044 202.561 182.973 202.248 182.973C201.949 182.973 201.695 183.044 201.486 183.188C201.285 183.331 201.132 183.523 201.027 183.764C200.93 183.998 200.881 184.249 200.881 184.516ZM206.105 193.275V192.514C206.105 191.98 206.223 191.492 206.457 191.049C206.698 190.606 207.043 190.251 207.492 189.984C207.941 189.717 208.482 189.584 209.113 189.584C209.764 189.584 210.311 189.717 210.754 189.984C211.203 190.251 211.542 190.606 211.77 191.049C212.004 191.492 212.121 191.98 212.121 192.514V193.275C212.121 193.809 212.004 194.298 211.77 194.74C211.542 195.183 211.206 195.538 210.764 195.805C210.321 196.072 209.777 196.205 209.133 196.205C208.495 196.205 207.948 196.072 207.492 195.805C207.043 195.538 206.698 195.183 206.457 194.74C206.223 194.298 206.105 193.809 206.105 193.275ZM207.746 192.514V193.275C207.746 193.536 207.798 193.783 207.902 194.018C208.013 194.252 208.173 194.444 208.381 194.594C208.589 194.737 208.84 194.809 209.133 194.809C209.465 194.809 209.732 194.737 209.934 194.594C210.135 194.444 210.279 194.255 210.363 194.027C210.454 193.793 210.5 193.542 210.5 193.275V192.514C210.5 192.247 210.448 191.996 210.344 191.762C210.246 191.527 210.093 191.339 209.885 191.195C209.683 191.052 209.426 190.98 209.113 190.98C208.807 190.98 208.553 191.052 208.352 191.195C208.15 191.339 207.997 191.527 207.893 191.762C207.795 191.996 207.746 192.247 207.746 192.514ZM209.699 183.812L202.756 194.926L201.555 194.232L208.498 183.119L209.699 183.812Z" fill="white"/>
<path d="M161.145 61.125V63H151.613V61.3887L156.242 56.3398C156.75 55.7669 157.15 55.2721 157.443 54.8555C157.736 54.4388 157.941 54.0645 158.059 53.7324C158.182 53.3939 158.244 53.0651 158.244 52.7461C158.244 52.2969 158.16 51.903 157.99 51.5645C157.827 51.2194 157.587 50.9492 157.268 50.7539C156.949 50.5521 156.561 50.4512 156.105 50.4512C155.578 50.4512 155.135 50.5651 154.777 50.793C154.419 51.0208 154.149 51.3366 153.967 51.7402C153.785 52.1374 153.693 52.5931 153.693 53.1074H151.34C151.34 52.2806 151.529 51.5254 151.906 50.8418C152.284 50.1517 152.831 49.6048 153.547 49.2012C154.263 48.791 155.126 48.5859 156.135 48.5859C157.085 48.5859 157.893 48.7454 158.557 49.0645C159.221 49.3835 159.725 49.8359 160.07 50.4219C160.422 51.0078 160.598 51.7012 160.598 52.502C160.598 52.9447 160.526 53.3841 160.383 53.8203C160.24 54.2565 160.035 54.6927 159.768 55.1289C159.507 55.5586 159.198 55.9915 158.84 56.4277C158.482 56.8574 158.088 57.2936 157.658 57.7363L154.582 61.125H161.145ZM172.248 54.6992V57.0234C172.248 58.1367 172.137 59.0872 171.916 59.875C171.701 60.6562 171.389 61.291 170.979 61.7793C170.568 62.2676 170.077 62.6257 169.504 62.8535C168.938 63.0814 168.303 63.1953 167.6 63.1953C167.04 63.1953 166.519 63.1237 166.037 62.9805C165.562 62.8372 165.132 62.6126 164.748 62.3066C164.364 62.0007 164.035 61.6068 163.762 61.125C163.495 60.6367 163.286 60.054 163.137 59.377C162.993 58.6999 162.922 57.9154 162.922 57.0234V54.6992C162.922 53.5794 163.033 52.6354 163.254 51.8672C163.475 51.0924 163.791 50.4642 164.201 49.9824C164.611 49.4941 165.1 49.1393 165.666 48.918C166.239 48.6966 166.877 48.5859 167.58 48.5859C168.146 48.5859 168.667 48.6576 169.143 48.8008C169.624 48.9375 170.054 49.1556 170.432 49.4551C170.816 49.7546 171.141 50.1452 171.408 50.627C171.682 51.1022 171.89 51.6784 172.033 52.3555C172.176 53.026 172.248 53.8073 172.248 54.6992ZM169.895 57.3555V54.3477C169.895 53.7812 169.862 53.2832 169.797 52.8535C169.732 52.4173 169.634 52.0495 169.504 51.75C169.38 51.444 169.224 51.1966 169.035 51.0078C168.846 50.8125 168.632 50.6725 168.391 50.5879C168.15 50.4967 167.88 50.4512 167.58 50.4512C167.215 50.4512 166.89 50.5228 166.604 50.666C166.317 50.8027 166.076 51.0241 165.881 51.3301C165.686 51.6361 165.536 52.0397 165.432 52.541C165.334 53.0358 165.285 53.638 165.285 54.3477V57.3555C165.285 57.9284 165.318 58.4329 165.383 58.8691C165.448 59.3053 165.546 59.6797 165.676 59.9922C165.806 60.2982 165.962 60.5521 166.145 60.7539C166.333 60.9492 166.548 61.0924 166.789 61.1836C167.036 61.2747 167.307 61.3203 167.6 61.3203C167.971 61.3203 168.299 61.2487 168.586 61.1055C168.872 60.9622 169.113 60.7344 169.309 60.4219C169.504 60.1029 169.65 59.6895 169.748 59.1816C169.846 58.6738 169.895 58.0651 169.895 57.3555ZM174.25 52.2676V51.5156C174.25 50.9753 174.367 50.4837 174.602 50.041C174.836 49.5983 175.178 49.2435 175.627 48.9766C176.076 48.7096 176.617 48.5762 177.248 48.5762C177.899 48.5762 178.446 48.7096 178.889 48.9766C179.338 49.2435 179.68 49.5983 179.914 50.041C180.148 50.4837 180.266 50.9753 180.266 51.5156V52.2676C180.266 52.7949 180.148 53.2799 179.914 53.7227C179.686 54.1654 179.348 54.5202 178.898 54.7871C178.456 55.054 177.912 55.1875 177.268 55.1875C176.63 55.1875 176.083 55.054 175.627 54.7871C175.178 54.5202 174.836 54.1654 174.602 53.7227C174.367 53.2799 174.25 52.7949 174.25 52.2676ZM175.881 51.5156V52.2676C175.881 52.528 175.93 52.7754 176.027 53.0098C176.132 53.2441 176.288 53.4329 176.496 53.5762C176.704 53.7194 176.962 53.791 177.268 53.791C177.58 53.791 177.834 53.7194 178.029 53.5762C178.231 53.4329 178.381 53.2441 178.479 53.0098C178.576 52.7754 178.625 52.528 178.625 52.2676V51.5156C178.625 51.2487 178.573 50.998 178.469 50.7637C178.371 50.5228 178.221 50.3307 178.02 50.1875C177.818 50.0443 177.561 49.9727 177.248 49.9727C176.949 49.9727 176.695 50.0443 176.486 50.1875C176.285 50.3307 176.132 50.5228 176.027 50.7637C175.93 50.998 175.881 51.2487 175.881 51.5156ZM181.105 60.2754V59.5137C181.105 58.9798 181.223 58.4915 181.457 58.0488C181.698 57.6061 182.043 57.2513 182.492 56.9844C182.941 56.7174 183.482 56.584 184.113 56.584C184.764 56.584 185.311 56.7174 185.754 56.9844C186.203 57.2513 186.542 57.6061 186.77 58.0488C187.004 58.4915 187.121 58.9798 187.121 59.5137V60.2754C187.121 60.8092 187.004 61.2975 186.77 61.7402C186.542 62.1829 186.206 62.5378 185.764 62.8047C185.321 63.0716 184.777 63.2051 184.133 63.2051C183.495 63.2051 182.948 63.0716 182.492 62.8047C182.043 62.5378 181.698 62.1829 181.457 61.7402C181.223 61.2975 181.105 60.8092 181.105 60.2754ZM182.746 59.5137V60.2754C182.746 60.5358 182.798 60.7832 182.902 61.0176C183.013 61.252 183.173 61.444 183.381 61.5938C183.589 61.737 183.84 61.8086 184.133 61.8086C184.465 61.8086 184.732 61.737 184.934 61.5938C185.135 61.444 185.279 61.2552 185.363 61.0273C185.454 60.793 185.5 60.5423 185.5 60.2754V59.5137C185.5 59.2467 185.448 58.9961 185.344 58.7617C185.246 58.5273 185.093 58.3385 184.885 58.1953C184.683 58.0521 184.426 57.9805 184.113 57.9805C183.807 57.9805 183.553 58.0521 183.352 58.1953C183.15 58.3385 182.997 58.5273 182.893 58.7617C182.795 58.9961 182.746 59.2467 182.746 59.5137ZM184.699 50.8125L177.756 61.9258L176.555 61.2324L183.498 50.1191L184.699 50.8125Z" fill="white"/>
<path d="M155.581 85.1671V86H151.719V85.1671H155.581ZM151.92 78.2758V86H150.897V78.2758H151.92ZM158.987 86.1061C158.587 86.1061 158.225 86.0389 157.899 85.9045C157.577 85.7666 157.3 85.5738 157.066 85.3263C156.837 85.0787 156.66 84.7851 156.536 84.4456C156.412 84.1061 156.35 83.7347 156.35 83.3315V83.1087C156.35 82.6419 156.419 82.2263 156.557 81.862C156.695 81.4942 156.882 81.183 157.119 80.9283C157.356 80.6737 157.625 80.4809 157.926 80.3501C158.226 80.2192 158.538 80.1538 158.86 80.1538C159.27 80.1538 159.623 80.2245 159.921 80.366C160.221 80.5074 160.467 80.7055 160.658 80.9601C160.849 81.2113 160.99 81.5083 161.082 81.8514C161.174 82.1909 161.22 82.5623 161.22 82.9655V83.4058H156.934V82.6047H160.239V82.5305C160.225 82.2758 160.172 82.0282 160.08 81.7877C159.991 81.5472 159.85 81.3492 159.655 81.1936C159.461 81.038 159.196 80.9601 158.86 80.9601C158.637 80.9601 158.432 81.0079 158.244 81.1034C158.057 81.1953 157.896 81.3333 157.761 81.5172C157.627 81.7011 157.523 81.9257 157.448 82.1909C157.374 82.4562 157.337 82.7621 157.337 83.1087V83.3315C157.337 83.6039 157.374 83.8603 157.448 84.1008C157.526 84.3377 157.638 84.5464 157.783 84.7268C157.931 84.9071 158.11 85.0486 158.318 85.1512C158.531 85.2537 158.771 85.305 159.04 85.305C159.387 85.305 159.68 85.2343 159.921 85.0928C160.161 84.9514 160.371 84.7621 160.552 84.5252L161.146 84.9973C161.022 85.1848 160.865 85.3634 160.674 85.5332C160.483 85.7029 160.248 85.8408 159.968 85.9469C159.692 86.0531 159.365 86.1061 158.987 86.1061ZM166.085 80.2599H166.976V85.878C166.976 86.3837 166.874 86.8152 166.669 87.1724C166.464 87.5296 166.177 87.8002 165.809 87.9841C165.445 88.1716 165.024 88.2653 164.547 88.2653C164.349 88.2653 164.115 88.2335 163.846 88.1698C163.581 88.1097 163.319 88.0053 163.061 87.8568C162.807 87.7118 162.593 87.5155 162.419 87.2679L162.934 86.6844C163.174 86.9744 163.425 87.176 163.687 87.2891C163.952 87.4023 164.214 87.4589 164.472 87.4589C164.784 87.4589 165.052 87.4005 165.279 87.2838C165.505 87.1671 165.68 86.9938 165.804 86.7639C165.931 86.5376 165.995 86.2582 165.995 85.9257V81.5225L166.085 80.2599ZM162.133 83.1936V83.0822C162.133 82.6436 162.184 82.2458 162.287 81.8885C162.393 81.5278 162.543 81.2183 162.738 80.9601C162.936 80.702 163.174 80.5039 163.454 80.366C163.733 80.2245 164.048 80.1538 164.398 80.1538C164.759 80.1538 165.074 80.2174 165.342 80.3448C165.615 80.4685 165.845 80.6507 166.032 80.8912C166.223 81.1281 166.373 81.4146 166.483 81.7506C166.593 82.0866 166.669 82.4668 166.711 82.8912V83.3793C166.672 83.8001 166.596 84.1786 166.483 84.5146C166.373 84.8506 166.223 85.137 166.032 85.374C165.845 85.611 165.615 85.7931 165.342 85.9204C165.07 86.0442 164.752 86.1061 164.387 86.1061C164.044 86.1061 163.733 86.0336 163.454 85.8886C163.178 85.7436 162.941 85.5402 162.743 85.2785C162.545 85.0168 162.393 84.7091 162.287 84.3554C162.184 83.9982 162.133 83.6109 162.133 83.1936ZM163.114 83.0822V83.1936C163.114 83.4801 163.143 83.7489 163.199 84C163.259 84.2511 163.349 84.4721 163.47 84.6631C163.593 84.8541 163.751 85.0044 163.942 85.114C164.133 85.2201 164.361 85.2732 164.626 85.2732C164.952 85.2732 165.22 85.2042 165.433 85.0663C165.645 84.9284 165.813 84.7462 165.937 84.5199C166.064 84.2935 166.163 84.0477 166.234 83.7825V82.5039C166.195 82.3094 166.135 82.122 166.053 81.9416C165.975 81.7577 165.873 81.595 165.746 81.4535C165.622 81.3085 165.468 81.1936 165.284 81.1087C165.1 81.0238 164.884 80.9814 164.637 80.9814C164.368 80.9814 164.136 81.038 163.942 81.1511C163.751 81.2608 163.593 81.4128 163.47 81.6074C163.349 81.7984 163.259 82.0212 163.199 82.2758C163.143 82.5269 163.114 82.7957 163.114 83.0822ZM171.852 85.0186V82.0636C171.852 81.8373 171.806 81.641 171.714 81.4747C171.625 81.305 171.491 81.1741 171.311 81.0822C171.13 80.9902 170.907 80.9442 170.642 80.9442C170.395 80.9442 170.177 80.9867 169.99 81.0716C169.806 81.1564 169.661 81.2678 169.555 81.4058C169.452 81.5437 169.401 81.6923 169.401 81.8514H168.419C168.419 81.6463 168.472 81.4429 168.578 81.2413C168.685 81.0397 168.837 80.8576 169.035 80.6949C169.236 80.5287 169.477 80.3978 169.756 80.3023C170.039 80.2033 170.354 80.1538 170.701 80.1538C171.118 80.1538 171.486 80.2245 171.804 80.366C172.126 80.5074 172.377 80.7214 172.557 81.0079C172.741 81.2908 172.833 81.6463 172.833 82.0742V84.748C172.833 84.939 172.849 85.1423 172.881 85.3581C172.916 85.5738 172.968 85.7595 173.035 85.9151V86H172.011C171.961 85.8868 171.922 85.7365 171.894 85.5491C171.866 85.3581 171.852 85.1812 171.852 85.0186ZM172.022 82.5198L172.032 83.2095H171.04C170.761 83.2095 170.511 83.2325 170.292 83.2785C170.073 83.3209 169.889 83.3863 169.74 83.4748C169.592 83.5632 169.479 83.6746 169.401 83.809C169.323 83.9398 169.284 84.0937 169.284 84.2705C169.284 84.4509 169.325 84.6154 169.406 84.7639C169.487 84.9125 169.609 85.0309 169.772 85.1194C169.938 85.2042 170.142 85.2467 170.382 85.2467C170.683 85.2467 170.948 85.183 171.178 85.0557C171.408 84.9284 171.59 84.7728 171.724 84.5888C171.862 84.4049 171.937 84.2263 171.947 84.053L172.366 84.5252C172.342 84.6737 172.274 84.8382 172.165 85.0186C172.055 85.1989 171.908 85.3722 171.724 85.5385C171.544 85.7011 171.328 85.8373 171.077 85.9469C170.83 86.0531 170.55 86.1061 170.239 86.1061C169.85 86.1061 169.509 86.0301 169.215 85.878C168.925 85.7259 168.699 85.5225 168.536 85.2679C168.377 85.0097 168.297 84.7215 168.297 84.4032C168.297 84.0955 168.357 83.8249 168.478 83.5915C168.598 83.3545 168.771 83.1582 168.998 83.0026C169.224 82.8435 169.496 82.7232 169.815 82.6419C170.133 82.5605 170.488 82.5198 170.881 82.5198H172.022ZM175.443 77.8514V86H174.457V77.8514H175.443ZM151.995 91.2758V99H150.971V91.2758H151.995ZM154.69 94.4854V99H153.708V93.2599H154.637L154.69 94.4854ZM154.456 95.9124L154.048 95.8965C154.051 95.5039 154.11 95.1414 154.223 94.809C154.336 94.473 154.495 94.1812 154.7 93.9336C154.905 93.686 155.149 93.4951 155.432 93.3607C155.719 93.2227 156.035 93.1538 156.382 93.1538C156.665 93.1538 156.92 93.1927 157.146 93.2705C157.372 93.3448 157.565 93.465 157.724 93.6312C157.887 93.7975 158.011 94.0132 158.096 94.2785C158.18 94.5402 158.223 94.8602 158.223 95.2387V99H157.236V95.2281C157.236 94.9274 157.192 94.6869 157.104 94.5066C157.015 94.3227 156.886 94.19 156.716 94.1087C156.547 94.0238 156.338 93.9814 156.09 93.9814C155.846 93.9814 155.623 94.0326 155.422 94.1352C155.224 94.2378 155.052 94.3792 154.907 94.5596C154.766 94.74 154.654 94.9469 154.573 95.1803C154.495 95.4102 154.456 95.6542 154.456 95.9124ZM161.459 98.114L163.029 93.2599H164.032L161.968 99H161.31L161.459 98.114ZM160.149 93.2599L161.767 98.1406L161.878 99H161.22L159.141 93.2599H160.149ZM167.284 99.1061C166.884 99.1061 166.522 99.0389 166.196 98.9045C165.875 98.7666 165.597 98.5738 165.364 98.3263C165.134 98.0787 164.957 97.7851 164.833 97.4456C164.709 97.1061 164.647 96.7347 164.647 96.3315V96.1087C164.647 95.6419 164.716 95.2263 164.854 94.862C164.992 94.4942 165.18 94.183 165.417 93.9283C165.654 93.6737 165.922 93.4809 166.223 93.3501C166.524 93.2192 166.835 93.1538 167.157 93.1538C167.567 93.1538 167.921 93.2245 168.218 93.366C168.518 93.5074 168.764 93.7055 168.955 93.9601C169.146 94.2113 169.288 94.5083 169.38 94.8514C169.472 95.1909 169.517 95.5623 169.517 95.9655V96.4058H165.231V95.6047H168.536V95.5305C168.522 95.2758 168.469 95.0282 168.377 94.7877C168.288 94.5472 168.147 94.3492 167.952 94.1936C167.758 94.038 167.493 93.9601 167.157 93.9601C166.934 93.9601 166.729 94.0079 166.541 94.1034C166.354 94.1953 166.193 94.3333 166.059 94.5172C165.924 94.7011 165.82 94.9257 165.746 95.1909C165.671 95.4562 165.634 95.7621 165.634 96.1087V96.3315C165.634 96.6039 165.671 96.8603 165.746 97.1008C165.823 97.3377 165.935 97.5464 166.08 97.7268C166.228 97.9071 166.407 98.0486 166.616 98.1512C166.828 98.2537 167.068 98.305 167.337 98.305C167.684 98.305 167.977 98.2343 168.218 98.0928C168.458 97.9514 168.669 97.7621 168.849 97.5252L169.443 97.9973C169.319 98.1848 169.162 98.3634 168.971 98.5332C168.78 98.7029 168.545 98.8408 168.265 98.9469C167.99 99.0531 167.662 99.1061 167.284 99.1061ZM174.006 97.4774C174.006 97.336 173.974 97.2051 173.91 97.0849C173.85 96.9611 173.724 96.8497 173.533 96.7506C173.346 96.6481 173.063 96.5596 172.685 96.4854C172.366 96.4182 172.078 96.3386 171.82 96.2466C171.565 96.1547 171.348 96.0433 171.167 95.9124C170.991 95.7816 170.854 95.6277 170.759 95.4509C170.663 95.274 170.616 95.0671 170.616 94.8302C170.616 94.6038 170.665 94.3899 170.764 94.1883C170.867 93.9867 171.01 93.8081 171.194 93.6524C171.381 93.4968 171.606 93.3748 171.868 93.2864C172.129 93.198 172.421 93.1538 172.743 93.1538C173.203 93.1538 173.595 93.2351 173.921 93.3978C174.246 93.5605 174.495 93.778 174.669 94.0503C174.842 94.3191 174.929 94.618 174.929 94.9469H173.947C173.947 94.7877 173.9 94.6339 173.804 94.4854C173.712 94.3333 173.576 94.2077 173.396 94.1087C173.219 94.0097 173.001 93.9601 172.743 93.9601C172.471 93.9601 172.25 94.0026 172.08 94.0875C171.914 94.1688 171.792 94.2731 171.714 94.4005C171.64 94.5278 171.602 94.6622 171.602 94.8037C171.602 94.9098 171.62 95.0053 171.655 95.0901C171.694 95.1715 171.762 95.2475 171.857 95.3183C171.953 95.3855 172.087 95.4491 172.26 95.5092C172.434 95.5694 172.655 95.6295 172.923 95.6896C173.394 95.7957 173.781 95.923 174.085 96.0716C174.389 96.2201 174.616 96.4023 174.764 96.618C174.913 96.8337 174.987 97.0955 174.987 97.4032C174.987 97.6543 174.934 97.8842 174.828 98.0928C174.725 98.3015 174.575 98.4819 174.377 98.6339C174.182 98.7825 173.949 98.8992 173.677 98.9841C173.408 99.0654 173.106 99.1061 172.77 99.1061C172.264 99.1061 171.836 99.0159 171.486 98.8355C171.136 98.6552 170.87 98.4217 170.69 98.1353C170.51 97.8488 170.419 97.5464 170.419 97.2281H171.406C171.42 97.4969 171.498 97.7109 171.64 97.87C171.781 98.0256 171.954 98.137 172.159 98.2042C172.365 98.2679 172.568 98.2997 172.77 98.2997C173.038 98.2997 173.263 98.2644 173.443 98.1936C173.627 98.1229 173.767 98.0256 173.862 97.9018C173.958 97.7781 174.006 97.6366 174.006 97.4774ZM178.679 93.2599V94.0132H175.576V93.2599H178.679ZM176.626 91.8646H177.608V97.5782C177.608 97.7728 177.638 97.9195 177.698 98.0186C177.758 98.1176 177.836 98.183 177.931 98.2148C178.027 98.2467 178.129 98.2626 178.239 98.2626C178.32 98.2626 178.405 98.2555 178.494 98.2414C178.586 98.2237 178.655 98.2095 178.701 98.1989L178.706 99C178.628 99.0248 178.526 99.0477 178.398 99.069C178.274 99.0937 178.124 99.1061 177.947 99.1061C177.707 99.1061 177.486 99.0584 177.284 98.9629C177.083 98.8674 176.922 98.7082 176.801 98.4854C176.685 98.2591 176.626 97.9549 176.626 97.5729V91.8646ZM180.897 93.2599V99H179.91V93.2599H180.897ZM179.836 91.7373C179.836 91.5782 179.884 91.4438 179.979 91.3341C180.078 91.2245 180.223 91.1697 180.414 91.1697C180.602 91.1697 180.745 91.2245 180.844 91.3341C180.946 91.4438 180.998 91.5782 180.998 91.7373C180.998 91.8894 180.946 92.0202 180.844 92.1299C180.745 92.236 180.602 92.289 180.414 92.289C180.223 92.289 180.078 92.236 179.979 92.1299C179.884 92.0202 179.836 91.8894 179.836 91.7373ZM186.191 93.2599H187.083V98.878C187.083 99.3837 186.98 99.8152 186.775 100.172C186.57 100.53 186.283 100.8 185.916 100.984C185.551 101.172 185.13 101.265 184.653 101.265C184.455 101.265 184.221 101.233 183.953 101.17C183.687 101.11 183.426 101.005 183.168 100.857C182.913 100.712 182.699 100.515 182.526 100.268L183.04 99.6844C183.281 99.9744 183.532 100.176 183.794 100.289C184.059 100.402 184.321 100.459 184.579 100.459C184.89 100.459 185.159 100.401 185.385 100.284C185.611 100.167 185.787 99.9938 185.91 99.7639C186.038 99.5376 186.101 99.2582 186.101 98.9257V94.5225L186.191 93.2599ZM182.239 96.1936V96.0822C182.239 95.6436 182.29 95.2458 182.393 94.8885C182.499 94.5278 182.649 94.2183 182.844 93.9601C183.042 93.702 183.281 93.5039 183.56 93.366C183.84 93.2245 184.154 93.1538 184.504 93.1538C184.865 93.1538 185.18 93.2174 185.449 93.3448C185.721 93.4685 185.951 93.6507 186.138 93.8912C186.329 94.1281 186.48 94.4146 186.589 94.7506C186.699 95.0866 186.775 95.4668 186.817 95.8912V96.3793C186.779 96.8001 186.703 97.1786 186.589 97.5146C186.48 97.8506 186.329 98.137 186.138 98.374C185.951 98.611 185.721 98.7931 185.449 98.9204C185.176 99.0442 184.858 99.1061 184.494 99.1061C184.151 99.1061 183.84 99.0336 183.56 98.8886C183.284 98.7436 183.047 98.5402 182.849 98.2785C182.651 98.0168 182.499 97.7091 182.393 97.3554C182.29 96.9982 182.239 96.6109 182.239 96.1936ZM183.221 96.0822V96.1936C183.221 96.4801 183.249 96.7489 183.305 97C183.366 97.2511 183.456 97.4721 183.576 97.6631C183.7 97.8541 183.857 98.0044 184.048 98.114C184.239 98.2201 184.467 98.2732 184.733 98.2732C185.058 98.2732 185.327 98.2042 185.539 98.0663C185.751 97.9284 185.919 97.7462 186.043 97.5199C186.17 97.2935 186.269 97.0477 186.34 96.7825V95.5039C186.301 95.3094 186.241 95.122 186.16 94.9416C186.082 94.7577 185.979 94.595 185.852 94.4535C185.728 94.3085 185.574 94.1936 185.39 94.1087C185.206 94.0238 184.991 93.9814 184.743 93.9814C184.474 93.9814 184.243 94.038 184.048 94.1511C183.857 94.2608 183.7 94.4128 183.576 94.6074C183.456 94.7984 183.366 95.0212 183.305 95.2758C183.249 95.5269 183.221 95.7957 183.221 96.0822ZM191.958 98.0186V95.0636C191.958 94.8373 191.912 94.641 191.82 94.4747C191.732 94.305 191.597 94.1741 191.417 94.0822C191.237 93.9902 191.014 93.9442 190.749 93.9442C190.501 93.9442 190.283 93.9867 190.096 94.0716C189.912 94.1564 189.767 94.2678 189.661 94.4058C189.558 94.5437 189.507 94.6923 189.507 94.8514H188.526C188.526 94.6463 188.579 94.4429 188.685 94.2413C188.791 94.0397 188.943 93.8576 189.141 93.6949C189.343 93.5287 189.583 93.3978 189.863 93.3023C190.146 93.2033 190.46 93.1538 190.807 93.1538C191.224 93.1538 191.592 93.2245 191.91 93.366C192.232 93.5074 192.483 93.7214 192.664 94.0079C192.848 94.2908 192.94 94.6463 192.94 95.0742V97.748C192.94 97.939 192.955 98.1423 192.987 98.3581C193.023 98.5738 193.074 98.7595 193.141 98.9151V99H192.117C192.068 98.8868 192.029 98.7365 192.001 98.5491C191.972 98.3581 191.958 98.1812 191.958 98.0186ZM192.128 95.5198L192.138 96.2095H191.146C190.867 96.2095 190.618 96.2325 190.398 96.2785C190.179 96.3209 189.995 96.3863 189.847 96.4748C189.698 96.5632 189.585 96.6746 189.507 96.809C189.429 96.9398 189.39 97.0937 189.39 97.2705C189.39 97.4509 189.431 97.6154 189.512 97.7639C189.594 97.9125 189.716 98.0309 189.879 98.1194C190.045 98.2042 190.248 98.2467 190.489 98.2467C190.789 98.2467 191.054 98.183 191.284 98.0557C191.514 97.9284 191.696 97.7728 191.831 97.5888C191.969 97.4049 192.043 97.2263 192.054 97.053L192.473 97.5252C192.448 97.6737 192.381 97.8382 192.271 98.0186C192.161 98.1989 192.015 98.3722 191.831 98.5385C191.65 98.7011 191.435 98.8373 191.184 98.9469C190.936 99.0531 190.657 99.1061 190.345 99.1061C189.956 99.1061 189.615 99.0301 189.321 98.878C189.031 98.7259 188.805 98.5225 188.642 98.2679C188.483 98.0097 188.404 97.7215 188.404 97.4032C188.404 97.0955 188.464 96.8249 188.584 96.5915C188.704 96.3545 188.878 96.1582 189.104 96.0026C189.33 95.8435 189.603 95.7232 189.921 95.6419C190.239 95.5605 190.595 95.5198 190.987 95.5198H192.128ZM196.887 93.2599V94.0132H193.783V93.2599H196.887ZM194.833 91.8646H195.815V97.5782C195.815 97.7728 195.845 97.9195 195.905 98.0186C195.965 98.1176 196.043 98.183 196.139 98.2148C196.234 98.2467 196.337 98.2626 196.446 98.2626C196.528 98.2626 196.612 98.2555 196.701 98.2414C196.793 98.2237 196.862 98.2095 196.908 98.1989L196.913 99C196.835 99.0248 196.733 99.0477 196.605 99.069C196.482 99.0937 196.331 99.1061 196.154 99.1061C195.914 99.1061 195.693 99.0584 195.491 98.9629C195.29 98.8674 195.129 98.7082 195.009 98.4854C194.892 98.2591 194.833 97.9549 194.833 97.5729V91.8646ZM199.104 93.2599V99H198.117V93.2599H199.104ZM198.043 91.7373C198.043 91.5782 198.091 91.4438 198.186 91.3341C198.285 91.2245 198.43 91.1697 198.621 91.1697C198.809 91.1697 198.952 91.2245 199.051 91.3341C199.154 91.4438 199.205 91.5782 199.205 91.7373C199.205 91.8894 199.154 92.0202 199.051 92.1299C198.952 92.236 198.809 92.289 198.621 92.289C198.43 92.289 198.285 92.236 198.186 92.1299C198.091 92.0202 198.043 91.8894 198.043 91.7373ZM200.42 96.1936V96.0716C200.42 95.6578 200.48 95.274 200.6 94.9204C200.72 94.5632 200.894 94.2537 201.12 93.992C201.346 93.7267 201.62 93.5216 201.942 93.3766C202.264 93.228 202.625 93.1538 203.025 93.1538C203.428 93.1538 203.79 93.228 204.112 93.3766C204.437 93.5216 204.713 93.7267 204.94 93.992C205.17 94.2537 205.345 94.5632 205.465 94.9204C205.585 95.274 205.645 95.6578 205.645 96.0716V96.1936C205.645 96.6074 205.585 96.9911 205.465 97.3448C205.345 97.6985 205.17 98.0079 204.94 98.2732C204.713 98.5349 204.439 98.74 204.117 98.8886C203.799 99.0336 203.438 99.1061 203.035 99.1061C202.632 99.1061 202.269 99.0336 201.948 98.8886C201.626 98.74 201.35 98.5349 201.12 98.2732C200.894 98.0079 200.72 97.6985 200.6 97.3448C200.48 96.9911 200.42 96.6074 200.42 96.1936ZM201.401 96.0716V96.1936C201.401 96.4801 201.435 96.7506 201.502 97.0053C201.569 97.2564 201.67 97.4792 201.804 97.6737C201.942 97.8682 202.114 98.0221 202.319 98.1353C202.524 98.2449 202.763 98.2997 203.035 98.2997C203.304 98.2997 203.539 98.2449 203.741 98.1353C203.946 98.0221 204.116 97.8682 204.25 97.6737C204.384 97.4792 204.485 97.2564 204.552 97.0053C204.623 96.7506 204.659 96.4801 204.659 96.1936V96.0716C204.659 95.7886 204.623 95.5216 204.552 95.2705C204.485 95.0159 204.383 94.7913 204.245 94.5968C204.11 94.3987 203.941 94.2431 203.735 94.1299C203.534 94.0167 203.297 93.9601 203.025 93.9601C202.756 93.9601 202.519 94.0167 202.314 94.1299C202.112 94.2431 201.942 94.3987 201.804 94.5968C201.67 94.7913 201.569 95.0159 201.502 95.2705C201.435 95.5216 201.401 95.7886 201.401 96.0716ZM207.858 94.4854V99H206.876V93.2599H207.804L207.858 94.4854ZM207.624 95.9124L207.216 95.8965C207.219 95.5039 207.277 95.1414 207.391 94.809C207.504 94.473 207.663 94.1812 207.868 93.9336C208.073 93.686 208.317 93.4951 208.6 93.3607C208.887 93.2227 209.203 93.1538 209.55 93.1538C209.833 93.1538 210.087 93.1927 210.314 93.2705C210.54 93.3448 210.733 93.465 210.892 93.6312C211.055 93.7975 211.179 94.0132 211.263 94.2785C211.348 94.5402 211.391 94.8602 211.391 95.2387V99H210.404V95.2281C210.404 94.9274 210.36 94.6869 210.271 94.5066C210.183 94.3227 210.054 94.19 209.884 94.1087C209.714 94.0238 209.506 93.9814 209.258 93.9814C209.014 93.9814 208.791 94.0326 208.59 94.1352C208.392 94.2378 208.22 94.3792 208.075 94.5596C207.934 94.74 207.822 94.9469 207.741 95.1803C207.663 95.4102 207.624 95.6542 207.624 95.9124ZM216.224 97.4774C216.224 97.336 216.192 97.2051 216.128 97.0849C216.068 96.9611 215.943 96.8497 215.752 96.7506C215.564 96.6481 215.281 96.5596 214.903 96.4854C214.584 96.4182 214.296 96.3386 214.038 96.2466C213.783 96.1547 213.566 96.0433 213.385 95.9124C213.209 95.7816 213.072 95.6277 212.977 95.4509C212.881 95.274 212.834 95.0671 212.834 94.8302C212.834 94.6038 212.883 94.3899 212.982 94.1883C213.085 93.9867 213.228 93.8081 213.412 93.6524C213.599 93.4968 213.824 93.3748 214.086 93.2864C214.347 93.198 214.639 93.1538 214.961 93.1538C215.421 93.1538 215.813 93.2351 216.139 93.3978C216.464 93.5605 216.714 93.778 216.887 94.0503C217.06 94.3191 217.147 94.618 217.147 94.9469H216.165C216.165 94.7877 216.118 94.6339 216.022 94.4854C215.93 94.3333 215.794 94.2077 215.614 94.1087C215.437 94.0097 215.219 93.9601 214.961 93.9601C214.689 93.9601 214.468 94.0026 214.298 94.0875C214.132 94.1688 214.01 94.2731 213.932 94.4005C213.858 94.5278 213.82 94.6622 213.82 94.8037C213.82 94.9098 213.838 95.0053 213.874 95.0901C213.912 95.1715 213.98 95.2475 214.075 95.3183C214.171 95.3855 214.305 95.4491 214.478 95.5092C214.652 95.5694 214.873 95.6295 215.141 95.6896C215.612 95.7957 215.999 95.923 216.303 96.0716C216.607 96.2201 216.834 96.4023 216.982 96.618C217.131 96.8337 217.205 97.0955 217.205 97.4032C217.205 97.6543 217.152 97.8842 217.046 98.0928C216.943 98.3015 216.793 98.4819 216.595 98.6339C216.401 98.7825 216.167 98.8992 215.895 98.9841C215.626 99.0654 215.324 99.1061 214.988 99.1061C214.482 99.1061 214.054 99.0159 213.704 98.8355C213.354 98.6552 213.088 98.4217 212.908 98.1353C212.728 97.8488 212.637 97.5464 212.637 97.2281H213.624C213.638 97.4969 213.716 97.7109 213.858 97.87C213.999 98.0256 214.172 98.137 214.378 98.2042C214.583 98.2679 214.786 98.2997 214.988 98.2997C215.256 98.2997 215.481 98.2644 215.661 98.1936C215.845 98.1229 215.985 98.0256 216.08 97.9018C216.176 97.7781 216.224 97.6366 216.224 97.4774Z" fill="white"/>
</svg>
