<svg width="269" height="142" viewBox="0 0 269 142" fill="none" xmlns="http://www.w3.org/2000/svg">
<rect width="269" height="142" rx="10" fill="#D9D9D9"/>
<path d="M100.617 81.6562C100.617 80.9271 100.865 80.3151 101.359 79.8203C101.854 79.3125 102.525 79.0586 103.371 79.0586C104.23 79.0586 104.901 79.3125 105.383 79.8203C105.878 80.3151 106.125 80.9271 106.125 81.6562C106.125 82.3854 105.878 82.9974 105.383 83.4922C104.901 83.987 104.23 84.2344 103.371 84.2344C102.525 84.2344 101.854 83.987 101.359 83.4922C100.865 82.9974 100.617 82.3854 100.617 81.6562ZM122.824 73.3945H115.422V69.5078H122.824C124.113 69.5078 125.155 69.2995 125.949 68.8828C126.743 68.4661 127.323 67.8932 127.688 67.1641C128.065 66.4219 128.254 65.5755 128.254 64.625C128.254 63.7266 128.065 62.8867 127.688 62.1055C127.323 61.3112 126.743 60.6732 125.949 60.1914C125.155 59.7096 124.113 59.4688 122.824 59.4688H116.926V84H112.023V55.5625H122.824C125.025 55.5625 126.893 55.9531 128.43 56.7344C129.979 57.5026 131.158 58.5703 131.965 59.9375C132.772 61.2917 133.176 62.8411 133.176 64.5859C133.176 66.4219 132.772 67.9974 131.965 69.3125C131.158 70.6276 129.979 71.6367 128.43 72.3398C126.893 73.043 125.025 73.3945 122.824 73.3945ZM149.719 79.625V54H154.445V84H150.168L149.719 79.625ZM135.969 73.668V73.2578C135.969 71.6562 136.158 70.1979 136.535 68.8828C136.913 67.5547 137.46 66.4154 138.176 65.4648C138.892 64.5013 139.764 63.7656 140.793 63.2578C141.822 62.737 142.98 62.4766 144.27 62.4766C145.546 62.4766 146.665 62.724 147.629 63.2188C148.592 63.7135 149.413 64.4232 150.09 65.3477C150.767 66.2591 151.307 67.3529 151.711 68.6289C152.115 69.8919 152.401 71.2982 152.57 72.8477V74.1562C152.401 75.6667 152.115 77.0469 151.711 78.2969C151.307 79.5469 150.767 80.6276 150.09 81.5391C149.413 82.4505 148.586 83.1536 147.609 83.6484C146.646 84.1432 145.52 84.3906 144.23 84.3906C142.954 84.3906 141.802 84.1237 140.773 83.5898C139.758 83.056 138.892 82.3073 138.176 81.3438C137.46 80.3802 136.913 79.2474 136.535 77.9453C136.158 76.6302 135.969 75.2044 135.969 73.668ZM140.676 73.2578V73.668C140.676 74.6315 140.76 75.5299 140.93 76.3633C141.112 77.1966 141.392 77.9323 141.77 78.5703C142.147 79.1953 142.635 79.6901 143.234 80.0547C143.846 80.4062 144.576 80.582 145.422 80.582C146.49 80.582 147.368 80.3477 148.059 79.8789C148.749 79.4102 149.289 78.7786 149.68 77.9844C150.083 77.1771 150.357 76.2786 150.5 75.2891V71.7539C150.422 70.9857 150.259 70.2695 150.012 69.6055C149.777 68.9414 149.458 68.362 149.055 67.8672C148.651 67.3594 148.15 66.9688 147.551 66.6953C146.965 66.4089 146.268 66.2656 145.461 66.2656C144.602 66.2656 143.872 66.4479 143.273 66.8125C142.674 67.1771 142.18 67.6784 141.789 68.3164C141.411 68.9544 141.132 69.6966 140.949 70.543C140.767 71.3893 140.676 72.2943 140.676 73.2578ZM165.734 84H161.027V60.8359C161.027 59.2604 161.32 57.9388 161.906 56.8711C162.505 55.7904 163.358 54.9766 164.465 54.4297C165.572 53.8698 166.88 53.5898 168.391 53.5898C168.859 53.5898 169.322 53.6224 169.777 53.6875C170.233 53.7396 170.676 53.8242 171.105 53.9414L170.988 57.5742C170.728 57.5091 170.441 57.4635 170.129 57.4375C169.829 57.4115 169.504 57.3984 169.152 57.3984C168.436 57.3984 167.818 57.5352 167.297 57.8086C166.789 58.069 166.398 58.4531 166.125 58.9609C165.865 59.4688 165.734 60.0938 165.734 60.8359V84ZM170.09 62.8672V66.3047H157.785V62.8672H170.09Z" fill="#868686"/>
</svg>
